<svg width="50" height="50" viewBox="0 0 50 50" fill="none" xmlns="http://www.w3.org/2000/svg">
<g clip-path="url(#clip0_43_100)">
<path d="M20.586 47.8059C18.4234 47.4764 20.8156 40.3873 18.6086 40.3749L15.2357 40.3571C12.8614 40.3446 10.9676 38.514 10.9213 36.1438L10.827 31.3323C10.7967 29.7813 9.07385 29.8792 7.5663 29.8685C6.72977 29.8632 5.67609 28.9728 6.09614 28.0771C7.03235 26.0791 8.07179 24.1613 9.20912 22.2808C10.3464 20.4003 10.9623 18.4202 11.3307 16.1622C11.8647 12.8874 13.1373 9.89221 15.403 7.45616C18.888 3.70771 23.8858 1.60822 29.035 2.06053C33.1215 2.42024 36.6403 4.59986 39.4863 7.4063C41.3374 9.23156 42.4587 11.3952 43.2222 13.8722C43.8683 15.9681 43.9876 18.0872 44 20.3042C44.0392 26.6614 41.017 30.8889 37.9663 36.1705C37.6833 39.6341 37.8257 42.9908 37.783 46.4703C37.7776 46.9137 37.6869 47.3322 37.4288 47.5851C37.2099 47.8005 36.7435 48.0035 36.3253 48L25.5571 47.9288C23.8734 47.9181 22.2395 48.0587 20.5842 47.8059H20.586ZM24.596 27.3096C25.1157 28.143 25.9594 28.4617 26.8885 28.4635C29.2201 28.4671 29.2219 26.4477 29.7434 25.0089C30.66 23.9387 31.8899 23.3012 32.9168 22.3128C34.3336 20.9506 35.5101 19.1681 35.4193 17.0721C35.2841 13.9309 33.6715 10.8965 30.9857 9.17101C28.6683 7.68053 25.5019 7.50068 23.0173 8.69199C19.2012 10.5226 16.4959 16.4898 19.5643 18.7906C20.4009 19.4174 21.6041 19.4352 22.5848 18.9045C25.1727 17.5031 23.238 15.4891 24.8915 14.1589C26.1552 13.1421 27.7873 13.2881 28.9246 14.4723C30.2239 15.8256 29.6864 17.772 28.2661 18.9312C25.6586 21.0628 22.3712 23.7517 24.5924 27.3096H24.596ZM25.2154 36.735C27.2622 37.6788 29.56 36.3825 30.0869 34.3168C30.3396 33.3249 29.9053 32.5699 29.2628 31.8718C28.0881 30.5986 25.9362 30.1766 24.6512 31.4124C23.8289 32.2031 23.4409 33.3231 23.5423 34.3097C23.6438 35.2962 24.1582 36.2471 25.2172 36.735H25.2154Z" fill="#F4B23D"/>
<path d="M24.596 27.3096C22.3747 23.7534 25.6621 21.0645 28.2696 18.9312C29.6881 17.7702 30.2257 15.8238 28.9281 14.4722C27.7926 13.288 26.1587 13.142 24.895 14.1588C23.2397 15.4908 25.1762 17.5031 22.5883 18.9045C21.6076 19.4352 20.4044 19.4173 19.5679 18.7905C16.4994 16.4898 19.2065 10.5226 23.0208 8.69197C25.5037 7.50066 28.6701 7.68051 30.9892 9.17099C33.6732 10.8965 35.2858 13.9291 35.4228 17.0721C35.5136 19.168 34.3389 20.9506 32.9204 22.3128C31.8916 23.3011 30.6635 23.9404 29.7469 25.0089C29.2254 26.4477 29.2236 28.4688 26.892 28.4635C25.9611 28.4635 25.1192 28.143 24.5995 27.3096H24.596Z" fill="#CF5873"/>
<path d="M25.2153 36.735C24.1581 36.2471 23.6401 35.2695 23.5405 34.3097C23.4408 33.3499 23.8252 32.2031 24.6493 31.4124C25.9344 30.1766 28.0862 30.5986 29.2609 31.8718C29.9035 32.5681 30.3395 33.3249 30.085 34.3168C29.5582 36.3807 27.2604 37.6788 25.2135 36.735H25.2153Z" fill="#CF5873"/>
</g>
<defs>
<clipPath id="clip0_43_100">
<rect width="38" height="46" fill="white" transform="translate(6 2)"/>
</clipPath>
</defs>
</svg>
