<svg width="50" height="50" viewBox="0 0 50 50" fill="none" xmlns="http://www.w3.org/2000/svg">
<g clip-path="url(#clip0_43_69)">
<path d="M32.8224 22.3114L30.4504 27.3813C29.3667 29.6972 30.7674 30.6972 31.5955 31.7855L35.2558 36.6058C35.5046 36.9335 35.658 37.273 35.7278 37.7467C33.9931 41.5499 30.4453 44.3243 26.1835 44.8998C22.4738 45.4024 18.9771 43.966 16.3921 41.3207C15.3271 40.2307 14.6318 38.9658 13.8718 37.7298C14.0047 37.4173 14.2416 37.0048 14.4955 36.6567C15.9644 34.6447 17.2969 32.6175 18.9345 30.7295C19.2702 30.3423 19.882 30.159 20.0677 29.6428C20.4205 28.6665 20.1853 27.5646 19.7013 26.6308L17.2526 21.9124C18.35 20.5304 20.1751 19.5881 22.0597 19.4726C23.9359 19.3589 25.7694 19.3453 27.6336 19.4913C29.733 19.656 31.4524 20.8801 32.819 22.308L32.8224 22.3114Z" fill="#F4B23D"/>
<path d="M16.5676 21.943L10.1842 31.6649C9.67472 32.4409 9.1601 33.1387 8.72387 33.8586C7.9792 33.862 7.19535 34.0029 6.36207 33.8025C4.63247 33.3866 3.35274 31.8772 3.15507 30.0859C2.95229 28.2488 2.89435 26.4168 3.30843 24.6307C3.8418 22.3352 5.62422 20.4539 7.95364 20.1908C9.50091 20.0159 10.9579 20.184 12.5154 20.1279C14.0728 20.0719 15.7172 20.6933 16.5659 21.943H16.5676Z" fill="#F4B23D"/>
<path d="M41.1295 34.3085C41.1534 33.8806 40.7461 33.3679 40.4718 32.9655L34.0748 23.5763C33.7408 23.0856 33.5397 22.5219 32.9757 22.2978C33.8141 21.2247 35.2421 20.5592 36.7059 20.5473L41.1807 20.5099C43.2136 20.493 44.9176 21.7239 45.9281 23.4337C46.8653 25.0212 46.9778 26.7462 46.9965 28.5578C47.0153 30.2812 46.6421 31.7736 45.4186 33.0249C44.2854 34.1828 42.6785 34.7516 41.1278 34.3068L41.1295 34.3085Z" fill="#0176DF"/>
<path d="M29.7023 14.873C27.8227 17.6575 24.1607 18.0718 21.7086 15.9817C20.1221 14.6302 19.403 12.7422 19.5257 10.6742C19.6365 8.82864 20.5413 6.98306 22.2607 5.85059C24.585 4.31911 27.6847 4.91506 29.4211 7.14945C31.1217 9.338 31.304 12.4994 29.7023 14.873Z" fill="#F4B23D"/>
<path d="M17.256 21.9142L19.7047 26.6326C20.1886 27.5664 20.4238 28.6683 20.0711 29.6446C19.8853 30.1607 19.2719 30.3441 18.9379 30.7312C17.3003 32.6192 15.9677 34.6465 14.4988 36.6584C14.2449 37.0065 14.0081 37.4208 13.8752 37.7315C13.398 38.156 12.9533 38.8266 12.2444 38.9692C10.6 39.302 9.17202 38.1271 8.73578 36.5634C8.49381 35.6975 8.25354 34.6414 8.72726 33.8587C9.1635 33.1388 9.67812 32.4409 10.1876 31.665L16.571 21.943C16.7277 22.0025 17.1265 22.0823 17.2594 21.9142H17.256Z" fill="#CF5873"/>
<path d="M41.1296 34.3085C41.0393 35.9317 40.4787 37.3171 39.3336 38.2951C38.4066 39.0846 37.2137 39.1593 36.3327 38.2544C36.1436 38.0591 35.9408 37.8571 35.7278 37.7501C35.6596 37.2764 35.5046 36.9351 35.2558 36.6091L31.5955 31.7889C30.7673 30.6989 29.3683 29.7005 30.4504 27.3846L32.8224 22.3148C32.9059 22.3029 32.9536 22.3012 32.9775 22.3029C33.5415 22.5253 33.7426 23.0907 34.0766 23.5814L40.4736 32.9706C40.7479 33.373 41.1535 33.8841 41.1313 34.3136L41.1296 34.3085Z" fill="#CF5873"/>
<path d="M44.2905 14.1345C44.3655 16.8936 42.2389 18.9921 39.6538 18.9887C36.9512 18.9836 34.9643 16.6762 35.1211 13.9546C35.2642 11.4587 37.2818 9.54861 39.6913 9.52823C42.2218 9.50786 44.2207 11.4893 44.2922 14.1345H44.2905Z" fill="#0176DF"/>
<path d="M10.0342 18.6984C7.45091 18.274 6.01952 15.9003 6.44723 13.4707C6.89539 10.9273 9.29468 9.47561 11.7212 10.0648C14.1478 10.6539 15.4872 13.0853 14.7851 15.5709C14.2023 17.6339 12.3585 19.0804 10.0342 18.6984Z" fill="#F4B23D"/>
</g>
<defs>
<clipPath id="clip0_43_69">
<rect width="44" height="40" fill="white" transform="translate(3 5)"/>
</clipPath>
</defs>
</svg>
