<svg width="50" height="50" viewBox="0 0 50 50" fill="none" xmlns="http://www.w3.org/2000/svg">
<g clip-path="url(#clip0_69_65)">
<path d="M0.253355 45C-0.45846 42.5962 0.518778 40.4446 0.802298 38.168L1.69307 31.0202L8.08131 37.4296C8.41912 37.768 8.8072 38.0326 9.19327 38.0162C10.4822 37.9629 13.2651 32.4456 14.8536 30.8499C16.3376 32.0908 18.3242 37.5527 19.7378 37.6922C20.2425 37.7414 20.6788 37.2594 21.1313 36.8861C23.0877 34.8884 24.6944 32.7266 26.9263 30.7843L28.5148 41.4927L0.253355 45Z" fill="#F4B23D"/>
<path d="M42.6044 24.8774L50.0001 22.3546L46.7386 32.6795C45.1259 32.4642 43.7124 31.9104 42.1802 31.3135L26.0899 25.0374C25.541 24.8241 25.0946 24.5451 24.7166 24.0898C26.8902 20.7856 29.2267 17.7091 31.9654 14.7125C33.0492 16.8066 32.6068 21.081 33.8616 21.645C35.2832 22.2849 38.4924 18.9479 40.5313 18.4269C41.0903 20.3077 40.5072 23.9893 41.3276 24.6764C41.5588 24.8692 42.0997 25.0497 42.6044 24.8774Z" fill="#CF5873"/>
<path d="M18.4047 10.9838C16.9429 11.5068 10.9247 13.244 9.45679 12.4851C12.6781 5.52807 22.7681 1.67829 29.4902 5.51986C28.4064 6.33822 27.3286 6.77304 26.5906 7.83752C26.3252 8.21901 26.0739 9.11736 25.541 9.22196C23.108 9.69985 20.7594 10.1408 18.4047 10.9838Z" fill="#0176DF"/>
<path d="M26.2005 13.2194C24.8331 14.5567 9.5673 23.212 8.89167 20.8164C8.36887 18.9664 8.13562 16.9933 8.59006 15.1453C9.29986 14.6961 10.07 14.8007 10.8441 14.7084C16.2632 14.0562 21.9054 11.5499 25.3318 11.474C25.8888 11.4617 26.2929 12.6882 26.2005 13.2194Z" fill="#0176DF"/>
<path d="M25.3739 27.7221C21.9214 28.8235 18.2316 28.963 14.8475 27.6586C12.8126 26.8751 10.846 23.8949 11.3246 23.1524C11.4151 23.013 11.6664 22.8756 11.9077 22.7853C14.0995 21.969 16.1967 21.1732 18.292 20.0821C20.2042 19.0853 18.4709 23.6447 23.3129 26.4546C24.0026 26.8545 24.6842 27.1335 25.3739 27.7221Z" fill="#0176DF"/>
<path d="M32.3091 12.3887C31.5692 13.7629 29.4538 13.3301 28.6174 12.522C27.5295 11.4719 27.4531 9.82696 28.3781 8.62096C29.114 7.66313 30.1295 7.1073 31.348 6.85913C32.462 8.27229 33.2984 10.5489 32.3091 12.3887Z" fill="#F4B23D"/>
</g>
<defs>
<clipPath id="clip0_69_65">
<rect width="50" height="41" fill="white" transform="translate(0 4)"/>
</clipPath>
</defs>
</svg>
