<svg width="50" height="50" viewBox="0 0 50 50" fill="none" xmlns="http://www.w3.org/2000/svg">
<g clip-path="url(#clip0_62_95)">
<path d="M21.8964 24.603C22.9564 23.7903 21.9412 21.015 20.5155 21.2622C15.8576 22.0674 12.5247 28.457 10.6212 32.3184C9.38583 34.8277 6.4672 36.06 3.9815 34.4195C1.13005 32.5356 5.24674 20.9551 6.78071 17.9476C8.97902 13.6442 12.6665 10.9251 17.3953 9.92886C25.2181 8.27718 32.6566 6.18729 40.0726 3.23598C41.4983 2.66669 42.9614 3.16856 43.7974 4.29965C45.1858 6.1798 49.8735 12.6367 47.1826 14.3596C41.5543 17.9701 37.3331 22.7603 32.455 27.2959C29.5513 30 15.977 37.9214 14.5625 32.5244C14.1706 31.03 15.1821 29.7528 16.201 28.9701L21.8964 24.603Z" fill="#F4B23D"/>
<path d="M28.5773 45.5581C26.2595 45.3596 24.8487 43.221 25.6288 41.251C26.6253 38.7341 28.8124 36.4907 31.3877 35.7978C32.9216 35.3858 34.534 35.8053 35.4409 36.8127C36.2956 37.7603 36.7286 39.4195 36.1762 40.8689C35.064 43.7978 31.9624 45.8502 28.5735 45.5618L28.5773 45.5581Z" fill="#03B5B2"/>
<path d="M14.3012 46.8801C13.1106 47.1535 12.1216 46.955 11.4274 46.3483C10.8899 45.8763 10.3525 44.985 10.3263 43.9513C10.2554 41.0898 12.1962 38.1647 14.9357 37.2546C16.1897 36.8389 17.5184 37.2696 18.3134 37.9288C19.1569 38.6292 19.6197 39.8689 19.4741 41.1984C19.1756 43.9288 17.0892 46.2434 14.3012 46.8838V46.8801Z" fill="#03B5B2"/>
</g>
<defs>
<clipPath id="clip0_62_95">
<rect width="45" height="44" fill="white" transform="translate(3 3)"/>
</clipPath>
</defs>
</svg>
