<svg width="50" height="50" viewBox="0 0 50 50" fill="none" xmlns="http://www.w3.org/2000/svg">
<g clip-path="url(#clip0_57_82)">
<path d="M11.79 24.5978C14.7872 26.9826 18.0283 25.8875 21.4485 26.9619C21.4096 27.1409 21.1734 30.3639 22.9665 30.5715C25.4837 30.8647 29.4799 31.5031 29.6045 28.768L29.6875 26.9644C32.7963 26.378 33.2608 26.7906 36.9742 25.9368C37.6204 25.7889 37.8539 25.2881 38.2665 25.0857C40.1842 24.1411 40.3555 21.9198 40.3295 19.9476C40.7837 20.2616 40.8563 21.0427 40.9186 21.7226L41.5959 29.0145L41.6893 38.3772C41.7178 41.0811 42.2005 43.8733 41.7049 46.4294C41.3338 48.3496 38.757 49.8106 36.9431 49.8781C29.0751 50.1661 21.721 49.8703 13.8478 49.6549C11.8834 49.6004 9.28583 48.5131 8.92253 46.3048C8.48917 43.6813 8.58518 40.8735 8.67082 38.1021L8.95626 29.0067L9.5557 20.7625C9.58425 20.3836 9.75292 20.067 9.98647 19.9476C9.91641 21.8939 10.3005 23.4145 11.7848 24.5952L11.79 24.5978ZM33.279 46.8134C35.3757 46.4034 36.7277 45.0878 37.078 43.1234C37.3764 41.2913 37.3764 39.4696 37.2415 37.5649C37.0988 35.5175 35.547 33.9371 33.4087 33.8359C28.1124 33.5816 22.8757 33.5635 17.556 33.7529C15.2153 33.8359 13.43 35.5071 13.3651 37.814C13.321 39.4074 13.2795 40.9228 13.4326 42.4928C13.6713 44.9347 15.5657 46.7226 18.0594 46.8523C23.1248 47.1144 28.0838 46.9406 33.2738 46.816L33.279 46.8134Z" fill="#CF5873"/>
<path d="M46.0566 28.5266C44.6812 28.1062 42.9244 28.7809 41.5958 29.017L40.9185 21.7251C40.8562 21.0452 40.7836 20.2642 40.3295 19.9502C40.3009 17.7782 40.1011 15.575 38.9074 13.5432C37.4698 11.0961 35.6352 10.8755 33.6318 9.77526C36.1023 6.75211 40.9107 6.38622 43.7964 9.21215C45.2651 10.6498 45.8827 12.5778 46.1993 14.5812C46.7598 18.1129 47.1439 25.301 46.0566 28.5266Z" fill="#0176DF"/>
<path d="M16.2714 9.79866C15.9963 10.1412 15.5267 10.4422 15.0232 10.6524C11.1022 12.2924 10.1291 16.229 9.99417 19.9476C9.75802 20.067 9.58935 20.3836 9.5634 20.7624L8.96396 29.0067C7.39141 28.7913 5.6917 28.2282 4.11914 28.6927C3.25761 25.0935 3.67021 17.0646 4.41756 13.3382C5.08447 10.0063 7.6535 7.77977 11.0425 7.72528C13.0355 7.69154 15.2308 8.21313 16.274 9.79866H16.2714Z" fill="#0176DF"/>
<path d="M8.9614 29.0093L8.67596 38.1047C8.59032 40.8735 8.49431 43.6839 8.92767 46.3074C5.04039 46.5332 1.30882 44.0264 1.0571 39.903C0.901406 37.3677 1.10641 34.9388 1.30363 32.3957C1.43078 30.7583 2.62447 29.1364 4.11918 28.6953C5.69173 28.2308 7.39144 28.7939 8.964 29.0093H8.9614Z" fill="#F4B23D"/>
<path d="M46.0566 28.5265C47.7355 29.0378 48.7657 30.9113 48.9058 32.5981C49.1316 35.3072 49.0667 37.8192 48.9526 40.4868C48.7865 44.4026 45.1743 46.7044 41.7074 46.4293C42.203 43.8732 41.7178 41.081 41.6918 38.3771L41.5984 29.0144C42.927 28.7809 44.6838 28.1062 46.0592 28.524L46.0566 28.5265Z" fill="#F4B23D"/>
<path d="M32.311 9.54954C30.9045 9.52878 29.5421 9.09282 28.1512 8.93712C28.2317 8.02369 28.3796 7.02203 28.0474 6.04113C27.5751 4.65541 26.1842 4.06635 24.77 4.10787C23.2805 4.15199 22.1023 5.08358 22.0504 6.56532L21.9726 8.78662L17.7558 9.56511C17.543 8.44148 17.6753 7.1907 17.8362 5.99702C18.3552 2.10455 21.5159 -0.0907985 25.3123 0.00262068C29.1477 0.0986348 32.4511 2.65209 32.3707 6.61721L32.311 9.54954Z" fill="#F4B23D"/>
<path d="M33.2788 46.8134C28.0888 46.938 23.1273 47.1118 18.0645 46.8497C15.5681 46.72 13.6763 44.9347 13.4376 42.4902C13.2845 40.9228 13.326 39.4048 13.3701 37.8115C13.435 35.5071 15.2204 33.8359 17.561 33.7503C22.8781 33.5583 28.1174 33.5764 33.4137 33.8334C35.552 33.9372 37.1012 35.5149 37.2465 37.5623C37.3789 39.467 37.3789 41.2887 37.083 43.1208C36.7327 45.0878 35.3807 46.4008 33.284 46.8108L33.2788 46.8134ZM29.9001 42.3319C31.9268 42.1035 33.1101 40.0613 32.5885 38.3694C32.4536 37.9282 31.9138 37.814 31.5168 37.8115L20.3999 37.7388C19.7434 37.7336 18.529 37.4014 18.2098 38.2422C17.5325 40.025 19.105 42.1347 21.0616 42.3475C23.9654 42.6666 26.8666 42.6718 29.9027 42.3319H29.9001Z" fill="#F4B23D"/>
<path d="M29.7108 25.41C29.5836 26.0639 29.7082 26.5207 29.6874 26.967L29.6044 28.7705C29.4798 31.503 25.4836 30.8646 22.9664 30.574C21.1733 30.3664 21.4095 27.1435 21.4484 26.9644C21.6119 26.2145 21.4795 25.7603 21.4484 25.2024C21.3731 23.8115 22.1905 22.8306 23.4751 22.8306C25.032 22.8306 26.5761 22.745 28.1097 22.8903C29.4227 23.0123 29.7004 24.3616 29.7082 25.4152L29.7108 25.41Z" fill="#F4B23D"/>
<path d="M40.3295 19.9502C40.3009 17.7782 40.1011 15.5751 38.9074 13.5432C37.4698 11.0961 35.6352 10.8756 33.6319 9.77531C33.2815 9.66113 32.6847 9.55473 32.3084 9.54954C30.9019 9.52878 29.5396 9.09283 28.1487 8.93713C26.0986 8.70618 24.0279 8.84371 21.97 8.78662L17.7532 9.56511C17.2653 9.65594 16.7567 9.79866 16.2663 9.79607C15.9912 10.1386 15.5215 10.4396 15.0181 10.6498C11.0971 12.2898 10.124 16.2264 9.98903 19.945C9.91897 21.8913 10.303 23.4119 11.7874 24.5926C14.7846 26.9774 18.0257 25.8823 21.4459 26.9566C21.6093 26.2067 21.477 25.7526 21.4459 25.1947C21.3706 23.8037 22.188 22.8228 23.4725 22.8228C25.0295 22.8228 26.5735 22.7372 28.1072 22.8825C29.4202 23.0045 29.6979 24.3539 29.7057 25.4074C29.5785 26.0614 29.7031 26.5181 29.6823 26.9644C32.7911 26.378 33.2556 26.7906 36.969 25.9368C37.6151 25.7889 37.8487 25.2881 38.2613 25.0857C40.179 24.1411 40.3503 21.9198 40.3243 19.9476L40.3295 19.9502Z" fill="#0176DF"/>
<path d="M29.9002 42.3319C26.8667 42.6719 23.9629 42.6667 21.0591 42.3475C19.1051 42.1321 17.5326 40.025 18.2073 38.2422C18.5264 37.4015 19.7409 37.7336 20.3974 37.7388L31.5143 37.8115C31.9113 37.8141 32.4511 37.9256 32.586 38.3694C33.1076 40.0639 31.9243 42.1061 29.8976 42.3319H29.9002Z" fill="#CF5873"/>
</g>
<defs>
<clipPath id="clip0_57_82">
<rect width="48.059" height="50" fill="white" transform="translate(1)"/>
</clipPath>
</defs>
</svg>
