<svg width="50" height="50" viewBox="0 0 50 50" fill="none" xmlns="http://www.w3.org/2000/svg">
<g clip-path="url(#clip0_67_11)">
<g clip-path="url(#clip1_67_11)">
<path d="M21.9541 16.5693C22.382 17.3921 22.8056 18.2077 22.7109 19.1926C22.6139 20.2054 22.1616 21.1997 21.3662 21.8895L8.70619 32.8632C7.27016 34.1078 4.9681 34.4131 3.37313 33.1492C2.23938 32.1071 1.63042 30.7055 1.77834 29.146C1.91292 27.7335 2.57205 26.5462 3.6493 25.6367L15.3845 15.7347C17.1479 14.247 20.3869 14.5162 21.9534 16.5696L21.9541 16.5693Z" fill="#0176DF"/>
<path d="M17.9226 34.9555C18.1909 35.4722 18.4524 35.9907 18.6679 36.5682C18.6909 36.6302 18.759 36.6865 18.7905 36.6654C18.9069 36.9487 19.0836 37.2046 19.215 37.4813C19.4878 38.0565 19.7583 38.6345 20.0702 39.1888C20.3472 39.6815 20.6047 40.187 20.856 40.694C20.9083 40.7999 20.969 40.9088 21.0247 41.0185L21.6596 42.2693L21.7573 42.4577C21.8074 42.5545 21.8915 42.6139 21.9773 42.6243C22.0881 42.6374 22.1536 42.5498 22.2335 42.5435C22.558 42.518 22.8651 42.3986 23.1768 42.3148C23.489 42.9557 23.4687 43.6861 22.9073 44.2412C22.427 44.7169 21.8919 45.1526 21.3668 45.6132C20.3326 46.5204 19.3002 47.3635 18.1483 48.119C16.5161 49.1899 14.4994 49.9294 12.9891 48.11C12.3841 47.3818 11.9591 46.5401 11.7586 45.597L11.0522 42.2735C10.7414 40.8113 10.1844 39.4439 9.33375 38.2525L14.9916 33.3845C15.372 33.0577 15.8864 32.9558 16.3475 33.0758C16.7711 33.186 17.1722 33.5109 17.4029 33.9562L17.922 34.9573L17.9226 34.9555Z" fill="#CF5873"/>
<path d="M32.8579 17.023C32.778 16.8645 32.5994 16.7649 32.49 16.6344C31.8021 15.8122 31.1364 14.9704 30.401 14.1953C30.1071 13.8854 29.9088 13.4903 29.5724 13.2178C29.3312 13.0222 29.1101 12.7165 28.9409 12.4711L28.6177 12.002C29.155 11.5322 29.6781 11.0354 30.2721 10.5848C30.726 10.2406 31.3292 10.3938 31.686 10.9125L35.6141 7.5417C35.9048 7.29229 36.335 7.22487 36.6572 7.43801C37.4743 7.97783 38.1145 8.73283 38.544 9.62039C38.7616 10.0699 38.6356 10.4848 38.2857 10.7855L34.4378 14.0907C34.6612 14.404 34.8322 14.6793 34.7937 15.0233C34.7597 15.3194 34.5653 15.5622 34.3124 15.7788L32.8579 17.023Z" fill="#F4B23D"/>
<path d="M43.2749 3.49453C42.2881 4.73802 39.895 5.74158 38.404 6.40508C38.3391 6.43398 38.2513 6.41503 38.2182 6.39272C38.1852 6.37042 38.1236 6.29669 38.1287 6.22393C38.2531 4.48277 38.7488 1.89142 40.0032 0.673485C40.8137 -0.113634 41.9286 -0.130533 42.8292 0.564462C43.7298 1.25946 44.0179 2.55852 43.2749 3.49453Z" fill="#0176DF"/>
<path d="M42.9926 8.16995C42.493 9.84957 40.2362 8.42916 39.27 7.84314C39.9412 7.08537 40.866 6.68672 41.8182 6.76844C42.5517 6.83121 43.1051 7.40585 42.9929 8.17058L42.9926 8.16995Z" fill="#0176DF"/>
<path d="M32.8578 17.023L32.8857 17.0794C32.8053 17.3109 32.3468 16.5742 32.49 16.6344C32.5994 16.7649 32.7779 16.8645 32.8578 17.023Z" fill="#03B5B2"/>
<path d="M29.5723 13.2179C29.4773 13.3721 29.8888 13.9198 29.543 13.9669C29.1077 13.539 28.9587 13.7041 28.7855 13.3937C28.7324 13.2984 28.8668 13.2147 28.9047 13.1052C28.9798 12.8906 28.8941 12.6678 28.9402 12.4715C29.1094 12.7169 29.3305 13.0226 29.5717 13.2182L29.5723 13.2179Z" fill="#03B5B2"/>
<path d="M20.071 39.1886C19.7591 38.6343 19.4886 38.0563 19.2158 37.4811C19.266 37.364 20.1625 39.2058 20.071 39.1886Z" fill="#03B5B2"/>
<path d="M21.0248 41.0186C20.969 40.9089 20.9084 40.8 20.856 40.6941C20.9389 40.6477 20.9866 40.7519 21.0102 40.8136C21.0338 40.8753 21.0879 40.9708 21.0245 41.0195L21.0248 41.0186Z" fill="#03B5B2"/>
<path d="M21.7574 42.4577L21.6597 42.2693C21.707 42.2373 21.7387 42.3029 21.7575 42.3393C21.7753 42.3739 21.8119 42.4387 21.7574 42.4577Z" fill="#03B5B2"/>
<path d="M21.4996 29.9546C22.8026 32.0445 23.5856 31.2772 23.7757 31.9454C23.8069 32.0547 23.7552 32.2364 23.621 32.3469C22.1652 33.5421 20.9321 35.2466 19.0596 33.9234C18.8092 33.4136 18.5022 32.9247 18.2811 32.3618C19.1138 31.529 20.2252 30.7193 21.0182 29.9061C21.0898 29.8708 21.1729 29.8202 21.2647 29.812C21.3427 29.805 21.4466 29.8704 21.5002 29.9559L21.4996 29.9546Z" fill="#F4B23D"/>
<path d="M32.4894 16.6347C31.8015 15.8125 31.1358 14.9707 30.4004 14.1956C30.1064 13.8857 29.9081 13.4906 29.5718 13.2181C29.4768 13.3724 29.8883 13.9201 29.5424 13.9672C29.1072 13.5393 28.9582 13.7044 28.785 13.394C28.7318 13.2987 28.8666 13.2156 28.9042 13.1054C28.9793 12.8908 28.8936 12.6681 28.9396 12.4718L28.6165 12.0027C28.1122 11.7399 27.5467 11.7984 27.0852 12.1921L21.9536 16.5696C22.3816 17.3924 22.8052 18.208 22.7104 19.1928C22.6135 20.2056 22.1606 21.2003 21.3658 21.8897L8.70575 32.8635C7.26973 34.108 4.96767 34.4134 3.3727 33.1495C2.46604 34.0315 2.00236 35.2847 2.65314 36.5923C2.99278 37.275 3.4563 37.8648 4.15193 38.1775C4.96668 38.5433 5.8774 38.5334 6.69863 38.1962C7.37049 37.9202 8.0388 37.7556 8.76323 37.931C8.9736 37.9824 9.20897 38.0768 9.33418 38.2516L14.9921 33.3837C15.3724 33.0568 15.8868 32.9549 16.348 33.0749C16.7715 33.1851 17.1726 33.51 17.4033 33.9554L17.9224 34.9564C18.1907 35.4732 18.4523 35.9916 18.6677 36.5692C18.6907 36.6312 18.7589 36.6875 18.7903 36.6664C18.7431 36.5509 18.6813 36.4457 18.6318 36.3195C18.6813 36.4457 18.7425 36.5512 18.7903 36.6664C18.9067 36.9497 19.0834 37.2056 19.2148 37.4823C19.265 37.3651 20.1615 39.2069 20.0701 39.1898C20.3471 39.6825 20.6045 40.188 20.8558 40.695C20.9386 40.6485 20.9863 40.7528 21.01 40.8145C21.0349 40.8771 21.0877 40.9717 21.0242 41.0204L21.6591 42.2712C21.7064 42.2391 21.7381 42.3048 21.7569 42.3412C21.7747 42.3758 21.8113 42.4406 21.7568 42.4596C21.8069 42.5564 21.891 42.6158 21.9769 42.6262C22.0873 42.6387 22.1532 42.5517 22.233 42.5454C22.5576 42.5199 22.8646 42.4005 23.1763 42.3167L21.1689 38.1915L26.3751 33.7417C26.7683 33.4054 27.0844 33.0409 27.3841 32.6403C28.5837 31.096 28.5692 29.126 27.8773 27.2872L27.1972 25.4782L30.1834 22.9136C30.8262 22.3616 30.8163 21.4221 30.4261 20.6572L32.7185 18.6675C33.2042 18.246 33.1564 17.6179 32.8858 17.0826C32.8047 17.3144 32.3463 16.5776 32.4894 16.6378L32.4894 16.6347ZM21.5744 41.5146C21.5484 41.462 21.5224 41.4094 21.4982 41.3558C21.4239 41.1961 21.3559 41.0325 21.2932 40.867C21.3556 41.0334 21.4239 41.1961 21.4982 41.3558C21.523 41.4091 21.5484 41.462 21.5744 41.5146ZM20.5469 39.4031C20.5225 39.3568 20.4987 39.3101 20.4743 39.2638C20.4624 39.2397 20.4498 39.2159 20.437 39.1915C20.4489 39.2156 20.4624 39.2397 20.4743 39.2638C20.4981 39.3104 20.5225 39.3568 20.5469 39.4031ZM20.0929 38.6231C20.0751 38.5932 20.0595 38.5631 20.0438 38.5314C20.0591 38.5624 20.0757 38.5929 20.0929 38.6231C20.1101 38.6532 20.1288 38.6819 20.1472 38.7114C20.1282 38.6822 20.1101 38.6532 20.0929 38.6231ZM21.175 40.5309C21.144 40.4358 21.1151 40.3388 21.0872 40.2422C21.1151 40.3388 21.1437 40.4352 21.175 40.5309ZM21.0531 40.1178C21.0438 40.0837 21.0346 40.0496 21.0257 40.0162C21.0349 40.0503 21.0438 40.0837 21.0531 40.1178ZM19.8134 37.5415C19.8214 37.5115 19.8343 37.4822 19.8528 37.4534C19.834 37.4816 19.8217 37.5106 19.8134 37.5415ZM20.2058 36.643C20.1973 36.6275 20.1877 36.6141 20.1768 36.6013C20.1874 36.6135 20.1967 36.6278 20.2058 36.643ZM23.1896 27.9612C23.2194 27.9584 23.2483 27.9567 23.2759 27.9557C23.2483 27.9567 23.2188 27.9587 23.1896 27.9612C23.1642 27.9636 23.1377 27.9656 23.1107 27.9679C23.1371 27.9659 23.1635 27.9639 23.1896 27.9612ZM21.0757 29.4927C21.0911 29.4962 21.1062 29.5005 21.121 29.5058C21.1065 29.5012 21.0914 29.4968 21.0757 29.4927ZM20.9503 29.3314C20.9289 29.3759 20.9168 29.4237 20.9145 29.4746C20.9162 29.424 20.9292 29.3765 20.9503 29.3314ZM25.2082 29.0765C25.7199 30.1491 25.5515 31.3637 24.8021 32.2358C24.3991 32.7048 23.9593 33.0807 23.4872 33.4868L20.2255 36.2948L19.0602 33.9231C18.8098 33.4133 18.5028 32.9244 18.2817 32.3615C19.1144 31.5287 20.2258 30.7191 21.0188 29.9058C21.0124 29.8806 21.0153 29.8602 21.0247 29.8422C21.0364 29.8183 21.0593 29.7999 21.0862 29.7834C21.0593 29.7999 21.0367 29.8189 21.0247 29.8422C21.0159 29.8599 21.0127 29.8812 21.0188 29.9058C21.0904 29.8705 21.1735 29.8199 21.2653 29.8117C21.3433 29.8047 21.4472 29.8701 21.5008 29.9556C21.6457 29.873 21.736 29.7108 21.8691 29.6166C22.1148 29.4439 22.3353 29.2387 22.5549 29.0315C22.5917 28.9968 22.6404 28.9735 22.6657 28.9263C22.6394 28.8761 22.5962 28.8226 22.6274 28.7732C22.6501 28.7375 22.6983 28.7366 22.725 28.766C22.7421 28.7852 22.7599 28.8119 22.7814 28.8478C23.0832 28.6592 23.3128 28.3722 23.5882 28.1517L24.4414 27.4696L25.2085 29.0772L25.2082 29.0765Z" fill="#03B5B2"/>
<path d="M22.7812 28.8472L22.6655 28.9256C22.6392 28.8755 22.5959 28.8219 22.6271 28.7726C22.6498 28.7369 22.6981 28.736 22.7248 28.7654C22.7419 28.7845 22.7596 28.8113 22.7812 28.8472Z" fill="#03B5B2"/>
</g>
</g>
<defs>
<clipPath id="clip0_67_11">
<rect width="50" height="50" fill="white"/>
</clipPath>
<clipPath id="clip1_67_11">
<rect width="52.2194" height="33.0368" fill="white" transform="translate(-4.33154 22.4589) rotate(-26.2983)"/>
</clipPath>
</defs>
</svg>
