<svg width="36" height="36" viewBox="0 0 36 36" fill="none" xmlns="http://www.w3.org/2000/svg">
<path d="M29.0268 18.8445H31.2928C31.6133 18.8445 32.081 19.6408 32.0672 19.9625C31.9431 22.0504 32.2304 24.3244 32.0684 26.3904C31.9477 27.9244 30.9457 28.6609 29.4841 28.8275C29.5485 29.5365 29.5933 30.3788 29.5416 31.0924C29.3554 33.649 27.0332 35.7656 24.5248 36L8.9768 35.9966C6.69706 35.7047 4.66322 34.0397 4.14614 31.7623C3.8922 30.6431 4.03928 29.471 4.0726 28.3403C4.18291 24.6794 4.41617 21.0358 4.64369 17.3794C4.79422 14.9503 4.75285 12.1926 5.2366 9.82435C5.89157 6.61272 8.616 4.50074 11.8196 4.18705C12.6078 -0.865383 19.6953 -1.58125 21.4395 3.33674C21.5384 3.61481 21.5659 3.91357 21.6797 4.18705C24.9775 4.41686 27.7444 6.73337 28.3787 9.99556C28.6189 11.2308 28.6005 12.4143 28.6832 13.6496C28.7706 14.9687 28.8912 16.2901 28.9693 17.6092C28.9935 18.0195 28.9142 18.4446 29.0268 18.8422V18.8445ZM13.1353 4.04112H20.364C19.4333 0.336537 14.0568 0.3825 13.1353 4.04112ZM13.2961 5.32117C10.7038 5.44642 8.40342 6.0876 7.06476 8.49833C6.02831 10.3656 7.44395 12.5947 9.0446 13.6128C11.2175 14.994 13.226 15.5823 15.8011 15.6352C19.046 15.7007 21.2867 15.5421 24.1525 13.9414C25.7727 13.036 26.7666 11.5813 26.8976 9.68761C26.9321 9.19236 26.5862 8.63162 26.3208 8.21451C24.9603 6.07381 22.8207 5.41999 20.3927 5.30738C18.1877 5.20397 15.5035 5.21661 13.2961 5.32347V5.32117ZM27.3067 12.5338C26.6436 13.9322 25.4027 14.74 24.056 15.3939C22.3507 16.2212 20.7053 16.8152 18.7887 16.8957C17.481 16.9508 15.8413 16.9646 14.5383 16.8957C12.2712 16.7762 8.37699 15.1606 6.88321 13.4209C6.59824 13.09 6.39716 12.7073 6.13632 12.3615C6.12253 12.6763 6.15241 12.9958 6.13862 13.3106C5.9134 18.3378 5.46412 23.3615 5.27337 28.3955C5.1849 30.743 5.00334 32.5609 7.18427 34.0052C8.21497 34.6878 8.83202 34.674 10.011 34.7349C14.7888 34.9854 19.6688 34.5878 24.465 34.736C25.7853 34.6177 27.2929 33.5973 27.8708 32.4046C28.4753 31.1601 28.3236 29.9065 28.2834 28.5667C28.1374 23.7131 27.6548 18.8502 27.4181 13.9989C27.3963 13.5542 27.4687 13.0325 27.4066 12.6028C27.394 12.5143 27.4112 12.4431 27.3067 12.5338ZM30.8055 20.1636H29.1417L29.4853 27.451C29.8806 27.4567 30.3367 27.3579 30.5895 27.035C30.6389 26.973 30.8044 26.6708 30.8044 26.6191V20.1648L30.8055 20.1636Z" fill="white"/>
<path d="M14.1001 18.9174C16.489 18.8232 21.2944 18.6186 23.388 19.5781C26.0251 20.7881 25.7045 24.1111 25.6987 26.5C25.6907 29.7726 26.1158 32.2948 21.9999 32.5545C21.3461 32.5958 20.6934 32.4993 20.0522 32.4947C17.8908 32.4798 15.7249 32.4775 13.5646 32.4947C11.679 32.5096 9.46821 32.9049 8.40992 30.8849C7.68831 29.5071 7.86297 25.3464 7.97443 23.6917C8.23297 19.8355 10.6828 19.0518 14.1001 18.9174ZM24.4382 24.8684C24.46 23.4918 24.3888 21.5556 22.9973 20.8294C21.176 19.8791 16.9325 20.1526 14.8309 20.2227C13.2659 20.2744 11.1608 20.1607 10.037 21.4522C9.22921 22.3807 9.26138 23.7136 9.1775 24.8672C10.5058 24.881 11.8376 24.8488 13.167 24.8649C13.3026 24.8661 13.4279 24.9258 13.5635 24.927C17.1888 24.9637 20.8129 24.8247 24.4382 24.8672V24.8684ZM24.4957 26.13H9.43604C9.39352 26.13 9.3016 26.1818 9.23265 26.1588C9.17175 26.2001 9.18094 26.2656 9.1752 26.3277C9.09132 27.1711 9.18209 29.329 9.47855 30.1047C9.77501 30.8803 10.5173 31.1802 11.3274 31.2388C13.5933 31.4008 16.1856 31.1641 18.5033 31.1767C19.8259 31.1836 22.1389 31.4789 23.3362 31.0239C24.5336 30.5689 24.3796 29.514 24.4393 28.4546C24.4451 28.3431 24.4934 28.234 24.498 28.1122C24.5244 27.4538 24.4738 26.7885 24.4957 26.13Z" fill="white"/>
</svg>
