<svg width="50" height="50" viewBox="0 0 50 50" fill="none" xmlns="http://www.w3.org/2000/svg">
<path d="M19.1882 26.0353L22.697 27.5742C28.8237 30.2616 28.8323 38.3218 28.1027 43.929L5.80883 43.9538C4.73079 43.9538 3.96517 42.9279 4.00122 41.8806L4.16945 36.9923C4.27588 33.8879 5.57194 30.9502 7.55979 28.6215C10.5622 25.1017 15.1971 25.5223 19.1882 26.0353Z" fill="#F4B23D"/>
<path d="M28.1027 43.929C28.8323 38.3218 28.8237 30.2616 22.697 27.5742L19.1882 26.0353C20.8345 25.2792 22.7348 24.9348 24.6694 24.9046C28.7207 24.839 32.6415 24.8904 36.6773 25.0555C39.2522 25.1602 41.4632 26.3459 43.1592 28.254C44.9308 30.2474 45.7977 32.743 45.9299 35.4818C46.0415 37.8088 45.9934 40.0737 45.9642 42.4025C45.9522 43.3965 45.1523 44.0035 44.2253 44L28.101 43.929H28.1027Z" fill="#CF5873"/>
<path d="M24.4926 17.8721C24.4531 17.0841 24.2952 16.1522 24.3622 15.2434L24.4995 12.7371C24.6797 12.501 24.7467 12.1815 24.8565 11.8336C25.732 9.0753 27.8057 6.90627 30.5128 6.24065C34.4851 5.26263 38.2857 7.32872 39.6419 11.2923C40.6959 14.3719 40.1706 17.8171 38.2737 20.3997C36.7648 22.4534 34.6259 23.2646 32.2175 23.3391C28.5696 23.4527 25.7561 21.2677 24.4909 17.8757L24.4926 17.8721Z" fill="#CF5873"/>
<path d="M24.5012 12.7371L24.3638 15.2434C24.2969 16.1539 24.4548 17.084 24.4943 17.8721C23.878 20.579 22.2335 23.1048 19.559 23.7278C18.1548 24.0544 16.2476 24.0846 14.8571 23.7154C12.0899 22.9805 10.3252 20.2488 9.73986 17.723C9.04634 14.7357 9.86174 11.6242 11.956 9.5634C13.9456 7.60559 16.6991 7.08552 19.4388 7.87539C21.6447 8.51083 23.4763 10.4047 24.5046 12.7371H24.5012Z" fill="#F4B23D"/>
</svg>
