<svg width="50" height="50" viewBox="0 0 50 50" fill="none" xmlns="http://www.w3.org/2000/svg">
<g clip-path="url(#clip0_68_32)">
<path d="M49.9999 28.3158H1.37455C1.25358 26.5236 1.68446 24.7285 1.28557 23.0289L0.0209241 17.6335C-0.10604 16.8459 0.346833 16.0126 1.14561 15.8005L8.22563 13.9237L6.06023 22.2344L11.7946 20.7369L13.988 12.4252L21.5239 10.4469L19.3615 18.7516L25.1229 17.2452L27.2903 8.9305L35.0501 6.87847L32.8787 15.1872L38.6161 13.6907L40.7825 5.384L45.9111 4.05381C46.7478 3.83676 47.4836 4.29675 47.7866 5.09227L49.2012 11.0512C49.2221 11.4843 49.0902 11.9603 48.6013 12.0887L9.56725 22.3738L49.1542 22.3897C49.664 22.3897 49.9959 22.784 49.9969 23.1982L49.9999 28.3158Z" fill="#0176DF"/>
<path d="M33.5546 30.33V30.3021L25.7158 30.3161L17.877 30.3021V30.33L1.43164 30.3589L1.46363 47.3934C1.46863 48.9536 2.91323 49.9911 4.41181 49.9911L17.873 49.9951V50.0001L25.7158 49.9981L33.5586 50.0001V49.9951L47.0199 49.9911C48.5175 49.9911 49.9631 48.9536 49.9681 47.3934L50 30.3589L33.5546 30.33Z" fill="#CF5873"/>
</g>
<defs>
<clipPath id="clip0_68_32">
<rect width="50" height="46" fill="white" transform="translate(0 4)"/>
</clipPath>
</defs>
</svg>
