<svg width="50" height="50" viewBox="0 0 50 50" fill="none" xmlns="http://www.w3.org/2000/svg">
<g clip-path="url(#clip0_57_27)">
<path d="M5.12783 40.4846C6.17274 44.7392 9.16851 47.585 13.3287 48.7911C19.4925 50.5807 26.1816 50.3668 32.2566 48.2408C36.8642 46.6262 40.2156 43.4025 42.1832 39.0589C43.0252 37.2026 43.3782 35.4851 43.1392 33.4231C43.0086 32.3115 46.7852 30.2662 45.2873 27.5288C44.4703 26.0365 42.1415 25.7113 40.8381 26.7702C40.0906 27.376 39.6432 28.6905 39.243 29.5464C38.8317 30.4218 38.2314 30.5496 37.7673 31.0137C34.8077 33.9789 31.2172 36.3911 27.1154 37.814C23.2942 39.1395 19.3897 38.8394 15.5519 38.4865L9.43808 37.9279C6.98421 37.336 4.39417 39.3785 5.13061 40.4874L5.12783 40.4846Z" fill="#F4B23D"/>
<path d="M40.3435 13.9951C40.3212 14.098 40.3601 14.2174 40.3435 14.3203C40.3101 14.5843 40.1434 15.0428 40.4824 15.154L40.8354 26.7702C40.0878 27.3761 39.6404 28.6905 39.2402 29.5465C38.8289 30.4219 38.2286 30.5497 37.7645 31.0138L15.2907 31.8892C14.771 26.0672 14.1568 20.1701 14.1624 14.3397L34.1852 14.2536C36.2444 14.2452 38.2898 13.8173 40.3435 13.9951ZM25.2729 17.9024C23.9334 17.8052 22.63 20.876 22.2299 22.1071C21.5768 24.108 22.7217 26.6563 24.9672 27.1232C25.3785 27.4317 25.9454 27.3955 26.3567 27.1037C27.1821 27.1871 28.0519 26.773 28.5771 25.9977C30.7642 22.7713 27.4655 18.3082 26.3345 17.7357C25.9649 17.5495 25.5202 17.5189 25.2701 17.9024H25.2729Z" fill="#0176DF"/>
<path d="M34.1851 14.2535L14.1624 14.3396C14.1624 13.5671 14.3485 12.9196 14.6487 12.0886L17.4416 4.36577L28.302 4.06286C31.4061 3.97671 34.3213 3.79051 37.4394 3.81552L34.1851 14.2535Z" fill="#03B5B2"/>
<path d="M37.7646 31.0137C34.805 33.9789 31.2145 36.3911 27.1127 37.8139C23.2915 39.1395 19.387 38.8394 15.5492 38.4864C15.2046 36.3105 15.4825 34.0484 15.2908 31.8891L37.7646 31.0137Z" fill="#03B5B2"/>
<path d="M40.3435 13.9952C38.2898 13.8173 36.2444 14.2453 34.1852 14.2536L37.4394 3.81566C34.3214 3.79065 31.4062 3.97685 28.302 4.063L17.4417 4.36591C17.6723 3.36824 17.2638 1.99819 18.117 0.986629L33.8628 0.0945658C34.7549 0.0445435 36.0833 -0.191673 36.7697 0.350235C37.6284 1.02831 37.3727 2.51787 37.6506 3.51831L40.2712 12.878C40.3907 13.3032 40.413 13.6728 40.3407 13.9924L40.3435 13.9952Z" fill="#CF5873"/>
<path d="M40.4823 15.1511C40.1432 15.0427 40.31 14.5814 40.3433 14.3174C40.6601 14.4452 40.4739 14.8871 40.4823 15.1511Z" fill="#03B5B2"/>
<path d="M25.273 17.9024L25.2869 26.2811C25.2869 26.6813 25.2869 27.0287 24.9673 27.1232C22.7219 26.6563 21.5741 24.1079 22.23 22.1071C22.6329 20.8759 23.9335 17.8051 25.273 17.9024Z" fill="#03B5B2"/>
<path d="M26.3598 27.1036L26.3403 17.7356C27.4714 18.3081 30.7701 22.7712 28.583 25.9976C28.055 26.7729 27.1879 27.1898 26.3626 27.1036H26.3598Z" fill="#03B5B2"/>
<path d="M26.3373 17.7357L26.3568 27.1038C25.9455 27.3956 25.3758 27.4289 24.9673 27.1232C25.2869 27.0287 25.2869 26.6814 25.2869 26.2812L25.273 17.9025C25.5259 17.519 25.9677 17.5468 26.3373 17.7357Z" fill="#03B5B2"/>
</g>
<defs>
<clipPath id="clip0_57_27">
<rect width="40.6375" height="50" fill="white" transform="translate(5)"/>
</clipPath>
</defs>
</svg>
