<svg width="50" height="50" viewBox="0 0 50 50" fill="none" xmlns="http://www.w3.org/2000/svg">
<path d="M24.6824 9.66439C23.8724 10.2144 22.1824 12.3644 21.4824 13.2344C20.0324 15.0244 15.6624 20.0244 18.8124 21.8644C21.1624 23.2444 24.7424 20.2444 26.4324 18.7544C26.7924 18.4444 27.6824 17.2844 28.0724 17.3844C31.4124 20.4044 34.7924 23.3944 38.2124 26.3244C39.3224 27.2744 41.0224 28.3344 42.0024 29.3044C42.7524 30.0644 43.4424 31.5044 43.4624 32.5744C43.5324 35.2644 40.7224 36.5744 38.4724 35.4044C38.3024 35.3144 38.4424 35.0644 38.2224 35.1244C38.3424 35.5844 38.6924 35.8044 38.8724 36.2944C39.9824 39.3144 36.6724 41.5444 34.1524 39.7844C35.1424 43.7744 30.5624 44.9244 27.8424 42.8144C27.6324 42.6544 27.4524 42.5644 27.4524 42.2544C27.6424 41.8744 28.0424 40.2944 28.0224 39.8744C27.8924 37.2444 24.8624 36.4744 23.0824 38.0344C24.1024 35.0244 20.8424 32.7444 18.2824 34.3944C18.6824 31.4344 15.3424 29.6644 13.0424 31.4844C13.7924 28.0444 9.89242 25.8144 7.80242 28.8644C6.13242 27.6544 4.22242 26.4044 2.70242 25.0144C2.11242 24.4744 1.27242 23.7544 1.14242 22.9444C0.782418 20.7844 1.21242 18.0444 1.26242 15.8544C1.32242 13.0244 1.18242 9.91439 1.39242 7.11439C1.47242 5.98439 1.77242 4.44439 3.10242 4.17439C6.72242 3.43439 11.3224 8.51439 14.9924 8.80439C18.1724 9.05439 21.6624 8.23439 24.6724 9.67439L24.6824 9.66439Z" fill="#F4B23D"/>
<path d="M42.0025 29.3143C41.0325 28.3343 39.3325 27.2843 38.2125 26.3343C34.7925 23.4043 31.4125 20.4143 28.0725 17.3943C27.6825 17.2943 26.7825 18.4543 26.4325 18.7643C24.7425 20.2543 21.1625 23.2443 18.8125 21.8743C15.6625 20.0243 20.0425 15.0343 21.4825 13.2443C22.1825 12.3743 23.8725 10.2243 24.6825 9.67433C26.0825 8.73433 28.1125 8.85433 29.7125 8.80433C32.9625 8.70433 34.8825 9.27433 37.9325 7.71433C39.9025 6.70433 44.0225 3.87433 46.1325 4.00433C47.3225 4.08433 48.3225 4.95433 48.5225 6.14433C49.0025 9.03433 48.4125 12.2343 48.8525 15.1243C48.4225 17.5543 49.7225 21.9443 48.3825 23.9843C47.7325 24.9743 44.6125 27.4343 43.5325 28.2943C43.0525 28.6743 42.5525 29.0443 42.0125 29.3143H42.0025Z" fill="#CF5873"/>
<path d="M7.80238 28.8744C9.89238 25.8244 13.7924 28.0544 13.0424 31.4944C15.3424 29.6744 18.6824 31.4444 18.2824 34.4044C20.8524 32.7544 24.1024 35.0244 23.0824 38.0444C24.8624 36.4844 27.8924 37.2544 28.0224 39.8844C28.0424 40.3044 27.6424 41.8844 27.4524 42.2644C27.1424 42.8844 25.6924 44.5044 25.1124 44.9444C22.9824 46.5244 20.3024 45.3544 20.1724 42.7044C17.9824 43.9244 15.4524 42.4344 15.5124 39.9344C13.6224 41.4244 10.1424 39.4344 10.8524 37.0244C9.04238 38.2144 6.43238 36.8844 6.19238 34.7644C6.00238 33.0344 6.81238 30.3044 7.79238 28.8744H7.80238Z" fill="#CF5873"/>
</svg>
