<svg width="50" height="50" viewBox="0 0 50 50" fill="none" xmlns="http://www.w3.org/2000/svg">
<path d="M37.0267 33.4508C36.3967 33.8808 35.2167 34.3209 34.4567 34.4908C32.9067 34.8308 30.9868 34.5209 29.8068 35.7108C29.6368 35.8209 29.5867 35.9508 29.5267 35.9908C28.3467 36.8508 28.2267 37.2308 26.6967 37.6908C25.2667 38.1208 23.9167 38.3509 22.4567 37.8309C20.8767 37.2709 19.9667 35.7408 18.6367 35.1409C16.6867 34.2709 14.2967 34.8608 12.1267 33.4408C10.5767 32.4308 9.42673 30.2108 9.17673 28.4008C9.04673 27.5008 9.17675 26.2508 8.94675 25.3708C8.76675 24.6708 7.65675 23.9308 7.19675 23.3008C5.53675 21.0408 5.66675 17.8608 7.19675 15.5708C8.00675 14.3608 8.89674 13.9808 9.25674 12.3908C9.77674 10.0808 9.23674 8.85085 10.9367 6.71085C12.8267 4.33085 14.5867 4.46085 17.2767 4.13085C20.8667 3.69085 21.7167 0.020849 26.1367 1.25085C27.7167 1.69085 28.7067 3.11085 30.1967 3.69085C32.7167 4.68085 34.8468 3.66085 37.3068 5.77085C39.4468 7.61085 39.3468 9.31085 39.7468 11.8108C40.2868 15.1908 43.6167 15.5508 43.0867 20.3208C42.8467 22.5108 41.7467 23.0708 40.6967 24.5808C39.9067 25.7108 40.2367 27.5708 39.9567 28.9308C39.6267 30.5208 38.3767 32.5108 37.0267 33.4208V33.4508ZM31.1168 22.0208C32.1868 21.1608 33.3467 20.3208 34.3467 19.3808C35.2767 18.5108 36.1768 17.7308 35.5468 16.3408C34.6668 14.3808 30.2868 15.1808 28.5568 14.4208C27.6168 13.2108 26.5167 8.95085 25.1367 8.51085C24.2767 8.24085 23.5767 8.50085 23.0367 9.19085C22.3467 10.0808 20.8867 14.1808 20.4067 14.4808C17.9867 15.2908 11.6967 14.1108 13.8467 18.5208L18.0667 22.2308C17.7267 24.8308 14.9967 30.6608 20.0067 29.7808L24.6767 27.0808C26.8867 27.6808 30.0367 31.7408 31.9767 28.8808C32.8367 27.2108 31.0168 23.8808 31.1268 22.0208H31.1168Z" fill="#F4B23D"/>
<path d="M14.2568 44.3408C14.2068 44.3208 14.1768 44.1808 13.9468 44.2208C12.7668 44.4608 9.19676 46.4708 8.24676 46.3308C7.57676 46.2308 8.03677 45.4008 8.16677 44.9808C9.18677 41.7008 10.7168 38.0408 11.9668 34.7808C12.0768 34.5008 12.4868 34.3908 12.2668 33.7308C13.9268 34.8008 15.7068 34.7108 17.5368 35.0108C17.6468 35.0308 17.6168 35.2508 17.7068 35.2608C17.7968 35.2708 18.5268 35.2608 18.6268 35.1508C19.9468 35.7508 20.8668 37.2808 22.4468 37.8408C22.1868 38.4108 21.8168 39.1108 21.5968 39.6808L17.9668 48.7408C17.6468 48.9708 17.0868 49.2108 16.7768 48.8108C16.6368 48.6308 16.6968 48.3708 16.6068 48.2108C16.1168 47.4108 15.6468 46.6008 15.2468 45.8008C15.0168 45.3508 14.8068 44.6208 14.3968 44.3508C14.3668 44.3308 14.3068 44.3608 14.2568 44.3508V44.3408Z" fill="#0176DF"/>
<path d="M37.0267 34.0208C37.0267 34.0208 37.0267 34.1208 37.0267 34.1608C37.2267 36.0208 39.0267 39.6708 39.7067 41.4808C39.9467 42.1208 41.5467 46.0408 41.2767 46.3208C40.9767 46.3208 40.6867 46.3508 40.3867 46.2908C38.8467 45.9608 36.8167 44.6708 35.2167 44.2208C34.9967 44.1808 34.9367 44.3408 34.9067 44.3408C34.8567 44.3408 34.7967 44.3308 34.7667 44.3408C34.6967 44.3708 34.5267 44.2708 34.4767 44.4308L32.3267 48.8308C32.0267 49.0108 31.5767 49.1308 31.2967 48.8708L27.1267 38.0508C27.1267 37.8908 28.0367 37.8908 28.0967 37.8208C28.1467 37.7608 28.0967 37.4108 28.2467 37.1908C28.4467 36.9008 28.9567 36.9308 29.0667 36.8108C29.0967 36.7808 29.4867 36.1408 29.5267 36.0008C29.5867 35.9508 29.6367 35.8208 29.8067 35.7208C31.4667 34.7008 34.1967 35.0308 35.9967 34.4008C36.1767 34.3408 36.3267 33.4808 37.0167 34.0208H37.0267Z" fill="#0176DF"/>
<path d="M31.1167 22.0208C31.0067 23.8808 32.8267 27.2108 31.9667 28.8808C30.0267 31.7408 26.8767 27.6808 24.6667 27.0808L19.9967 29.7808C14.9867 30.6608 17.7167 24.8408 18.0567 22.2308L13.8367 18.5208C11.6867 14.1108 17.9767 15.2908 20.3967 14.4808C20.8767 14.1808 22.3367 10.0808 23.0267 9.19082C23.5667 8.49082 24.2667 8.24082 25.1267 8.51082C26.5167 8.95082 27.6067 13.2108 28.5467 14.4208C30.2767 15.1708 34.6567 14.3808 35.5367 16.3408C36.1667 17.7408 35.2667 18.5108 34.3367 19.3808C33.3367 20.3208 32.1767 21.1608 31.1067 22.0208H31.1167Z" fill="#CF5873"/>
</svg>
