<svg width="50" height="50" viewBox="0 0 50 50" fill="none" xmlns="http://www.w3.org/2000/svg">
<g clip-path="url(#clip0_57_67)">
<path d="M30.8564 5.16201C31.1571 7.61398 29.1208 14.1761 32.9632 14.2888C35.2836 14.3546 37.5477 14.1502 39.7366 13.7979L39.9644 16.3556C39.9856 16.5858 40.1829 16.7525 40.2604 16.8089C36.9394 22.7133 33.3883 28.4792 30.5112 34.7313C29.3275 37.303 36.0751 34.4847 38.3016 39.0457L39.7906 36.9977C39.9433 36.9766 40.1053 37.2091 40.0913 37.4604C39.9832 39.3557 40.3707 43.7359 38.9193 44.8351C38.2405 45.3471 37.1696 45.4481 36.2207 45.4434L8.10525 45.3212L2.38164 45.0699C1.45158 45.03 0.83859 44.4029 0.646002 43.4823C0.11756 40.9411 -0.0045685 38.475 0.000128757 35.814L0.04945 12.3958C0.0541473 10.5709 0.251432 8.92452 0.528571 7.17009C0.650699 6.40679 1.14861 5.66932 1.97063 5.59416C3.84719 5.42271 5.58752 5.23482 7.47817 5.19724C15.3343 5.04458 23.1013 4.85904 30.8541 5.16201H30.8564ZM16.3795 14.3968C17.2767 14.4391 17.4575 13.4973 17.3589 13.0158C17.232 12.3981 16.7975 12.0975 16.1 12.0552C14.0849 11.9308 6.21226 11.1628 5.48418 13.0464C5.32917 13.448 5.47948 14.5918 6.17233 14.526C9.56845 14.2113 12.8565 14.2324 16.3795 14.3968ZM22.493 23.1361C25.1187 23.1431 27.4439 23.0656 29.8982 23.3991C30.5863 23.4931 31.1993 23.1948 31.2862 22.5701C31.345 22.1473 31.1265 21.3605 30.4713 21.2337C25.626 20.2989 12.3892 20.6677 6.93798 20.9237C6.224 20.9566 5.82004 21.5625 5.83882 22.1121C5.85527 22.5771 6.3109 23.0962 6.93798 23.0985L22.493 23.1384V23.1361ZM27.1761 31.0791C28.0592 31.1308 28.2636 30.1749 28.1532 29.6864C28.0428 29.1979 27.566 28.8268 26.9319 28.747C22.594 28.195 11.2383 28.0541 6.93798 28.6554C6.20756 28.7587 5.90459 29.2519 5.93512 29.8532C5.9633 30.4239 6.43773 30.8607 7.1611 30.8913C9.16918 30.9735 11.1232 30.9077 13.1478 30.795C17.8145 30.539 22.3661 30.7973 27.1738 31.0768L27.1761 31.0791ZM20.5694 38.5267C21.2623 38.5267 21.1989 37.3453 21.0767 36.9742C20.9382 36.5585 20.351 36.2297 19.7122 36.2039C15.5081 36.0442 11.3745 36.1733 7.13997 36.2767C6.34613 36.2955 5.87171 36.892 5.968 37.5684C6.03611 38.0475 6.48705 38.5384 7.17754 38.5384L20.5694 38.5267ZM34.2502 42.1436C32.6954 41.1971 31.197 40.6639 29.5013 40.4995C29.0997 41.554 28.2025 44.3066 29.2312 44.8139C30.8165 45.596 32.6085 43.3977 34.2502 42.1436Z" fill="#03B5B2"/>
<path d="M48.2034 18.8804C46.1131 23.9488 43.5179 28.8175 41.1011 33.8553C40.5703 34.9615 40.0536 35.9197 39.7882 36.9954L38.2992 39.0434C36.0727 34.4824 29.3251 37.3031 30.5088 34.729C33.3859 28.4746 36.937 22.711 40.258 16.8066C40.4224 16.7314 40.575 16.6351 40.723 16.5341C43.3417 16.4378 46.3714 16.8089 48.201 18.8804H48.2034Z" fill="#F4B23D"/>
<path d="M39.7365 13.798C37.5453 14.1503 35.2812 14.3547 32.9631 14.2889C29.1184 14.1785 31.157 7.61408 30.8564 5.16211C32.9584 5.24431 37.3503 9.17357 38.8675 10.8716C39.6943 11.7993 39.6449 12.7623 39.7365 13.798Z" fill="#0176DF"/>
<path d="M48.2034 18.8804C46.3738 16.8089 43.3441 16.4378 40.7253 16.5341C41.1669 15.1461 41.9466 13.8637 42.8203 12.5908C43.9477 10.9491 47.2545 12.1657 48.6989 12.8115C51.8649 14.2301 48.2644 18.7324 48.2034 18.8804Z" fill="#0176DF"/>
<path d="M22.4929 23.1362L6.93792 23.0963C6.31084 23.0963 5.85755 22.5749 5.83877 22.1098C5.81998 21.5626 6.22159 20.9567 6.93792 20.9214C12.3891 20.6654 25.626 20.2967 30.4712 21.2315C31.1265 21.3583 31.3449 22.1451 31.2862 22.5678C31.1993 23.1926 30.5863 23.4908 29.8981 23.3969C27.4438 23.0657 25.1187 23.1409 22.4929 23.1338V23.1362Z" fill="#0176DF"/>
<path d="M27.176 31.0792C22.366 30.7997 17.8144 30.5414 13.15 30.7974C11.1255 30.9077 9.17144 30.9759 7.16336 30.8937C6.43998 30.8631 5.96556 30.4263 5.93738 29.8556C5.90684 29.2543 6.21217 28.7587 6.94024 28.6578C11.2406 28.0542 22.5962 28.1951 26.9341 28.7494C27.5659 28.8292 28.0403 29.1792 28.1554 29.6888C28.2705 30.1985 28.0591 31.1309 27.1784 31.0815L27.176 31.0792Z" fill="#0176DF"/>
<path d="M20.5694 38.5267L7.1775 38.5385C6.487 38.5385 6.03841 38.0476 5.96795 37.5685C5.87166 36.8921 6.34374 36.2955 7.13992 36.2767C11.3745 36.1734 15.5081 36.0466 19.7121 36.2039C20.351 36.2274 20.9381 36.5562 21.0767 36.9743C21.2012 37.3454 21.2622 38.5267 20.5694 38.5267Z" fill="#0176DF"/>
<path d="M16.3794 14.3969C12.8564 14.2325 9.56836 14.2113 6.17224 14.526C5.47939 14.5895 5.32908 13.448 5.48409 13.0464C6.21217 11.1628 14.0848 11.9308 16.0999 12.0553C16.7974 12.0976 17.2319 12.3982 17.3588 13.0159C17.4574 13.4973 17.2766 14.4391 16.3794 14.3969Z" fill="#0176DF"/>
<path d="M34.2501 42.1437C32.6085 43.3978 30.8165 45.5962 29.2311 44.8141C28.2048 44.3068 29.0996 41.5518 29.5012 40.4996C31.1969 40.664 32.6954 41.1995 34.2501 42.1437Z" fill="#0176DF"/>
</g>
<defs>
<clipPath id="clip0_57_67">
<rect width="50" height="40.4387" fill="white" transform="translate(0 5)"/>
</clipPath>
</defs>
</svg>
