<svg width="50" height="50" viewBox="0 0 50 50" fill="none" xmlns="http://www.w3.org/2000/svg">
<g clip-path="url(#clip0_57_117)">
<path d="M47.3267 16.755C46.2169 17.4758 44.5915 17.4042 43.3624 17.483C43.2024 17.4925 43.0354 17.4782 42.8755 17.4782L31.1661 17.471C30.0873 17.471 28.1468 17.2419 27.142 17.1894C27.2828 16.5402 29.314 17.3732 30.45 16.6906C30.9847 16.3683 31.5742 16.2395 31.7103 15.3635C31.9561 13.7811 32.2855 10.1962 30.0324 9.96231L23.5667 9.28924C23.5571 7.91209 23.4593 6.55403 23.6192 5.06708C23.9008 2.41779 25.8699 0.260172 28.6576 0.159929C34.0612 -0.0381713 39.3908 -0.069199 44.7872 0.179023C47.3244 0.295973 49.229 2.10513 49.5106 4.55393C49.9092 8.03143 50.4749 14.7167 47.3291 16.7598L47.3267 16.755Z" fill="#0176DF"/>
<path d="M27.1133 23.118L43.0568 23.3687L47.1095 23.6598C48.5272 23.7625 49.6084 24.7816 49.7898 26.2137C49.9401 27.4046 50.26 28.6362 49.606 29.7198C49.0594 30.6268 47.835 31.1232 46.8517 31.1566L42.6057 31.2974C41.997 31.3189 41.324 31.2807 40.7082 31.2974C40.1473 31.3118 39.6007 31.2091 39.0375 31.3046C38.4742 31.4001 37.9157 31.3189 37.3668 31.3046C34.6673 31.2354 31.956 31.2115 29.2566 31.3141C29.0251 31.3237 28.7936 31.3738 28.5596 31.3666L18.9816 31.0444C18.0747 31.0134 17.2178 30.4191 17.0698 29.3761C16.8001 27.4715 16.8121 23.8985 19.49 23.6431C20.5736 23.5405 21.5999 23.3806 22.5785 23.3352L27.1157 23.1204L27.1133 23.118Z" fill="#0176DF"/>
<path d="M23.5667 9.28692L30.0324 9.95998C32.2879 10.1939 31.9561 13.7788 31.7103 15.3612C31.5743 16.2371 30.9847 16.3684 30.4501 16.6882L26.3974 16.81L13.2775 16.693C11.275 16.6739 9.27726 16.588 7.27239 16.6739C5.72101 16.7407 4.16485 16.5259 2.61346 16.7216C1.79481 16.8243 0.916481 16.304 0.505961 15.7669C-0.0310577 15.07 -0.0167372 14.2203 0.00951703 13.4303C0.0835062 11.2083 1.31268 9.74518 3.51804 9.5781C10.263 9.06973 16.9578 8.59954 23.5667 9.28692Z" fill="#F4B23D"/>
<path d="M7.26983 16.6738C7.4369 18.3875 7.35814 20.1155 7.35814 21.9628V32.6841C7.36052 34.0016 7.50612 39.4219 6.70417 40.0663C6.29365 40.3981 5.7972 40.5079 5.15517 40.5318C4.07875 40.5699 2.86628 40.083 2.79467 38.8682C2.56077 34.942 2.65624 31.1423 2.64431 27.2018L2.61328 16.7192C4.16467 16.5234 5.72083 16.7382 7.27221 16.6714L7.26983 16.6738Z" fill="#0176DF"/>
<path d="M28.5598 31.3667L28.8868 40.0521C28.9154 40.8254 27.808 40.9257 27.3378 40.8588C26.5884 40.7538 26.2184 40.2812 26.0346 39.5103C25.4666 37.1188 25.173 34.7822 24.8723 32.4169C23.9987 34.7893 24.5453 38.2835 22.8937 40.3481C22.328 41.0569 21.4139 41.2789 20.7647 41.0211C20.0701 40.7443 19.5522 39.9757 19.6501 39.1189L20.5642 31.097C19.8792 31.0612 28.5622 31.3667 28.5622 31.3667H28.5598Z" fill="#03B5B2"/>
<path d="M42.6033 31.2974L46.8494 31.1566C46.6847 33.4789 48.4556 41.1022 44.8707 41.0927C43.9638 41.0927 42.8158 40.4124 42.768 39.2668C42.6558 36.5674 42.5651 33.9157 42.6009 31.2974H42.6033Z" fill="#03B5B2"/>
<path d="M7.35815 21.9653C7.35815 21.7529 7.35815 21.5405 7.36053 21.3304H7.31519L7.35576 21.9653H7.35815Z" fill="#03B5B2"/>
<path d="M26.395 16.8122L13.2751 16.6953C11.2726 16.6762 9.27489 16.5903 7.27002 16.6762C7.418 18.1918 7.37265 19.7193 7.36072 21.3303L23.0369 20.9962C23.3281 21.5571 23.7219 22.3996 23.6192 23.118C23.1109 23.1419 22.7481 23.0798 22.5762 23.3352L27.1134 23.1204L26.3855 17.1607C26.3521 16.8814 26.9535 17.1798 27.1397 17.1917C27.2805 16.5425 29.3116 17.3755 30.4477 16.6929L26.395 16.8146V16.8122Z" fill="#03B5B2"/>
<path d="M47.1095 23.6599L43.0568 23.3687C42.9518 21.4139 43.0425 19.4138 43.3599 17.483C44.5891 17.4042 46.2169 17.4758 47.3243 16.755L47.1071 23.6599H47.1095Z" fill="#03B5B2"/>
</g>
<defs>
<clipPath id="clip0_57_117">
<rect width="50" height="41.1237" fill="white"/>
</clipPath>
</defs>
</svg>
