<svg width="50" height="50" viewBox="0 0 50 50" fill="none" xmlns="http://www.w3.org/2000/svg">
<g clip-path="url(#clip0_75_10)">
<path d="M29.188 39.6279C28.6526 39.3281 28.3465 39.333 27.3097 38.6817C27.0819 38.5387 26.3208 38.1465 26.0583 37.9807C25.7695 37.7977 25.4294 37.7487 25.1379 37.94L23.6426 38.9213C23.1156 39.2673 22.5581 39.5429 21.9825 39.8178L21.5712 40.0146C20.7595 40.4027 19.0398 40.8565 18.1264 40.8399C17.8763 40.8351 17.6651 40.8406 17.4234 40.8544C17.0681 40.8744 16.6948 40.7978 16.3395 40.7881C15.6657 40.7701 15.0722 40.5554 14.4447 40.4207C13.9855 40.3219 13.6254 40.1092 13.2057 39.9227C12.8726 39.775 12.5727 39.6838 12.2756 39.449C12.0644 39.2819 11.7679 39.2059 11.5782 38.9718C11.3566 38.6983 11.0352 38.5581 10.7776 38.3336C10.5518 38.1361 10.3406 37.94 10.1286 37.7342C9.64385 37.2632 8.72205 35.8343 8.43464 35.1595L7.96369 34.0545C7.72476 33.4944 7.25313 32.0296 7.17902 31.4681L6.97125 29.9039C6.92831 29.5827 6.88953 29.1918 7.11323 28.9322C7.39302 28.6076 8.24418 28.6718 8.65072 28.7229C9.55797 28.8376 10.4479 28.7195 11.3406 28.5882L13.1406 28.3244C13.3913 28.2878 13.6593 28.2961 13.901 28.2478C14.4156 28.1449 14.9059 28.178 15.415 28.1456C17.5377 28.0123 20.3218 28.6324 22.3482 29.2671C23.5138 29.6325 24.6697 29.6325 25.8678 29.5586C26.701 29.5068 27.4351 29.3044 28.2426 29.1207C30.24 28.6663 32.2179 28.3741 34.2644 28.4052L35.1385 28.4183C35.8324 28.4287 37.0589 28.5813 37.7321 28.7574L38.442 28.9432C39.2557 29.1559 40.0591 29.1456 40.9207 29.2436C41.6631 29.3286 42.6791 28.8376 43.3128 29.3162C43.5469 29.9363 43.2061 31.7389 43.0392 32.4101C42.7954 33.3881 42.6251 33.9171 42.2317 34.8474C42.1271 35.0953 41.9851 35.2949 41.8916 35.558C41.7794 35.875 41.0488 37.1181 40.8673 37.3488L40.1118 38.3081C39.9019 38.574 39.6415 38.8012 39.4033 39.0401C39.2751 39.1686 39.0646 39.2038 38.9704 39.3744C38.8624 39.5692 38.6401 39.5892 38.4766 39.6962C36.946 40.6983 34.9875 40.9055 33.2034 40.7584C32.7145 40.7183 31.756 40.5616 31.3148 40.4138L30.7518 40.2252C30.1652 40.0291 29.8002 39.9704 29.188 39.6279ZM22.9701 31.9827C23.101 31.6581 23.1273 31.2257 22.8953 30.9253C22.8136 30.8196 22.1211 30.3293 21.5906 30.7789C21.3793 30.9578 21.3274 31.2527 21.389 31.5441C21.4583 31.8694 21.6467 32.0379 21.9209 32.1767C22.2845 32.3611 22.6266 32.3217 22.9701 31.9827ZM26.4433 31.3549C26.363 30.9833 26.1781 30.7886 25.7771 30.6636C25.4869 30.5731 24.991 30.7112 24.7729 31.0006C24.4841 31.3825 24.5118 32.0434 24.8207 32.3597C25.1905 32.7382 25.6815 32.7161 26.0763 32.4806C26.4392 32.2637 26.5348 31.7762 26.4433 31.3542V31.3549ZM28.8126 32.2237C29.1887 32.1125 29.393 31.926 29.4795 31.5959C29.555 31.3079 29.5149 30.9522 29.2337 30.781C28.9525 30.6097 28.6651 30.5883 28.368 30.6926C28.1387 30.7734 27.9898 30.9654 27.8368 31.2416C27.6948 31.4978 27.7918 31.8735 28.0002 32.0918C28.1914 32.2921 28.555 32.3003 28.8126 32.2237ZM32.2747 36.7252C33.2997 36.6982 34.2527 36.5525 35.0914 36.0622C36.2611 35.3784 37.1808 34.8197 37.2944 33.272C36.1337 32.8418 34.9605 32.54 33.7298 32.4129C33.2755 32.366 32.8225 32.4267 32.4285 32.6325C32.1591 32.7727 31.8315 32.799 31.5898 32.9751C31.2241 33.2424 31.0863 33.0731 29.884 34.1153C29.4511 34.491 29.1575 34.9661 28.8722 35.5021C29.8909 36.1678 30.9859 36.7597 32.274 36.7259L32.2747 36.7252ZM20.9347 35.7735C21.1619 35.5677 21.4756 35.5283 21.6972 35.27C21.3558 34.7997 21.0102 34.3177 20.5614 33.962C18.2482 32.1277 16.0133 32.2886 13.2902 33.0504C14.016 34.5856 14.9454 35.8667 16.5882 36.3301C17.8756 36.6934 19.1119 36.6941 20.3107 36.0932C20.5143 35.991 20.7269 35.9627 20.9347 35.7742V35.7735Z" fill="#0176DF"/>
<path d="M26.908 27.7319C26.8138 27.8956 26.7196 28.0068 26.6185 28.0641C26.435 28.167 26.2515 28.0068 26.0596 28.0503C25.8186 28.1055 25.3968 28.5254 25.108 28.2395C24.1842 27.3251 23.4306 26.2512 22.8163 25.1075C22.6439 24.7864 22.567 24.4376 22.3738 24.1524C22.2554 23.9777 22.193 23.8403 22.1231 23.6407L21.8114 22.7587C21.7193 22.4984 21.7041 22.2373 21.6244 21.9839C21.4838 21.5384 21.2144 20.3498 21.6286 20.1005C21.8544 19.9645 22.0843 20.0273 22.2748 20.1806C22.4652 20.334 22.6951 20.4003 22.8946 20.5204C23.128 20.6599 23.2921 20.8789 23.556 20.921C23.6079 20.7801 23.6426 20.5833 23.5941 20.4424C23.5602 20.345 23.43 20.2476 23.288 20.1951C22.9985 20.0874 22.835 19.8851 22.5802 19.7255C22.254 19.5218 21.7166 19.392 21.506 19.0176C21.3156 18.1267 21.4845 17.2006 21.6473 16.309C21.6812 16.1232 21.6286 15.9437 21.675 15.7676L22.1646 13.9264C22.3925 13.0693 22.9424 11.8131 23.4819 11.0893C23.8753 10.561 24.1627 10.0685 24.9536 9.88552C25.383 9.78607 25.7009 9.95528 26.025 10.2184C26.5499 10.6445 26.8367 11.215 27.1095 11.8365C27.4337 12.5755 28.0251 13.4678 27.5299 14.0983C27.6989 14.2102 27.8817 14.3311 27.9275 14.4913C28.0161 14.8048 27.8804 14.9133 27.746 15.1432C27.6393 15.3256 27.5742 15.4899 27.4267 15.6564C27.2792 15.8228 25.6607 17.8346 26.1157 18.0356C26.2293 17.8933 26.2424 17.6481 26.3976 17.5169L27.1733 16.8594C27.6518 16.454 28.264 15.731 28.699 15.8725C29.0342 15.981 29.0667 17.2103 29.1027 17.548C29.2066 18.5287 29.0958 19.4658 29.091 20.4355C29.084 21.6931 28.5445 24.0751 28.0888 25.2768L27.7335 26.2132C27.5957 26.5765 27.3983 26.8749 27.1975 27.225L26.908 27.7298V27.7319Z" fill="#F4B23D"/>
<path d="M19.2233 26.9136C18.1581 26.8445 17.9698 26.4025 17.6117 26.3935C17.3755 26.3873 17.2093 26.1739 17.0175 26.1048C16.5569 25.9398 16.2141 25.7015 15.8623 25.4018C15.6171 25.1932 15.3602 25.042 15.1448 24.792L14.6988 24.274C14.5111 24.0565 14.3421 23.8645 14.1593 23.6393L13.4826 22.8078C13.3545 22.6504 13.3275 22.43 13.153 22.3023C12.9875 22.1814 12.984 21.9549 12.8642 21.8133C12.6772 21.5916 12.475 21.3444 12.6232 21.0198C12.6876 20.8782 12.9016 20.7926 13.0643 20.823C13.3095 20.8692 13.5256 20.8057 13.7569 20.8174L14.6676 20.8651C14.8913 20.8768 15.1129 20.9563 15.2791 20.8423C14.7895 20.4431 14.2334 20.2822 13.7133 20.0205L12.3725 19.345C12.0165 19.1655 11.9611 18.7373 11.7561 18.4396C11.5753 18.1772 11.5469 17.9596 11.4472 17.6454C11.1515 16.711 10.8938 15.682 11.3059 14.7109C11.5566 14.1205 12.3662 13.7807 12.9944 13.8311C13.921 13.9064 14.7327 14.2351 15.4945 14.7289L17.0106 15.7124L17.7294 16.2448C18.1851 16.5825 18.5681 16.961 18.9733 17.3864L19.4414 17.8781L20.0329 18.6178C20.1499 18.7642 20.3736 19.0467 20.4062 19.2338L20.8515 21.7974L21.0787 22.7947L21.5524 24.5979C21.7428 25.3238 21.9402 26.0006 22.308 26.6712C22.4375 26.908 22.8863 27.9108 22.6376 28.174C22.1577 28.6816 21.3619 27.3791 21.1181 27.138C20.7248 26.9674 20.2808 27.0614 19.8785 27.0047C19.6561 26.9737 19.4622 26.9295 19.2226 26.9143L19.2233 26.9136Z" fill="#03B5B2"/>
<path d="M32.0821 26.7001L30.9048 27.0993C30.5731 27.2118 30.2219 27.1518 29.9581 26.9163C29.5917 27.2809 29.4026 28.1255 28.807 28.2022C28.6138 28.2271 28.352 27.8424 28.4081 27.6504C28.5411 27.1918 28.7094 26.7919 28.8292 26.3465L29.091 25.372C29.1769 25.0523 29.251 24.7898 29.3174 24.4652L29.4317 23.9058C29.6069 23.0467 29.7538 22.2235 29.8313 21.3547C29.8521 21.1247 29.9096 20.8892 29.9234 20.6592L29.974 19.8312C29.9878 19.5984 29.9421 19.3422 29.9934 19.1364C30.1028 18.6958 30.4089 18.2386 30.7053 17.8967L31.134 17.4022C31.9499 16.4602 32.9395 15.7047 34.0123 15.0631C35.0851 14.4215 37.2133 13.6052 38.266 14.532C39.1775 15.3345 38.523 17.7096 37.9786 18.6675C37.7882 19.0024 37.2341 19.1019 36.91 19.2179L36.1946 19.4734C35.8151 19.6088 35.4106 19.6986 35.0664 19.9907C35.7174 20.1744 37.194 19.8422 37.6774 20.2041C37.9745 20.4265 37.3345 21.4085 37.4467 21.2932C37.266 21.479 37.2383 21.6889 37.1226 21.8947L36.3774 23.2124C36.232 23.47 35.3905 24.573 35.2832 24.6621L34.8697 25.0046C34.6052 25.2235 34.4105 25.4756 34.1217 25.6559L33.6577 25.9452C33.1494 26.2622 32.6528 26.5088 32.0821 26.7022V26.7001Z" fill="#CF5873"/>
<path d="M9.7595 26.8362C9.13966 27.3846 7.81271 26.1919 7.19217 25.7975C6.66236 26.3383 6.15818 26.8632 5.57227 27.3086C5.39359 27.4447 5.14219 27.3998 4.95589 27.3314C4.3492 27.1083 4.86863 25.4412 4.89079 24.8859C4.29034 24.5931 3.12268 24.3189 3.13722 23.5931C3.15315 22.8023 5.03346 22.6939 5.65399 22.5792L6.38811 20.7408C6.46637 20.5454 6.58757 20.3976 6.75032 20.3706C6.96155 20.3361 7.21156 20.3969 7.30783 20.6123L8.15345 22.5226C8.90419 22.4377 9.61199 22.3665 10.3336 22.4453C10.5248 22.466 10.6668 22.6069 10.718 22.7498C10.7693 22.8928 10.7312 23.1041 10.5947 23.225C10.4057 23.3921 10.2658 23.5862 10.0857 23.7623C9.85092 23.9923 9.5739 24.1663 9.35228 24.4543C9.47209 25.1007 9.66947 25.7002 9.86754 26.3259C9.92225 26.4985 9.87516 26.7347 9.76089 26.8356L9.7595 26.8362ZM5.09579 23.5661C4.93303 23.5703 4.80907 23.5979 4.629 23.5765C4.73635 23.6801 4.86586 23.7402 5.04384 23.7644C5.08609 23.725 5.09094 23.6345 5.09509 23.5661H5.09579ZM5.73156 25.2582C5.60482 25.0966 5.52241 25.9467 5.5598 25.9018C5.60828 25.5786 5.82713 25.3804 5.73156 25.2582Z" fill="#F4B23D"/>
<path d="M44.9687 25.9832C45.2319 25.0937 45.3316 24.2139 45.4597 23.2926C44.3343 23.1613 43.3086 22.9507 42.2331 22.4997C42.026 23.6185 41.7323 24.7035 41.6873 25.8444C41.6596 26.5419 41.2323 27.0461 40.4906 27.0944C39.7045 27.2056 38.2266 26.754 38.1913 25.7947C38.1553 24.8244 39.7758 24.4355 40.6824 24.8458L41.2441 22.3727L41.4733 21.4969C41.5502 21.0936 41.938 20.9106 42.3466 21.0232C43.1382 21.2407 43.8924 21.5163 44.7069 21.6744C45.2 21.7697 45.6834 21.8816 46.1467 22.0398C46.5207 22.1675 46.6087 22.5004 46.563 22.8637L46.2624 25.2816C46.1959 25.8133 46.0082 26.3216 46.0186 26.861C46.0332 27.6041 45.5504 28.1559 44.7969 28.2167C44.2117 28.2637 43.5849 28.1545 43.0759 27.8569C42.616 27.5875 42.3716 27.1007 42.5703 26.6096C43.114 25.8548 44.0476 25.6469 44.9687 25.9825V25.9832Z" fill="#03B5B2"/>
<path d="M6.06537 35.7576C6.22466 35.8978 5.98572 36.0967 5.85344 36.161C5.15672 36.5021 3.54929 36.4344 2.80409 36.0739C2.25489 35.8087 1.86151 35.3073 2.04504 34.7024C2.14131 34.3854 2.26389 34.0732 2.59701 33.9551C3.56522 33.6119 3.86579 34.5767 4.53896 34.7452C4.63315 35.0028 4.92195 34.9738 5.0937 35.1029C5.8292 35.6554 5.17681 34.9752 6.06467 35.7569L6.06537 35.7576Z" fill="#CF5873"/>
<path d="M47.973 35.1948C47.6655 36.6748 44.3738 36.4993 44.094 36.0387C44.0358 35.9427 44.033 35.7176 44.166 35.6616C44.3724 35.5753 44.4901 35.3626 44.6716 35.2749C45.2291 35.0035 45.8947 34.5442 46.3898 34.1554C46.7119 33.9026 47.2126 33.761 47.5824 34.0062C47.9523 34.2514 48.0603 34.7728 47.9723 35.1948H47.973Z" fill="#F4B23D"/>
<path d="M46.2693 38.4359C46.3829 39.1252 45.6619 39.6839 45.1481 39.6231C44.8122 39.5838 44.5559 39.3835 44.3239 39.0976L43.7692 38.4132C43.5545 38.1487 42.9242 37.6383 43.0898 37.2937C43.2726 36.9124 44.2263 37.2785 44.5684 37.4194L45.7831 37.9187C46.0449 38.0264 46.2388 38.2474 46.2693 38.4353V38.4359Z" fill="#CF5873"/>
<path d="M5.43025 39.2128C5.14699 39.5312 4.80972 39.6313 4.40734 39.554C4.11092 39.4967 3.85259 39.2653 3.66768 38.9455C3.51324 38.679 3.48207 38.3986 3.72031 38.1707C4.02435 37.8806 4.42119 37.7943 4.80487 37.6451C5.18855 37.4959 6.34928 36.9731 6.70457 37.2632C7.1111 37.5954 6.25717 38.2839 6.22531 38.3191L5.43025 39.2128Z" fill="#03B5B2"/>
<path d="M26.4433 31.355C26.5341 31.7762 26.4385 32.2645 26.0763 32.4814C25.6822 32.7169 25.1905 32.739 24.8207 32.3605C24.5118 32.0442 24.4848 31.3833 24.7729 31.0014C24.991 30.712 25.4869 30.5739 25.7771 30.6643C26.1774 30.7886 26.363 30.9834 26.4433 31.3556V31.355Z" fill="#F4B23D"/>
<path d="M22.9701 31.9827C22.6266 32.3225 22.2845 32.3618 21.9209 32.1768C21.6466 32.0379 21.4582 31.8694 21.389 31.5441C21.3273 31.2527 21.3793 30.9578 21.5905 30.7789C22.121 30.3293 22.8136 30.8197 22.8953 30.9253C23.1273 31.2258 23.101 31.6581 22.9701 31.9827Z" fill="#F4B23D"/>
<path d="M28.8126 32.2237C28.5549 32.3004 28.1913 32.2928 28.0002 32.0918C27.7917 31.8735 27.6948 31.4978 27.8367 31.2416C27.9898 30.9654 28.1387 30.7734 28.3679 30.6926C28.665 30.5883 28.9532 30.6104 29.2336 30.781C29.5141 30.9516 29.555 31.3079 29.4795 31.5959C29.3929 31.926 29.1886 32.1125 28.8126 32.2237Z" fill="#F4B23D"/>
</g>
<defs>
<clipPath id="clip0_75_10">
<rect width="46" height="31" fill="white" transform="translate(2 9.85791)"/>
</clipPath>
</defs>
</svg>
