<svg width="50" height="50" viewBox="0 0 50 50" fill="none" xmlns="http://www.w3.org/2000/svg">
<g clip-path="url(#clip0_75_2)">
<path d="M14.975 15.1378C14.7512 15.9527 15.0502 16.6999 15.6677 17.2648C15.5785 18.1024 15.4196 18.9332 15.3827 19.824C17.8435 21.0256 20.31 22.0076 22.8336 23.0117L28.8495 25.4065C29.2475 24.6393 29.5409 23.8617 29.7395 23.0738L32.7085 23.3735C32.3203 24.4909 31.96 25.6013 31.4547 26.7559C32.0798 27.2048 32.691 27.6833 33.3371 28.0411C33.3657 28.2102 33.5699 28.2641 33.7037 28.3822C34.202 28.8242 34.9923 29.4567 35.5108 29.7571C36.7061 30.7053 37.8832 31.7432 39.1851 32.5656C39.7796 32.9413 40.5176 32.9648 40.9525 33.6132C41.4892 34.4136 41.3421 35.4515 40.4521 35.9784C39.99 36.2519 39.4318 36.4238 38.8617 36.4604C38.1425 36.5074 37.4156 36.5185 36.6887 36.4321C35.5422 36.2954 34.4459 36.2678 33.3385 36.2339C32.2116 36.1994 31.0728 36.0689 29.9382 36.12C29.8455 36.1241 29.7521 36.1131 29.6594 36.1062C29.9166 35.37 29.8239 34.426 29.4531 33.7631C29.0719 33.0801 28.4307 32.6119 27.7317 32.3205C27.2466 32.1182 26.7141 32.1347 26.1608 32.0912C26.5908 30.4988 27.2306 28.9692 27.9665 27.4002L20.9623 24.7277L17.2456 23.1947L18.3432 24.4874L20.3455 26.7739L21.1791 27.7552L22.2287 28.9284L23.6211 30.4981C23.9529 30.8724 24.3564 31.1424 24.6345 31.5678C24.7934 31.8102 25.1063 31.9193 25.2074 32.1755C24.4282 32.3737 23.7522 32.8115 23.1883 33.4199C22.2342 32.6658 21.0878 31.1541 20.31 30.331L19.3322 29.2958L17.5926 27.1689C17.1306 26.7269 16.7682 26.2518 16.3653 25.7553C15.8796 25.1566 15.3102 24.6096 14.754 24.0793C14.4906 24.8962 14.5317 25.6565 14.4118 26.3809L13.9881 28.9333C13.6814 30.7826 13.2459 32.6057 12.7225 34.4378C12.6158 34.8107 12.4792 35.1649 12.1837 35.4246C11.4554 36.0661 10.201 35.8907 9.72286 35.0289C9.49426 34.6166 9.59741 34.0877 9.74028 33.6664C10.01 32.8709 10.2825 32.1354 10.4804 31.3206C10.7425 30.2384 10.8198 29.1598 10.9976 28.1004L11.4101 25.6358L11.898 22.8328C11.9809 22.3549 12.0966 21.9054 12.1907 21.4627C12.4479 20.2487 12.62 19.0243 12.8186 17.7627C12.8563 17.5217 12.8988 17.2806 12.9511 17.0783C13.1908 16.1419 13.9017 15.1944 14.9743 15.1357L14.975 15.1378ZM30.1507 32.6306L33.2256 32.8288C34.025 32.8805 34.8557 32.9448 35.7018 32.9379C35.1289 32.3951 34.3428 32.1113 33.6981 31.6099C32.9719 31.0443 32.3293 30.3151 31.4735 29.8144C31.2142 29.5396 30.9313 29.2033 30.5382 28.9222C30.0274 30.1121 29.5263 31.2798 29.1088 32.5456C29.4385 32.6168 29.7737 32.6009 30.1514 32.6313L30.1507 32.6306Z" fill="#CF5873"/>
<path d="M11.4109 25.6372L10.9983 28.1019C8.35062 28.0729 5.33428 29.5465 4.53978 32.2605C4.01916 34.0387 4.3753 35.8977 5.4444 37.4073C6.30511 38.6233 7.50035 39.557 8.99319 39.8981C12.3441 40.6633 16.626 38.8878 17.0086 35.0041C17.0923 34.1533 17.0665 33.3281 16.7814 32.5256C16.3054 31.1839 15.2022 29.637 13.9888 28.934L14.4126 26.3817C17.2198 27.4534 19.259 30.2357 19.9016 33.132C20.4724 35.7057 19.6814 38.3609 17.7202 40.1357C16.8776 40.8988 15.573 41.6432 14.4885 42.0389C13.363 42.4491 12.1956 42.5251 11.0011 42.5251C8.32971 42.5251 6.31487 42.1929 4.15089 40.6191C3.41701 40.0853 2.86852 39.4831 2.36255 38.7304C1.76528 37.843 1.30948 36.9246 1.11922 35.8452C0.93244 34.7872 0.963105 33.7265 1.20982 32.6755C2.32283 27.9341 6.786 25.4812 11.4095 25.6379L11.4109 25.6372Z" fill="#F4B23D"/>
<path d="M29.9388 36.1207C31.0735 36.0696 32.2129 36.2008 33.3392 36.2347C33.5176 37.1497 34.0459 37.9804 34.7798 38.6316C37.2824 40.8511 41.4376 40.9271 43.9528 38.7539C46.3342 36.696 46.1551 33.065 44.2246 30.7813C42.0118 28.164 38.2832 28.173 35.5115 29.7572C34.9923 29.4575 34.2027 28.8242 33.7044 28.3822C33.5706 28.2635 33.3664 28.2096 33.3378 28.0411C37.0713 25.3707 42.1533 25.524 45.7565 28.4409C48.0661 30.311 49.2286 33.2542 48.9638 36.185C48.7763 38.2587 47.4633 40.028 45.769 41.1729C44.5696 41.9836 43.2378 42.4153 41.823 42.7046C40.8689 42.8993 39.8193 42.862 38.8464 42.8365C36.228 42.7688 34.1685 42.1335 32.2039 40.4243C30.9013 39.2911 30.1263 37.7857 29.9395 36.1207H29.9388Z" fill="#0176DF"/>
<path d="M32.7084 23.3743L29.7395 23.0746C28.899 22.9883 28.1205 22.8861 27.3566 22.6568C26.8994 22.5194 26.5531 22.1893 26.4116 21.8323C26.229 21.373 26.213 20.8931 26.5238 20.5029C26.8346 20.1128 27.3295 19.8766 27.8438 19.7419C29.8586 19.215 31.8839 18.8539 33.9643 18.6778C34.6905 18.6163 35.3749 18.637 36.0439 18.8159C37.2935 19.1501 38.0469 20.2163 37.9459 21.487C37.8811 22.2998 37.4127 22.9489 36.6182 23.2065C35.9289 23.4296 35.2034 23.5131 34.464 23.4724L32.7084 23.375V23.3743Z" fill="#03B5B2"/>
<path d="M26.1621 32.092C26.7162 32.1355 27.2479 32.119 27.733 32.3213C28.4313 32.6127 29.0725 33.0809 29.4544 33.7639C29.8245 34.4268 29.9179 35.3708 29.6607 36.107C29.3938 36.8708 28.6648 37.3728 27.9797 37.5889C27.3755 37.7802 26.8556 37.7492 26.2269 37.7146C26.413 38.158 26.4249 38.6089 26.1851 39.0398C26.0165 39.3423 25.6422 39.6178 25.199 39.6883C24.017 39.8754 22.8015 39.8761 21.6216 39.6586C21.1365 39.5688 20.6926 39.267 20.4988 38.872C20.1685 38.2015 20.4354 37.5682 21.0773 37.2506C21.701 36.9412 22.3708 36.8424 23.1214 36.7886C22.4663 35.8743 22.4391 34.7383 23.0113 33.786C23.0893 33.6562 23.1744 33.5498 23.1904 33.4207C23.7542 32.8116 24.4302 32.3738 25.2094 32.1763C25.5279 32.0955 25.8896 32.0706 26.1628 32.092H26.1621ZM25.8478 37.3258C26.2304 36.6512 26.5399 36.0738 26.7364 35.4254C26.8563 35.049 26.7608 34.7404 26.5475 34.4393C26.2925 34.0781 25.8701 33.9241 25.4506 34.1624C25.1056 34.3578 24.8658 34.6913 24.6825 35.0456C24.4065 35.5794 24.132 36.0814 23.8051 36.5883C23.7633 36.6532 23.7291 36.7658 23.7884 36.7934C23.8253 36.8107 23.895 36.8466 23.9563 36.8487C24.6268 36.8721 25.1983 37.0683 25.8471 37.3265L25.8478 37.3258Z" fill="#0176DF"/>
<path d="M44.9906 15.7622C44.1417 16.1233 41.3352 16.1075 40.3107 16.0709L37.5285 15.9707C36.8797 15.9472 36.2845 15.662 35.8844 15.1918C35.2879 14.4901 35.3798 13.5282 36.1012 12.9674C36.8817 12.3604 37.8811 12.2872 38.8213 12.7955C38.9767 12.0096 39.3071 11.3667 40.0103 11.0504C40.618 10.7777 41.2703 10.8357 41.8857 11.1761C42.382 11.451 42.7618 11.9855 42.8782 12.667C43.5807 12.4447 44.2602 12.3363 44.9529 12.4813C45.6457 12.6263 46.1301 13.1622 46.1921 13.8534C46.2681 14.698 45.7642 15.4328 44.9913 15.7615L44.9906 15.7622Z" fill="#0176DF"/>
<path d="M9.93889 14.004L9.04123 13.3818C8.50947 13.7712 7.26405 14.9272 6.59987 14.4169C6.07229 14.0116 6.61381 12.8403 6.71696 12.2306C6.12665 11.8618 5.04849 11.444 5.16697 10.6982C5.30078 9.85641 7.04939 9.83017 7.71009 9.80876C8.07598 9.17413 8.29551 7.85791 9.09002 7.85791C9.83156 7.85791 10.0232 9.15134 10.2421 9.77285C10.8463 9.8571 12.3287 9.64648 12.6346 10.2411C12.9427 10.8391 12.0234 11.6029 11.5488 11.9419C11.4024 12.0469 11.3843 12.1684 11.4345 12.3383C11.599 12.8915 12.0053 13.9218 11.5997 14.3106C11.1941 14.6994 10.4072 14.3285 9.93889 14.0046V14.004Z" fill="#F4B23D"/>
<path d="M15.6677 17.2648C15.0502 16.6999 14.7512 15.9534 14.975 15.1379C15.3464 14.6952 15.8245 14.3727 16.4525 14.2733C17.7822 14.0633 19.112 13.9825 20.4675 13.9881C21.6537 13.9929 22.9019 14.6151 22.8942 15.7918C22.8907 16.3712 22.6259 16.9043 22.0823 17.2185C21.0223 17.8311 17.2393 17.6936 16.4873 17.4892L15.667 17.2655L15.6677 17.2648Z" fill="#0176DF"/>
<path d="M12.9511 17.0804C12.8995 17.2821 12.857 17.5238 12.8186 17.7648C12.62 19.0264 12.4479 20.2508 12.1907 21.4648L10.8693 21.6347C9.99466 21.7473 9.30678 21.2936 8.86005 20.5623C8.41331 19.8309 8.3708 18.9284 8.52761 18.0624C8.71508 17.0279 9.51029 16.3829 10.5961 16.4057C11.4422 16.423 12.2074 16.7379 12.9511 17.0804Z" fill="#F4B23D"/>
<path d="M33.6975 31.6099C33.4953 31.9994 33.3204 32.4006 33.2256 32.8288L30.1508 32.6306C30.3989 31.6065 30.8296 30.6542 31.4728 29.8145C32.3287 30.3151 32.9706 31.045 33.6975 31.6099Z" fill="#0176DF"/>
<path d="M25.8479 37.3258C25.199 37.0675 24.6275 36.8721 23.9571 36.8479C23.895 36.8458 23.8254 36.8099 23.7891 36.7927C23.7299 36.765 23.764 36.6525 23.8058 36.5876C24.1327 36.0807 24.4073 35.5787 24.6833 35.0448C24.8666 34.6906 25.1063 34.357 25.4513 34.1616C25.8709 33.9234 26.2932 34.0774 26.5483 34.4385C26.7615 34.7396 26.857 35.0483 26.7371 35.4247C26.5406 36.0724 26.2312 36.6504 25.8486 37.3251L25.8479 37.3258Z" fill="#CF5873"/>
</g>
<defs>
<clipPath id="clip0_75_2">
<rect width="48" height="35" fill="white" transform="translate(1 7.85791)"/>
</clipPath>
</defs>
</svg>
