<svg width="50" height="50" viewBox="0 0 50 50" fill="none" xmlns="http://www.w3.org/2000/svg">
<g clip-path="url(#clip0_43_85)">
<path d="M37.2676 5.35224L34.9208 9.31876C33.7185 9.5036 32.6532 10.2449 32.5624 11.4676C32.4659 12.7904 33.3614 13.8398 34.7471 13.9996C35.8568 14.1286 36.8604 13.7609 37.2734 12.7789C37.6864 11.7969 37.3873 10.6974 36.4841 9.91759C36.953 8.75844 37.7655 7.83035 38.4044 6.63655C38.6109 6.24952 39.433 5.84324 39.7785 6.23412C40.2552 6.77326 41.1294 7.18146 41.471 7.82458C41.7354 8.3252 42.077 9.33801 42.0674 9.90218L41.8609 23.8062C41.8435 25.025 41.4537 26.627 40.6122 27.5551L23.2158 46.7099C21.8378 48.2272 19.325 48.5353 17.8409 46.9332L3.52658 31.485C1.54839 29.3497 1.45769 26.471 3.4571 24.3029L20.9114 5.39846C22.0771 4.13533 23.5825 3.50185 25.2461 3.70787L36.8623 5.14429C37.065 5.16932 37.1827 5.29448 37.2676 5.35417V5.35224ZM20.7474 31.2405L30.5399 20.5867C31.0417 20.0399 30.6711 18.927 30.6441 18.4283C30.4183 18.7075 30.8062 19.0425 30.4395 19.2235L29.71 18.2068C29.8856 18.0239 30.0941 18.2704 30.3083 18.1452C30.1616 17.7043 29.3645 17.7332 28.994 18.1279L20.8284 26.8273C20.537 27.1373 20.3247 27.4396 19.9658 27.4858C18.4392 27.686 16.4475 22.2407 14.6044 24.3126C14.2975 24.6572 13.7668 24.6283 13.7842 25.1001C13.7996 25.4967 13.817 25.9608 14.1412 26.3228C15.6446 27.998 17.1172 29.6943 18.7036 31.2617C19.3115 31.8624 20.1626 31.8701 20.7435 31.2386L20.7474 31.2405Z" fill="#0176DF"/>
<path d="M42.0693 9.90221C42.077 9.33804 41.7373 8.32523 41.4729 7.8246C41.9477 7.15838 45.0105 8.28287 45.6242 6.60191C45.8037 6.11284 45.7631 5.55059 45.3559 5.14239C43.5341 3.31895 41.1641 4.86127 39.7804 6.23222C39.4349 5.84134 38.6147 6.24762 38.4062 6.63465C37.7674 7.82845 36.9549 8.75654 36.486 9.91568C35.988 9.7655 35.4959 9.5922 34.9208 9.31686L37.2676 5.35034C38.7324 4.92481 39.238 3.19187 41.7566 2.32347C43.7097 1.65147 45.7632 1.99614 47.0909 3.57889C48.2412 4.94984 48.3338 6.87918 47.1662 8.28864C45.9118 9.80208 43.9027 10.3085 42.0693 9.90028V9.90221Z" fill="#F4B23D"/>
<path d="M20.7474 31.2405C20.1664 31.872 19.3134 31.8643 18.7074 31.2636C17.121 29.6962 15.6485 27.9999 14.1451 26.3247C13.8208 25.9627 13.8015 25.4987 13.788 25.102C13.7706 24.6303 14.3014 24.6591 14.6082 24.3145C16.4533 22.2407 18.443 27.686 19.9696 27.4877C20.3266 27.4415 20.5409 27.1392 20.8323 26.8292L28.9978 18.1298C29.3684 17.7351 30.1654 17.7043 30.3121 18.1471C30.096 18.2723 30.4202 18.7094 30.646 18.4302C30.673 18.9308 31.0436 20.0418 30.5418 20.5886L20.7493 31.2424L20.7474 31.2405Z" fill="#F4B23D"/>
</g>
<defs>
<clipPath id="clip0_43_85">
<rect width="46" height="46" fill="white" transform="translate(2 2)"/>
</clipPath>
</defs>
</svg>
