<svg width="50" height="50" viewBox="0 0 50 50" fill="none" xmlns="http://www.w3.org/2000/svg">
<path d="M48.7633 32.464C46.7179 33.0417 44.7228 33.371 42.6224 33.7272C30.2953 35.8136 17.6332 35.7866 5.36347 33.1075C3.92814 32.7932 2.54543 32.4071 1.16272 32C0.980912 32.4011 0.964167 32.9399 1.05507 33.5326L2.84207 34.1013C3.64585 34.1762 4.44725 34.3947 5.22951 34.6342C5.96871 34.5863 6.69355 34.7958 7.4782 34.9305L13.7578 36.0111C14.5999 36.1548 15.4635 36.1159 16.3031 36.3015C16.5065 36.2955 16.772 36.2236 17.0399 36.2356L25.1017 36.6128C25.7907 36.6457 26.506 36.505 27.1926 36.6128C27.2715 36.5559 27.3791 36.502 27.5251 36.4931L34.4793 36.074L35.484 36.1219L37.4265 35.9273C37.5892 35.9123 37.7351 35.8794 37.8475 35.9872C37.9169 35.9093 38.0102 35.8495 38.1513 35.8225L46.0744 34.4216C46.1964 34.4007 46.383 34.4875 46.3878 34.6192C46.4356 34.4635 46.5624 34.4755 46.6916 34.4516L48.6604 34.0894L49.9953 33.6763C49.8876 33.0746 49.6699 32.6136 49.4283 32.2664L48.7561 32.455L48.7633 32.464Z" fill="#F4B23D"/>
<path d="M16.3032 36.3014C16.2529 36.7894 16.3175 37.2743 16.4299 37.8101C16.9156 40.1 17.7217 42.2313 18.8102 44.1591C19.2791 44.9912 20.2192 46.2574 21.0972 45.6587C21.5134 45.3744 21.8866 45.0032 22.1809 44.5123C23.3387 42.5815 24.2741 40.4862 24.8936 38.1992C25.042 37.6485 25.1424 37.1336 25.1018 36.6128L17.04 36.2356C16.7744 36.2236 16.5089 36.2955 16.3032 36.3014Z" fill="#03B5B2"/>
<path d="M46.0767 34.4306L38.1537 35.8315C38.0149 35.8554 37.9192 35.9153 37.8499 35.9961C38.6943 38.6063 41.4573 43.1982 43.541 44.3806C44.0625 44.6769 44.6103 44.4853 44.9404 43.9286C45.2203 43.4586 45.4045 42.9497 45.5385 42.372C46.0983 39.9474 46.5121 37.0887 46.3925 34.6311C46.3853 34.5024 46.2011 34.4126 46.0791 34.4336L46.0767 34.4306Z" fill="#EA4551"/>
<path d="M5.2294 34.6312C5.08109 36.8044 5.65044 39.9265 6.22935 42.0637C6.44705 42.8659 6.74847 43.5874 7.20299 44.189C8.00917 45.2547 9.11199 44.1561 9.76268 43.3599C11.1741 41.6327 13.1261 38.3011 13.7601 36.0111L7.48049 34.9305C6.69345 34.7958 5.97099 34.5863 5.2318 34.6342L5.2294 34.6312Z" fill="#EA4551"/>
<path d="M27.5249 36.4961C27.379 36.5051 27.2737 36.559 27.1924 36.6158C27.2259 39.0794 29.5392 43.758 31.1013 45.2547C31.6922 45.8205 32.4457 45.7666 32.9672 45.0991C34.1609 43.5754 35.5987 38.2472 35.4862 36.1249L34.4815 36.077L27.5273 36.4961H27.5249Z" fill="#0176DF"/>
<path d="M48.7633 18.464C46.7179 19.0417 44.7228 19.371 42.6224 19.7272C30.2953 21.8136 17.6332 21.7866 5.36347 19.1075C3.92814 18.7932 2.54543 18.4071 1.16272 18C0.980912 18.4011 0.964167 18.9399 1.05507 19.5326L2.84207 20.1013C3.64585 20.1762 4.44725 20.3947 5.22951 20.6342C5.96871 20.5863 6.69355 20.7958 7.4782 20.9305L13.7578 22.0111C14.5999 22.1548 15.4635 22.1159 16.3031 22.3015C16.5065 22.2955 16.772 22.2236 17.0399 22.2356L25.1017 22.6128C25.7907 22.6457 26.506 22.505 27.1926 22.6128C27.2715 22.5559 27.3791 22.502 27.5251 22.4931L34.4793 22.074L35.484 22.1219L37.4265 21.9273C37.5892 21.9123 37.7351 21.8794 37.8475 21.9872C37.9169 21.9093 38.0102 21.8495 38.1513 21.8225L46.0744 20.4216C46.1964 20.4007 46.383 20.4875 46.3878 20.6192C46.4356 20.4635 46.5624 20.4755 46.6916 20.4516L48.6604 20.0894L49.9953 19.6763C49.8876 19.0746 49.6699 18.6136 49.4283 18.2664L48.7561 18.455L48.7633 18.464Z" fill="#F4B23D"/>
<path d="M16.3032 22.3015C16.2529 22.7894 16.3175 23.2743 16.4299 23.8101C16.9156 26.1 17.7217 28.2313 18.8102 30.1591C19.2791 30.9912 20.2192 32.2574 21.0972 31.6587C21.5134 31.3744 21.8866 31.0032 22.1809 30.5123C23.3387 28.5815 24.2741 26.4862 24.8936 24.1992C25.042 23.6485 25.1424 23.1336 25.1018 22.6128L17.04 22.2356C16.7744 22.2236 16.5089 22.2955 16.3032 22.3015Z" fill="#0176DF"/>
<path d="M46.0767 20.4306L38.1537 21.8315C38.0149 21.8554 37.9192 21.9153 37.8499 21.9961C38.6943 24.6063 41.4573 29.1982 43.541 30.3806C44.0625 30.6769 44.6103 30.4853 44.9404 29.9286C45.2203 29.4586 45.4045 28.9497 45.5385 28.372C46.0983 25.9474 46.5121 23.0887 46.3925 20.6311C46.3853 20.5024 46.2011 20.4126 46.0791 20.4336L46.0767 20.4306Z" fill="#03B5B2"/>
<path d="M5.2294 20.6341C5.08109 22.8073 5.65044 25.9294 6.22935 28.0667C6.44705 28.8689 6.74847 29.5903 7.20299 30.1919C8.00917 31.2576 9.11199 30.159 9.76268 29.3628C11.1741 27.6356 13.1261 24.304 13.7601 22.0141L7.48049 20.9334C6.69345 20.7987 5.97099 20.5892 5.2318 20.6371L5.2294 20.6341Z" fill="#0176DF"/>
<path d="M27.5249 22.4961C27.379 22.5051 27.2737 22.559 27.1924 22.6158C27.2259 25.0794 29.5392 29.758 31.1013 31.2547C31.6922 31.8205 32.4457 31.7666 32.9672 31.099C34.1609 29.5754 35.5987 24.2472 35.4862 22.1249L34.4815 22.077L27.5273 22.4961H27.5249Z" fill="#F4B23D"/>
<path d="M48.7633 4.86619C46.7179 5.44391 44.7228 5.77319 42.6224 6.1294C30.2953 8.21578 17.6332 8.18884 5.36347 5.50977C3.92814 5.19547 2.54543 4.80932 1.16272 4.40222C0.980912 4.80333 0.964167 5.34214 1.05507 5.93483L2.84207 6.50357C3.64585 6.5784 4.44725 6.79692 5.22951 7.03639C5.96871 6.98849 6.69355 7.19803 7.4782 7.33273L13.7578 8.41334C14.5999 8.55702 15.4635 8.51811 16.3031 8.7037C16.5065 8.69771 16.772 8.62587 17.0399 8.63784L25.1017 9.01501C25.7907 9.04794 26.506 8.90725 27.1926 9.01501C27.2715 8.95813 27.3791 8.90425 27.5251 8.89527L34.4793 8.4762L35.484 8.5241L37.4265 8.32953C37.5892 8.31456 37.7351 8.28163 37.8475 8.38939C37.9169 8.31157 38.0102 8.2517 38.1513 8.22476L46.0744 6.82386C46.1964 6.80291 46.383 6.88971 46.3878 7.02142C46.4356 6.86577 46.5624 6.87774 46.6916 6.85379L48.6604 6.4916L49.9953 6.07851C49.8876 5.47684 49.6699 5.01586 49.4283 4.66863L48.7561 4.85721L48.7633 4.86619Z" fill="#F4B23D"/>
<path d="M16.3032 8.70367C16.2529 9.19159 16.3175 9.67652 16.4299 10.2123C16.9156 12.5023 17.7217 14.6335 18.8102 16.5613C19.2791 17.3934 20.2192 18.6596 21.0972 18.061C21.5134 17.7766 21.8866 17.4054 22.1809 16.9145C23.3387 14.9838 24.2741 12.8884 24.8936 10.6015C25.042 10.0507 25.1424 9.53583 25.1018 9.01498L17.04 8.63782C16.7744 8.62584 16.5089 8.69768 16.3032 8.70367Z" fill="#F4B23D"/>
<path d="M46.0767 6.83281L38.1537 8.2337C38.0149 8.25765 37.9192 8.31752 37.8499 8.39834C38.6943 11.0086 41.4573 15.6004 43.541 16.7828C44.0625 17.0791 44.6103 16.8875 44.9404 16.3308C45.2203 15.8608 45.4045 15.3519 45.5385 14.7742C46.0983 12.3496 46.5121 9.49092 46.3925 7.03336C46.3853 6.90465 46.2011 6.81485 46.0791 6.8358L46.0767 6.83281Z" fill="#F4B23D"/>
<path d="M5.2294 7.03633C5.08109 9.20952 5.65044 12.3316 6.22935 14.4689C6.44705 15.2711 6.74847 15.9925 7.20299 16.5942C8.00917 17.6598 9.11199 16.5612 9.76268 15.765C11.1741 14.0378 13.1261 10.7062 13.7601 8.41628L7.48049 7.33567C6.69345 7.20097 5.97099 6.99143 5.2318 7.03933L5.2294 7.03633Z" fill="#EA4551"/>
<path d="M27.5249 8.89832C27.379 8.9073 27.2737 8.96118 27.1924 9.01806C27.2259 11.4816 29.5392 16.1602 31.1013 17.6569C31.6922 18.2227 32.4457 18.1688 32.9672 17.5013C34.1609 15.9776 35.5987 10.6494 35.4862 8.52714L34.4815 8.47925L27.5273 8.89832H27.5249Z" fill="#03B5B2"/>
</svg>
