<svg width="50" height="50" viewBox="0 0 50 50" fill="none" xmlns="http://www.w3.org/2000/svg">
<g clip-path="url(#clip0_62_74)">
<path d="M46.9253 26.4462C46.9502 31.9772 47.2513 37.5338 47.0634 43.1732C47.022 44.434 46.1656 45.2384 45.0246 45.3696C42.298 45.6891 39.7564 45.7918 36.9523 45.8089L6.03343 46C5.27925 45.7233 4.40351 45.8602 3.95597 45.1642C3.38411 44.2714 3.24046 43.0077 3.2073 41.8439C3.05536 36.5469 3.04155 31.3924 3.22664 26.2494L46.9253 26.4462Z" fill="#03B5B2"/>
<path d="M4.61065 14.52C5.37588 16.6708 7.03344 18 9.35678 18.1911L24.5317 19.4434C30.9823 19.9768 37.3391 19.2523 43.5245 17.2869C44.4444 16.8276 44.5273 15.273 44.7428 14.4915C45.9749 14.5941 48.5883 14.3545 48.8425 16.1972C49.0801 17.9201 49.011 19.6231 48.8673 21.346C48.7651 22.5725 47.9198 23.1459 46.9087 23.1659L36.4053 23.3655L3.27355 23.4454C2.50279 23.4454 1.38118 23.0147 1.24305 22.0249C0.941927 19.8884 0.922589 17.6035 1.18504 15.5098C2.17404 14.4943 3.61335 15.0277 4.61341 14.5171L4.61065 14.52Z" fill="#03B5B2"/>
<path d="M19.5783 9.30274L21.7387 12.2807C26.2444 11.7131 24.83 12.4319 26.7307 9.8875C27.5539 10.2384 28.3219 10.13 29.1507 9.57943C30.1342 8.92906 31.6066 9.23998 31.9989 10.4038C32.4989 11.8757 33.6565 12.392 35.0018 12.4776C33.9162 13.3818 35.7671 16.6593 36.234 16.6621C40.7867 16.6992 39.6762 16.1516 41.668 13.5472C42.7371 13.6471 43.8753 13.8011 44.7427 14.4886C44.53 15.2673 44.4444 16.8247 43.5244 17.284C37.339 19.2494 30.9823 19.9739 24.5316 19.4405L9.35673 18.1882C7.03339 17.9971 5.37583 16.6707 4.6106 14.5171C5.82061 13.8981 7.16323 13.6927 8.55557 13.6243C8.923 14.2318 9.11362 14.9849 9.4838 15.7921C10.9452 15.9576 12.658 16.2314 13.9454 15.4727C14.9675 14.8708 14.5034 13.4702 14.5532 12.5546C14.6305 11.0941 14.4316 9.84186 15.1747 9.25995C16.3129 8.36998 17.8627 9.4853 19.5728 9.29703L19.5783 9.30274ZM30.5651 14.7025C29.8966 12.663 21.0784 14.1719 21.6337 16.5566C22.2166 19.0639 31.4878 17.5093 30.5651 14.7025Z" fill="#0176DF"/>
<path d="M46.9088 23.1687L46.9226 26.4462L3.22393 26.2494C3.14382 25.3166 3.18249 24.3782 3.27366 23.4482L36.4054 23.3684L46.9088 23.1687Z" fill="#0176DF"/>
<path d="M26.7307 9.89043C24.8301 12.4348 26.2473 11.716 21.7387 12.2837L19.5784 9.30567C20.7055 7.36313 24.7085 2.96174 27.1064 4.22539C28.7281 5.08114 26.5263 8.98049 26.7335 9.89043H26.7307Z" fill="#F4B23D"/>
<path d="M41.6708 13.5501C39.6789 16.1544 40.7895 16.7021 36.2367 16.665C35.7699 16.6621 33.9189 13.3846 35.0046 12.4804C36.2064 11.482 40.0325 7.38014 41.7453 8.86914C42.1597 9.22855 42.3531 9.87321 42.2371 10.4979L41.6735 13.5501H41.6708Z" fill="#F4B23D"/>
<path d="M14.5559 12.5603C14.5062 13.476 14.9703 14.8766 13.9482 15.4784C12.6608 16.2372 10.9452 15.9634 9.48658 15.7979C9.11363 14.9907 8.92577 14.2348 8.55835 13.63L8.54177 10.7661C8.53901 10.2128 8.76002 9.71642 9.0418 9.4654C10.8485 7.85945 13.6691 12.1696 14.5587 12.5603H14.5559Z" fill="#F4B23D"/>
<path d="M30.5652 14.7025C31.4852 17.5093 22.2139 19.0639 21.6338 16.5566C21.0536 14.0492 29.8967 12.6629 30.5652 14.7025Z" fill="#F4B23D"/>
</g>
<defs>
<clipPath id="clip0_62_74">
<rect width="48" height="42" fill="white" transform="translate(1 4)"/>
</clipPath>
</defs>
</svg>
