<svg width="50" height="50" viewBox="0 0 50 50" fill="none" xmlns="http://www.w3.org/2000/svg">
<g clip-path="url(#clip0_67_2)">
<path d="M47.8047 37.9401C46.657 33.9181 44.8118 30.2008 42.2874 26.8689L39.887 23.7017C38.0763 21.3119 36.9223 18.6238 36.3593 15.6753L35.4681 11.0082C35.2222 9.71939 34.8742 8.53186 34.3591 7.33026C33.2593 4.76385 31.2345 2.7715 28.6164 1.76196C25.4826 0.55332 21.9591 0.7897 19.0226 2.42185C17.3416 3.35612 16.041 4.71601 15.1356 6.3974C12.3956 11.4873 14.4078 16.5505 10.2327 24.2216C9.44431 25.6709 8.58476 26.9913 7.67942 28.3681C5.95399 30.9929 4.17924 34.037 3.38804 37.0868C2.93784 38.823 2.7307 41.0292 3.59659 42.6424C4.49911 44.3231 6.54088 44.9513 8.20149 44.0058L9.63595 43.189C10.2947 42.8141 11.0324 42.9294 11.541 43.5091C12.2597 44.3273 12.6155 45.5423 13.6652 46.7903C15.3005 48.7341 17.9848 49.2118 20.2048 47.9666C22.2818 46.8023 23.5401 44.5595 25.8074 45.2095C26.5471 45.4213 27.1714 45.8068 27.7759 46.2796C29.3393 47.5009 30.9245 48.68 32.9557 48.9529C34.8023 49.2006 36.5024 48.4598 37.5578 46.9514C38.5892 45.4776 38.6815 44.4357 39.7179 43.1482C40.5486 42.1169 41.8217 41.7384 43.1004 42.0909C43.7134 42.2597 44.3031 42.4321 44.9351 42.475C46.2385 42.5629 47.3629 41.8692 47.7793 40.6282C48.0717 39.7573 48.0625 38.8491 47.8033 37.9408L47.8047 37.9401ZM27.9978 15.3377C27.5518 15.3517 27.1446 15.14 26.8304 14.791C25.8257 13.676 25.7919 11.3326 26.7705 10.0887C27.0805 9.69407 27.5328 9.47598 27.9957 9.48864C28.4543 9.50131 28.8637 9.74824 29.1709 10.1485C30.4306 11.7898 29.8191 15.2807 27.9985 15.3377H27.9978ZM19.9695 14.8079C18.9296 13.6204 18.9211 11.2355 19.942 10.0296C20.431 9.45206 21.2278 9.30643 21.845 9.71588C23.2597 10.6544 23.3098 13.6211 22.1473 14.855C21.5223 15.5185 20.5634 15.4861 19.9695 14.8079ZM23.264 23.2684C21.7837 21.9373 21.7126 18.737 23.1942 17.2737C24.003 16.4745 25.243 16.5231 25.9948 17.4025C27.1848 18.7947 27.2348 21.4005 26.1054 22.9447C25.3868 23.9275 24.1298 24.0478 23.2633 23.2684H23.264Z" fill="#0176DF"/>
</g>
<defs>
<clipPath id="clip0_67_2">
<rect width="45" height="48" fill="white" transform="translate(3 1)"/>
</clipPath>
</defs>
</svg>
