<svg width="50" height="50" viewBox="0 0 50 50" fill="none" xmlns="http://www.w3.org/2000/svg">
<g clip-path="url(#clip0_69_55)">
<g clip-path="url(#clip1_69_55)">
<path d="M40.8246 39.301L36.2445 34.2227C35.2876 33.1611 34.1864 32.3585 32.9387 31.6751L30.7239 30.463C30.4933 30.337 30.1302 29.7433 30.4701 29.5389C31.3818 29.0685 32.3788 29.0155 33.2968 28.6339C33.8377 28.4089 34.3336 28.3566 34.8446 28.4963C36.6214 28.9813 38.1906 28.9533 39.4931 29.3914L42.9618 30.5575C43.7476 30.8211 44.3889 31.25 45.0968 31.6465C46.4479 32.4039 48.2991 33.3675 49.2204 34.5409C48.3508 34.911 45.5546 34.6832 45.328 35.2881C45.2867 35.3986 45.2959 35.5932 45.4206 35.7111C46.7235 36.9436 48.6029 38.6268 49.5245 40.245C48.0357 40.0434 46.6753 39.7112 45.2513 39.4234C44.9547 39.3638 44.6578 39.3333 44.3547 39.4954C44.187 39.6485 44.1308 39.9287 44.2215 40.1343C44.931 41.7416 45.3649 43.4465 45.4777 45.3665L40.8233 39.3011L40.8246 39.301Z" fill="#F4B23D"/>
<path d="M29.8518 45.1808C25.1938 42.0018 23.1798 38.3026 18.6751 34.9304C17.4886 34.0414 16.133 34.0459 14.6904 34.8178C10.3025 37.1654 5.89261 38.9266 1.15552 40.513C1.77423 38.7937 2.63836 37.2939 3.557 35.6977L8.5079 27.1044C9.25861 25.8731 8.98335 24.8138 8.10357 24.0071C5.44847 21.5646 2.8296 19.1796 0.555558 16.1706C4.94021 15.185 8.98606 15.5142 13.0463 16.1948C13.8064 16.322 14.9883 16.4335 15.5909 15.6531L24.0369 4.68624C25.3827 8.4138 25.7172 12.3413 25.8827 16.3395C25.9195 17.2536 26.1602 18.0145 27.0848 18.2009L32.1136 19.1218C35.0289 19.6552 37.7964 20.4584 40.4312 22.0161C38.2387 23.6568 35.9814 24.6518 33.6765 25.6482L28.9967 27.6724C27.1689 28.4633 28.9887 29.9447 29.2527 33.0352C29.5928 37.0391 29.9071 40.9621 29.8504 45.1829L29.8518 45.1808Z" fill="#F4B23D"/>
</g>
</g>
<defs>
<clipPath id="clip0_69_55">
<rect width="50" height="50" fill="white"/>
</clipPath>
<clipPath id="clip1_69_55">
<rect width="88.2777" height="49.2318" fill="white" transform="translate(16.9512 -8.19629) rotate(33.9303)"/>
</clipPath>
</defs>
</svg>
