<svg width="50" height="50" viewBox="0 0 50 50" fill="none" xmlns="http://www.w3.org/2000/svg">
<g clip-path="url(#clip0_62_39)">
<path d="M12.306 29.5618C10.7438 30.3255 5.72325 32.3331 5.22424 29.6694C5.09796 28.9947 5.46254 27.8667 6.3526 27.6659C9.84358 26.8732 14.1044 28.6842 12.308 29.5618H12.306Z" fill="#0176DF"/>
<path d="M12.0146 38.8693C11.259 39.7034 10.1347 39.753 9.44628 39.1797C8.64991 38.5195 8.49716 37.3294 9.14484 36.4167C9.94528 35.2866 12.5258 33.3577 13.5198 34.0489C14.5137 34.7402 13.088 37.6875 12.0146 38.8693Z" fill="#0176DF"/>
<path d="M6.42391 34.1462C7.7702 34.3324 5.97379 37.5218 3.24048 38.4801C2.4767 38.7471 1.51739 38.4946 1.21188 37.8882C0.886002 37.2445 0.894149 36.2986 1.54794 35.7274C2.8148 34.6243 4.71305 33.9081 6.42391 34.1462Z" fill="#0176DF"/>
<path d="M17.8174 37.5115C18.7136 36.4746 20.3389 39.7551 19.6159 42.6009C19.4143 43.3957 18.677 44.0683 18.0109 43.9938C17.3022 43.9152 16.5302 43.3853 16.4243 42.516C16.2186 40.8334 16.6789 38.8299 17.8174 37.5115Z" fill="#0176DF"/>
<path d="M47.5458 20.304C47.5927 22.0654 41.8511 27.0782 40.682 28.2434L33.8019 33.5398C32.9953 34.1607 32.1725 33.9516 31.5554 33.2065L28.7284 29.7998L23.1069 30.0999L21.2759 32.7305C20.9948 33.1341 20.5468 33.397 20.0172 33.4218C18.7483 33.4797 16.4997 29.2783 15.8459 28.0551C15.518 27.4424 15.5486 26.7781 15.8195 26.3186C16.1392 25.7722 16.6423 25.4141 17.3267 25.4328L21.669 25.5549C22.9053 25.59 24.0561 24.816 25.2679 24.5076L23.7628 22.0467C23.2841 21.2644 23.551 20.6538 24.1335 20.1012C27.3087 17.0857 30.9912 14.7842 33.9994 11.5906C36.8366 8.5792 40.2971 6.39153 44.5681 7.1511C45.949 7.3974 47.3727 7.9645 48.332 9.10697C51.2466 12.5716 49.9227 17.1353 47.5438 20.304H47.5458ZM44.5111 18.8552C46.3014 16.3199 47.1365 13.7783 45.3991 11.6424C43.4846 9.2891 40.2197 9.70511 38.1992 11.9549L44.5111 18.8532V18.8552Z" fill="#F4B23D"/>
</g>
<defs>
<clipPath id="clip0_62_39">
<rect width="49" height="37" fill="white" transform="translate(1 7)"/>
</clipPath>
</defs>
</svg>
