<svg width="36" height="36" viewBox="0 0 36 36" fill="none" xmlns="http://www.w3.org/2000/svg">
<path d="M18.4665 31.7847C18.4184 31.8408 18.2718 31.9479 18.2016 31.9699C17.6133 32.1539 17.3743 31.4509 17.179 31.0301C16.3992 29.3519 15.7413 27.6555 15.1518 25.898C14.5223 24.0195 13.9525 22.1197 13.3346 20.2368C13.3014 20.1832 13.2385 20.1826 13.1849 20.17C12.8215 20.0824 12.4082 20.1001 12.054 19.9716L11.9992 19.9974C11.3068 21.1017 10.6175 22.2091 9.90293 23.2989C8.62105 25.2555 7.30159 27.2971 5.94518 29.1944C5.79672 29.4023 5.61808 29.67 5.45731 29.8597C5.27867 30.0707 5.13145 30.2615 4.85795 30.0656C4.62942 29.9019 4.58383 29.5863 4.53948 29.3217C4.21978 27.4174 4.01342 25.4879 3.76148 23.5735C3.49907 21.5811 3.22187 19.5911 2.9958 17.5929L2.93359 17.4991C2.52888 17.3214 2.10754 17.1734 1.70468 16.9939C1.41024 16.8635 0.924835 16.7085 1.00984 16.2852C1.06467 16.0118 1.27226 15.9652 1.51372 16.0257C1.72008 16.0773 2.12048 16.3041 2.35086 16.3967C5.29838 17.5848 8.00999 18.4793 11.146 19.0462C19.0486 20.4743 27.1889 19.3542 34.486 16.0257C34.9911 15.872 35.1783 16.4458 34.7989 16.7545L33.0076 17.5665C32.9897 17.6685 33.0125 17.7731 33.002 17.8758C32.6959 21.0141 32.2573 24.2828 31.7972 27.4023C31.6931 28.1072 31.6087 28.9444 31.4485 29.6253C31.39 29.8735 31.2483 30.1538 30.9557 30.1538C30.6631 30.1538 30.5984 29.9037 30.4605 29.7223C29.5907 28.5777 28.841 27.3494 28.0421 26.1544C26.6813 24.1184 25.296 22.1001 24.0307 19.998L23.9753 19.9722L22.6324 20.2374L20.0995 28.0921C19.643 29.0773 19.2728 30.1072 18.8194 31.0937C18.7357 31.2764 18.5835 31.6468 18.4652 31.7854L18.4665 31.7847ZM3.90501 17.8915C3.87667 17.9148 3.86559 17.923 3.86435 17.9621C3.86127 18.0667 3.9315 18.2897 3.9469 18.4144C4.35838 21.823 4.84563 25.224 5.24233 28.6351C5.24787 28.6829 5.24356 28.7132 5.28976 28.7434L11.1522 19.8267C11.1349 19.7454 10.7937 19.7876 10.7068 19.7788C10.4777 19.7555 10.2091 19.6881 9.97685 19.644C8.30566 19.3278 6.68006 18.8396 5.06554 18.3098C4.67623 18.1819 4.29 18.0345 3.90562 17.8915H3.90501ZM30.7876 28.7755L32.1255 17.8915C31.714 18.0364 31.3013 18.1901 30.8861 18.323C29.1422 18.8799 27.3361 19.4317 25.5301 19.7379C25.3046 19.7763 25.0755 19.799 24.8475 19.8109C24.8346 19.8588 24.8599 19.8632 24.8777 19.8897C25.5609 20.8951 26.1929 21.9401 26.8594 22.9606C28.0636 24.8063 29.3209 26.7969 30.596 28.579C30.6163 28.608 30.7512 28.8215 30.7876 28.7762V28.7755ZM21.77 20.2821C21.345 20.2878 20.9107 20.3773 20.4925 20.4075C18.7055 20.5379 16.8871 20.4969 15.1068 20.3451C14.8149 20.3199 14.521 20.3136 14.2303 20.2821C14.2839 20.5001 14.3405 20.7206 14.4065 20.9354C14.7114 21.9294 15.0415 22.9285 15.3674 23.9169C16.1491 26.286 16.9733 28.6451 18.0002 30.9148C18.0673 30.9293 18.0396 30.8852 18.0537 30.8455C18.3094 30.1318 18.6728 29.4206 18.9531 28.7125C19.497 27.3399 19.9615 25.8961 20.4241 24.4907C20.8867 23.0853 21.2982 21.6768 21.7694 20.2828L21.77 20.2821Z" fill="white" stroke="white"/>
<path d="M18.4665 19.7847C18.4184 19.8408 18.2718 19.9479 18.2016 19.9699C17.6133 20.1539 17.3743 19.4509 17.179 19.0301C16.3992 17.3519 15.7413 15.6555 15.1518 13.898C14.5223 12.0195 13.9525 10.1197 13.3346 8.23678C13.3014 8.18324 13.2385 8.18261 13.1849 8.17001C12.8215 8.08245 12.4082 8.10008 12.054 7.97158L11.9992 7.99741C11.3068 9.10168 10.6175 10.2091 9.90293 11.2989C8.62105 13.2555 7.30159 15.2971 5.94518 17.1944C5.79672 17.4023 5.61808 17.67 5.45731 17.8597C5.27867 18.0707 5.13145 18.2615 4.85795 18.0656C4.62942 17.9019 4.58383 17.5863 4.53948 17.3217C4.21978 15.4174 4.01342 13.4879 3.76148 11.5735C3.49907 9.58106 3.22187 7.5911 2.9958 5.59295L2.93359 5.49909C2.52888 5.32145 2.10754 5.17341 1.70468 4.99388C1.41024 4.86348 0.924835 4.70852 1.00984 4.2852C1.06467 4.01181 1.27226 3.9652 1.51372 4.02567C1.72008 4.07733 2.12048 4.3041 2.35086 4.3967C5.29838 5.58476 8.00999 6.47926 11.146 7.04621C19.0486 8.47427 27.1889 7.35424 34.486 4.02567C34.9911 3.87197 35.1783 4.44584 34.7989 4.75451L33.0076 5.56649C32.9897 5.66854 33.0125 5.77311 33.002 5.87579C32.6959 9.01412 32.2573 12.2828 31.7972 15.4023C31.6931 16.1072 31.6087 16.9444 31.4485 17.6253C31.39 17.8735 31.2483 18.1538 30.9557 18.1538C30.6631 18.1538 30.5984 17.9037 30.4605 17.7223C29.5907 16.5777 28.841 15.3494 28.0421 14.1544C26.6813 12.1184 25.296 10.1001 24.0307 7.99804L23.9753 7.97221L22.6324 8.23741L20.0995 16.0921C19.643 17.0773 19.2728 18.1072 18.8194 19.0937C18.7357 19.2764 18.5835 19.6468 18.4652 19.7854L18.4665 19.7847ZM3.90501 5.89154C3.87667 5.91484 3.86559 5.92303 3.86435 5.96209C3.86127 6.06666 3.9315 6.28965 3.9469 6.41438C4.35838 9.82295 4.84563 13.224 5.24233 16.6351C5.24787 16.6829 5.24356 16.7132 5.28976 16.7434L11.1522 7.82669C11.1349 7.74543 10.7937 7.78764 10.7068 7.77882C10.4777 7.75551 10.2091 7.68811 9.97685 7.64401C8.30566 7.32779 6.68006 6.83959 5.06554 6.30981C4.67623 6.18194 4.29 6.03453 3.90562 5.89154H3.90501ZM30.7876 16.7755L32.1255 5.89154C31.714 6.03642 31.3013 6.19012 30.8861 6.32304C29.1422 6.8799 27.3361 7.43172 25.5301 7.73787C25.3046 7.7763 25.0755 7.79898 24.8475 7.81094C24.8346 7.85882 24.8599 7.86323 24.8777 7.88969C25.5609 8.89506 26.1929 9.94012 26.8594 10.9606C28.0636 12.8063 29.3209 14.7969 30.596 16.579C30.6163 16.608 30.7512 16.8215 30.7876 16.7762V16.7755ZM21.77 8.28214C21.345 8.28781 20.9107 8.37726 20.4925 8.40749C18.7055 8.53789 16.8871 8.49694 15.1068 8.34513C14.8149 8.31993 14.521 8.31363 14.2303 8.28214C14.2839 8.50009 14.3405 8.72057 14.4065 8.93538C14.7114 9.92941 15.0415 10.9285 15.3674 11.9169C16.1491 14.286 16.9733 16.6451 18.0002 18.9148C18.0673 18.9293 18.0396 18.8852 18.0537 18.8455C18.3094 18.1318 18.6728 17.4206 18.9531 16.7125C19.497 15.3399 19.9615 13.8961 20.4241 12.4907C20.8867 11.0853 21.2982 9.67681 21.7694 8.28277L21.77 8.28214Z" fill="white" stroke="white"/>
</svg>
