<svg width="50" height="50" viewBox="0 0 50 50" fill="none" xmlns="http://www.w3.org/2000/svg">
<g clip-path="url(#clip0_62_55)">
<path d="M4.15941 26.7795C6.59091 26.8608 8.84859 27.1398 11.1084 27.019C11.6147 26.9926 12.1905 27.3111 12.5904 27.0387C15.2587 27.6494 19.07 27.4188 21.9644 27.4056C22.5641 27.4034 23.0574 27.3199 23.4789 27.0256C23.5702 27.2167 23.7266 27.4166 23.9352 27.4122L34.7999 27.1662C35.6343 27.1464 36.347 27.3287 36.9554 26.986C39.9084 27.2848 42.6898 26.8784 45.4581 26.7642C46.6141 26.7158 47.1508 27.8779 47.1877 28.7522C47.2486 30.1976 46.5141 31.1949 45.1474 31.3816C44.9257 33.5366 44.6172 35.5224 43.6328 37.3632C41.1296 42.0444 35.6712 42.822 30.8386 42.956C25.4476 43.1032 20.1934 42.8813 14.8046 42.3959C12.3144 42.1718 9.99155 41.7039 7.76212 40.7571C3.63138 39.002 3.62052 35.2764 2.97081 31.5134C2.2255 31.0938 1.22812 30.7665 1.13252 29.6045C1.05646 28.6819 1.03908 27.5923 2.00386 27.0783C2.67964 26.718 3.47493 26.8169 4.15723 26.7795H4.15941ZM21.2082 37.4489L28.7548 37.6532L28.5831 39.7686C28.531 40.4232 29.0351 40.8692 29.6479 40.8406C30.0412 40.8208 30.5127 40.4979 30.5844 39.9378L30.8929 37.5763L37.5595 37.4225L37.2357 39.7313C37.1553 40.309 37.6942 40.7396 38.1788 40.7967C39.6955 40.9768 39.3587 37.8948 39.7867 37.3039C40.2865 36.7481 42.1552 37.2841 42.3443 36.0913C42.4116 35.6696 42.2834 35.1094 41.7228 34.96C41.1622 34.8107 40.6342 34.9886 40.1083 34.9271L40.2843 32.0802C40.3235 31.4409 39.815 30.973 39.2565 30.9818C38.8372 30.9884 38.357 31.3575 38.2853 31.8956L37.8398 35.2851L31.0364 35.4565C30.919 33.7606 31.9881 30.0219 30.1324 30.1624C29.7522 30.191 29.2741 30.4963 29.2328 31.0653L28.9112 35.5378L21.0974 35.3489L20.9561 32.1505C20.9279 31.5222 20.3955 31.1861 19.8892 31.2059C18.3139 31.2718 19.27 34.0616 18.9331 35.2851L11.8733 34.9491C11.5539 33.5234 11.9559 30.5029 10.1197 30.9555C8.72038 31.3003 9.91332 33.7057 9.70037 34.7953C8.62912 34.7843 6.20848 33.9342 6.18892 35.4829C6.1824 35.9332 6.46488 36.3857 7.01029 36.467L10.198 36.9437C10.5413 37.9102 10.9759 41.2228 12.6273 40.3024C13.7811 39.6588 12.3253 37.9849 12.447 37.1084L19.0527 37.383L19.3308 39.9817C19.4025 40.6583 20.0283 40.8494 20.5389 40.7967C21.9383 40.6517 20.9931 38.455 21.2104 37.4467L21.2082 37.4489Z" fill="#0176DF"/>
<path d="M40.6776 17.806C39.715 18.0806 38.5656 18.5309 37.8898 19.3064C34.5652 13.4412 30.7104 10.9194 23.6919 11.027C19.9696 11.0841 16.4104 12.1737 13.6138 14.6274C10.035 17.7687 9.75687 21.9314 8.03156 21.5624C7.48833 21.0132 6.93423 20.5124 6.14111 20.5475C9.18321 11.8068 15.5716 7.92088 24.774 7.99996C31.5318 8.05927 37.8919 11.6421 40.6798 17.806H40.6776Z" fill="#0176DF"/>
<path d="M45.4604 26.7619C42.6921 26.8762 39.9107 27.2848 36.9577 26.9838C36.2776 25.5186 36.8491 23.9634 38.3441 23.0759C37.6335 21.8875 37.5379 20.5123 37.8921 19.3086C38.5679 18.5331 39.7174 18.0806 40.68 17.8082C41.0993 17.6896 41.4101 17.9642 41.7664 17.3403C42.7051 15.706 44.8672 15.159 46.4078 16.1541C47.6485 16.9559 47.4117 18.2519 47.6138 19.526C47.9549 20.0708 48.9132 20.5058 48.9719 21.156C49.1718 23.3571 48.2939 24.2907 45.8863 24.9145C45.7146 25.5911 45.7016 26.2128 45.4604 26.7598V26.7619Z" fill="#03B5B2"/>
<path d="M6.14101 20.5475C6.93413 20.5123 7.48823 21.0132 8.03146 21.5624C8.15314 21.6854 8.12489 21.9863 8.51819 21.9775C10.489 21.9402 10.9714 25.6812 11.1127 27.0168C8.85065 27.1398 6.59515 26.8586 4.16364 26.7773C2.68388 25.8591 0.293658 24.0161 1.20412 21.9687C1.84078 20.5387 3.71385 20.6266 5.10452 20.9824C5.48696 21.033 5.79769 20.5607 6.14318 20.5453L6.14101 20.5475Z" fill="#03B5B2"/>
<path d="M21.2083 37.449C20.9932 38.4573 21.9384 40.654 20.5369 40.799C20.0263 40.8517 19.4005 40.6606 19.3288 39.984L19.0506 37.3853L12.4449 37.1107C12.3232 37.9872 13.7791 39.6611 12.6253 40.3047C10.9738 41.2251 10.5371 37.9125 10.1959 36.946L7.00825 36.4693C6.46067 36.388 6.18036 35.9355 6.18688 35.4852C6.20644 33.9387 8.62708 34.7888 9.69833 34.7976C9.91128 33.708 8.71834 31.3026 10.1177 30.9578C11.9517 30.5052 11.5497 33.5257 11.8713 34.9514L18.9311 35.2874C19.2679 34.0639 18.314 31.2741 19.8872 31.2082C20.3935 31.1884 20.9259 31.5245 20.9541 32.1528L21.0953 35.3512L28.9092 35.5401L29.2308 31.0676C29.2721 30.4986 29.7501 30.1955 30.1304 30.1647C31.9839 30.0242 30.9148 33.7629 31.0343 35.4588L37.8378 35.2874L38.2832 31.8979C38.3527 31.3597 38.8351 30.9907 39.2545 30.9841C39.813 30.9753 40.3214 31.4432 40.2823 32.0825L40.1063 34.9294C40.6321 34.9909 41.1689 34.8152 41.7208 34.9623C42.2727 35.1095 42.4096 35.6719 42.3422 36.0936C42.1532 37.2864 40.2845 36.7526 39.7847 37.3062C39.3545 37.8993 39.6934 40.9791 38.1767 40.799C37.6943 40.7418 37.1533 40.3091 37.2337 39.7336L37.5575 37.4248L30.8909 37.5786L30.5824 39.9401C30.5085 40.5002 30.0391 40.8231 29.6458 40.8429C29.0331 40.8737 28.5289 40.4255 28.5811 39.7709L28.7527 37.6555L21.2062 37.4512L21.2083 37.449Z" fill="#0176DF"/>
<path d="M24.5306 21.2878C24.6197 23.2956 24.3199 25.2001 23.4811 27.0256C23.0617 27.32 22.5685 27.4034 21.9666 27.4056C19.0722 27.421 15.2609 27.6517 12.5926 27.0388C11.8429 26.1294 11.1628 25.1672 10.902 23.9063C10.2719 20.8683 12.7773 19.4712 15.1805 19.067C15.2653 19.4843 15.6998 20.1763 15.9802 20.6156C16.3778 21.2417 17.8923 20.7958 18.1009 20.1675C18.3247 19.4931 17.8424 18.9242 17.8293 18.2432C18.8788 17.9115 20.0066 17.7665 21.1887 17.9027C23.4637 18.4321 23.7505 19.5568 24.5306 21.2856V21.2878Z" fill="#EA4551"/>
<path d="M29.1373 18.9484C29.2916 19.6206 28.9961 20.3279 28.9983 21.0967C28.9983 21.9842 29.8588 22.2851 30.5432 22.2368C32.1447 22.1204 31.5754 20.374 32.1642 19.5656C33.1573 19.4558 34.209 19.4734 35.0738 20.2181C37.1576 22.0106 36.0733 25.2573 34.8022 27.164L23.9375 27.41C23.7289 27.4144 23.5725 27.2145 23.4812 27.0234C24.32 25.198 24.622 23.2956 24.5307 21.2857C25.7476 19.0933 26.8514 19.0538 29.1373 18.9462V18.9484Z" fill="#F4B23D"/>
<path d="M32.1642 19.5656C31.5754 20.374 32.1447 22.1204 30.5432 22.2368C29.8588 22.2873 29.0005 21.9842 28.9983 21.0967C28.9983 20.3279 29.2938 19.6205 29.1374 18.9483C29.6132 18.0719 29.3851 16.677 30.6562 16.3936C31.2168 16.2684 32.0513 16.2903 32.2555 16.9977C32.5119 17.8873 32.0035 18.7484 32.1621 19.5656H32.1642Z" fill="#03B5B2"/>
<path d="M17.8293 18.2454C17.8424 18.9264 18.3248 19.4954 18.101 20.1698C17.8924 20.8002 16.3778 21.2439 15.9802 20.6179C15.6999 20.1763 15.2653 19.4866 15.1805 19.0692C15.0045 18.2015 14.483 17.5096 14.4135 16.6968C14.344 15.884 15.3739 15.6446 15.9476 15.6577C17.3144 15.6907 17.2796 17.3668 17.8272 18.2454H17.8293Z" fill="#03B5B2"/>
</g>
<defs>
<clipPath id="clip0_62_55">
<rect width="48" height="35" fill="white" transform="translate(1 8)"/>
</clipPath>
</defs>
</svg>
