<svg width="50" height="50" viewBox="0 0 50 50" fill="none" xmlns="http://www.w3.org/2000/svg">
<path d="M31.625 40.0061H19.135C18.935 36.1761 16.555 35.7861 14.555 33.1361C8.71496 25.3761 12.445 13.8761 21.825 11.2861C34.825 7.69606 44.3249 23.5861 35.6549 33.8161C33.6749 36.1561 31.805 36.4061 31.615 40.0061H31.625Z" fill="#CF5873"/>
<path d="M31.625 40.0061C31.515 42.0361 31.915 43.8761 30.995 45.8061C28.975 50.0461 22.095 50.0561 19.885 45.9161C18.815 43.9061 19.245 42.1361 19.125 39.9961H31.615L31.625 40.0061Z" fill="#03B5B2"/>
<path d="M34.5348 3.04605C35.6848 2.78605 36.5849 3.76605 36.2549 4.87605C36.1149 5.34605 34.3748 8.63605 34.0848 8.95605C33.1148 10.0061 31.2649 9.15605 31.6949 7.53605C31.8149 7.06605 33.4049 4.16605 33.7349 3.70605C33.9249 3.44605 34.2148 3.11605 34.5348 3.03605V3.04605Z" fill="#0176DF"/>
<path d="M24.4449 7.51611C24.2649 7.35611 24.0649 6.89611 24.0349 6.63611C23.9349 5.84611 23.9249 2.72611 24.0649 2.00611C24.3649 0.526109 26.6149 0.746109 26.8449 2.22611C26.9449 2.86611 26.9549 6.27611 26.8249 6.84611C26.6149 7.79611 25.1249 8.10611 24.4349 7.50611L24.4449 7.51611Z" fill="#F4B23D"/>
<path d="M15.4249 3.04613C16.0649 2.89613 16.5349 3.06613 16.9349 3.57613C17.2349 3.95613 18.8949 7.01613 19.0449 7.46613C19.5649 9.04613 17.7849 10.0461 16.6849 8.96613C16.3649 8.65613 14.8149 5.68613 14.6149 5.15613C14.3149 4.35613 14.4549 3.27613 15.4249 3.05613V3.04613Z" fill="#0176DF"/>
<path d="M41.765 8.80605C43.805 8.55605 44.485 10.156 42.885 11.526C42.375 11.956 40.265 13.586 39.765 13.786C38.355 14.346 37.325 12.746 38.065 11.596C38.575 10.806 41.005 9.58605 41.765 8.80605Z" fill="#F4B23D"/>
<path d="M7.4249 11.1861C6.3749 10.0661 7.41489 8.36612 8.97489 8.83612C9.19489 8.90612 12.4549 11.3061 12.6449 11.5361C13.1549 12.1361 12.9849 13.3061 12.2349 13.7061C11.4849 14.1061 11.1249 13.8561 10.4649 13.4661C9.88488 13.1161 7.81489 11.6261 7.41489 11.1961L7.4249 11.1861Z" fill="#F4B23D"/>
</svg>
