<svg width="50" height="50" viewBox="0 0 50 50" fill="none" xmlns="http://www.w3.org/2000/svg">
<g clip-path="url(#clip0_57_52)">
<path d="M33.9619 29.8295C32.3712 31.6867 29.8253 32.7485 28.706 34.7164C24.9671 36.221 21.466 37.3935 17.6942 37.1639C15.2795 36.6883 12.135 36.6842 9.95809 35.2903C7.19489 33.5192 4.47268 31.4407 2.79591 28.7882C-1.54158 21.9212 -0.664245 12.8936 4.2677 6.67438C6.03467 4.44414 7.67045 2.82886 10.2287 1.63174C11.9792 0.738007 16.3905 -0.102433 17.6901 0.0082594C23.6019 0.516623 29.034 1.09058 32.9369 5.94053C35.3804 8.97431 36.5734 12.537 37.217 16.3784C38.0452 21.3021 36.7292 25.8651 33.9578 29.8295H33.9619ZM9.13405 25.8528C13.1026 30.67 19.1578 32.1909 24.6514 29.0957C27.8164 27.3123 29.7228 24.1678 30.0794 20.433C30.6985 13.9145 26.5824 8.42495 20.3057 7.04745C13.82 5.62485 7.96973 9.48268 6.46104 15.8782C5.55911 19.7032 6.60043 22.778 9.13405 25.8528Z" fill="#03B5B2"/>
<path d="M33.9619 29.8295C38.4306 33.47 42.8254 37.2417 47.1342 41.2635C49.0488 43.051 49.5899 45.4739 48.1059 47.6304C47.2408 48.889 46.1134 49.959 44.8302 49.9959C43.4363 50.0369 41.9399 49.7458 40.8289 48.7619C36.1306 44.5966 32.3794 39.6442 28.7061 34.7163C29.8212 32.7485 32.3712 31.6907 33.9619 29.8295Z" fill="#0176DF"/>
</g>
<defs>
<clipPath id="clip0_57_52">
<rect width="48.9546" height="50" fill="white"/>
</clipPath>
</defs>
</svg>
