<svg width="50" height="50" viewBox="0 0 50 50" fill="none" xmlns="http://www.w3.org/2000/svg">
<g clip-path="url(#clip0_62_30)">
<path d="M41.6845 22.2498C41.8669 23.6983 41.8626 24.9694 42.1095 26.2141C42.2919 27.128 42.3392 28.7759 41.1049 28.8789L34.107 29.4663L35.44 36.0538C35.5194 36.4461 35.5366 37.018 35.2855 37.2876C35.133 37.452 34.8218 37.658 34.4526 37.6799L28.1008 38.0546C26.4028 38.1554 24.6341 37.8442 22.9661 38.2716L16.2001 38.3702C15.554 38.3789 15.1397 37.7938 15.2148 37.1649L16.0369 30.1916L9.45763 30.1872C8.96177 30.1872 8.32637 30.0821 8.13103 29.5693C7.93569 29.0565 7.90564 28.4165 7.95501 27.93C8.09454 26.5669 8.09454 25.2017 8.11601 23.832C8.12674 23.1921 8.82009 22.859 9.47051 22.8612L20.416 22.8831C21.0235 23.122 21.631 23.0781 22.1333 23.3849C22.4488 24.2287 22.3436 25.3222 23.0284 25.9248C23.5822 26.4135 26.2848 26.258 26.8815 25.675C27.9055 24.6757 26.5982 22.6464 28.5731 22.4558L40.1775 21.3469C40.755 21.2921 41.6115 21.6646 41.6866 22.252L41.6845 22.2498Z" fill="#F4B23D"/>
<path d="M32.4433 15.2415C32.7825 18.3533 31.2369 20.9656 28.5708 22.4558C26.596 22.6442 27.9054 24.6757 26.8793 25.675C26.2826 26.2579 23.58 26.4135 23.0262 25.9248C22.3414 25.3222 22.4466 24.2287 22.1311 23.3849C21.6288 23.0781 21.0213 23.122 20.4138 22.8831C17.752 21.4455 16.0197 19.8808 15.8823 16.5541C18.4539 16.0852 21.1007 16.1575 23.8398 15.9361L32.4433 15.2415Z" fill="#396CB5"/>
<path d="M32.4432 15.2415L23.8397 15.9362C21.1006 16.1575 18.4539 16.0852 15.8823 16.5541L11.1834 16.4753C10.7025 16.4665 9.68289 16.4358 9.5219 15.8485C8.78347 13.1574 14.8669 12.7936 16.1334 12.4057L31.6383 11.2442C32.6128 11.1631 39.761 11.093 38.9732 13.6264C38.7478 14.3517 37.7582 14.6016 37.0863 14.687C35.4721 14.893 33.9587 15.1209 32.4454 15.2415H32.4432Z" fill="#C29352"/>
<path d="M31.6362 11.2442L16.1313 12.4056C16.3052 10.3369 15.9145 7.20749 18.6407 6.65963C21.8091 6.02191 25.0655 5.92768 28.3347 6.04163C31.0008 6.13367 31.3464 9.28281 31.6362 11.2442Z" fill="#A3783C"/>
<path d="M28.1007 38.0545L28.0342 42.1898C28.017 43.2023 27.3601 43.7808 26.4092 43.9277C25.3638 44.0898 24.2562 44.0328 23.6079 43.108C23.2923 41.4644 23.0906 39.8515 22.9661 38.2715C24.6361 37.8441 26.4028 38.1553 28.1007 38.0545Z" fill="#936E45"/>
<path d="M42.1094 26.2163C41.8625 24.9715 41.8668 23.6983 41.6843 22.2519C43.5476 22.1906 45.4344 22.1402 47.3921 22.195C48.3109 22.2213 48.8325 22.9905 48.9634 23.7136C49.0944 24.4368 48.884 25.4493 48.0232 25.629C46.0355 26.0454 44.037 26.0015 42.1115 26.2185L42.1094 26.2163Z" fill="#936E45"/>
<path d="M8.1137 23.8319C8.09223 25.2016 8.09223 26.5669 7.9527 27.9299L1.95512 27.713C1.12009 27.6823 0.967685 26.5822 1.00418 25.9357C1.04067 25.2564 1.41632 24.4587 2.23847 24.382L8.1137 23.8297V23.8319Z" fill="#936E45"/>
</g>
<defs>
<clipPath id="clip0_62_30">
<rect width="48" height="38" fill="white" transform="translate(1 6)"/>
</clipPath>
</defs>
</svg>
