<svg width="50" height="50" viewBox="0 0 50 50" fill="none" xmlns="http://www.w3.org/2000/svg">
<g clip-path="url(#clip0_43_124)">
<path d="M32.2815 9.34577C34.2164 13.6057 34.4455 20.1562 34.0025 24.7404C33.6739 28.1507 32.9596 31.504 32.0042 34.7913C31.742 35.6949 30.9403 36.1602 30.1054 36.1602L20.7593 36.1722C19.8822 36.1722 19.0895 35.7159 18.8183 34.7853C17.8719 31.507 17.1335 28.1447 16.8713 24.7374C16.6181 21.4321 16.7327 18.0818 17.1667 14.7495C17.3837 13.0773 17.8779 11.6033 18.3602 10.0993C18.5742 10.0543 18.6435 9.8261 18.6586 9.62797C18.6586 9.58594 18.6525 9.5259 18.6706 9.48987C18.963 9.33076 19.3035 9.32776 19.7195 9.32776L32.2815 9.35178V9.34577ZM25.8468 13.5637C25.4399 13.5637 24.9637 13.5637 24.6683 13.6087C22.1216 14.023 20.5272 16.5147 20.922 18.9674C21.3168 21.4201 23.4688 23.1823 26.0216 22.9301C28.5744 22.6779 30.3375 20.5435 30.2561 18.0788C30.1808 15.7882 28.3755 13.5607 25.8468 13.5637Z" fill="#CF5873"/>
<path d="M32.2813 9.34575L19.7193 9.32173C19.3033 9.32173 18.9628 9.32173 18.6704 9.48385C20.0357 6.5058 21.9827 3.75291 24.4059 1.48635C25.1262 0.813885 25.9671 0.858916 26.6694 1.52237C29.0383 3.7469 30.9522 6.43075 32.2783 9.34875L32.2813 9.34575Z" fill="#CF5873"/>
<path d="M32.0042 34.7882C32.9626 31.501 33.6739 28.1507 34.0024 24.7373C38.2189 27.9945 40.7536 33.5063 39.7982 38.9371C39.7228 39.3604 39.4516 39.6966 39.1411 39.7446C38.7614 39.8017 38.3726 39.6396 38.1224 39.3213C36.6818 37.4781 34.3098 35.1214 32.0042 34.7882Z" fill="#0176DF"/>
<path d="M18.8182 34.7822C16.8561 35.1124 14.4812 37.3339 13.2334 38.9671C12.8868 39.4234 12.1363 39.9367 11.6149 39.5675C11.202 39.2763 11.1779 38.5558 11.1116 38.0845C10.4244 33.032 12.9501 27.7303 16.8712 24.7283C17.1304 28.1356 17.8718 31.4979 18.8182 34.7762V34.7822Z" fill="#0176DF"/>
<path d="M23.7369 39.1472L23.3421 40.9244C22.9081 42.8817 23.8756 44.9021 25.5332 46.0369C27.209 44.8361 28.0408 42.8757 27.6309 40.9454L27.2512 39.1562C27.9745 39.1051 28.7039 39.1051 29.4272 39.1472C29.1921 39.3903 29.3549 39.8767 29.4604 40.1919C30.253 42.5275 29.7135 45.0432 28.0559 46.8475C27.4199 47.5409 26.8081 48.1714 26.1029 48.7808C25.7201 49.108 25.1474 49.066 24.7828 48.7238C23.8786 47.8772 22.9413 47.0816 22.2481 46.0369C20.9912 44.1396 20.9038 41.789 21.6031 39.6755C21.6633 39.4954 21.4885 39.2252 21.3981 39.1202L23.7339 39.1502L23.7369 39.1472Z" fill="#F4B23D"/>
<path d="M30.1024 36.1572V37.9194C30.1024 38.5378 29.7618 38.799 29.4272 39.1442C28.7039 39.1022 27.9745 39.1022 27.2512 39.1532C26.0818 39.0812 24.9064 39.0962 23.737 39.1442L21.4012 39.1142C21.2264 38.9131 20.7652 38.6369 20.7622 38.2286V36.1662L30.1024 36.1542V36.1572Z" fill="#0176DF"/>
<path d="M18.3601 10.0933C18.4174 9.91315 18.4867 9.72402 18.6585 9.62195C18.6464 9.82008 18.5771 10.0482 18.3601 10.0933Z" fill="#CF5873"/>
<path d="M25.8466 13.5636C28.3753 13.5606 30.1807 15.7882 30.256 18.0787C30.3374 20.5434 28.5622 22.6779 26.0214 22.9301C23.4807 23.1823 21.3107 21.369 20.9219 18.9674C20.5331 16.5657 22.1214 14.026 24.6682 13.6087C24.9605 13.5606 25.4397 13.5636 25.8466 13.5636ZM27.4078 19.892C28.2517 18.7902 28.3904 17.8866 27.5585 16.7008C27.1577 16.1304 26.2746 15.533 25.4337 15.6741C24.5928 15.8152 24.0021 16.1424 23.4897 16.7969C22.6127 17.9106 22.9774 19.4357 24.0142 20.2372C25.051 21.0388 26.6182 20.9217 27.4078 19.895V19.892Z" fill="#F4B23D"/>
<path d="M27.2512 39.1563L27.631 40.9455C28.0408 42.8788 27.209 44.8362 25.5333 46.037C23.8756 44.9022 22.9081 42.8788 23.3421 40.9245L23.737 39.1472C24.9064 39.0992 26.0848 39.0842 27.2512 39.1563Z" fill="#F4B23D"/>
<path d="M27.408 19.892C26.6183 20.9217 25.0059 20.9998 24.0143 20.2343C22.9745 19.4327 22.6098 17.9077 23.4899 16.7939C24.0053 16.1425 24.599 15.8122 25.4339 15.6711C26.2687 15.53 27.1578 16.1304 27.5587 16.6978C28.3905 17.8836 28.2519 18.7873 27.408 19.889V19.892Z" fill="#0176DF"/>
</g>
<defs>
<clipPath id="clip0_43_124">
<rect width="29" height="48" fill="white" transform="translate(11 1)"/>
</clipPath>
</defs>
</svg>
