<svg width="50" height="50" viewBox="0 0 50 50" fill="none" xmlns="http://www.w3.org/2000/svg">
<g clip-path="url(#clip0_57_105)">
<path d="M4.89651 16.5332C5.35113 17.112 6.10633 17.0897 6.88638 17.2785L22.6413 21.0818C24.3381 21.4917 26.1143 21.288 27.662 20.7589C27.7812 20.0061 27.5353 19.5292 27.4707 18.9976L41.8543 17.2238C42.3661 17.1617 42.771 17.1741 43.1436 17.266C45.2354 17.7927 47.7395 17.5418 48.0475 19.6484C48.1692 20.4881 47.9084 21.2582 47.101 21.4743L40.1079 22.1749L24.8498 23.8294C23.2674 24.0008 22.224 25.0839 22.2265 26.7409C22.2265 28.527 23.6822 30.0424 25.5653 30.0573C27.7911 30.0772 29.9276 29.6772 32.1981 29.4363L46.5917 27.901C47.4215 27.8116 48.2711 28.2612 48.4375 29.1158C48.5866 29.8834 48.0624 30.7281 47.2476 30.9616C46.2812 31.2373 45.2304 31.138 44.115 31.2498L27.9948 32.8844C25.6125 33.1253 23.3816 32.7701 21.1756 31.9826C13.9093 29.3841 10.6674 30.0772 4.62325 28.7556C2.81722 28.3606 1.00622 27.1384 0.375224 25.2876C-0.419728 22.9599 0.109412 20.2968 1.51548 18.369C2.36509 17.2064 3.71402 16.9704 4.90148 16.5357L4.89651 16.5332Z" fill="#0176DF"/>
<path d="M47.2451 30.964C47.3047 31.3491 47.0811 31.6944 46.8054 31.8832C45.521 31.7093 44.2441 31.9254 42.8207 32.1266L23.5133 34.8444C22.0849 35.0456 20.9694 35.5449 20.48 36.7374C19.9906 37.9298 20.2217 39.3011 21.2054 40.1308C22.0004 40.8015 23.0438 40.809 24.0573 40.6947C31.9646 39.8128 37.2585 38.0217 45.4887 38.0291C46.2638 38.0291 46.9668 37.89 47.6301 37.8081C48.1816 37.7385 48.8524 37.7782 49.4536 38.0366C50.0001 38.2726 50.0622 39.1793 49.9504 39.6166C49.861 39.9693 49.4709 40.5631 48.8921 40.6326L26.0596 43.4025C23.4512 43.718 21.1508 43.6038 18.602 42.9728L5.2741 39.6712C2.74516 39.0452 1.69433 36.5436 1.903 34.1289C2.09429 31.9229 2.85695 29.9157 4.61578 28.7531C10.6599 30.0747 13.9018 29.3816 21.1682 31.9801C23.3742 32.7676 25.605 33.1228 27.9874 32.8818L44.1075 31.2472C45.2254 31.1329 46.2762 31.2348 47.2401 30.959L47.2451 30.964Z" fill="#CF5873"/>
<path d="M41.8567 12.0218C39.2657 12.2752 36.6647 12.4267 33.9271 12.5087C31.3335 12.5833 28.8443 12.5932 26.3005 12.859C24.256 13.0726 22.4077 14.4638 22.2214 16.4835C22.1469 17.2834 22.3158 18.0287 22.7853 18.5454C23.1431 18.9404 23.9455 19.2633 24.6336 19.1292C25.6347 18.9329 26.5862 19.1118 27.4706 19.0025C27.5352 19.5341 27.7811 20.0111 27.6619 20.7638C26.1117 21.2905 24.3355 21.4942 22.6412 21.0868L6.88628 17.2834C6.10623 17.0946 5.35103 17.117 4.89642 16.5381C4.75233 15.1122 4.26791 9.79098 6.28261 9.2842C11.333 8.00979 16.3512 7.05834 21.5035 6.14166C23.1182 5.85349 24.7156 6.04974 26.303 6.30313L42.3213 8.87182C43.0988 8.99603 43.3497 10.027 43.2206 10.5785C43.1013 11.0877 42.5051 11.9572 41.8542 12.0193L41.8567 12.0218Z" fill="#03B5B2"/>
<path d="M46.8053 31.8832C46.7034 35.5325 46.2488 34.4022 47.6325 37.808C46.9692 37.89 46.2662 38.0316 45.4911 38.0291C37.2609 38.0217 31.9645 39.8128 24.0597 40.6947C23.0462 40.8065 22.0028 40.799 21.2078 40.1308C20.2241 39.3011 20.003 37.9 20.4824 36.7373C20.9619 35.5747 22.0872 35.0456 23.5157 34.8444L42.8231 32.1266C44.2441 31.9254 45.5234 31.7118 46.8078 31.8832H46.8053Z" fill="#F4B23D"/>
<path d="M47.0984 21.4767C45.6004 21.8742 45.6253 26.8774 46.5892 27.9009L32.1956 29.4362C29.925 29.6772 27.7885 30.0771 25.5627 30.0572C23.6771 30.0423 22.2239 28.527 22.2239 26.7408C22.2239 25.0838 23.2648 24.0007 24.8472 23.8293L40.1053 22.1748L47.0984 21.4742V21.4767Z" fill="#F4B23D"/>
<path d="M41.8566 12.0219L41.6604 15.2066C41.5958 16.2525 42.2392 16.9928 43.141 17.271C42.7683 17.1766 42.3634 17.1642 41.8516 17.2288L27.468 19.0025C26.5836 19.1118 25.6321 18.933 24.631 19.1292C23.9429 19.2634 23.1429 18.9404 22.7827 18.5454C22.3132 18.0287 22.1443 17.2834 22.2188 16.4835C22.4051 14.4638 24.2534 13.0727 26.2979 12.859C28.8393 12.5932 31.3285 12.5858 33.9245 12.5088C36.6621 12.4293 39.2631 12.2777 41.8541 12.0219H41.8566Z" fill="#F4B23D"/>
</g>
<defs>
<clipPath id="clip0_57_105">
<rect width="50" height="37.5739" fill="white" transform="translate(0 6)"/>
</clipPath>
</defs>
</svg>
