<svg width="1108" height="814" viewBox="0 0 1108 814" fill="none" xmlns="http://www.w3.org/2000/svg">
<g clip-path="url(#clip0_65_111)">
<path d="M183.26 337.39C182.33 332.31 182.7 327.08 182.03 321.52C180.07 305.32 174.63 290.57 169.73 275.05L149.57 221.11C142.74 202.83 136.64 185.18 131.81 165.77L83.39 165.73L73.25 166.69C68.43 186.61 61.78 205.13 54.05 224.1L34.89 271.08C24.75 295.93 13.13 331.93 23.06 357.81C26.66 367.19 35.19 378.03 46.39 378.07L159.15 378.51C166.19 378.54 171.16 373.61 176.28 370.45C177.6 364.62 184.23 342.74 183.25 337.39H183.26Z" fill="#F4B23D"/>
<path d="M140.17 10.38C140.17 4.78 135.84 0.09 130.01 0.08L72.34 0C67.3 0 62.93 4.42 62.96 9.39L63.11 40.52L140.15 40.46L140.17 10.37V10.38Z" fill="#B98048"/>
<path d="M150.36 51.83C150.67 47.4 146.67 40.44 140.15 40.47L63.11 40.53C57.52 41.07 52.78 44.59 52.26 50.15C51.76 55.52 55.56 62.48 62.45 62.48L140.07 62.42C146.05 62.42 149.94 57.83 150.36 51.84V51.83Z" fill="#F4B23D"/>
<path d="M547.65 515.65L547.74 72.85C541.28 71.59 535.45 72.74 529.76 72.78C528.73 72.86 527.67 72.75 526.64 72.86L507.81 74.85C507.64 75.81 506.2 75.58 505.46 75.6L501.72 75.72C501.03 75.74 500.32 75.77 499.64 75.87C442.6 85 389.17 106.71 342.17 141.42C254.93 205.87 202.31 302.9 197.63 411.67C196.28 443.05 199.4 472.75 204.92 502.75C206.03 503.29 205.72 504.71 205.72 505.74C206.27 505.96 206.43 507.16 206.58 507.67C206.74 508.2 206.61 509.16 206.71 509.76C207.19 510.22 207.43 511.05 207.56 511.67C207.7 512.35 207.62 513.07 207.71 513.76C208.58 516.25 210.1 519.78 212.66 520.61L294.84 520.39L370.75 520.53L527.29 520.43C534.14 520.43 540.11 520.49 546.25 519.73C546.47 518.96 547.18 518.43 547.54 517.75C547.83 517.18 547.46 516.28 547.66 515.65H547.65ZM290.92 340.22C289.2 341.35 286.14 340.66 283.68 340.41L274.15 311.19C275.56 310.9 279.9 309.91 280.49 311.61L287.21 331.08C291 325.07 291.48 317.91 294.47 311.41C295.21 310.11 299.44 310.62 300.66 311.55L290.93 340.23L290.92 340.22ZM323.87 340.57L304.86 340.55V310.91L323.3 310.9C323.71 312.59 323.72 313.96 323.25 315.45C319.61 316.22 315.55 314.82 311.97 316.2C310.56 316.75 310.68 321.5 312.05 322.34C314.74 323.98 318.53 322.42 321.48 323.5C322.49 323.87 322.46 327.08 321.64 327.85L312.48 328.68C310.66 328.85 310.38 334.49 311.99 335.3C315.52 337.07 319.73 334.74 323.45 336.24C324.73 336.75 324.23 339.05 323.88 340.58L323.87 340.57ZM352.06 338.76C346.68 340.73 338.85 342.81 333.47 338.6C326.55 333.18 326.32 320.76 332.14 314.41C336.77 309.35 344.88 309.21 350.36 312.17C351.78 312.94 350.3 316.81 349.06 316.45C344.81 315.21 341.14 314.95 337.94 317.45C335.29 319.52 334.43 323.47 334.74 327.33C335.11 331.84 337.17 335.28 342.07 335.57C343.32 335.64 344.82 335.98 345.68 335.29C346.86 334.34 346.71 332.54 346.61 331.24C346.48 329.52 344.55 329.29 342.58 329.35C340.94 329.39 340.6 325.82 341.51 325.33C344.54 324.02 348.53 325.03 352.33 324.93C352.49 329.81 352.76 333.62 352.03 338.76H352.06ZM377.22 340.51L358.34 340.6C357.53 330.81 357.76 321.22 358.18 310.95L376.3 310.86C376.74 312.58 376.77 313.96 376.32 315.42C372.77 316.11 369.38 314.95 365.49 315.93C363.52 316.43 363.57 321.91 365.5 322.65C368.55 323.82 371.71 322.44 374.47 323.31C375.36 323.59 375.45 326.7 374.81 327.67L364.81 328.75C364.24 331.13 364.21 333.33 364.9 335.61L376.77 336.06C377.97 336.11 377.46 339.23 377.2 340.5L377.22 340.51ZM401.7 315.59C393.46 318.16 395.38 309.03 394.99 340.21C393.35 341.1 391.03 340.87 388.86 340.4L388.49 316.69C388.45 313.96 379.97 318.08 380.22 313.25C380.31 311.46 381.22 310.62 383.58 310.73C389.73 311.02 395.5 310.41 401.81 311.08C403.21 311.23 403.23 315.12 401.7 315.6V315.59ZM423.06 339.9L421.23 335.56C420.45 333.7 412.7 333.79 410.59 335.07C409.35 335.82 409.48 338.09 408.44 339.78C407.46 341.37 404.72 340.75 402.46 340.24C405.9 330.84 408.03 321.38 412.13 311.73C412.86 310.01 417.52 310.54 419.34 311.32L429.35 340.28C427.47 340.64 423.88 341.86 423.05 339.91L423.06 339.9ZM450.16 340.39C445.29 341.11 439.19 340.67 433.54 340.5L433.49 311.17C435.83 310.59 437.4 310.59 439.46 311.1L439.65 335.42C442.84 336.16 445.43 335.52 449.41 335.78C451.11 335.89 451.14 339.65 450.15 340.39H450.16ZM473.73 340.43C467.6 340.89 461.82 340.77 455.49 340.55L455.25 310.97C461.14 310.66 467.42 310.69 473.29 310.99C473.91 311.98 474.13 314.64 473.26 315.1C470.13 316.75 466.03 314.58 462.47 316.08C460.86 316.78 460.83 321.88 462.55 322.67C465.56 324.06 468.59 322.46 471.51 323.39C472.49 323.71 472.09 325.51 472.08 327.45C469.16 328.69 465.17 326.62 462.32 328.59C460.64 329.75 461.61 333.63 461.77 335.5L473.75 335.94C474.93 335.98 474.94 340.34 473.73 340.43ZM495.25 339.58C489.92 341.96 483.92 341.41 479.09 339.27C478.02 338.8 479.2 335 480.49 335.13C483.61 335.47 491.3 337.99 492.63 333.08C493.09 331.39 492.16 329.73 490.24 329.01L484.35 326.78C480.84 325.45 478.6 322.6 478.73 319.22C478.86 316 480.26 312.33 484.02 311.34C488.16 310.26 492.86 310.23 496.9 311.84C498.28 312.39 497.41 316.05 495.8 316.04C492.75 316.04 487.99 314.17 485.99 317.08C482.09 322.74 497.08 321.95 499.12 328.7C500.31 332.62 499.47 337.68 495.25 339.56V339.58Z" fill="#03B5B2"/>
<path d="M922.44 442.8L570.94 442.7C567.78 442.7 564.63 444.71 564.63 448.04L564.69 787.51C653.55 790.29 739.47 762.73 806.46 704.04C879.22 641.05 922.32 545.3 925.03 450.01C925.09 448.02 925.83 442.8 922.44 442.79V442.8ZM776.69 501.41C776.92 499.59 779.95 498.83 781.86 498.88C782.53 498.9 782.91 499.92 782.98 501.09C783.04 502.31 778.56 504.05 777.4 503.51C776.85 503.25 776.59 502.24 776.69 501.41ZM783.28 534.17C782.41 536.1 777.64 536.05 777.46 534.45C776.48 525.32 776.52 516.07 777.32 506.95C777.44 505.54 782.08 505.45 782.84 506.63C783.66 515.15 783.43 524.64 783.27 534.17H783.28ZM771.01 510.32C768.02 511.55 763.38 509.64 760.04 511.28C758.48 512.05 758.9 517.59 760.48 517.69L769.17 518.23C769.79 518.85 769.62 520.56 769.37 522.39C766.3 523.63 762.91 521.63 759.95 523.24C758.45 524.06 758.84 529.2 760.51 529.76C763.92 530.92 767.12 529.64 770.4 530.41C771.85 530.75 771.95 533.49 771.28 534.99C765.84 535.64 759.34 535.93 753.32 535.08L753.24 506.02C758.34 506.89 775.55 502.79 771.01 510.32ZM649.4 584.94C644.26 588.07 637.34 587.73 632.72 585.02C631.98 584.58 633.13 582.78 633.14 582.36C633.19 580.4 641.11 583.88 645.06 581.17C646.38 580.27 646.09 577.87 645.25 576.76C643.2 574.07 635.37 574.66 632.87 569.08C631.54 566.11 631.91 561.43 635.22 559.44C639.77 556.7 646.1 557.39 650.33 559.23C650.25 560.78 649.73 562.04 649.25 562.81C648.73 563.65 639.53 560.31 638.68 564.77C637.71 569.85 649.63 568.92 651.89 575C653.1 578.24 652.87 582.83 649.41 584.94H649.4ZM649.44 534.98C648.47 525.58 648.73 516.13 649.09 506.1C657.01 506.25 669.21 503.41 669.85 514.76C670.18 520.64 666.78 525.11 660.01 525.43C658.18 525.52 656.24 525.39 655.71 526.39C654.72 528.27 655.79 534.23 654.5 534.93C653.1 535.69 651.51 535.34 649.43 534.98H649.44ZM675.31 586.65C673.38 586.75 674.33 584.01 672.65 581.88C670.83 579.56 663.12 579.41 662.27 581.46L660.34 586.13C659.85 587.3 655.5 587.46 654.53 585.67L663.88 558.91C664.46 557.26 669.96 557.2 670.94 558.66C674.62 567.1 677.51 576.61 680.42 585.86C680.03 587.25 676.7 586.58 675.32 586.65H675.31ZM678.15 535.45C675.51 535.71 673.91 535.13 673.97 531.85L674.42 506.31C682.73 505.67 694.52 503.76 695.49 514.27C695.86 518.32 694.14 521.39 690.6 523.83L696.71 534.75C687.34 538.76 688.02 526.92 682.53 524.88C677.85 523.14 683.26 534.93 678.15 535.44V535.45ZM700.57 586.44C695.53 587.04 690.02 586.73 684.36 586.68C684.12 577.54 683.91 568.34 684.41 558.89C684.48 557.5 688.97 557.62 690 558.57L690.63 581.58C693.81 582.42 696.61 581.49 700.43 582.09C701.53 582.27 701.65 586.14 700.58 586.44H700.57ZM699.67 521.71C699.62 516.7 700.32 511.1 704.76 507.92C709.31 504.65 716.7 504.92 721.17 508.14C725.24 511.08 725.79 516.09 725.77 521.16C725.74 529.91 720.64 535.36 713.1 535.68C705.55 536 699.75 529.98 699.67 521.71ZM726.65 578.81C726.04 583.83 722.84 586.43 717.99 587.05C712.35 587.77 705.34 585.93 704.25 579.61C703.01 572.42 704.36 565.37 704.12 558.13C706.14 557.83 707.92 557.83 709.95 558.51C711.72 566.28 706.46 581.45 715.17 582.07C717.86 582.26 720.81 581.15 720.89 577.66L721.32 558.42C722.08 557.34 724.79 557.88 726.52 558.2C727.71 564.97 727.49 571.93 726.65 578.8V578.81ZM727.98 506.21L749.25 506.26C749.68 507.6 749.7 508.95 749.35 510.52C746.82 510.88 744.54 510.44 741.87 511.18L741.4 534.53C741.37 535.97 736.29 535.93 736.1 534.58C735 526.7 736.23 518.9 735.55 511.08L727.93 510.51C727.58 508.96 727.57 507.61 727.98 506.21ZM744.64 586.73C740.73 586.87 736.94 586.87 732.94 586.56L732.84 558.01C737.45 557.83 741.93 557.46 746.19 558.34C753.14 559.77 756.8 564.82 756.71 572.29C756.61 580.09 752.36 586.46 744.64 586.73ZM778.82 585.91C777.59 584.81 777.9 582.5 777.18 581.7C775.3 579.61 767.84 580.58 766.72 581.24C765.53 581.94 765.66 583.77 764.9 585.51C764.13 587.28 759.85 587.32 758.68 585.84L767.94 558.81C768.88 557.26 773.5 557.59 775.27 558.35L784.59 585.95C783.19 586.94 780.48 587.4 778.82 585.92V585.91ZM809.76 580.37C807.07 589.05 797.4 586.5 788.62 586.56L788.68 558.23C797.66 558.34 803.92 555.7 808.12 562.61C810.22 566.08 806.49 568.86 806.73 571.31C807.02 574.15 811.07 576.15 809.76 580.37ZM812.39 533.56C812.36 535.53 807.5 535.12 806.63 533.92C802.79 528.64 800.19 523.33 795.76 518.3L794.87 534.46C794.8 535.69 790.05 535.89 790.01 534.64C789.66 525.3 789.04 516.09 790.11 506.66C790.37 504.37 795.84 506.62 796.78 508.4C799.66 513.84 803.03 518.07 806.34 522.86L807.18 506.84C807.25 505.48 812.15 505.43 812.22 506.78C812.68 515.51 812.55 523.94 812.39 533.56ZM831.08 586.44C826.25 587.04 820.23 586.76 814.82 586.57L814.79 558.12C816.83 557.72 818.49 557.71 820.45 558.15L820.95 581.34C823.93 582.41 826.59 581.68 830.47 581.97C832.01 582.09 832 585.59 831.07 586.45L831.08 586.44ZM823.59 529.68C821.93 530.93 822.95 533.98 820.89 534.56C819.6 534.92 817.94 535.81 815.72 534.42L825.62 506.58C826.57 505.29 830.56 505.81 832.41 506.46L841.35 533.88C841.86 535.46 838.34 535.36 837.28 535.25C835.74 535.09 835.3 532.98 834.02 530.45C832.66 527.77 825.75 528.07 823.58 529.69L823.59 529.68ZM835.67 586.62L835.81 558.02C841.55 557.81 847.88 557.78 853.05 558.27C854.02 558.87 853.94 562.12 852.78 562.39C849.01 563.28 845.27 561.6 842.21 563.27C840.85 564.01 841.38 567.73 842.13 568.87C843.46 570.87 850.49 568.48 851.72 570.67C852.16 571.46 852.36 573.49 851.32 574.03C848.74 575.38 845.31 573.76 842.58 574.84C840.87 575.51 840.96 580.94 842.6 581.7C846.01 583.28 850.46 581.11 853.3 582.76C857.85 589.38 839.85 585.91 835.66 586.61L835.67 586.62Z" fill="#F4B23D"/>
<path d="M744.6 380.85C743.3 379.61 741.59 379.79 739.89 379.96C740.22 381.54 740.12 383.17 740.13 384.77L747.45 389.76C747.36 388.73 747.7 387.68 747.77 386.66C747.03 384.57 746.25 382.43 744.6 380.85Z" fill="#B98048"/>
<path d="M543.6 538.36C530.84 537.75 518.48 537.83 505.65 537.86L472.5 537.94L336.66 537.99L219.01 538.22C216.99 538.22 214.99 540.51 215.78 542.71C228.36 577.91 246.17 610.52 269.48 639.85C337.11 724.46 438.03 779.09 547.11 786.55L547.19 542.27C547.19 539.95 545.31 538.88 543.6 538.35V538.36ZM339.31 602.01L329.36 602.69C327.61 602.81 327.46 608.15 328.98 609.4C331.08 611.13 334.05 609.5 337.34 610.18C338.77 610.48 338.72 613.92 337.64 614.18C334.54 614.93 331.74 614.05 328.74 614.94C327.34 618.39 328.92 622 327.78 625.57C327.33 626.97 323.82 626.35 322.34 625.91L322.2 597.91C327.65 597.57 332.85 597.48 338.6 597.85C340.25 597.95 340.55 601.92 339.32 602.01H339.31ZM353.13 616.21C352.21 616.16 350.62 616.43 350.54 617.73L350.04 626.06C348.34 626.46 346.83 626.42 344.7 626.16V597.83C350.25 597.81 355.65 596.99 360.62 598.75C364.39 600.09 365.28 603.86 365.34 607.18C365.4 610.6 363.44 613.19 360.2 615.6C362.47 619.52 364.72 622.55 366.22 626.05C356.33 629.26 357.21 616.43 353.13 616.22V616.21ZM381.59 626.76C375.52 626.59 370.73 623.22 370.8 616.68L371 598.05C372.86 597.52 374.54 597.54 376.47 598.03L376.81 616.55C376.87 620.03 379.53 621.77 382.21 621.85C385.64 621.96 387.95 619.51 387.96 615.76L388.02 598.2C389.63 597.3 391.5 597.59 393.49 598.12L393.72 615.73C393.81 623.05 388.51 626.94 381.6 626.74L381.59 626.76ZM410.98 625.44C410.94 626.88 405.78 626.83 405.53 625.42L404.78 602.96C402.42 601.9 399.79 602.76 397.76 602.01C396.79 601.65 396.83 598.56 397.75 597.84L418.61 597.99C419.49 598.58 419.12 600.89 418.79 602L411.54 602.87L410.97 625.44H410.98ZM437.59 625.51C436.36 623.96 436.58 621.87 435.69 621.22C433.85 619.89 427.32 619.8 425.61 621.24C424.75 621.97 424.78 623.91 423.86 625.35C422.79 627.01 419.79 626.56 418.06 625.75L427.28 598.44C428.77 597.33 432.54 597.32 434.28 598.29L443.88 625.78C441.99 626.42 438.92 627.18 437.6 625.51H437.59ZM462.93 624.47C457.93 627.62 451.33 627.16 446.44 625.03C445.64 624.3 446.37 621.99 447.03 621.35C448.11 620.31 460.45 624.97 459.46 617.79C458.87 613.52 446.35 614.36 445.91 606.22C445.72 602.74 447.27 599.63 450.93 598.22C455 596.65 460.04 596.47 463.62 598.88C464.4 599.41 463.29 601.62 463.09 602.23C462.49 604.11 452.94 599.42 452.3 604.72C451.64 610.09 463.35 608.24 465.42 615.43C466.18 618.09 466.43 622.28 462.93 624.48V624.47Z" fill="#CF5873"/>
<path d="M1090.45 18.96L909.06 19.03C899.65 19.03 891.79 27.86 892.61 36.76L905.72 179.71L914.62 271.24C865.36 164.27 768.59 83.89 652.72 56.71C583.77 40.54 511.36 41.84 443.54 61.95C355.41 88.08 280.13 145.73 230.12 222.38C215.07 245.45 203.29 269.65 193.77 295.27C193 279.69 184.2 265.51 179.9 250.87C178.78 247.05 180.8 243.48 183.26 240.47C199.36 220.78 212.39 204.38 222.81 180.82C233.17 157.39 239.99 124.65 218.08 105.89C185.75 78.2 148.18 112.68 142.31 109.94C141.31 109.48 140.36 108.12 140.35 106.44L140.08 62.41L62.46 62.47L62.67 111.46C62.82 146.09 49.81 189.49 36.1 221.07L15.12 269.4C2.00999 299.61 -5.10001 331.05 4.32999 363.7C9.09999 380.23 24.3 396.79 42.35 396.87L160.66 397.36C166.39 397.38 169.9 394.33 172.09 390.25C171.14 400.65 170.56 411.14 170.34 421.75C169.47 463.07 174.73 502.63 187.51 542.03C205.68 598.05 236.15 647.92 277.59 689.62C292.14 704.25 306.25 717.29 322.91 729.67C363.71 760.01 409.17 783.76 459.17 797.63C540.23 820.12 626.02 818.67 705.28 793.43C733.47 784.45 759.02 771.6 783.49 755.71C871.17 698.78 929.3 603.57 945.41 500.44C953.01 451.78 951.92 402.18 941.91 354.22L1056.16 354.73C1068.63 354.79 1080.93 348.12 1082.04 335.25L1092.88 209.68L1107.03 34.72C1107.68 26.7 1098.28 18.94 1090.45 18.94V18.96ZM147.07 132.17C158.65 125.59 178.25 114.04 191.35 114.29C201.78 114.49 211.87 121.64 213.15 132.39C216.14 157.68 198.91 189.39 183.62 208.67C180.56 212.53 177.38 216.8 173.04 219.38C166.12 223.5 157.93 194.55 156.46 190.18C151 173.94 146.53 157.86 143.74 140.91C143.17 137.47 143.86 134 147.08 132.17H147.07ZM174.21 371.82C169.78 374.86 165.24 378.54 159.15 378.52L46.39 378.08C35.19 378.04 26.66 367.2 23.06 357.82C13.13 331.94 24.75 295.94 34.89 271.09L54.05 224.11C61.79 205.15 68.43 186.62 73.25 166.7L83.39 165.74L131.81 165.78C136.64 185.19 142.74 202.83 149.57 221.12L169.73 275.06C174.63 290.58 180.07 305.33 182.03 321.53C182.39 324.48 182.45 327.33 182.57 330.11C178.91 343.9 176.17 357.79 174.21 371.83V371.82ZM547.1 786.56C438.01 779.1 337.1 724.47 269.47 639.86C246.17 610.52 228.35 577.91 215.77 542.72C214.99 540.53 216.98 538.24 219 538.23L336.65 538L472.49 537.95L505.64 537.87C518.47 537.84 530.83 537.76 543.59 538.37C545.29 538.91 547.18 539.97 547.18 542.29L547.1 786.57V786.56ZM547.53 517.75C547.17 518.42 546.47 518.96 546.24 519.73C540.1 520.49 534.12 520.43 527.28 520.43L370.74 520.53L294.83 520.39L212.65 520.61C210.09 519.78 208.57 516.24 207.7 513.76C207.49 513.37 206.48 513.16 206.62 512.29C206.7 511.79 206.97 511.29 207.55 511.67C207.42 511.05 207.18 510.22 206.7 509.76C206.31 509.38 205.53 509.17 205.63 508.29C205.68 507.78 206.02 507.29 206.58 507.67C206.43 507.16 206.27 505.96 205.72 505.74C204.19 505.12 205.12 503.83 204.92 502.75C199.39 472.76 196.28 443.05 197.63 411.67C202.31 302.9 254.93 205.87 342.17 141.42C389.17 106.7 442.6 85 499.64 75.87C499.41 75.03 500.16 74.45 501.11 74.74C501.52 74.87 502.11 75.11 501.72 75.71L505.46 75.59C504.94 74.99 505.41 74.15 506.21 73.77C506.71 73.53 507.4 74.49 507.81 74.84L526.64 72.85C526.44 71.85 527.34 71.56 528.13 71.7C528.74 71.8 530.11 71.83 529.76 72.78C535.45 72.74 541.28 71.59 547.74 72.85L547.65 515.65C548.1 516.03 548.59 516.58 548.51 517.13C548.43 517.7 548.04 517.94 547.53 517.74V517.75ZM925.03 450.01C922.31 545.31 879.22 641.06 806.46 704.04C739.48 762.73 653.56 790.29 564.69 787.51L564.63 448.04C564.63 444.7 567.78 442.69 570.94 442.7L922.44 442.8C925.83 442.8 925.09 448.02 925.03 450.02V450.01ZM925.65 422.25C925.65 422.62 925.62 422.97 925.58 423.32C925.54 423.64 925.49 423.95 925.41 424.25C925.39 424.32 925.38 424.38 925.36 424.45C925.28 424.73 925.19 425 925.07 425.26C924.94 425.55 924.78 425.81 924.59 426.05C924.5 426.17 924.39 426.28 924.29 426.39C923.96 426.71 923.56 426.96 923.08 427.14C922.78 427.25 922.45 427.32 922.09 427.37C922.05 427.37 922.02 427.38 921.98 427.38C921.79 427.4 921.59 427.41 921.39 427.41L818.57 427.62L651.82 427.33L570.7 427.52C569.91 427.54 569.16 427.46 568.48 427.27C567.8 427.08 567.19 426.78 566.67 426.36C565.64 425.52 565.01 424.22 565.01 422.41L564.93 71.92C569.01 71.91 573.08 71.96 577.13 72.08C583.21 72.26 589.26 72.6 595.28 73.09C599.29 73.41 603.28 73.81 607.26 74.26C617.2 75.4 627.04 76.96 636.76 78.92C640.65 79.7 644.51 80.55 648.36 81.46C654.13 82.82 659.85 84.33 665.51 85.97C674.96 88.71 684.26 91.83 693.4 95.33C698.88 97.43 704.31 99.66 709.67 102.02C716.82 105.17 723.86 108.55 730.78 112.16C734.24 113.96 737.67 115.82 741.07 117.74C749 122.21 756.75 126.98 764.32 132.04C765.37 132.74 766.42 133.45 767.46 134.16C769.72 135.7 771.96 137.27 774.18 138.87C784.16 146.03 793.8 153.7 803.04 161.88C808.92 167.08 814.64 172.48 820.2 178.07C820.23 178.1 820.26 178.13 820.29 178.16C822.96 180.85 825.6 183.59 828.19 186.37C828.37 186.57 828.56 186.76 828.74 186.96C831.17 189.57 833.56 192.22 835.92 194.91C836.25 195.29 836.58 195.66 836.91 196.04C849.26 210.24 860.61 225.49 870.85 241.68C871.66 242.96 872.46 244.25 873.26 245.55C874.97 248.33 876.65 251.12 878.29 253.95C880.45 257.84 882.55 261.76 884.58 265.7C890.67 277.54 896.16 289.62 900.98 301.92C903.65 308.75 906.12 315.66 908.37 322.62C908.82 324.01 909.26 325.41 909.69 326.81C910.55 329.61 911.38 332.41 912.17 335.22C912.57 336.63 912.95 338.04 913.33 339.45C914.84 345.1 916.2 350.78 917.4 356.5C918.86 363.44 920.1 370.42 921.1 377.46C921.54 380.57 921.94 383.69 922.29 386.82C922.87 392.03 924.09 396.33 923.78 400.78C923.78 400.92 923.77 401.05 923.78 401.16C923.78 401.49 923.84 401.69 923.86 401.78C924.23 402.51 924.46 403.26 924.61 404.01C924.75 404.77 924.8 405.53 924.8 406.31C924.8 406.82 924.77 407.34 924.73 407.86C924.63 409.15 924.46 410.44 924.4 411.71C924.38 412.22 924.37 412.72 924.4 413.22C924.41 413.47 924.43 413.72 924.46 413.96C924.49 414.2 924.54 414.5 924.61 414.85C924.61 414.9 924.63 414.94 924.64 414.99C924.74 415.48 924.86 416.05 924.99 416.68C925.03 416.87 925.07 417.07 925.11 417.28C925.24 417.92 925.36 418.61 925.46 419.31C925.49 419.53 925.52 419.75 925.55 419.97C925.59 420.35 925.63 420.74 925.65 421.12C925.67 421.5 925.68 421.88 925.68 422.26C925.68 422.26 925.68 422.27 925.68 422.28L925.65 422.25ZM1063.49 325.34C1063.04 330.73 1058.46 334.08 1053.62 334.08L950.7 333.97C943.07 333.97 937.21 329.45 936.36 321.24L916.54 130.13C926.53 130.03 936.14 132.38 945.88 135.55C966.35 142.21 987.96 139.46 1005.89 127.99L1029.78 112.71C1045.14 102.88 1063.75 100.27 1082.24 101.11L1063.5 325.34H1063.49Z" fill="#DBE0E3"/>
<path d="M922.29 386.8C921.84 387.35 921.47 387.91 921.19 388.48C921 388.86 920.85 389.24 920.74 389.63C920.51 390.4 920.44 391.19 920.5 392C920.55 392.61 920.68 393.22 920.88 393.85C920.98 394.15 921.1 394.46 921.23 394.76C921.37 395.08 921.52 395.4 921.7 395.73C921.82 395.96 921.96 396.19 922.1 396.42C922.3 396.75 922.39 397.17 922.43 397.61C922.45 397.83 922.46 398.06 922.47 398.29C922.5 398.98 922.52 399.66 922.8 400.14C922.89 400.3 923.01 400.44 923.17 400.54C923.33 400.65 923.53 400.72 923.77 400.76C924.08 396.31 922.86 392.01 922.28 386.8H922.29Z" fill="#BB844E"/>
<path d="M507.8 74.85C507.39 74.51 506.71 73.55 506.2 73.78C505.4 74.16 504.93 75 505.45 75.6C506.19 75.58 507.63 75.81 507.8 74.85Z" fill="#DBE0E3"/>
<path d="M204.91 502.75C205.11 503.84 204.17 505.12 205.71 505.74C205.71 504.71 206.03 503.29 204.91 502.75Z" fill="#DBE0E3"/>
<path d="M529.75 72.78C530.09 71.83 528.73 71.81 528.12 71.7C527.33 71.56 526.43 71.85 526.63 72.85C527.66 72.74 528.72 72.85 529.75 72.77V72.78Z" fill="#DBE0E3"/>
<path d="M547.65 515.65C547.45 516.27 547.81 517.17 547.53 517.75C548.04 517.94 548.42 517.71 548.51 517.14C548.59 516.59 548.1 516.03 547.65 515.66V515.65Z" fill="#DBE0E3"/>
<path d="M206.61 512.29C206.47 513.16 207.48 513.37 207.69 513.76C207.6 513.07 207.68 512.35 207.54 511.67C206.96 511.29 206.69 511.79 206.61 512.29Z" fill="#DBE0E3"/>
<path d="M205.62 508.29C205.53 509.17 206.3 509.38 206.69 509.76C206.59 509.16 206.72 508.2 206.56 507.67C206 507.29 205.67 507.78 205.61 508.29H205.62Z" fill="#DBE0E3"/>
<path d="M501.11 74.75C500.16 74.45 499.4 75.04 499.64 75.88C500.32 75.77 501.03 75.75 501.72 75.73C502.11 75.12 501.51 74.89 501.11 74.76V74.75Z" fill="#DBE0E3"/>
<path d="M1029.78 112.71L1005.89 127.99C987.96 139.46 966.36 142.2 945.88 135.55C936.14 132.38 926.53 130.03 916.54 130.13L936.36 321.24C937.21 329.45 943.07 333.96 950.7 333.97L1053.62 334.08C1058.46 334.08 1063.04 330.74 1063.49 325.34L1082.23 101.11C1063.75 100.27 1045.13 102.89 1029.77 112.71H1029.78Z" fill="#0176DF"/>
<path d="M747.78 386.66C747.72 387.68 747.37 388.73 747.46 389.76C748.08 389.75 748.68 389.62 749.29 389.52C749.49 389.49 749.69 389.46 749.9 389.44C750.24 387.99 748.24 387.48 747.78 386.66Z" fill="#BB844E"/>
<path d="M662.18 387.66L661.88 364.32C658.5 364.26 656.09 364.2 653.7 363.56C653.47 363.5 653.23 363.51 652.97 363.55C652.59 363.61 652.18 363.76 651.78 363.87C651.38 363.98 650.99 364.06 650.63 364.01C649.48 366.8 649.63 370.74 650.08 373.82C650.27 373.77 650.44 373.7 650.58 373.6C651 373.32 651.21 372.87 651.36 372.31C651.56 371.57 651.66 370.66 652.02 369.76C652.28 369.12 652.78 368.55 653.42 368.09C653.58 367.98 653.75 367.87 653.92 367.77C654.27 367.57 654.65 367.4 655.04 367.27C655.43 367.14 655.84 367.04 656.24 366.98C656.44 366.95 656.64 366.93 656.84 366.92C658.04 366.87 659.17 367.19 659.87 368.04C660.36 368.64 660.64 370.46 660.63 372.44C660.63 373.86 660.46 375.35 660.11 376.55C660.04 376.79 659.96 377.01 659.88 377.22C659.63 377.85 659.31 378.34 658.91 378.62C657.71 379.44 656.85 379.64 656.1 379.55C655.8 379.51 655.52 379.43 655.24 379.31C653.99 378.8 652.83 377.72 650.46 377.87C650.73 379.06 649.72 380.52 650.31 381.76C651.13 382.34 651.48 383.06 651.57 383.86C651.65 384.5 651.56 385.19 651.42 385.92C651.35 386.28 651.26 386.65 651.18 387.02C651.14 387.21 651.09 387.39 651.05 387.58C650.88 388.33 650.74 389.09 650.74 389.83C650.74 390.75 651.03 391.48 651.49 392.08C651.58 392.2 651.68 392.31 651.79 392.42C652.83 393.51 654.43 394.07 655.48 394.41C656.01 394.58 656.56 394.67 657.1 394.69C659.55 394.78 661.98 393.53 663.38 392.51C663.77 392.23 664.07 391.97 664.28 391.75C664.41 391.62 664.51 391.5 664.56 391.42C664.59 391.36 664.61 391.32 664.6 391.29C664.58 391.15 664.55 391 664.5 390.84C664.45 390.68 664.4 390.53 664.34 390.37C664.21 390.06 664.05 389.75 663.85 389.46C663.12 389.39 662.18 388.86 662.16 387.67L662.18 387.66Z" fill="#BB844E"/>
<path d="M775.4 394.26C777.74 395.21 783.76 391.02 784.71 389.68C783.19 389.42 781.52 389.37 780.19 388.68C778.85 387.99 779.76 384.71 778.42 383.76C775.85 381.93 770.11 381.97 767.65 383.8C769.13 384.02 771.36 383.24 772.49 384.36C772.77 384.63 772.97 384.97 773.13 385.36C773.17 385.46 773.2 385.57 773.23 385.68C773.28 385.83 773.32 385.97 773.36 386.13C773.5 386.73 773.58 387.39 773.63 388.08C773.72 389.38 773.72 390.75 773.93 391.89C773.97 392.11 774.02 392.33 774.08 392.53C774.31 393.34 774.7 393.96 775.4 394.25V394.26Z" fill="#BB844E"/>
<path d="M785.52 389.66L790.72 388.83C791.36 385.17 789.62 381.17 789.85 377.65C789.32 377.68 788.78 377.71 788.25 377.74C787.45 377.79 786.64 377.86 785.86 378C785.08 378.14 784.3 378.34 783.55 378.65C784.75 381.8 785.05 386.4 785.53 389.66H785.52Z" fill="#BB844E"/>
<path d="M819.14 377.12C818.03 379.38 818.66 381.95 818.87 384.19C820.78 384.94 822.34 383.94 823.7 384.28C822.82 382.53 822.52 380.61 822.51 378.67C822.51 378.02 822.54 377.38 822.59 376.73C821.75 376.74 819.63 376.14 819.14 377.13V377.12Z" fill="#BB844E"/>
<path d="M637.52 378.76C636.52 375.84 634.64 373.47 632.95 370.53C631.56 373.9 632.81 376.4 632.72 378.99C633.12 378.94 633.52 378.9 633.92 378.87C635.12 378.77 636.32 378.72 637.53 378.76H637.52Z" fill="#BB844E"/>
<path d="M687.43 376.85C686.14 377.92 686.76 383.55 686.91 383.9C687.2 384.62 688.64 384.28 689.53 384.32C689.03 383.59 688.79 382.82 688.72 382.04C688.71 381.88 688.7 381.73 688.7 381.57C688.7 381.25 688.72 380.94 688.77 380.62C688.82 380.3 688.87 379.98 688.95 379.66C689.01 379.38 689.09 379.1 689.17 378.83C689.36 378.14 689.59 377.45 689.8 376.77C689.08 376.77 687.93 376.46 687.44 376.87L687.43 376.85Z" fill="#BB844E"/>
<path d="M834.55 388.77C834.49 388.32 834.23 387.95 833.89 387.61C833.69 387.41 833.46 387.22 833.21 387.04C832.72 386.69 832.18 386.38 831.79 386.06C831.66 385.95 831.54 385.85 831.45 385.74C831.52 386.97 831.5 388.21 831.35 389.44C831.46 389.45 831.59 389.48 831.74 389.51C832.04 389.58 832.41 389.67 832.79 389.73C833.73 389.89 834.68 389.86 834.54 388.77H834.55Z" fill="#BB844E"/>
<path d="M644.46 377.77C644.99 376.33 644.38 375.44 644.35 374.52L642.5 374.76C643.18 375.49 642.6 377.52 644.46 377.77Z" fill="#BB844E"/>
<path d="M691.55 376.75C691.52 376.87 691.51 376.98 691.53 377.07C691.55 377.16 691.58 377.24 691.63 377.31C691.68 377.38 691.75 377.44 691.82 377.49C692.21 377.74 692.86 377.76 693.2 377.79C693.4 377.81 693.66 377.82 693.94 377.81C694.08 377.81 694.22 377.8 694.36 377.78C694.74 377.74 695.1 377.63 695.35 377.44C695.38 377.42 695.42 377.4 695.45 377.37C695.62 377.21 695.72 376.99 695.71 376.7C694.65 376.5 693.48 376.91 691.55 376.74V376.75Z" fill="#BB844E"/>
<path d="M824.51 376.7C824.75 376.99 825.03 377.23 825.32 377.4C825.61 377.57 825.91 377.7 826.19 377.75C826.84 377.88 827.69 377.92 828.19 377.6C828.39 377.47 828.53 377.29 828.57 377.04C828.59 376.91 828.59 376.77 828.57 376.6C827.23 376.8 825.87 376.74 824.51 376.68V376.7Z" fill="#BB844E"/>
<path d="M640.75 383.74C640.67 382.45 640.17 380.98 638.79 380.66C638.83 380.97 638.9 381.28 639.01 381.58C639.12 381.88 639.26 382.16 639.42 382.43C639.76 382.96 640.21 383.42 640.75 383.74Z" fill="#BB844E"/>
<path d="M676.54 360.83C676.63 360.49 676.57 360.2 676.41 360C676.25 359.79 675.98 359.67 675.63 359.66C675.78 360.13 675.79 361.23 676.54 360.84V360.83Z" fill="#F5E1C9"/>
<path d="M654.63 359.66C654.28 360 653.98 360.4 653.74 360.83C654.01 360.53 654.66 360.22 654.63 359.66Z" fill="#F5E1C9"/>
<path d="M427.39 614.85C428.26 610.98 428.87 608.04 430.65 604.63C431.81 607.84 433.33 610.3 433.53 614.69C433.11 616.33 428.95 615.66 427.39 614.86V614.85Z" fill="#F2E2D0"/>
<path d="M411.76 329.03C414.62 329.84 416.67 330.05 419.55 328.94C418.25 325.25 417.69 322.08 415.68 318.62C413.7 321.95 413.16 325.63 411.76 329.03Z" fill="#92B73E"/>
<path d="M688.72 512.92C686.94 510.2 682.74 510.19 680.31 511.42C680.79 514.37 679.59 517.24 680.79 519.51C681.93 521.68 685.85 520.22 687.44 519.2C689.15 518.1 690.46 515.56 688.73 512.92H688.72Z" fill="#F4B23D"/>
<path d="M794.62 574.5C794.43 577.29 794.45 579.21 794.62 582.05C796.78 582.5 799.35 582.76 801.94 581.57C803.78 580.72 803.87 578.77 803.7 577.43C803.22 573.49 797.64 573.79 794.61 574.51L794.62 574.5Z" fill="#F4B23D"/>
<path d="M795.53 569.53C797.45 570.35 799.94 569.73 801.26 568.89C802.34 568.2 803.57 565.76 801.83 563.82C800.56 562.4 796.47 561.95 795.17 563.26C793.92 564.53 794.02 568.88 795.53 569.53Z" fill="#F4B23D"/>
<path d="M718.57 514.77C717.39 511.89 714.89 510.42 712.21 510.71C704.6 511.54 705.08 522.97 707.41 526.97C709.6 530.74 714.48 531.57 717.62 528.16C719.93 523.64 720.31 519.02 718.58 514.77H718.57Z" fill="#F4B23D"/>
<path d="M746.94 563.93C744.31 562.36 741.76 562.33 739 563.1L739.17 581.27C741.32 583.01 746.16 581.91 747.95 579.75C751.74 575.18 750.59 566.11 746.94 563.93Z" fill="#F4B23D"/>
<path d="M663.75 575.49C666.33 575.78 669.02 576.62 671.04 574.7C669.34 570.5 668.93 568.26 667.06 564.74L663.75 575.49Z" fill="#EFAE36"/>
<path d="M767.93 575.56C769.7 576.22 774.31 576.42 774.38 574.59C774.55 570.43 772.61 567.91 771.66 564.9C770.12 568.58 768.71 571.7 767.93 575.55V575.56Z" fill="#EFAE36"/>
<path d="M824.97 523.48C827.59 524.07 829.74 524.02 832.1 523.42C831.09 519.33 830.42 516.21 828.6 512.74L824.97 523.47V523.48Z" fill="#F4B23D"/>
<path d="M663.41 518.06C664.22 515.84 663.77 512.88 662.18 511.72C660.82 510.73 656.3 509.78 655.37 511.41C653.9 513.98 654.81 518.07 655.27 520.79C660.01 521.12 662.55 520.42 663.41 518.05V518.06Z" fill="#F4B23D"/>
<path d="M697.32 311.69C695.13 310.61 693.02 311.17 690.6 311.45C690.58 313.85 689.07 318.27 691.06 320.08C693.24 322.05 697.88 320.76 698.95 318.58C699.91 316.61 700.33 313.18 697.32 311.69Z" fill="#BB844E"/>
<path d="M758.38 368.7C757.84 368.59 757.3 368.21 756.81 367.69C757.3 368.21 757.85 368.59 758.38 368.7Z" fill="#B98048"/>
<path d="M925.52 419.94C925.49 419.72 925.47 419.5 925.43 419.28C925.33 418.58 925.21 417.89 925.08 417.25C925.04 417.05 925 416.85 924.96 416.65C924.83 416.02 924.71 415.45 924.61 414.96C924.61 414.91 924.59 414.87 924.58 414.82C924.51 414.47 924.46 414.16 924.43 413.93C924.4 413.68 924.38 413.44 924.37 413.19C924.35 412.69 924.36 412.19 924.37 411.68C924.43 410.41 924.6 409.12 924.7 407.83C924.74 407.31 924.76 406.8 924.77 406.28C924.77 405.51 924.72 404.74 924.58 403.98C924.44 403.22 924.2 402.48 923.83 401.75C923.81 401.66 923.76 401.46 923.75 401.13C923.75 401.02 923.75 400.89 923.75 400.75C923.5 400.71 923.31 400.64 923.15 400.53C922.99 400.42 922.87 400.29 922.78 400.13C922.5 399.65 922.48 398.97 922.45 398.28C922.45 398.05 922.43 397.82 922.41 397.6C922.37 397.16 922.29 396.74 922.08 396.41C921.94 396.18 921.8 395.95 921.68 395.72C921.5 395.4 921.35 395.07 921.21 394.75C921.08 394.44 920.95 394.14 920.86 393.84C920.66 393.21 920.53 392.6 920.48 391.99C920.42 391.18 920.49 390.39 920.72 389.62C920.83 389.23 920.98 388.85 921.17 388.47C921.45 387.9 921.82 387.34 922.27 386.79C921.92 383.66 921.52 380.54 921.08 377.43C920.08 370.4 918.85 363.41 917.38 356.47C916.17 350.75 914.81 345.07 913.31 339.42C912.93 338.01 912.55 336.6 912.15 335.19C911.36 332.38 910.53 329.57 909.67 326.78C909.24 325.38 908.8 323.99 908.35 322.59C906.1 315.63 903.64 308.73 900.96 301.89C896.15 289.59 890.66 277.5 884.56 265.67C882.53 261.72 880.43 257.81 878.27 253.92C876.63 251.09 874.94 248.29 873.24 245.52C872.44 244.23 871.64 242.94 870.83 241.65C860.6 225.46 849.24 210.21 836.89 196.01C836.56 195.63 836.23 195.25 835.9 194.88C833.54 192.19 831.15 189.54 828.72 186.93C828.54 186.73 828.36 186.54 828.17 186.34C825.57 183.56 822.94 180.82 820.27 178.13C820.24 178.1 820.21 178.07 820.18 178.04C814.62 172.45 808.9 167.05 803.02 161.85C793.78 153.68 784.14 146 774.16 138.84C771.94 137.25 769.7 135.68 767.44 134.13C766.4 133.42 765.35 132.71 764.3 132.01C756.73 126.95 748.98 122.17 741.05 117.71C737.65 115.79 734.22 113.94 730.76 112.13C723.84 108.52 716.8 105.14 709.65 101.99C704.29 99.63 698.86 97.4 693.38 95.3C684.24 91.81 674.94 88.68 665.49 85.94C659.82 84.3 654.1 82.79 648.34 81.43C644.5 80.52 640.63 79.68 636.74 78.89C627.03 76.93 617.19 75.38 607.24 74.23C603.26 73.77 599.27 73.38 595.26 73.06C589.24 72.57 583.19 72.24 577.11 72.05C573.06 71.93 568.99 71.87 564.91 71.89L564.99 422.38C564.99 424.19 565.63 425.49 566.65 426.33C567.16 426.75 567.78 427.05 568.46 427.24C569.14 427.43 569.89 427.51 570.68 427.49L651.8 427.3L818.55 427.59L921.37 427.38C921.58 427.38 921.77 427.37 921.96 427.35C922 427.35 922.03 427.34 922.07 427.34C922.43 427.3 922.77 427.22 923.06 427.11C923.54 426.94 923.94 426.68 924.27 426.36C924.38 426.25 924.48 426.14 924.57 426.02C924.76 425.78 924.92 425.52 925.05 425.23C925.17 424.98 925.26 424.71 925.34 424.42C925.36 424.35 925.38 424.29 925.39 424.22C925.46 423.92 925.52 423.61 925.56 423.29C925.6 422.94 925.62 422.59 925.63 422.22C925.63 422.22 925.63 422.21 925.63 422.2C925.63 421.83 925.63 421.45 925.6 421.06C925.58 420.68 925.54 420.29 925.5 419.91L925.52 419.94ZM810.91 334.05C810.9 333.69 810.97 333.27 811.1 332.85C811.13 332.73 811.17 332.62 811.21 332.51C811.4 332 811.66 331.52 811.96 331.21C812.16 331 812.37 330.87 812.58 330.86C814.21 330.79 820.22 332.37 823.26 330.93C823.77 330.69 824.19 330.37 824.5 329.94C824.65 329.73 824.78 329.48 824.87 329.21C824.96 328.94 825.02 328.64 825.04 328.31C825.27 324.54 820.59 324.05 816.61 322.39C816.28 322.25 815.95 322.11 815.63 321.95C814.67 321.48 813.79 320.91 813.07 320.18C812.34 319.44 811.81 318.52 811.46 317.51C811.13 316.58 810.95 315.57 810.95 314.55C810.93 311.83 812.06 309.06 814.34 307.62C817.74 305.49 822.23 305.4 826.07 306.37C826.39 306.45 826.71 306.54 827.01 306.63C827.94 306.91 828.82 307.26 829.62 307.65C829.75 307.84 829.8 308.14 829.8 308.49C829.8 309.19 829.55 310.11 829.26 310.74C829.11 311.06 828.95 311.31 828.79 311.42C828.75 311.45 828.66 311.47 828.54 311.47C828.31 311.47 827.93 311.44 827.47 311.37C827.44 311.37 827.41 311.37 827.38 311.36C827.16 311.33 826.93 311.3 826.68 311.26C826.52 311.24 826.36 311.21 826.18 311.19C825.72 311.13 825.23 311.06 824.72 311.01C824.55 310.99 824.38 310.97 824.2 310.96C823.86 310.93 823.52 310.91 823.17 310.89C823.16 310.89 823.14 310.89 823.13 310.89C822.61 310.87 822.08 310.87 821.58 310.89C819.72 311 818.12 311.56 817.72 313.12C817.65 313.4 817.61 313.72 817.63 314.08C817.63 314.26 817.65 314.44 817.68 314.64C817.77 315.26 818.13 315.78 818.67 316.24C818.89 316.42 819.13 316.6 819.4 316.77C819.81 317.02 820.27 317.26 820.77 317.48C821.1 317.63 821.45 317.78 821.82 317.93C822.25 318.11 822.7 318.28 823.16 318.46C825.58 319.4 828.23 320.43 829.85 322.18C830.03 322.38 830.2 322.59 830.35 322.8C830.52 323.04 830.68 323.29 830.81 323.56C830.98 323.9 831.11 324.26 831.21 324.64C831.38 325.3 831.5 325.98 831.57 326.66C831.62 327.17 831.65 327.67 831.64 328.17C831.64 328.18 831.64 328.2 831.64 328.21C831.63 328.63 831.59 329.05 831.52 329.46C831.47 329.78 831.4 330.1 831.31 330.41C831.21 330.78 831.08 331.14 830.92 331.49C830.64 332.11 830.26 332.68 829.78 333.21C829.53 333.48 829.25 333.74 828.94 333.98C828.73 334.15 828.5 334.31 828.25 334.46C828.17 334.51 828.1 334.56 828.02 334.61C827.47 334.93 826.91 335.2 826.34 335.45C825.22 335.93 824.06 336.29 822.87 336.52C822.51 336.59 822.15 336.65 821.79 336.69C821.07 336.78 820.34 336.83 819.62 336.84C818.89 336.84 818.17 336.81 817.45 336.72C817.09 336.68 816.73 336.63 816.38 336.57C815.67 336.45 814.97 336.28 814.28 336.08C813.59 335.88 812.92 335.63 812.26 335.35C811.93 335.21 811.61 335.06 811.29 334.9C811.04 334.77 810.92 334.46 810.91 334.06C810.91 334.06 810.91 334.05 810.91 334.04V334.05ZM811.35 378.77C810.19 378.71 808.85 378.87 807.53 378.82C808.85 378.87 810.19 378.7 811.35 378.77ZM807.49 378.82C807.09 378.8 806.7 378.77 806.31 378.7C806.7 378.77 807.1 378.81 807.49 378.82ZM787.64 306.41C788.36 306.39 789.08 306.37 789.8 306.35C790.53 306.33 791.25 306.31 791.99 306.29C796.38 306.17 800.89 306.08 805.35 306.51C805.94 306.57 806.23 307.68 806.22 308.79C806.22 308.79 806.22 308.8 806.22 308.81C806.22 309.07 806.2 309.32 806.16 309.56C806.08 310.1 805.93 310.57 805.71 310.83C805.6 310.96 805.47 311.03 805.33 311.04L794.62 311.84C794.38 311.86 794.19 311.94 794.03 312.08C793.87 312.22 793.75 312.41 793.66 312.65C793.61 312.77 793.58 312.9 793.55 313.03C793.46 313.44 793.42 313.93 793.43 314.45C793.43 314.62 793.43 314.8 793.45 314.98C793.49 315.69 793.57 316.44 793.66 317.1C793.69 317.29 793.71 317.47 793.74 317.64C793.78 317.92 793.82 318.19 793.85 318.41L797.22 318.58L804.31 318.93C804.4 319.25 804.46 319.56 804.51 319.88C804.56 320.2 804.58 320.52 804.59 320.86C804.59 321.2 804.58 321.57 804.54 321.97C804.52 322.17 804.5 322.38 804.47 322.61C804.44 322.83 804.41 323.07 804.37 323.32L793.98 323.81C793.83 324.48 793.72 325.13 793.64 325.78C793.56 326.43 793.53 327.06 793.52 327.7C793.52 328.38 793.56 329.06 793.63 329.75C793.69 330.34 793.78 330.94 793.9 331.55C797.84 332.08 801.6 331.2 805.73 332.09C805.85 332.12 805.95 332.18 806.03 332.28C806.15 332.42 806.22 332.64 806.27 332.9C806.3 333.07 806.31 333.26 806.32 333.47C806.32 333.67 806.32 333.89 806.3 334.1C806.28 334.31 806.26 334.54 806.22 334.75C806.16 335.18 806.07 335.59 805.98 335.92C805.96 336 805.94 336.08 805.91 336.15C804.37 336.22 802.84 336.28 801.3 336.33C799.77 336.38 798.24 336.41 796.7 336.42C793.63 336.44 790.54 336.35 787.39 336.1L787.53 321.27L787.67 306.44L787.64 306.41ZM765.52 306.53C766.56 306.28 767.59 306.15 768.61 306.16C768.89 306.16 769.17 306.18 769.45 306.2C770.18 306.26 770.91 306.4 771.64 306.63L771.76 330.71C773.89 331.36 775.85 331.32 778.06 331.43C778.5 331.45 778.96 331.48 779.42 331.52C780.35 331.6 781.34 331.72 782.41 331.95C783.03 332.08 783.19 332.81 783.16 333.66C783.13 334.51 782.91 335.48 782.79 336.09C780 336.37 777.25 336.44 774.44 336.43C773.04 336.43 771.62 336.4 770.16 336.37C768.7 336.34 767.23 336.3 765.7 336.27L765.51 306.53H765.52ZM744.39 306.74C744.84 306.54 745.42 306.38 746.05 306.27C746.68 306.16 747.37 306.1 748.04 306.1C749.39 306.1 750.7 306.35 751.43 306.94L755.53 318.78L761.45 335.91C759.82 336.18 756.9 337.18 755.38 335.57C755.26 335.45 755.18 335.31 755.08 335.17C754.75 334.69 754.53 334.15 754.36 333.61C754.15 332.91 753.99 332.22 753.71 331.68C753.52 331.32 753.27 331.02 752.91 330.83C751.93 330.32 749.85 330.04 747.82 330.01C747.56 330.01 747.29 330.01 747.03 330.01C746.02 330.02 745.07 330.09 744.3 330.23C744.11 330.26 743.93 330.3 743.76 330.34C743.43 330.42 743.16 330.52 742.96 330.63C742.46 330.91 742.15 331.39 741.92 331.96C741.53 332.92 741.33 334.15 740.75 335.24C740.63 335.47 740.47 335.67 740.28 335.83C740.09 335.99 739.87 336.12 739.64 336.22C739.42 336.31 739.19 336.37 738.94 336.42C738.64 336.47 738.33 336.5 738.01 336.5C737.86 336.5 737.71 336.5 737.56 336.48C737.26 336.46 736.95 336.42 736.65 336.37C735.89 336.24 735.15 336.02 734.54 335.79L744.4 306.77L744.39 306.74ZM630.88 318.21C631.4 315.39 632.59 312.71 634.42 310.55C635.15 309.69 635.98 308.91 636.91 308.24C637.81 307.59 638.8 307.08 639.83 306.7C640.86 306.31 641.94 306.06 643.03 305.91C646.67 305.42 650.51 306.18 653.4 307.71C653.61 307.82 653.7 308.08 653.71 308.41C653.73 308.91 653.56 309.58 653.33 310.16C653.09 310.74 652.79 311.23 652.51 311.39C652.25 311.54 651.93 311.62 651.56 311.66C650.65 311.75 649.46 311.56 648.13 311.42C647.6 311.36 647.05 311.31 646.49 311.28C645.36 311.23 644.19 311.28 643.04 311.63C642.47 311.8 641.9 312.04 641.35 312.36C641.07 312.52 640.8 312.71 640.54 312.92C639.57 313.69 638.8 314.87 638.27 316.26C638 316.96 637.79 317.71 637.65 318.49C637.51 319.27 637.42 320.08 637.39 320.9C637.3 324.16 638.23 327.53 640.37 329.47C641.25 330.27 642.19 330.78 643.15 331.1C647.3 332.48 651.74 330.12 652.53 330.55C652.67 330.62 652.81 330.8 652.95 331.03C653.04 331.18 653.13 331.37 653.22 331.56C653.34 331.86 653.45 332.19 653.53 332.53C653.61 332.87 653.66 333.21 653.67 333.52C653.68 334.04 653.57 334.47 653.28 334.65C648.03 337.93 639.44 337.79 634.65 332.63C633.09 330.95 631.99 328.92 631.33 326.74C631 325.65 630.78 324.52 630.67 323.38C630.61 322.81 630.58 322.23 630.58 321.66C630.58 320.51 630.68 319.36 630.89 318.23L630.88 318.21ZM617.58 389.38C617.05 389.43 616.51 389.41 615.97 389.34C615.7 389.31 615.43 389.26 615.17 389.21C614.64 389.11 614.12 388.97 613.63 388.83L613.58 359.56C614.08 359.43 614.58 359.34 615.1 359.27C616.63 359.08 618.2 359.17 619.73 359.59L619.83 388.6C619.15 389.07 618.39 389.3 617.59 389.37L617.58 389.38ZM676.54 360.83C676.46 361.13 676.5 361.61 676.5 362.1C676.5 362.26 676.5 362.43 676.48 362.59C676.43 363.23 676.23 363.78 675.55 363.84L668.6 364.43L668.24 386.01C668.24 386.18 668.23 386.34 668.21 386.5C668.19 386.7 668.15 386.89 668.11 387.07C668.05 387.35 667.96 387.61 667.85 387.86C667.72 388.13 667.56 388.38 667.36 388.58C667.16 388.79 666.93 388.96 666.65 389.08C665.97 389.38 664.86 389.47 663.87 389.45C664.07 389.74 664.24 390.05 664.36 390.36C664.42 390.52 664.48 390.67 664.52 390.83C664.56 390.99 664.6 391.13 664.62 391.28C664.62 391.31 664.61 391.36 664.58 391.41C664.53 391.49 664.43 391.61 664.3 391.74C664.09 391.95 663.79 392.21 663.4 392.5C661.99 393.52 659.57 394.77 657.12 394.68C656.58 394.66 656.03 394.57 655.5 394.4C654.46 394.07 652.86 393.5 651.81 392.41C651.71 392.3 651.61 392.19 651.51 392.07C651.05 391.47 650.75 390.73 650.76 389.82C650.76 389.08 650.91 388.32 651.07 387.57C651.11 387.38 651.15 387.2 651.2 387.01C651.29 386.64 651.37 386.27 651.44 385.91C651.58 385.19 651.67 384.49 651.59 383.85C651.49 383.05 651.14 382.33 650.33 381.75C650.24 381.67 650.16 381.62 650.09 381.6C650.02 381.58 649.98 381.59 649.94 381.62C649.86 381.69 649.83 381.87 649.82 382.12C649.8 383.63 650.8 387.92 649.13 388.93C648.88 389.08 648.63 389.2 648.38 389.29C647.89 389.46 647.43 389.51 646.99 389.46C646.55 389.41 646.13 389.26 645.73 389.03C643.52 387.81 641.92 384.46 640.73 383.75C640.19 383.43 639.74 382.97 639.4 382.44C639.23 382.17 639.09 381.89 638.99 381.59C638.88 381.29 638.81 380.98 638.77 380.67C638.74 380.46 638.67 380.28 638.56 380.12C638.35 379.79 638.02 379.52 637.78 379.24C637.66 379.1 637.56 378.95 637.5 378.78C636.3 378.74 635.09 378.78 633.89 378.89C633.49 378.92 633.09 378.96 632.69 379.01L632.57 382.39L632.34 389.15C630.52 389.26 629.18 389.5 627.46 389.36C627.21 389.34 626.96 389.31 626.7 389.27L626.85 360.05C627.59 359.68 628.25 359.44 628.87 359.31C629.48 359.18 630.04 359.17 630.56 359.25C631.08 359.33 631.55 359.52 632 359.79C632.3 359.97 632.58 360.19 632.85 360.44C633.12 360.69 633.39 360.98 633.64 361.29C633.77 361.45 633.9 361.61 634.02 361.79C634.53 362.48 635.01 363.28 635.51 364.15C635.64 364.37 635.76 364.59 635.89 364.82C636.14 365.28 636.4 365.75 636.67 366.24C638.14 368.92 639.87 371.99 642.47 374.77L644.32 374.53C644.24 372.33 644.14 370.11 644.13 367.82C644.13 366.67 644.15 365.51 644.21 364.31C644.27 363.12 644.37 361.9 644.52 360.65C644.53 360.56 644.55 360.48 644.58 360.4C644.64 360.25 644.75 360.12 644.88 360.01C645.08 359.85 645.35 359.73 645.66 359.65C645.87 359.6 646.09 359.57 646.31 359.55C646.54 359.53 646.77 359.53 647 359.53C647.34 359.54 647.68 359.58 647.97 359.64C648.26 359.7 648.51 359.78 648.69 359.87C649.34 360.2 649.75 361.24 650.07 362.28C650.26 362.9 650.43 363.53 650.6 364C650.96 364.06 651.35 363.98 651.75 363.86C652.15 363.74 652.55 363.6 652.94 363.54C653.2 363.5 653.44 363.49 653.67 363.55L653.71 360.83C653.95 360.4 654.25 360.01 654.6 359.66C655.47 359.6 656.35 359.55 657.22 359.52C662.46 359.29 667.73 359.39 672.98 359.56C673.85 359.59 674.73 359.62 675.6 359.65C675.94 359.66 676.22 359.79 676.38 359.99C676.54 360.2 676.6 360.49 676.51 360.82L676.54 360.83ZM678.31 335.28C678.26 335.43 678.21 335.56 678.15 335.68C678.11 335.77 678.07 335.85 678.02 335.92C677.96 336.01 677.9 336.09 677.84 336.15C677.15 336.19 676.46 336.22 675.75 336.26C674.21 336.33 672.63 336.39 671.03 336.43C667.17 336.52 663.18 336.48 659.32 336.2V321.29L659.29 306.38C661.54 306.35 663.8 306.28 666.06 306.24C669.83 306.16 673.6 306.15 677.33 306.51C678.43 306.62 678.45 310.12 677.52 310.87C677.46 310.92 677.39 310.96 677.32 310.98C676.76 311.17 676.15 311.28 675.52 311.33C675.49 311.33 675.46 311.33 675.42 311.33C674.78 311.38 674.11 311.37 673.43 311.35C673.2 311.35 672.97 311.33 672.73 311.32C672.26 311.3 671.79 311.27 671.33 311.26C671.1 311.26 670.86 311.24 670.63 311.24C670.16 311.24 669.7 311.24 669.24 311.27C669.01 311.29 668.78 311.31 668.56 311.33C667.88 311.42 667.23 311.57 666.61 311.82C665.76 312.17 665.39 313.8 665.41 315.36C665.43 316.58 665.68 317.76 666.13 318.28C666.62 318.52 667.15 318.66 667.71 318.74C668.08 318.79 668.47 318.82 668.86 318.83C669.25 318.84 669.66 318.83 670.07 318.81C670.48 318.79 670.89 318.77 671.31 318.75C671.73 318.73 672.15 318.71 672.57 318.7C673.2 318.69 673.84 318.7 674.46 318.78C674.88 318.83 675.29 318.91 675.69 319.02C675.93 319.09 676.08 319.28 676.17 319.55C676.44 320.37 676.17 321.97 676.1 323.39L666.89 323.89H666.64C666.43 323.91 666.24 324.02 666.08 324.19C665.76 324.53 665.55 325.15 665.45 325.88C665.4 326.24 665.37 326.64 665.37 327.04C665.37 327.64 665.42 328.26 665.52 328.82C665.58 329.14 665.66 329.43 665.75 329.7C665.79 329.82 665.84 329.94 665.88 330.05C665.94 330.18 666 330.3 666.07 330.41C666.19 330.61 666.32 330.78 666.47 330.89C667.23 331.39 668.12 331.62 669.08 331.71C670.51 331.84 672.09 331.65 673.61 331.57C674.12 331.54 674.62 331.52 675.11 331.54C675.6 331.55 676.08 331.59 676.54 331.67C677 331.75 677.44 331.88 677.85 332.06C677.91 332.09 677.97 332.13 678.03 332.17C678.08 332.22 678.13 332.27 678.18 332.34C678.27 332.47 678.34 332.62 678.39 332.8C678.44 332.98 678.48 333.17 678.5 333.38C678.5 333.48 678.52 333.59 678.52 333.7C678.52 333.91 678.52 334.12 678.49 334.33C678.46 334.67 678.39 335 678.3 335.29L678.31 335.28ZM699.47 388.96L680.66 389.13L680.71 359.45C682.14 359.36 683.61 359.28 685.09 359.23C689.55 359.07 694.18 359.14 698.62 359.89C698.79 359.97 698.92 360.14 699.01 360.36C699.1 360.57 699.16 360.83 699.19 361.12C699.2 361.23 699.21 361.35 699.22 361.47C699.22 361.57 699.22 361.68 699.22 361.79C699.22 362 699.19 362.22 699.16 362.42C699.14 362.52 699.13 362.63 699.1 362.72C699.04 363.02 698.95 363.28 698.83 363.49C698.76 363.63 698.67 363.74 698.58 363.82L687.59 364.8C687.49 364.8 687.39 364.84 687.3 364.89C687.01 365.05 686.8 365.42 686.66 365.9C686.55 366.28 686.48 366.73 686.46 367.21C686.46 367.23 686.46 367.26 686.46 367.28C686.46 367.47 686.46 367.65 686.46 367.84C686.5 369.08 686.82 370.36 687.36 370.99C687.48 371.13 687.61 371.25 687.75 371.32C690.8 372.74 694.5 370.67 697.01 372.25C697.09 372.3 697.16 372.36 697.22 372.43C697.35 372.57 697.46 372.76 697.54 372.98C697.59 373.11 697.63 373.25 697.66 373.4C697.71 373.61 697.74 373.84 697.75 374.07C697.75 374.08 697.75 374.09 697.75 374.11C697.76 374.41 697.74 374.72 697.68 375.01C697.65 375.18 697.6 375.34 697.55 375.49C697.27 376.29 696.68 376.87 695.69 376.69C695.7 376.98 695.6 377.2 695.43 377.36C695.4 377.39 695.36 377.4 695.33 377.43C695.07 377.62 694.71 377.73 694.34 377.77C694.2 377.79 694.06 377.79 693.92 377.8C693.64 377.8 693.38 377.8 693.18 377.78C692.84 377.75 692.19 377.73 691.8 377.48C691.72 377.43 691.66 377.37 691.61 377.3C691.56 377.23 691.52 377.15 691.51 377.06C691.5 376.97 691.51 376.86 691.53 376.74C691.44 376.74 691.35 376.73 691.25 376.73C691.25 376.73 691.25 376.73 691.24 376.73C691.13 376.73 691.01 376.73 690.87 376.73C690.73 376.73 690.58 376.73 690.4 376.73C690.22 376.73 690.01 376.73 689.78 376.73C689.58 377.41 689.35 378.1 689.15 378.79C689.07 379.07 689 379.35 688.93 379.62C688.86 379.94 688.79 380.26 688.75 380.58C688.71 380.9 688.68 381.22 688.68 381.53C688.68 381.69 688.68 381.85 688.7 382C688.77 382.78 689 383.55 689.51 384.28L699.14 384.96C699.22 385.04 699.28 385.14 699.34 385.26C699.45 385.49 699.53 385.79 699.57 386.12C699.59 386.29 699.61 386.46 699.62 386.64C699.65 387.37 699.58 388.19 699.46 388.93L699.47 388.96ZM702.67 336.59C702.39 336.51 702.11 336.41 701.85 336.28C701.61 336.16 701.37 336.03 701.14 335.87C701.03 335.8 700.92 335.72 700.81 335.64C700.45 335.36 700.1 335.05 699.77 334.7C699.23 334.12 698.73 333.46 698.26 332.75C698.04 332.42 697.83 332.08 697.63 331.73C696.52 329.87 695.6 327.9 694.71 326.57C694.01 325.52 693.33 324.86 692.59 324.98C692.1 325.06 691.58 325.48 691.02 326.36C690.54 327.11 690.42 328.02 690.43 329.01C690.43 329.4 690.46 329.81 690.49 330.22C690.64 332.07 690.94 334.05 690.12 335.61C690.07 335.69 690 335.76 689.93 335.82C689.71 336.02 689.39 336.17 689.02 336.27C688.65 336.37 688.22 336.44 687.78 336.45C687.04 336.48 686.25 336.38 685.59 336.17C685.41 336.11 685.25 336.05 685.1 335.97C684.79 335.82 684.53 335.65 684.34 335.44L684.26 306.56C685.18 306.48 686.18 306.39 687.23 306.31C689.07 306.17 691.06 306.07 693.05 306.11C693.06 306.11 693.08 306.11 693.09 306.11C695.35 306.16 697.59 306.4 699.57 307C699.82 307.08 700.06 307.16 700.3 307.24C703.17 308.28 705.36 310.18 706.03 313.49C707 318.28 704.87 322 700.64 324.76L703.81 330.3L706.98 335.84C705.74 336.53 704.62 336.8 703.62 336.74C703.29 336.72 702.98 336.66 702.68 336.57L702.67 336.59ZM704.71 400.72C704.61 400.96 704.54 401.24 704.49 401.58C704.47 401.75 704.46 401.93 704.45 402.12C704.45 401.92 704.47 401.74 704.49 401.58C704.53 401.24 704.61 400.96 704.71 400.72C704.96 400.12 705.38 399.8 705.91 399.6C705.38 399.8 704.96 400.13 704.71 400.72ZM707.78 395.55C707.78 395.75 707.81 395.95 707.84 396.14C707.81 395.94 707.79 395.75 707.78 395.55ZM707.83 394.78C707.85 394.62 707.88 394.47 707.93 394.31C707.88 394.47 707.86 394.63 707.83 394.78ZM710.64 391.24C710.7 390.95 710.73 390.65 710.74 390.35C710.74 390.65 710.7 390.95 710.64 391.24ZM728.52 377.97L727.54 387.27C727.07 387.51 726.59 387.73 726.11 387.93C725.7 388.1 725.28 388.27 724.87 388.41C724.65 388.49 724.42 388.56 724.2 388.63C719.86 389.98 715.34 389.8 710.59 388.69C708.54 387.53 706.99 385.8 705.88 383.76C705.72 383.47 705.57 383.17 705.43 382.87C705.01 381.96 704.67 381 704.41 380.01C704.24 379.35 704.09 378.68 703.99 378C703.83 376.98 703.74 375.94 703.72 374.91C703.71 374.23 703.72 373.56 703.77 372.9C703.82 372.21 703.89 371.52 704 370.84C704.62 366.89 706.23 363.42 708.56 361.73C711.69 359.46 715.67 358.69 719.52 359.04C719.59 359.04 719.67 359.06 719.74 359.06C720.76 359.16 721.76 359.35 722.74 359.6C722.92 359.65 723.09 359.69 723.27 359.75C723.92 359.94 724.56 360.15 725.17 360.4C725.52 360.54 725.86 360.69 726.19 360.85C726.23 362.53 726 363.55 725.56 364.15C725.34 364.45 725.06 364.64 724.74 364.76C724.53 364.84 724.29 364.88 724.04 364.89C723.91 364.89 723.78 364.89 723.65 364.89C723.52 364.89 723.38 364.88 723.23 364.86C722.94 364.83 722.64 364.79 722.33 364.73C722.02 364.67 721.69 364.61 721.35 364.54C721.01 364.47 720.66 364.41 720.3 364.35C718.69 364.08 716.9 363.96 715.15 364.76C714.57 365.03 713.99 365.39 713.42 365.89C713.23 366.06 713.04 366.24 712.86 366.43C712.46 366.85 712.12 367.34 711.81 367.86C711.68 368.08 711.56 368.31 711.44 368.55C711.03 369.39 710.73 370.32 710.52 371.3C710.42 371.79 710.33 372.29 710.27 372.8C710.22 373.21 710.2 373.63 710.18 374.04C710.15 374.87 710.18 375.7 710.28 376.5C710.37 377.3 710.52 378.08 710.73 378.8C710.94 379.52 711.2 380.2 711.51 380.79C711.98 381.68 712.57 382.4 713.27 382.86C713.57 383.05 713.89 383.24 714.24 383.4C716.15 384.32 718.73 384.77 720.55 383.95C721.05 383.73 721.48 383.41 721.84 382.98C722 382.79 722.09 382.57 722.15 382.33C722.22 382.08 722.26 381.81 722.25 381.53C722.25 381.53 722.25 381.51 722.25 381.5C722.24 381.14 722.18 380.77 722.09 380.43C722.02 380.15 721.94 379.91 721.86 379.69C721.82 379.59 721.79 379.5 721.76 379.42C721.74 379.36 721.71 379.29 721.69 379.24C721.67 379.19 721.63 379.15 721.6 379.11C721.42 378.84 721.12 378.65 720.73 378.51C720.5 378.43 720.24 378.37 719.96 378.31C719.32 378.17 718.6 378.06 717.92 377.86C717.16 377.63 716.86 376.29 716.93 375.1C716.93 374.96 716.96 374.82 716.98 374.68C717.05 374.22 717.18 373.81 717.37 373.54C717.4 373.49 717.44 373.44 717.47 373.41C718.49 373.12 719.65 373.03 720.89 373.02C721.32 373.02 721.76 373.02 722.2 373.04C723.44 373.08 724.73 373.17 725.98 373.21C726.43 373.22 726.87 373.23 727.31 373.23L728.49 377.93L728.52 377.97ZM721.67 336.39C719.31 336.4 716.94 336.36 714.52 336.23C713.78 336.19 713.04 336.15 712.29 336.09V321.32L712.28 306.55L718.38 306.46L730.32 306.29C730.6 307.12 730.76 307.97 730.78 308.8C730.79 309.42 730.72 310.03 730.56 310.61C730.51 310.8 730.44 310.99 730.37 311.18C728.18 311.57 725.83 311.22 723.52 311.21C723.04 311.21 722.56 311.21 722.09 311.25C721.65 311.28 721.22 311.33 720.79 311.41C720.34 311.49 719.9 311.61 719.47 311.76C718.79 312 718.35 313.09 718.2 314.32C718.13 314.85 718.12 315.4 718.16 315.91C718.19 316.26 718.24 316.59 718.31 316.89C718.46 317.49 718.71 317.96 719.06 318.18C719.54 318.48 720.07 318.66 720.64 318.76C721.02 318.83 721.41 318.87 721.81 318.88C722.21 318.89 722.63 318.88 723.05 318.86C724.31 318.8 725.63 318.64 726.87 318.68C727.49 318.7 728.09 318.77 728.66 318.93C728.76 318.96 728.85 319.03 728.93 319.13C729.21 319.49 729.35 320.25 729.35 321.01C729.35 321.23 729.35 321.45 729.32 321.65C729.27 322.17 729.15 322.63 728.97 322.89C728.77 322.98 728.58 323.06 728.38 323.13C727.98 323.27 727.58 323.38 727.18 323.46C726.37 323.62 725.55 323.66 724.71 323.66C724.29 323.66 723.87 323.66 723.44 323.65C722.8 323.64 722.15 323.63 721.5 323.65C720.63 323.68 719.74 323.76 718.83 323.97C718.81 324.07 718.79 324.18 718.77 324.29C718.73 324.52 718.68 324.78 718.62 325.05C718.49 325.74 718.36 326.56 718.32 327.35C718.3 327.67 718.3 327.98 718.32 328.28C718.38 329.18 718.61 329.97 719.19 330.38C721.35 331.93 724.16 331.57 726.95 331.57C727.46 331.57 727.96 331.58 728.47 331.62C729.22 331.68 729.96 331.79 730.68 332.01C730.81 332.05 730.91 332.12 730.99 332.23C731.23 332.54 731.29 333.09 731.26 333.71C731.24 334.13 731.17 334.57 731.1 334.99C731.02 335.41 730.94 335.81 730.87 336.12C727.79 336.25 724.74 336.35 721.67 336.36V336.39ZM736.09 404.75C736.4 404.45 736.7 404.12 736.98 403.77C736.69 404.12 736.4 404.46 736.09 404.75ZM756.48 389.33C755.38 389.28 754.28 389.25 753.19 389.27C752.09 389.29 751 389.34 749.9 389.44C749.7 389.46 749.49 389.49 749.29 389.52C748.68 389.62 748.08 389.74 747.46 389.76L740.14 384.77C740.14 385.85 740.09 387.33 739.49 388.22C739.35 388.43 739.19 388.61 738.99 388.75C738.7 388.94 738.24 389.09 737.71 389.19C737.45 389.24 737.17 389.27 736.89 389.29C736.75 389.29 736.61 389.3 736.47 389.3C736.47 389.3 736.46 389.3 736.45 389.3C735.18 389.29 733.96 388.89 733.9 387.85C733.68 384.16 733.36 380.84 733.41 377.73L733.5 371.65L733.67 359.49C736.3 359.42 739.06 359.18 741.72 359.14C742.52 359.13 743.31 359.14 744.08 359.17C744.6 359.19 745.11 359.23 745.61 359.28C747.36 359.45 749.01 359.81 750.48 360.48C750.9 360.67 751.31 360.89 751.69 361.13C751.88 361.25 752.07 361.38 752.26 361.52C752.82 361.93 753.34 362.41 753.81 362.96C753.97 363.14 754.12 363.34 754.27 363.54C754.71 364.15 755.11 364.83 755.45 365.61C755.58 366.49 755.64 367.36 755.62 368.22C755.62 368.26 755.62 368.3 755.62 368.34C755.61 368.8 755.57 369.25 755.51 369.7C755.45 370.12 755.38 370.54 755.28 370.96C755.19 371.34 755.08 371.71 754.94 372.08C754.76 372.58 754.54 373.06 754.28 373.53C753.94 374.14 753.55 374.72 753.06 375.27C752.86 375.49 752.65 375.71 752.43 375.92C752.21 376.13 751.97 376.34 751.72 376.54C751.22 376.94 750.67 377.31 750.05 377.66L756.47 389.34C757.02 389.37 757.58 389.43 758.14 389.46C757.58 389.43 757.01 389.37 756.47 389.34L756.48 389.33ZM756.81 367.69C757.3 368.21 757.85 368.59 758.38 368.7C759.18 368.87 759.86 368.95 760.43 368.95C759.85 368.95 759.18 368.86 758.38 368.7C757.84 368.59 757.3 368.21 756.81 367.69ZM775.4 394.26C774.7 393.98 774.31 393.35 774.08 392.54C774.02 392.34 773.97 392.12 773.93 391.9C773.73 390.76 773.73 389.39 773.63 388.09C773.58 387.4 773.5 386.73 773.36 386.14C773.32 385.98 773.28 385.84 773.23 385.69C773.2 385.58 773.17 385.47 773.13 385.37C772.97 384.98 772.76 384.64 772.49 384.37C771.36 383.25 769.13 384.03 767.65 383.81C766.95 384.37 766.79 385.38 766.58 386.36C766.48 386.83 766.35 387.29 766.15 387.7C765.98 388.04 765.77 388.35 765.44 388.58C764.18 389.45 762.56 389.24 761.15 389.24C760.89 389.24 760.64 389.24 760.4 389.27C760.21 389.29 760.02 389.31 759.84 389.35L766.83 365.57C766.89 365.38 766.96 365.18 767.05 364.95C767.38 364.12 767.91 363.1 768.45 362.14C768.55 361.96 768.65 361.79 768.75 361.61C768.88 361.4 769 361.19 769.12 360.99C769.36 360.59 769.59 360.23 769.79 359.93C769.9 359.76 770.07 359.61 770.29 359.49C770.72 359.25 771.32 359.11 771.99 359.05C772.49 359.01 773.02 359.01 773.55 359.06C774.78 359.18 775.95 359.53 776.48 360.06L783.57 378.64C784.32 378.33 785.09 378.12 785.88 377.99C786.67 377.86 787.47 377.79 788.27 377.73C788.81 377.7 789.34 377.67 789.87 377.64C789.91 376.95 789.95 376.26 789.98 375.55C790.07 373.44 790.11 371.25 790.19 369.05C790.19 368.99 790.19 368.93 790.19 368.88C790.3 365.95 790.49 363.02 790.96 360.29C791.52 359.34 794.5 359.2 795.8 359.81C795.96 359.88 796.1 359.97 796.2 360.07C796.33 360.2 796.41 360.35 796.42 360.51L796.74 372.84C797.55 372.84 798.39 372.78 799.22 372.84C799.5 372.86 799.78 372.89 800.05 372.93C799.77 372.88 799.5 372.85 799.22 372.84C798.39 372.79 797.55 372.84 796.74 372.84C796.8 374.95 796.55 377.15 796.56 379.45C796.56 380.83 796.66 382.25 796.97 383.71C797.79 384.01 798.65 384.16 799.53 384.22C799.97 384.25 800.41 384.26 800.85 384.26C801.3 384.26 801.74 384.25 802.19 384.23C802.86 384.21 803.53 384.18 804.18 384.18C805.27 384.18 806.32 384.26 807.29 384.56C807.83 384.73 808.09 385.79 808.07 386.83C808.07 386.96 808.07 387.09 808.05 387.22C808.02 387.6 807.95 387.97 807.84 388.27C807.8 388.37 807.76 388.46 807.72 388.55C807.63 388.72 807.52 388.85 807.4 388.93C807.34 388.97 807.27 389 807.2 389.01L791.77 389.6L791.66 389.51L790.71 388.79L785.51 389.62C785.39 389.64 785.25 389.66 785.11 389.66C784.97 389.66 784.83 389.66 784.71 389.64C783.75 390.98 777.73 395.17 775.4 394.22V394.26ZM791.39 396.56C790.63 397.27 789.72 398.17 788.84 399.16C789.72 398.16 790.63 397.27 791.39 396.56ZM792.1 409.92C791.52 409.92 790.93 409.86 790.35 409.77C789.2 409.58 788.09 409.21 787.16 408.63C786.23 408.05 785.48 407.26 785.05 406.23C785.49 407.26 786.24 408.05 787.16 408.63C788.09 409.21 789.2 409.58 790.35 409.77C790.93 409.86 791.52 409.91 792.1 409.92C792.68 409.92 793.26 409.89 793.82 409.82C793.26 409.89 792.68 409.93 792.1 409.92ZM795.42 409.49C795.92 409.34 796.38 409.16 796.79 408.95C796.38 409.16 795.92 409.35 795.42 409.49ZM807.37 410.29C807.15 410.16 806.93 410.04 806.72 409.92C803.52 408.09 801.27 406.92 797.59 408.55C801.26 406.92 803.51 408.09 806.72 409.92C806.93 410.04 807.15 410.17 807.37 410.29ZM827.37 402.65C827.5 403 827.64 403.34 827.75 403.69C827.64 403.35 827.5 403 827.37 402.65ZM832.8 389.73C832.42 389.67 832.05 389.57 831.75 389.51C831.6 389.48 831.47 389.45 831.36 389.44C831.09 389.41 830.81 389.38 830.51 389.36C828.71 389.23 826.36 389.3 824.51 389.41C824.2 389.43 823.91 389.45 823.63 389.47C824.26 390.34 825.19 390.69 826.34 390.86C825.2 390.7 824.26 390.34 823.63 389.47L812.42 389.11L811.77 378.82C811.72 378.05 811.69 377.29 811.67 376.52C811.54 371.18 812.04 365.73 812.5 359.73C814 359.63 815.45 359.54 816.89 359.47C818.33 359.4 819.74 359.35 821.16 359.34C822.58 359.33 823.99 359.35 825.43 359.43C826.87 359.51 828.32 359.63 829.82 359.82C830.38 359.89 830.71 360.64 830.81 361.5C830.83 361.62 830.84 361.75 830.84 361.87C830.86 362.24 830.84 362.62 830.77 362.95C830.7 363.28 830.6 363.57 830.46 363.78C830.41 363.85 830.36 363.9 830.3 363.95C830.24 364 830.18 364.03 830.12 364.05L824.8 364.36L819.48 364.67C819.21 364.8 818.99 365.08 818.81 365.44C818.63 365.8 818.5 366.26 818.42 366.75C818.36 367.08 818.33 367.42 818.32 367.77C818.31 368.11 818.32 368.45 818.34 368.78C818.36 368.99 818.38 369.19 818.41 369.39C818.53 370.16 818.77 370.81 819.12 371.14C819.19 371.18 819.26 371.22 819.33 371.26C819.58 371.41 819.84 371.53 820.11 371.61C820.63 371.77 821.2 371.84 821.8 371.86C822 371.86 822.2 371.86 822.4 371.86C822.6 371.86 822.81 371.85 823.02 371.84C823.23 371.83 823.44 371.82 823.65 371.8C824.49 371.74 825.35 371.67 826.2 371.7C826.41 371.7 826.62 371.72 826.83 371.74C827.45 371.8 828.06 371.92 828.63 372.16C828.77 372.22 828.89 372.32 828.98 372.45C829.08 372.58 829.15 372.75 829.21 372.94C829.24 373.05 829.27 373.16 829.29 373.28C829.32 373.48 829.34 373.69 829.35 373.91C829.35 374.26 829.33 374.63 829.27 374.99C829.23 375.23 829.18 375.45 829.11 375.67C829.04 375.88 828.97 376.08 828.88 376.24C828.79 376.41 828.69 376.55 828.59 376.65C828.62 376.81 828.62 376.96 828.59 377.09C828.54 377.34 828.4 377.53 828.21 377.65C827.71 377.96 826.86 377.93 826.21 377.8C825.93 377.74 825.63 377.62 825.34 377.45C825.05 377.28 824.77 377.04 824.53 376.75L822.61 376.78C822.56 377.42 822.53 378.07 822.53 378.72C822.53 380.66 822.84 382.58 823.72 384.33C825.17 384.69 826.87 384.43 828.4 384.51C828.74 384.53 829.07 384.56 829.39 384.63C829.87 384.73 830.32 384.88 830.73 385.14C831 385.31 831.25 385.52 831.48 385.79C831.57 385.9 831.69 386 831.82 386.11C832.21 386.43 832.74 386.74 833.24 387.09C833.49 387.27 833.71 387.46 833.92 387.66C834.26 388 834.52 388.37 834.58 388.82C834.71 389.91 833.76 389.94 832.83 389.78L832.8 389.73ZM856.48 381.23C856.42 381.83 856.32 382.41 856.16 382.97C856.07 383.3 855.97 383.61 855.85 383.92C855.67 384.37 855.46 384.81 855.22 385.22C855.04 385.51 854.86 385.8 854.64 386.07C854.49 386.26 854.33 386.44 854.16 386.62C853.86 386.94 853.52 387.23 853.17 387.5C852.61 387.92 851.98 388.27 851.29 388.55C850.44 388.9 849.49 389.14 848.44 389.25C848.26 389.27 848.05 389.29 847.82 389.31C846.77 389.41 845.22 389.52 843.58 389.52C842.85 389.52 842.11 389.5 841.38 389.45C841.2 389.44 841.02 389.42 840.84 389.41C840.48 389.38 840.13 389.34 839.79 389.28C839.28 389.2 838.8 389.1 838.35 388.98C838.06 388.9 837.78 388.8 837.52 388.69C837.27 388.58 837.03 388.46 836.83 388.32C836.12 387.84 835.73 387.19 835.88 386.31C835.88 386.26 835.9 386.2 835.91 386.14C835.93 386.01 835.96 385.87 835.99 385.72C836.02 385.57 836.06 385.4 836.1 385.23C836.14 385.06 836.19 384.89 836.25 384.72C836.31 384.55 836.37 384.39 836.45 384.24C836.52 384.09 836.61 383.95 836.7 383.83C836.79 383.71 836.89 383.61 837 383.54C837.17 383.43 837.36 383.39 837.58 383.43C837.86 383.48 838.25 383.57 838.7 383.68C841.36 384.28 846.5 385.38 848.73 383.42C849.33 382.89 849.72 382.14 849.8 381.09C849.86 380.27 849.68 379.62 849.31 379.09C849.13 378.82 848.91 378.58 848.64 378.36C848.51 378.25 848.37 378.15 848.22 378.05C848 377.9 847.75 377.76 847.49 377.63C847.23 377.5 846.97 377.38 846.68 377.26C846.49 377.18 846.29 377.1 846.09 377.03C845.69 376.88 845.27 376.73 844.84 376.59C844.41 376.44 843.97 376.3 843.52 376.14C843.3 376.06 843.07 375.98 842.85 375.9C840.31 374.96 837.79 373.64 836.64 370.75C836.39 370.13 836.21 369.43 836.1 368.65C836.05 368.28 836.01 367.89 836 367.48C835.99 367.13 836 366.76 836.01 366.37C836.1 364.51 836.98 362.39 838.75 360.96C839.29 360.53 839.9 360.15 840.6 359.87C843.25 358.82 846.39 358.65 849.29 359.06C851.12 359.32 852.86 359.81 854.33 360.46C854.44 361.27 854.22 362.29 853.91 363.08C853.73 363.55 853.51 363.94 853.32 364.14C852.44 365.1 850.57 364.14 848.16 363.81C847.07 363.66 845.87 363.65 844.6 364.01C844.02 364.18 843.29 364.63 842.8 365.26C842.77 365.3 842.74 365.34 842.71 365.38C842.64 365.48 842.57 365.59 842.51 365.7C842.44 365.83 842.38 365.97 842.33 366.11C842.27 366.3 842.23 366.51 842.22 366.72C842.21 367.04 842.27 367.37 842.41 367.72C842.85 368.74 843.81 369.48 845.04 370.13C845.74 370.5 846.53 370.84 847.35 371.17C848.38 371.59 849.47 372.01 850.53 372.5C850.74 372.6 850.95 372.7 851.16 372.8C851.99 373.21 852.78 373.67 853.49 374.21C855.27 375.56 856.52 377.42 856.5 380.3C856.5 380.59 856.48 380.89 856.45 381.19L856.48 381.23Z" fill="#B98048"/>
<path d="M565.02 422.39C565.02 424.2 565.66 425.5 566.68 426.34C565.65 425.5 565.02 424.2 565.02 422.39Z" fill="#B98048"/>
<path d="M923.77 401.13C923.77 401.02 923.77 400.89 923.77 400.75C923.77 400.89 923.76 401.02 923.77 401.13Z" fill="#B98048"/>
<path d="M925.44 419.28C925.47 419.5 925.5 419.72 925.53 419.94C925.5 419.72 925.48 419.5 925.44 419.28Z" fill="#B98048"/>
<path d="M924.59 414.83C924.59 414.83 924.61 414.92 924.62 414.97C924.62 414.92 924.6 414.88 924.59 414.83Z" fill="#B98048"/>
<path d="M820.3 178.13C822.97 180.82 825.61 183.56 828.2 186.34C825.6 183.56 822.97 180.82 820.3 178.13Z" fill="#B98048"/>
<path d="M924.97 416.66C925.01 416.85 925.05 417.05 925.09 417.26C925.05 417.06 925.01 416.86 924.97 416.66Z" fill="#B98048"/>
<path d="M925.65 422.25C925.65 422.62 925.62 422.97 925.58 423.32C925.62 422.97 925.64 422.62 925.65 422.25Z" fill="#B98048"/>
<path d="M925.62 421.09C925.64 421.47 925.65 421.85 925.65 422.23C925.65 421.86 925.65 421.48 925.62 421.09Z" fill="#B98048"/>
<path d="M917.41 356.48C918.87 363.42 920.11 370.4 921.11 377.44C920.11 370.41 918.88 363.42 917.41 356.48Z" fill="#B98048"/>
<path d="M922.1 427.35C922.1 427.35 922.03 427.36 921.99 427.36C922.03 427.36 922.06 427.35 922.1 427.35Z" fill="#B98048"/>
<path d="M568.49 427.26C567.81 427.07 567.2 426.77 566.68 426.35C567.19 426.77 567.81 427.07 568.49 427.26Z" fill="#B98048"/>
<path d="M924.6 426.04C924.51 426.16 924.4 426.27 924.3 426.38C924.41 426.27 924.51 426.16 924.6 426.04Z" fill="#B98048"/>
<path d="M884.59 265.68C882.56 261.73 880.46 257.82 878.3 253.93C876.66 251.1 874.97 248.3 873.27 245.53C874.98 248.31 876.66 251.1 878.3 253.93C880.46 257.82 882.56 261.74 884.59 265.68Z" fill="#B98048"/>
<path d="M925.58 423.32C925.54 423.64 925.49 423.95 925.41 424.25C925.48 423.95 925.54 423.64 925.58 423.32Z" fill="#B98048"/>
<path d="M925.37 424.45C925.29 424.73 925.2 425 925.08 425.26C925.2 425.01 925.29 424.74 925.37 424.45Z" fill="#B98048"/>
<path d="M924.79 406.28C924.79 406.79 924.76 407.31 924.72 407.83C924.76 407.31 924.78 406.8 924.79 406.28Z" fill="#B98048"/>
<path d="M774.18 138.84C784.16 146 793.8 153.67 803.04 161.85C793.8 153.68 784.16 146 774.18 138.84Z" fill="#B98048"/>
<path d="M900.99 301.91C903.66 308.74 906.13 315.65 908.38 322.61C906.13 315.65 903.67 308.75 900.99 301.91Z" fill="#B98048"/>
<path d="M836.91 196.02C849.26 210.22 860.61 225.47 870.85 241.66C860.62 225.47 849.26 210.22 836.91 196.02Z" fill="#B98048"/>
<path d="M909.7 326.79C910.56 329.59 911.39 332.39 912.18 335.2C911.39 332.39 910.56 329.58 909.7 326.79Z" fill="#B98048"/>
<path d="M921.71 395.72C921.53 395.4 921.38 395.07 921.24 394.75C921.38 395.07 921.53 395.39 921.71 395.72Z" fill="#B98048"/>
<path d="M922.48 398.28C922.48 398.05 922.46 397.82 922.44 397.6C922.46 397.82 922.47 398.05 922.48 398.28Z" fill="#B98048"/>
<path d="M922.44 397.6C922.4 397.16 922.32 396.74 922.11 396.41C922.31 396.74 922.4 397.15 922.44 397.6Z" fill="#B98048"/>
<path d="M685.57 336.18C685.39 336.12 685.23 336.06 685.08 335.98C685.23 336.05 685.4 336.12 685.57 336.18Z" fill="#B98048"/>
<path d="M702.67 336.59C702.39 336.51 702.11 336.41 701.85 336.28C702.12 336.41 702.39 336.51 702.67 336.59Z" fill="#B98048"/>
<path d="M690.11 335.62C690.06 335.7 689.99 335.77 689.92 335.83C689.99 335.76 690.06 335.69 690.11 335.62C690.94 334.05 690.63 332.08 690.48 330.23C690.63 332.08 690.93 334.06 690.11 335.62Z" fill="#B98048"/>
<path d="M706.97 335.86C705.73 336.55 704.61 336.82 703.61 336.76C704.61 336.82 705.72 336.56 706.97 335.86Z" fill="#B98048"/>
<path d="M697.62 331.74C696.51 329.88 695.59 327.91 694.7 326.58C695.59 327.91 696.51 329.89 697.62 331.74Z" fill="#B98048"/>
<path d="M645.7 359.65C645.91 359.6 646.13 359.57 646.35 359.55C646.12 359.57 645.9 359.6 645.7 359.65Z" fill="#B98048"/>
<path d="M647.01 389.45C647.45 389.5 647.92 389.45 648.4 389.28C647.91 389.45 647.45 389.5 647.01 389.45Z" fill="#B98048"/>
<path d="M644.92 360C645.12 359.84 645.39 359.72 645.7 359.64C645.39 359.72 645.12 359.83 644.92 360Z" fill="#B98048"/>
<path d="M644.61 360.39C644.67 360.24 644.78 360.11 644.91 360C644.77 360.11 644.67 360.24 644.61 360.39Z" fill="#B98048"/>
<path d="M638.79 380.66C638.76 380.45 638.69 380.27 638.58 380.11C638.69 380.27 638.76 380.46 638.79 380.66Z" fill="#B98048"/>
<path d="M647.01 389.45C646.57 389.4 646.15 389.25 645.75 389.02C646.15 389.24 646.57 389.39 647.01 389.45Z" fill="#B98048"/>
<path d="M755.44 365.6C755.57 366.48 755.63 367.35 755.61 368.21C755.63 367.35 755.56 366.47 755.44 365.6C755.1 364.82 754.71 364.14 754.26 363.53C754.7 364.14 755.1 364.82 755.44 365.6Z" fill="#B98048"/>
<path d="M739.49 388.22C740.09 387.33 740.15 385.85 740.14 384.77C740.14 385.85 740.09 387.33 739.49 388.22Z" fill="#B98048"/>
<path d="M750.48 360.47C750.9 360.66 751.31 360.88 751.69 361.12C751.3 360.87 750.9 360.66 750.48 360.47Z" fill="#B98048"/>
<path d="M733.9 387.84C733.68 384.15 733.36 380.83 733.41 377.72C733.37 380.83 733.68 384.15 733.9 387.84Z" fill="#B98048"/>
<path d="M754.28 373.53C753.94 374.14 753.55 374.72 753.06 375.27C753.54 374.72 753.94 374.14 754.28 373.53Z" fill="#B98048"/>
<path d="M736.89 389.29C736.75 389.29 736.61 389.3 736.47 389.3C736.61 389.3 736.75 389.3 736.89 389.29Z" fill="#B98048"/>
<path d="M755.61 368.34C755.6 368.8 755.56 369.25 755.5 369.7C755.56 369.25 755.59 368.8 755.61 368.34Z" fill="#B98048"/>
<path d="M744.08 359.16C744.6 359.18 745.11 359.22 745.61 359.27C745.11 359.22 744.6 359.19 744.08 359.16Z" fill="#B98048"/>
<path d="M755.27 370.96C755.18 371.34 755.07 371.71 754.93 372.08C755.06 371.71 755.17 371.34 755.27 370.96Z" fill="#B98048"/>
<path d="M720.74 378.56C720.51 378.48 720.25 378.42 719.97 378.36C720.24 378.42 720.51 378.48 720.74 378.56Z" fill="#B98048"/>
<path d="M727.35 373.27C726.91 373.27 726.47 373.27 726.02 373.25C726.47 373.26 726.91 373.27 727.35 373.27Z" fill="#B98048"/>
<path d="M720.92 373.06C719.68 373.06 718.52 373.16 717.5 373.45C717.46 373.49 717.43 373.54 717.4 373.58C717.43 373.53 717.47 373.48 717.5 373.45C718.52 373.16 719.68 373.07 720.92 373.06Z" fill="#B98048"/>
<path d="M722.11 380.46C722.19 380.8 722.26 381.17 722.27 381.53C722.26 381.17 722.2 380.8 722.11 380.46Z" fill="#B98048"/>
<path d="M713.28 382.88C713.58 383.07 713.9 383.26 714.25 383.42C713.9 383.25 713.58 383.07 713.28 382.88Z" fill="#B98048"/>
<path d="M720.74 378.56C721.14 378.7 721.44 378.89 721.61 379.16C721.43 378.89 721.13 378.7 720.74 378.56Z" fill="#B98048"/>
<path d="M716.95 375.14C716.95 375 716.98 374.86 717 374.72C716.98 374.86 716.96 375 716.95 375.14Z" fill="#B98048"/>
<path d="M720.92 373.06C721.35 373.06 721.79 373.06 722.23 373.08C721.79 373.07 721.35 373.06 720.92 373.06Z" fill="#B98048"/>
<path d="M710.59 388.7C708.54 387.54 706.99 385.81 705.88 383.77C706.98 385.81 708.53 387.54 710.59 388.7C715.34 389.8 719.86 389.99 724.2 388.64C719.86 389.99 715.34 389.81 710.59 388.7Z" fill="#B98048"/>
<path d="M710.74 378.81C710.95 379.53 711.21 380.21 711.52 380.8C711.21 380.2 710.94 379.53 710.74 378.81Z" fill="#B98048"/>
<path d="M722.16 382.37C722.23 382.12 722.27 381.85 722.26 381.57C722.26 381.85 722.23 382.12 722.16 382.37Z" fill="#B98048"/>
<path d="M724.74 364.77C724.53 364.85 724.29 364.89 724.04 364.9C724.29 364.88 724.53 364.84 724.74 364.77Z" fill="#B98048"/>
<path d="M726.19 360.87C726.23 362.55 726 363.57 725.56 364.17C726 363.57 726.24 362.55 726.19 360.87Z" fill="#B98048"/>
<path d="M703.73 374.91C703.72 374.24 703.73 373.57 703.78 372.9C703.74 373.56 703.72 374.24 703.73 374.91Z" fill="#B98048"/>
<path d="M726.12 387.94C725.71 388.11 725.29 388.28 724.88 388.42C725.3 388.27 725.71 388.11 726.12 387.94Z" fill="#B98048"/>
<path d="M710.53 371.31C710.43 371.8 710.34 372.3 710.28 372.81C710.34 372.3 710.42 371.8 710.53 371.31Z" fill="#B98048"/>
<path d="M711.82 367.87C711.69 368.09 711.57 368.32 711.45 368.56C711.56 368.32 711.69 368.09 711.82 367.87Z" fill="#B98048"/>
<path d="M722.74 359.62C722.92 359.67 723.09 359.71 723.27 359.77C723.09 359.72 722.92 359.67 722.74 359.62Z" fill="#B98048"/>
<path d="M741.92 331.95C742.16 331.38 742.46 330.9 742.96 330.62C742.46 330.9 742.15 331.38 741.92 331.95Z" fill="#B98048"/>
<path d="M741.92 331.95C741.53 332.91 741.33 334.14 740.75 335.23C741.33 334.15 741.53 332.91 741.92 331.95Z" fill="#B98048"/>
<path d="M740.27 335.81C740.08 335.97 739.86 336.1 739.63 336.2C739.87 336.1 740.09 335.97 740.27 335.81Z" fill="#B98048"/>
<path d="M739.63 336.2C739.41 336.29 739.18 336.35 738.93 336.4C739.18 336.36 739.42 336.29 739.63 336.2Z" fill="#B98048"/>
<path d="M755.38 335.56C755.26 335.44 755.18 335.3 755.08 335.16C755.17 335.3 755.26 335.44 755.38 335.56C756.89 337.17 759.82 336.18 761.45 335.9C759.82 336.17 756.9 337.17 755.38 335.56Z" fill="#B98048"/>
<path d="M746.04 306.27C746.67 306.16 747.36 306.1 748.03 306.1C747.35 306.1 746.67 306.16 746.04 306.27Z" fill="#B98048"/>
<path d="M712.29 336.09L712.28 321.32L712.29 336.09Z" fill="#B98048"/>
<path d="M731.27 333.73C731.25 334.15 731.18 334.59 731.11 335.01C731.19 334.59 731.25 334.14 731.27 333.73Z" fill="#B98048"/>
<path d="M731 332.25C731.24 332.56 731.3 333.11 731.27 333.73C731.3 333.11 731.25 332.55 731 332.25Z" fill="#B98048"/>
<path d="M719.2 330.4C718.62 329.98 718.38 329.2 718.33 328.3C718.39 329.2 718.62 329.99 719.2 330.4Z" fill="#B98048"/>
<path d="M730.87 336.15C727.79 336.28 724.74 336.38 721.67 336.39C724.75 336.38 727.79 336.27 730.87 336.15C730.94 335.83 731.03 335.44 731.1 335.02C731.02 335.44 730.94 335.84 730.87 336.15Z" fill="#B98048"/>
<path d="M730.78 308.79C730.77 307.96 730.61 307.11 730.32 306.28C730.6 307.11 730.76 307.96 730.78 308.79Z" fill="#B98048"/>
<path d="M723.52 311.19C723.04 311.19 722.56 311.19 722.09 311.23C722.56 311.2 723.04 311.18 723.52 311.19Z" fill="#B98048"/>
<path d="M726.96 331.59C727.47 331.59 727.97 331.6 728.48 331.64C727.98 331.6 727.47 331.59 726.96 331.59Z" fill="#B98048"/>
<path d="M724.71 323.67C724.29 323.67 723.87 323.67 723.44 323.66C723.87 323.66 724.29 323.67 724.71 323.67Z" fill="#B98048"/>
<path d="M659.33 336.19C663.18 336.48 667.18 336.51 671.04 336.42C667.18 336.51 663.19 336.47 659.33 336.19Z" fill="#B98048"/>
<path d="M678.04 332.17C677.99 332.12 677.93 332.08 677.86 332.06C677.92 332.09 677.98 332.13 678.04 332.17Z" fill="#B98048"/>
<path d="M675.53 311.33C676.16 311.28 676.76 311.17 677.33 310.98C676.77 311.17 676.16 311.28 675.53 311.33Z" fill="#B98048"/>
<path d="M665.77 329.7C665.81 329.82 665.86 329.94 665.9 330.05C665.85 329.94 665.81 329.83 665.77 329.7Z" fill="#B98048"/>
<path d="M677.84 336.14C677.15 336.18 676.46 336.21 675.75 336.25C676.46 336.22 677.15 336.18 677.84 336.14Z" fill="#B98048"/>
<path d="M675.71 319.03C675.31 318.92 674.89 318.84 674.48 318.79C674.9 318.84 675.31 318.92 675.71 319.03Z" fill="#B98048"/>
<path d="M659.3 306.37C661.55 306.34 663.81 306.27 666.07 306.23C663.81 306.28 661.55 306.35 659.3 306.37Z" fill="#B98048"/>
<path d="M672.75 311.33C672.28 311.31 671.81 311.28 671.35 311.27C671.82 311.29 672.29 311.31 672.75 311.33Z" fill="#B98048"/>
<path d="M670.08 318.83C670.49 318.81 670.9 318.79 671.32 318.77C670.9 318.79 670.49 318.82 670.08 318.83Z" fill="#B98048"/>
<path d="M666.49 330.89C667.25 331.39 668.14 331.62 669.1 331.71C668.15 331.62 667.26 331.39 666.49 330.89Z" fill="#B98048"/>
<path d="M666.14 318.29C666.63 318.53 667.16 318.67 667.72 318.75C667.16 318.67 666.63 318.52 666.14 318.29Z" fill="#B98048"/>
<path d="M787.64 306.41L787.5 321.24L787.64 306.41Z" fill="#B98048"/>
<path d="M793.43 314.45C793.43 313.93 793.46 313.44 793.55 313.03C793.46 313.44 793.42 313.93 793.43 314.45Z" fill="#B98048"/>
<path d="M793.5 327.69C793.5 327.05 793.54 326.42 793.62 325.77C793.54 326.42 793.51 327.05 793.5 327.69Z" fill="#B98048"/>
<path d="M806.21 308.81C806.21 309.07 806.19 309.32 806.15 309.56C806.18 309.32 806.2 309.06 806.21 308.81Z" fill="#B98048"/>
<path d="M793.96 323.81C793.81 324.48 793.7 325.13 793.62 325.78C793.69 325.13 793.81 324.48 793.96 323.81L804.35 323.32C804.39 323.07 804.42 322.84 804.45 322.61C804.42 322.83 804.39 323.07 804.35 323.32L793.96 323.81Z" fill="#B98048"/>
<path d="M797.21 318.58L793.84 318.41L797.21 318.58Z" fill="#B98048"/>
<path d="M806.29 333.45C806.29 333.65 806.29 333.87 806.27 334.08C806.29 333.86 806.3 333.65 806.29 333.45Z" fill="#B98048"/>
<path d="M805.35 306.51C805.94 306.57 806.23 307.68 806.22 308.79C806.22 307.68 805.95 306.57 805.35 306.51C800.89 306.08 796.38 306.16 791.99 306.29C796.38 306.17 800.89 306.08 805.35 306.51Z" fill="#B98048"/>
<path d="M806.26 334.09C806.24 334.31 806.22 334.53 806.18 334.74C806.21 334.52 806.24 334.3 806.26 334.09Z" fill="#B98048"/>
<path d="M793.66 317.1C793.69 317.29 793.71 317.47 793.74 317.64C793.72 317.47 793.69 317.29 793.66 317.1Z" fill="#B98048"/>
<path d="M804.5 319.88C804.55 320.2 804.57 320.52 804.58 320.86C804.58 320.52 804.55 320.2 804.5 319.88Z" fill="#B98048"/>
<path d="M806.01 332.27C806.13 332.41 806.2 332.63 806.25 332.89C806.21 332.63 806.13 332.42 806.01 332.27Z" fill="#B98048"/>
<path d="M806.24 332.89C806.27 333.06 806.28 333.25 806.29 333.46C806.29 333.26 806.27 333.07 806.24 332.89Z" fill="#B98048"/>
<path d="M768.42 362.13C768.52 361.95 768.62 361.78 768.72 361.6C768.62 361.77 768.52 361.95 768.42 362.13Z" fill="#B98048"/>
<path d="M773.52 359.07C772.99 359.02 772.46 359.01 771.96 359.06C772.46 359.02 772.99 359.02 773.52 359.07Z" fill="#B98048"/>
<path d="M767.65 383.81C766.95 384.37 766.79 385.38 766.58 386.36C766.8 385.38 766.95 384.37 767.65 383.81Z" fill="#B98048"/>
<path d="M770.26 359.49C770.05 359.61 769.87 359.75 769.76 359.93C769.56 360.22 769.33 360.59 769.09 360.99C769.33 360.59 769.56 360.23 769.76 359.93C769.87 359.76 770.04 359.61 770.26 359.49Z" fill="#B98048"/>
<path d="M784.71 389.68C784.83 389.7 784.97 389.71 785.11 389.7C784.97 389.7 784.83 389.7 784.71 389.68Z" fill="#B98048"/>
<path d="M819.13 371.13C818.78 370.81 818.54 370.15 818.42 369.38C818.54 370.15 818.78 370.8 819.13 371.13Z" fill="#B98048"/>
<path d="M820.11 371.6C820.63 371.76 821.2 371.83 821.8 371.85C821.21 371.83 820.64 371.77 820.11 371.6Z" fill="#B98048"/>
<path d="M830.13 364.03C830.2 364.01 830.26 363.97 830.31 363.93C830.25 363.98 830.19 364.01 830.13 364.03Z" fill="#B98048"/>
<path d="M812.43 389.09L811.78 378.8L812.43 389.09L823.63 389.45L812.43 389.09Z" fill="#B98048"/>
<path d="M831.36 389.43C831.09 389.4 830.81 389.37 830.51 389.35C830.81 389.37 831.1 389.4 831.36 389.43Z" fill="#B98048"/>
<path d="M828.97 372.42C828.87 372.29 828.76 372.19 828.62 372.13C828.76 372.19 828.88 372.29 828.97 372.42Z" fill="#B98048"/>
<path d="M829.25 374.96C829.21 375.2 829.16 375.42 829.09 375.64C829.16 375.43 829.21 375.2 829.25 374.96Z" fill="#B98048"/>
<path d="M829.28 373.25C829.31 373.45 829.33 373.66 829.34 373.88C829.34 373.66 829.32 373.45 829.28 373.25Z" fill="#B98048"/>
<path d="M826.2 371.68C825.36 371.66 824.5 371.73 823.65 371.78C824.49 371.72 825.35 371.65 826.2 371.68Z" fill="#B98048"/>
<path d="M819.33 371.24C819.58 371.39 819.84 371.51 820.11 371.59C819.84 371.5 819.58 371.38 819.33 371.24Z" fill="#B98048"/>
<path d="M811.78 378.8C811.73 378.03 811.7 377.27 811.68 376.5C811.7 377.27 811.73 378.04 811.78 378.8Z" fill="#B98048"/>
<path d="M836.03 366.39C836.01 366.77 836.01 367.14 836.02 367.5C836.01 367.15 836.02 366.78 836.03 366.39Z" fill="#B98048"/>
<path d="M837.57 383.45C837.85 383.5 838.24 383.59 838.69 383.7C838.24 383.6 837.85 383.51 837.57 383.45Z" fill="#B98048"/>
<path d="M835.88 386.31C835.88 386.26 835.9 386.2 835.91 386.14C835.9 386.2 835.89 386.26 835.88 386.31C835.74 387.19 836.12 387.85 836.83 388.32C836.12 387.84 835.73 387.19 835.88 386.31Z" fill="#B98048"/>
<path d="M854.35 360.49C852.88 359.83 851.14 359.35 849.31 359.09C851.14 359.35 852.88 359.84 854.35 360.49Z" fill="#B98048"/>
<path d="M856.16 382.97C856.31 382.41 856.42 381.83 856.48 381.23C856.51 380.92 856.52 380.62 856.53 380.34C856.53 380.63 856.51 380.93 856.48 381.23C856.42 381.83 856.32 382.41 856.16 382.97Z" fill="#B98048"/>
<path d="M847.38 371.21C848.41 371.63 849.5 372.05 850.56 372.54C849.51 372.05 848.42 371.63 847.38 371.21Z" fill="#B98048"/>
<path d="M848.64 378.38C848.9 378.6 849.13 378.84 849.31 379.11C849.13 378.84 848.91 378.6 848.64 378.38Z" fill="#B98048"/>
<path d="M849.79 381.11C849.85 380.29 849.67 379.64 849.3 379.11C849.66 379.65 849.84 380.3 849.79 381.11C849.72 382.16 849.33 382.91 848.72 383.44C849.32 382.91 849.71 382.16 849.79 381.11Z" fill="#B98048"/>
<path d="M842.35 366.14C842.29 366.33 842.25 366.54 842.24 366.75C842.24 366.54 842.29 366.33 842.35 366.14Z" fill="#B98048"/>
<path d="M842.82 365.29C842.82 365.29 842.76 365.37 842.73 365.41C842.76 365.37 842.79 365.33 842.82 365.29Z" fill="#B98048"/>
<path d="M855.85 383.92C855.67 384.37 855.46 384.81 855.22 385.22C855.47 384.81 855.68 384.38 855.85 383.92Z" fill="#B98048"/>
<path d="M836.65 370.76C836.4 370.14 836.22 369.44 836.11 368.66C836.21 369.44 836.4 370.14 836.65 370.76Z" fill="#B98048"/>
<path d="M853.17 387.49C852.61 387.91 851.98 388.26 851.29 388.54C851.98 388.26 852.61 387.9 853.17 387.49Z" fill="#B98048"/>
<path d="M826.34 335.45C826.91 335.2 827.48 334.93 828.02 334.61C827.47 334.93 826.91 335.2 826.34 335.45Z" fill="#B98048"/>
<path d="M831.57 326.66C831.5 325.98 831.38 325.31 831.21 324.64C831.38 325.3 831.5 325.98 831.57 326.66Z" fill="#B98048"/>
<path d="M819.62 336.84C818.89 336.84 818.17 336.81 817.45 336.72C818.17 336.8 818.89 336.84 819.62 336.84Z" fill="#B98048"/>
<path d="M812.59 330.86C812.38 330.86 812.17 331 811.97 331.21C812.17 331 812.38 330.87 812.59 330.86Z" fill="#B98048"/>
<path d="M816.61 322.39C820.59 324.05 825.27 324.55 825.04 328.31C825.27 324.54 820.59 324.05 816.61 322.39Z" fill="#B98048"/>
<path d="M828.79 311.43C828.95 311.31 829.11 311.06 829.26 310.75C829.11 311.07 828.95 311.32 828.79 311.43Z" fill="#B98048"/>
<path d="M821.58 310.91C822.08 310.88 822.61 310.88 823.13 310.91C822.61 310.89 822.08 310.89 821.58 310.91Z" fill="#B98048"/>
<path d="M814.34 307.63C812.06 309.06 810.93 311.83 810.95 314.56C810.93 311.84 812.06 309.07 814.34 307.63Z" fill="#B98048"/>
<path d="M829.8 308.49C829.8 309.19 829.55 310.11 829.26 310.74C829.56 310.1 829.79 309.19 829.8 308.49Z" fill="#B98048"/>
<path d="M828.54 311.48C828.31 311.48 827.93 311.45 827.47 311.38C827.93 311.44 828.31 311.48 828.54 311.48Z" fill="#B98048"/>
<path d="M824.2 310.97C823.86 310.94 823.52 310.92 823.17 310.9C823.51 310.92 823.86 310.94 824.2 310.97Z" fill="#B98048"/>
<path d="M811.1 332.86C811.13 332.74 811.17 332.63 811.21 332.52C811.17 332.63 811.13 332.75 811.1 332.86Z" fill="#B98048"/>
<path d="M817.72 313.14C817.65 313.42 817.61 313.74 817.63 314.1C817.62 313.75 817.65 313.43 817.72 313.14Z" fill="#B98048"/>
<path d="M829.85 322.19C830.03 322.39 830.2 322.6 830.35 322.81C830.2 322.59 830.03 322.39 829.85 322.19Z" fill="#B98048"/>
<path d="M699.01 360.36C699.1 360.57 699.16 360.83 699.19 361.12C699.16 360.84 699.1 360.57 699.01 360.36Z" fill="#B98048"/>
<path d="M685.1 359.23C683.61 359.28 682.15 359.36 680.72 359.45C682.15 359.36 683.62 359.28 685.1 359.23Z" fill="#B98048"/>
<path d="M687.75 371.33C690.8 372.75 694.5 370.68 697.01 372.26C697.09 372.31 697.16 372.37 697.22 372.44C697.16 372.37 697.08 372.31 697.01 372.26C694.51 370.68 690.81 372.75 687.75 371.33Z" fill="#B98048"/>
<path d="M699.22 361.78C699.22 361.99 699.19 362.21 699.16 362.41C699.19 362.2 699.21 361.99 699.22 361.78Z" fill="#B98048"/>
<path d="M699.11 362.72C699.05 363.02 698.96 363.28 698.84 363.49C698.95 363.28 699.04 363.01 699.11 362.72Z" fill="#B98048"/>
<path d="M691.26 376.74C691.36 376.74 691.46 376.74 691.54 376.75C691.45 376.75 691.36 376.74 691.26 376.74Z" fill="#B98048"/>
<path d="M643.04 311.62C642.47 311.79 641.9 312.03 641.35 312.35C641.9 312.02 642.47 311.79 643.04 311.62Z" fill="#B98048"/>
<path d="M637.65 318.48C637.5 319.26 637.42 320.07 637.39 320.89C637.41 320.07 637.5 319.26 637.65 318.48Z" fill="#B98048"/>
<path d="M638.27 316.26C638 316.96 637.79 317.71 637.65 318.49C637.8 317.71 638.01 316.96 638.27 316.26Z" fill="#B98048"/>
<path d="M643.04 311.62C644.19 311.28 645.36 311.22 646.49 311.27C645.36 311.22 644.19 311.27 643.04 311.62Z" fill="#B98048"/>
<path d="M653.21 331.55C653.33 331.85 653.44 332.18 653.52 332.52C653.44 332.18 653.33 331.84 653.21 331.55Z" fill="#B98048"/>
<path d="M636.91 308.25C637.81 307.6 638.8 307.09 639.83 306.71C638.8 307.1 637.82 307.61 636.91 308.25Z" fill="#B98048"/>
<path d="M653.53 332.52C653.61 332.86 653.66 333.2 653.67 333.51C653.67 333.2 653.61 332.86 653.53 332.52Z" fill="#B98048"/>
<path d="M639.83 306.71C640.86 306.32 641.94 306.07 643.03 305.92C641.94 306.07 640.86 306.33 639.83 306.71Z" fill="#B98048"/>
<path d="M648.13 311.41C647.6 311.35 647.05 311.3 646.49 311.27C647.05 311.29 647.6 311.35 648.13 311.41Z" fill="#B98048"/>
<path d="M668.11 387.08C668.05 387.36 667.96 387.62 667.85 387.87C667.97 387.63 668.05 387.36 668.11 387.08Z" fill="#B98048"/>
<path d="M663.87 389.45C664.85 389.47 665.96 389.39 666.65 389.08C666.92 388.96 667.16 388.79 667.36 388.58C667.16 388.79 666.93 388.96 666.65 389.08C665.97 389.38 664.86 389.47 663.87 389.45Z" fill="#B98048"/>
<path d="M653.74 360.83L653.7 363.55L653.74 360.83Z" fill="#B98048"/>
<path d="M675.55 363.84L668.6 364.43L668.24 386.01C668.24 386.18 668.23 386.34 668.21 386.5C668.23 386.34 668.24 386.17 668.24 386.01L668.6 364.43L675.55 363.84C676.24 363.78 676.43 363.23 676.48 362.59C676.43 363.23 676.23 363.78 675.55 363.84Z" fill="#B98048"/>
<path d="M799.51 384.24C799.95 384.27 800.39 384.28 800.83 384.28C800.39 384.28 799.95 384.28 799.51 384.24Z" fill="#B98048"/>
<path d="M802.18 384.25C801.73 384.26 801.29 384.28 800.84 384.28C801.29 384.28 801.73 384.27 802.18 384.25Z" fill="#B98048"/>
<path d="M790.71 388.83L791.66 389.55L790.71 388.83Z" fill="#B98048"/>
<path d="M796.41 360.52C796.41 360.35 796.33 360.21 796.19 360.08C796.32 360.21 796.4 360.36 796.41 360.52Z" fill="#B98048"/>
<path d="M795.78 359.82C795.94 359.89 796.08 359.98 796.18 360.08C796.08 359.98 795.94 359.9 795.78 359.82Z" fill="#B98048"/>
<path d="M808.07 386.86C808.07 386.99 808.07 387.12 808.05 387.25C808.06 387.12 808.07 386.99 808.07 386.86Z" fill="#B98048"/>
<path d="M796.54 379.47C796.54 377.17 796.78 374.97 796.72 372.86C796.78 374.97 796.53 377.17 796.54 379.47Z" fill="#B98048"/>
<path d="M765.71 336.27C767.23 336.3 768.71 336.34 770.17 336.37C768.72 336.34 767.24 336.3 765.71 336.27Z" fill="#B98048"/>
<path d="M782.79 336.09C782.92 335.48 783.13 334.51 783.16 333.66C783.13 334.51 782.91 335.48 782.79 336.09Z" fill="#B98048"/>
<path d="M783.16 333.66C783.19 332.81 783.03 332.09 782.41 331.95C781.34 331.72 780.35 331.59 779.42 331.52C780.35 331.6 781.34 331.72 782.41 331.95C783.03 332.08 783.19 332.81 783.16 333.66Z" fill="#B98048"/>
<path d="M774.44 336.43C773.04 336.43 771.62 336.4 770.16 336.37C771.61 336.4 773.03 336.43 774.44 336.43Z" fill="#B98048"/>
<path d="M765.52 306.53C766.56 306.28 767.59 306.15 768.61 306.16C767.59 306.16 766.56 306.28 765.52 306.53Z" fill="#B98048"/>
<path d="M664.58 391.41C664.61 391.35 664.63 391.31 664.62 391.28C664.6 391.14 664.57 390.99 664.52 390.83C664.56 390.98 664.6 391.13 664.62 391.28C664.62 391.31 664.61 391.36 664.58 391.41Z" fill="#B98048"/>
<path d="M651.81 392.41C652.85 393.5 654.45 394.06 655.5 394.4C654.46 394.07 652.86 393.5 651.81 392.41Z" fill="#B98048"/>
<path d="M650.77 389.82C650.77 389.08 650.92 388.32 651.08 387.57C650.91 388.32 650.77 389.08 650.77 389.82Z" fill="#B98048"/>
<path d="M651.21 387.01C651.3 386.64 651.38 386.27 651.45 385.91C651.38 386.27 651.29 386.64 651.21 387.01Z" fill="#B98048"/>
<path d="M615.97 389.34C616.51 389.4 617.05 389.43 617.58 389.38C617.05 389.43 616.51 389.41 615.97 389.34Z" fill="#B98048"/>
<path d="M773.93 391.9C773.73 390.76 773.73 389.39 773.63 388.09C773.72 389.39 773.72 390.76 773.93 391.9Z" fill="#B98048"/>
<path d="M775.4 394.26C774.7 393.98 774.31 393.35 774.08 392.54C774.31 393.35 774.7 393.97 775.4 394.26C777.74 395.21 783.76 391.02 784.71 389.68C783.75 391.02 777.73 395.21 775.4 394.26Z" fill="#B98048"/>
<path d="M772.49 384.37C772.77 384.64 772.97 384.98 773.13 385.37C772.97 384.98 772.76 384.64 772.49 384.37Z" fill="#B98048"/>
<path d="M790.71 388.83L785.52 389.66L790.71 388.83Z" fill="#B98048"/>
<path d="M822.51 378.66C822.51 380.6 822.82 382.53 823.7 384.27C822.82 382.52 822.52 380.6 822.51 378.66Z" fill="#B98048"/>
<path d="M822.59 376.73C822.54 377.37 822.51 378.02 822.51 378.67C822.51 378.02 822.54 377.38 822.59 376.73Z" fill="#B98048"/>
<path d="M633.91 378.87C635.11 378.77 636.31 378.72 637.52 378.76C636.32 378.72 635.11 378.76 633.91 378.87Z" fill="#B98048"/>
<path d="M688.95 379.64C688.88 379.96 688.81 380.28 688.77 380.6C688.81 380.28 688.87 379.96 688.95 379.64Z" fill="#B98048"/>
<path d="M689.53 384.31C689.03 383.58 688.79 382.81 688.72 382.03C688.79 382.81 689.02 383.58 689.53 384.31Z" fill="#B98048"/>
<path d="M689.17 378.81C689.09 379.09 689.02 379.37 688.95 379.64C689.01 379.36 689.09 379.08 689.17 378.81Z" fill="#B98048"/>
<path d="M688.77 380.6C688.73 380.92 688.7 381.24 688.7 381.55C688.7 381.23 688.72 380.92 688.77 380.6Z" fill="#B98048"/>
<path d="M831.8 386.06C832.19 386.38 832.72 386.69 833.22 387.04C832.73 386.69 832.19 386.38 831.8 386.06Z" fill="#B98048"/>
<path d="M833.22 387.04C833.47 387.22 833.69 387.41 833.9 387.61C833.7 387.41 833.47 387.22 833.22 387.04Z" fill="#B98048"/>
<path d="M644.35 374.52L642.51 374.76L644.35 374.52Z" fill="#B98048"/>
<path d="M695.45 377.37C695.45 377.37 695.38 377.41 695.35 377.44C695.38 377.42 695.42 377.4 695.45 377.37Z" fill="#B98048"/>
<path d="M693.2 377.79C693.4 377.81 693.66 377.82 693.94 377.81C693.66 377.81 693.4 377.81 693.2 377.79Z" fill="#B98048"/>
<path d="M828.19 377.61C828.39 377.48 828.53 377.3 828.57 377.05C828.52 377.3 828.38 377.49 828.19 377.61Z" fill="#B98048"/>
<path d="M826.19 377.76C825.91 377.7 825.61 377.58 825.32 377.41C825.61 377.59 825.91 377.71 826.19 377.76C826.84 377.89 827.69 377.93 828.19 377.61C827.69 377.92 826.84 377.89 826.19 377.76Z" fill="#B98048"/>
<path d="M675.63 359.65C675.97 359.66 676.25 359.79 676.41 359.99C676.25 359.78 675.98 359.66 675.63 359.65Z" fill="#B98048"/>
<path d="M650.33 376.85C650.37 377.19 650.42 377.53 650.49 377.86C652.85 377.71 654.02 378.79 655.27 379.3C655.55 379.41 655.83 379.5 656.13 379.54C656.88 379.63 657.74 379.43 658.94 378.61C659.34 378.34 659.66 377.85 659.91 377.21C659.99 377 660.07 376.77 660.14 376.54C660.49 375.35 660.65 373.85 660.66 372.43C660.67 370.45 660.39 368.62 659.9 368.03C659.21 367.19 658.07 366.86 656.87 366.91C656.67 366.91 656.47 366.94 656.27 366.97C655.87 367.03 655.46 367.13 655.07 367.26C654.68 367.39 654.3 367.56 653.95 367.76C653.77 367.86 653.61 367.97 653.45 368.08C652.81 368.54 652.31 369.11 652.05 369.75C651.69 370.65 651.59 371.56 651.39 372.3C651.24 372.85 651.03 373.31 650.61 373.59C650.47 373.68 650.31 373.76 650.11 373.81C650.16 374.14 650.19 374.48 650.21 374.82C650.25 375.5 650.27 376.17 650.34 376.85H650.33Z" fill="#B98048"/>
<path d="M660.65 372.43C660.66 370.45 660.38 368.62 659.89 368.03C659.2 367.19 658.06 366.86 656.86 366.91C658.06 366.86 659.19 367.19 659.89 368.03C660.38 368.63 660.66 370.45 660.65 372.43Z" fill="#B98048"/>
<path d="M650.1 373.81C650.29 373.76 650.46 373.69 650.6 373.59C650.46 373.68 650.3 373.76 650.1 373.81Z" fill="#B98048"/>
<path d="M658.94 378.61C659.34 378.34 659.66 377.85 659.91 377.21C659.66 377.84 659.34 378.33 658.94 378.61Z" fill="#B98048"/>
<path d="M740.63 364.55C739.64 366.52 739.42 370.98 740.44 373.34C741.52 374.85 746.08 374.02 747.52 372.79C749.7 370.92 749.33 366.99 747.6 365.31C746.39 364.14 743 363.59 740.63 364.55Z" fill="#BB844E"/>
<path d="M744.6 380.85C744.54 379.85 743.76 379.05 742.99 378.89C741.73 378.62 739.31 378.08 739.89 379.96C741.59 379.79 743.3 379.61 744.6 380.85Z" fill="#BB844E"/>
<path d="M751.43 324.56C750.47 321.23 750.1 318.2 747.88 314.3C746.04 317.49 745.08 320.8 744.54 324.54C747.14 325.09 748.85 325.2 751.43 324.56Z" fill="#BB844E"/>
<path d="M776.28 377.46C775.39 373.04 774.32 370.19 772.76 367.2C771.16 370.6 770.06 373.7 769.63 377.42C772.18 377.99 774.11 378.32 776.28 377.46Z" fill="#BB844E"/>
<path d="M350.96 602.85C349.89 604.86 349.74 609.54 351.03 611.03C352.63 612.88 356.98 611.72 358.16 610.21C359.35 608.7 360.26 605.77 358.04 603.6C356.55 602.14 351.81 601.26 350.96 602.85Z" fill="#D05C6B"/>
<path d="M427.39 614.85C428.95 615.65 433.11 616.33 433.53 614.68C433.33 610.29 431.8 607.83 430.65 604.62C428.88 608.03 428.27 610.97 427.39 614.84V614.85Z" fill="#D05C6B"/>
</g>
<defs>
<clipPath id="clip0_65_111">
<rect width="1107.06" height="813.5" fill="white"/>
</clipPath>
</defs>
</svg>
