<svg width="120" height="63" viewBox="0 0 120 63" fill="none" xmlns="http://www.w3.org/2000/svg">
<g clip-path="url(#clip0_1_2)">
<path d="M1.59769 25.0394C10.505 25.3676 25.2068 22.3307 28.0659 33.9962C30.1152 42.3572 24.8907 49.3771 16.3618 49.9045C14.8777 49.9963 12.9296 49.6898 11.5375 49.9076C10.8227 50.0196 10.7215 50.4257 10.6639 51.0573C10.4178 53.7676 11.0672 57.3553 10.6623 59.924C10.5782 60.4592 10.1282 60.901 9.62676 61.0675L1.40926 61.097C1.03397 61.0255 0.468698 60.4296 0.426653 60.0562C-0.509242 51.7139 0.390836 26.4801 0.390836 26.4801C0.481156 25.727 0.794158 25.03 1.59769 25.0409V25.0394ZM11.2509 33.1281C10.6249 33.265 10.5751 33.8578 10.5175 34.4178C10.3727 35.8321 10.3914 38.589 10.5097 40.0219C10.6125 41.2712 10.7495 41.4999 12.0155 41.6275C12.6945 41.696 14.7096 41.5715 15.4072 41.4813C20.2097 40.8621 20.096 33.7924 15.225 33.1327C14.4417 33.0269 11.9642 32.9709 11.2509 33.1265V33.1281Z" fill="#CF5873"/>
<path d="M119.988 37.2946C119.978 34.3696 120.005 31.44 119.977 28.5151C119.868 27.8165 119.475 27.7512 118.84 27.6983L110.247 30.4412C109.743 30.5874 109.37 30.8986 109.165 31.3825C108.688 32.5011 108.939 35.8803 108.931 37.2946C108.917 39.6376 109.057 41.9745 109.087 44.2958C109.106 45.7785 109.317 48.5852 108.805 49.8485C108.209 51.3156 106.469 52.3518 105.505 52.5416C104.926 52.6178 104.278 52.5914 103.732 52.5245C101.784 52.2849 99.932 50.9936 99.5879 49.1188C99.2095 47.0527 99.5879 40.7174 99.5879 40.7174C99.5879 38.2825 99.5972 35.8399 99.5879 33.405C99.5785 30.9966 99.5988 28.5835 99.5832 26.1751C99.4337 25.6415 98.9416 25.3723 98.4231 25.3117C96.5123 25.0876 92.1272 25.1436 90.1589 25.3085C89.2915 25.3817 89.2198 25.4532 89.1467 26.3198C88.9769 28.3393 89.1934 30.7088 89.1529 32.7827C89.1062 35.2487 89.005 37.7567 88.9972 40.2506C88.9894 43.0184 88.8352 46.0756 88.9972 48.8076C89.1482 51.3452 89.7026 52.7408 90.8658 54.8753C95.6792 63.7155 110.439 64.4872 116.872 57.0535C118.295 55.4074 118.818 54.3355 119.363 52.2304C120.118 49.3086 119.958 47.1056 119.986 44.1402C120.008 41.8625 119.994 39.5723 119.986 37.2946H119.988Z" fill="#03B5B2"/>
<path d="M117.937 22.8628C119.285 22.8394 119.754 23.8663 118.639 24.666C116.337 26.3151 112.447 27.1724 109.908 28.5524C109.529 28.694 109.017 28.4699 108.858 28.1106C108.726 27.8087 108.558 25.3225 108.614 24.9165C108.741 23.9907 110.839 23.6329 111.7 23.4882C113.315 23.2191 116.322 22.8892 117.937 22.8612V22.8628Z" fill="#03B5B2"/>
<path d="M53.9611 58.6093C54.0109 57.0223 54.2585 54.9842 54.1168 53.4751C54.067 52.9492 53.9517 51.9597 53.3833 51.7964C52.5424 51.5552 49.618 51.7715 48.5108 51.7637C48.3551 51.7637 48.1993 51.7637 48.0436 51.7637C45.9772 51.7497 43.9029 51.7932 41.8365 51.7419C41.6278 51.6112 41.5733 48.8745 41.659 48.4965C41.7041 48.2926 41.8178 48.2024 41.9704 48.1853L47.8879 48.0297C48.4376 48.0235 49.0247 48.0406 49.6008 48.0297C50.3125 48.0157 51.2624 48.1604 51.8713 48.1184C52.0831 48.1044 52.1485 48.0873 52.273 47.9737C52.4147 47.8461 52.5004 47.8041 52.5565 47.4867C52.681 46.7835 52.5502 45.5497 52.5596 44.7625C52.5783 43.1756 52.5658 41.6431 52.4038 40.095C52.3509 39.5972 52.7091 38.9017 51.8557 38.6979L41.8194 38.6123C41.0921 38.3198 41.2525 35.4229 41.5157 35.0495C41.8131 34.6279 43.6803 34.813 44.3078 34.8052C44.5149 34.8021 44.7236 34.8068 44.9307 34.8052C47.4799 34.7819 50.4791 35.0215 52.9567 34.8115C53.2276 34.7881 53.6668 34.7866 53.8194 34.5454C54.0934 34.1129 53.9548 32.1992 53.9626 31.538C53.9829 29.9729 54.1573 27.5505 53.9626 26.0927C53.8583 25.3085 53.3615 25.0845 52.639 25.0036H50.314C49.0854 24.9522 47.81 24.9662 46.516 25.0083L32.4028 25.0176C30.6463 25.5917 31.0994 27.6967 31.0714 29.2059C31.0387 30.9126 31.0792 32.6318 31.0714 34.3401C31.0636 36.2568 31.076 38.1798 31.0714 40.0966C31.0667 41.8578 31.0714 43.6252 31.0714 45.3864C31.0714 48.288 31.062 51.1974 31.0714 54.099C31.076 55.5163 30.9577 57.153 31.0683 58.5362C31.0901 58.8115 31.5401 61.0239 32.3888 61.1064L47.265 61.0426C48.0576 61.0472 48.8487 61.0426 49.6382 61.0332L53.1793 61.0177C53.2712 60.9897 53.5313 60.8294 53.6123 60.7485C53.6932 60.6676 53.905 60.4109 53.9626 60.0935C54.0452 59.633 53.9502 59.0729 53.9642 58.6108L53.9611 58.6093Z" fill="#0176DF"/>
<path d="M81.524 51.4525C80.965 50.3355 80.2658 48.8496 79.5759 47.7995L79.9668 47.563C80.3218 47.3498 81.5692 46.6559 81.6797 46.4739C84.9919 43.8197 85.8173 39.3234 85.2613 35.272C84.9982 33.3568 84.3395 31.7076 83.2369 30.1378C82.7044 29.3786 81.9662 28.7282 81.2126 28.1152C80.8575 27.8087 80.3716 27.4353 79.9668 27.1817C77.1933 25.4439 74.5336 25.1265 71.3304 24.9974C69.1534 24.9103 66.9406 24.9414 64.7277 24.9834C63.1347 24.9569 61.5401 24.9647 60.2242 25.0487C59.6247 25.0487 59.0267 25.0487 58.4319 25.0363C57.9304 25.2012 57.4804 25.643 57.3963 26.1798C57.2234 27.2782 57.3309 28.61 57.3963 29.9091C57.3932 30.7664 57.401 31.6049 57.3854 32.316C57.3838 32.4202 57.387 32.5229 57.3854 32.6271C57.3371 35.0075 57.4025 37.4019 57.3854 39.7839C57.3496 44.9119 57.3449 50.0585 57.3854 55.1865C57.3963 56.5587 57.197 58.6653 57.3947 59.9224C57.4679 60.3829 57.6595 60.5432 58.0083 60.7874C58.2964 60.9897 58.2715 61.0566 58.7044 61.1033C60.626 61.3102 64.8601 61.2791 66.8144 61.1064C67.3921 61.055 67.4498 61.0582 67.8188 60.6319C67.8546 60.5899 68.0041 60.5774 68.0509 60.4763C68.2782 59.9784 68.124 57.0908 68.1303 56.2756C68.1474 54.1861 68.1225 52.0904 68.124 50.001C68.5025 49.6058 69.0817 49.752 69.5318 49.8967C69.7015 49.9776 69.8292 50.183 69.8432 50.2079C69.946 50.3977 70.0099 50.7213 70.1547 50.9858C71.1638 52.8357 72.3706 54.5082 73.4249 56.2756C73.9979 57.2355 74.423 58.4522 75.1378 59.5428C75.5598 60.1869 75.3652 60.1713 76.0721 60.6319C76.1593 60.6879 76.2668 60.7688 76.3789 60.831C76.5798 60.943 76.5954 61.0504 77.0797 61.1033C79.7285 61.388 82.8694 60.8824 85.5712 61.0986C86.2502 61.1033 86.2642 59.8617 85.8827 59.3872C85.5292 58.7633 85.3096 58.3541 85.1041 57.987C84.5341 56.9695 83.9642 55.9006 83.3911 54.8753L81.5224 51.4525H81.524ZM71.7135 41.3397C70.8103 41.4144 69.8245 41.2868 68.9104 41.3397C68.5025 41.2572 68.2408 41.4579 68.1318 40.2506C68.0695 39.5661 68.0509 34.9748 68.2097 34.6497C68.2735 34.519 68.4137 34.4116 68.5538 34.3712C69.0023 34.2389 71.2089 34.2903 71.7898 34.3416C73.4358 34.4894 74.6379 35.0713 75.253 36.638C75.3979 37.0083 75.4601 37.2697 75.4524 37.7629C75.5069 38.4786 75.2966 39.2113 74.9852 39.7854C74.1474 40.7656 72.9904 41.237 71.715 41.3413L71.7135 41.3397Z" fill="#F4B23D"/>
<path d="M25.4638 18.5454C25.3937 18.9219 25.157 19.0292 24.8098 19.121C23.3865 19.1677 23.3024 19.1677 22.3976 19.1677C21.9663 19.1677 21.5225 19.0899 21.1674 18.8161C21.1674 18.8161 21.1737 5.46714 21.1737 1.0175C21.1737 0.452735 21.32 0.0124379 21.8697 0.00777042C24.5451 -0.0202343 32.5726 0.0451101 32.5726 0.0451101C33.2468 0.312711 33.1503 3.37768 32.9525 3.7044C32.9043 3.78374 32.7719 4.05601 32.4246 4.05601H25.481V7.39325H31.7223C32.3437 7.39325 32.3717 11.0167 31.8126 11.3466C31.2801 11.6609 27.4711 11.429 26.4449 11.429C25.8329 11.429 25.481 11.6562 25.481 11.8724L25.4654 18.5469L25.4638 18.5454Z" fill="#0176DF"/>
<path d="M45.0054 0.692355C44.7532 0.356298 44.3623 0.13226 43.9263 0.0731389C43.2162 -0.0233219 40.7137 -0.0295452 40.1313 0.0886971C39.7404 0.168044 39.2406 0.630122 39.0568 1.08131C38.1552 3.87867 37.0869 6.66981 36.0529 9.3676C35.1264 11.79 34.1671 14.2933 33.3356 16.7842C33.292 16.9164 33.239 17.058 33.1861 17.2027C32.9805 17.7581 32.7251 18.4505 32.9213 18.7834C33.0086 18.9312 33.2125 19.0308 33.524 19.079C34.0768 19.163 36.436 19.1319 36.763 19.0106C37.0823 18.8737 37.3953 17.9044 37.6039 17.2618C37.8905 16.3735 38.0991 15.7325 38.5538 15.5769L38.6146 15.5567L46.0363 15.6033L46.15 15.7636C46.5035 16.263 46.6561 16.834 46.8056 17.3847C47.0828 18.4131 47.2868 18.9997 48.26 19.0899C49.0075 19.1599 50.7594 19.3233 51.2484 18.7352C51.3044 18.6667 51.4742 18.4629 51.32 17.9091L45.0054 0.692355ZM39.278 12.0716L42.0763 4.12138L44.8715 12.0716H39.2764H39.278Z" fill="#0176DF"/>
<path d="M11.0968 0.068477C10.4661 -0.0279838 7.72696 -0.0155373 7.22087 0.115152C6.91721 0.194498 6.46717 0.5959 6.32079 0.914843L0.023356 18.3665C-0.031147 18.5361 0.023356 18.6807 0.077859 18.7694C0.177522 18.9312 0.362832 19.0495 0.563714 19.0821C1.11653 19.1677 3.47885 19.1335 3.80742 19.009C4.22009 18.8441 4.55022 17.7815 4.76979 17.0798C5.02517 16.2583 5.19491 15.7154 5.59356 15.58L5.65429 15.5598H13.0589L13.1726 15.7325C13.3875 16.0545 13.5432 16.5648 13.7238 17.156C13.9403 17.8624 14.2658 18.9312 14.6255 19.0433C14.965 19.1444 17.606 19.163 18.0311 19.0681C18.2569 19.0184 18.5715 18.6854 18.6276 18.4956L12.0965 0.763928C11.8739 0.434095 11.4254 0.119819 11.0968 0.068477ZM6.59953 12.0716L9.23903 4.09027L12.0452 12.0716H6.59797H6.59953Z" fill="#0176DF"/>
</g>
<defs>
<clipPath id="clip0_1_2">
<rect width="120" height="62.1176" fill="white"/>
</clipPath>
</defs>
</svg>
