<svg width="840" height="800" viewBox="0 0 840 800" fill="none" xmlns="http://www.w3.org/2000/svg">
<g clip-path="url(#clip0_19_796)">
<path d="M723.15 78.9298L740.56 63.4798C753.68 52.3698 771.47 56.3398 778.87 71.7398C787.53 89.7498 775.57 102.35 760.76 110.81L750.29 115.45C760.11 115.51 771.49 116.12 780.53 120.17C798.87 128.4 799.42 152.61 783.59 163.89C771.95 172.18 754.92 165.17 742.99 160.33C745.47 166.79 750.81 172.34 753.18 178.82C758.51 193.38 753.11 207.46 738.04 212.26C713.9 219.96 703.75 197.45 699.67 178.05C695.4 199.57 682.32 223.21 656.7 210.6C643.49 204.1 640.34 190.64 646.08 177.69C648.84 171.46 653.85 166.64 656.36 160.32C645.1 164.34 625.48 172.13 614.7 164.94C604.3 158 600.34 144.11 605.22 132.64C612.14 116.36 632.04 117.26 646.98 115.44L630.36 106.51C614.95 96.3998 611.05 75.0698 626.11 62.7498C644.99 47.2998 662.96 65.9698 675.15 79.9798C670.49 59.7098 670.76 32.3098 696.82 29.1198C724.68 25.7198 729.06 58.7798 723.16 78.9198L723.15 78.9298Z" fill="#F4B23D"/>
<path d="M696.29 157.94C691.08 157.35 674.72 152.06 669.64 136.1C659.01 102.68 702.56 80.2697 724.16 108.71C732.52 119.71 730.62 140.29 720.07 149.43C713.41 155.2 701.82 158.57 696.29 157.94Z" fill="#CF5873"/>
<path d="M169.4 710.44C152.01 730.99 130.03 748.98 111.74 768.84C100.16 776.42 93.12 763.17 86.38 756.37C69.68 739.52 52.73 722.92 36.01 706.1C32.46 702.49 32.4 695.82 36.01 692.11C56.7 673.82 75.13 650.26 95.41 631.97C100.2 627.65 105.93 626.42 111.26 630.84L173.44 693.19C179.39 702.09 174.63 704.26 169.41 710.43L169.4 710.44ZM113.9 734.75C114.09 734.55 113.4 733.22 114.6 731.98C124.12 722.23 133.8 712.53 144.15 703.65C145.6 701.82 145.57 699.32 144.15 697.56L106.8 660.21C105.96 659.4 104.99 659.14 103.83 659.24C99 659.67 79.8 682.01 75.4 686.71C71.22 691.17 59.67 696.85 66.87 704.12L102.91 739.83C104.75 742.29 112.26 736.42 113.89 734.76L113.9 734.75Z" fill="#CF5873"/>
<path d="M113.9 734.75C112.28 736.41 104.77 742.28 102.92 739.82L66.88 704.11C59.67 696.83 71.23 691.16 75.41 686.7C79.8 682 99 659.66 103.84 659.23C104.99 659.13 105.97 659.39 106.81 660.2L144.16 697.55C145.58 699.32 145.61 701.81 144.16 703.64C133.81 712.52 114.1 734.54 113.9 734.74V734.75ZM103.27 687.16C102.1 688.58 88.66 700.15 89.32 701.09C94.1 703.82 99.23 709 103.27 713.06C103.61 713.4 103.88 713.98 106.32 713.37C109.17 711.09 109.72 709.63 112.24 707.08C112.57 706.75 112.92 706.43 113.24 706.08C114.5 704.71 115.72 704 117.22 702.1C117.5 701.75 117.98 701.5 118.22 701.1C118.46 700.7 119.03 700 117.29 698.32C114 695.15 111.77 693.05 108.26 690.14C107.91 689.85 107.64 689.42 107.26 689.14L105.13 687.15C104.13 686.35 103.54 686.82 103.28 687.15L103.27 687.16Z" fill="#F4B23D"/>
<path d="M103.27 687.16C102.1 688.58 88.6599 700.15 89.3199 701.09C94.0999 703.82 99.2299 709 103.27 713.06C103.61 713.4 103.88 713.98 106.32 713.37C109.17 711.09 109.72 709.63 112.24 707.08C112.57 706.75 112.92 706.43 113.24 706.08C114.5 704.71 115.72 704 117.22 702.1C117.5 701.75 117.98 701.5 118.22 701.1C118.46 700.7 119.03 700 117.29 698.32C114 695.15 111.77 693.05 108.26 690.14C107.91 689.85 107.64 689.42 107.26 689.14L105.13 687.15C104.13 686.35 103.54 686.82 103.28 687.15L103.27 687.16Z" fill="#0176DF"/>
<path d="M43.5699 356.9C100.77 359.01 195.18 339.49 213.54 414.47C226.7 468.21 193.15 513.33 138.38 516.72C128.85 517.31 116.34 515.34 107.4 516.74C102.81 517.46 102.16 520.07 101.79 524.13C100.21 541.55 104.38 564.61 101.78 581.12C101.24 584.56 98.3499 587.4 95.1299 588.47L42.3599 588.66C39.9499 588.2 36.3199 584.37 36.0499 581.97C30.0399 528.35 35.8199 366.16 35.8199 366.16C36.3999 361.32 38.4099 356.84 43.5699 356.91V356.9ZM105.56 408.9C101.54 409.78 101.22 413.59 100.85 417.19C99.9199 426.28 100.04 444 100.8 453.21C101.46 461.24 102.34 462.71 110.47 463.53C114.83 463.97 127.77 463.17 132.25 462.59C163.09 458.61 162.36 413.17 131.08 408.93C126.05 408.25 110.14 407.89 105.56 408.89V408.9Z" fill="#CF5873"/>
<path d="M803.84 435.67C803.78 416.87 803.95 398.04 803.77 379.24C803.07 374.75 800.55 374.33 796.47 373.99L741.29 391.62C738.05 392.56 735.66 394.56 734.34 397.67C731.28 404.86 732.89 426.58 732.84 435.67C732.75 450.73 733.65 465.75 733.84 480.67C733.96 490.2 735.32 508.24 732.03 516.36C728.2 525.79 717.03 532.45 710.84 533.67C707.12 534.16 702.96 533.99 699.45 533.56C686.94 532.02 675.05 523.72 672.84 511.67C670.41 498.39 672.84 457.67 672.84 457.67C672.84 442.02 672.9 426.32 672.84 410.67C672.78 395.19 672.91 379.68 672.81 364.2C671.85 360.77 668.69 359.04 665.36 358.65C653.09 357.21 624.93 357.57 612.29 358.63C606.72 359.1 606.26 359.56 605.79 365.13C604.7 378.11 606.09 393.34 605.83 406.67C605.53 422.52 604.88 438.64 604.83 454.67C604.78 472.46 603.79 492.11 604.83 509.67C605.8 525.98 609.36 534.95 616.83 548.67C647.74 605.49 742.52 610.45 783.83 562.67C792.97 552.09 796.33 545.2 799.83 531.67C804.68 512.89 803.65 498.73 803.83 479.67C803.97 465.03 803.88 450.31 803.83 435.67H803.84Z" fill="#0176DF"/>
<path d="M790.66 342.91C799.32 342.76 802.33 349.36 795.17 354.5C780.39 365.1 755.41 370.61 739.1 379.48C736.67 380.39 733.38 378.95 732.36 376.64C731.51 374.7 730.43 358.72 730.79 356.11C731.61 350.16 745.08 347.86 750.61 346.93C760.98 345.2 780.29 343.08 790.66 342.9V342.91Z" fill="#0176DF"/>
<path d="M379.84 572.67C380.16 562.47 381.75 549.37 380.84 539.67C380.52 536.29 379.78 529.93 376.13 528.88C370.73 527.33 351.95 528.72 344.84 528.67C343.84 528.67 342.84 528.67 341.84 528.67C328.57 528.58 315.25 528.86 301.98 528.53C300.64 527.69 300.29 510.1 300.84 507.67C301.13 506.36 301.86 505.78 302.84 505.67L340.84 504.67C344.37 504.63 348.14 504.74 351.84 504.67C356.41 504.58 362.51 505.51 366.42 505.24C367.78 505.15 368.2 505.04 369 504.31C369.91 503.49 370.46 503.22 370.82 501.18C371.62 496.66 370.78 488.73 370.84 483.67C370.96 473.47 370.88 463.62 369.84 453.67C369.5 450.47 371.8 446 366.32 444.69L301.87 444.14C297.2 442.26 298.23 423.64 299.92 421.24C301.83 418.53 313.82 419.72 317.85 419.67C319.18 419.65 320.52 419.68 321.85 419.67C338.22 419.52 357.48 421.06 373.39 419.71C375.13 419.56 377.95 419.55 378.93 418C380.69 415.22 379.8 402.92 379.85 398.67C379.98 388.61 381.1 373.04 379.85 363.67C379.18 358.63 375.99 357.19 371.35 356.67H356.42C348.53 356.34 340.34 356.43 332.03 356.7L241.4 356.76C230.12 360.45 233.03 373.98 232.85 383.68C232.64 394.65 232.9 405.7 232.85 416.68C232.8 429 232.88 441.36 232.85 453.68C232.82 465 232.85 476.36 232.85 487.68C232.85 506.33 232.79 525.03 232.85 543.68C232.88 552.79 232.12 563.31 232.83 572.2C232.97 573.97 235.86 588.19 241.31 588.72L336.84 588.31C341.93 588.34 347.01 588.31 352.08 588.25L374.82 588.15C375.41 587.97 377.08 586.94 377.6 586.42C378.12 585.9 379.48 584.25 379.85 582.21C380.38 579.25 379.77 575.65 379.86 572.68L379.84 572.67Z" fill="#F4B23D"/>
<path d="M556.84 526.67C553.25 519.49 548.76 509.94 544.33 503.19L546.84 501.67C549.12 500.3 557.13 495.84 557.84 494.67C579.11 477.61 584.41 448.71 580.84 422.67C579.15 410.36 574.92 399.76 567.84 389.67C564.42 384.79 559.68 380.61 554.84 376.67C552.56 374.7 549.44 372.3 546.84 370.67C529.03 359.5 511.95 357.46 491.38 356.63C477.4 356.07 463.19 356.27 448.98 356.54C438.75 356.37 428.51 356.42 420.06 356.96C416.21 356.96 412.37 356.96 408.55 356.88C405.33 357.94 402.44 360.78 401.9 364.23C400.79 371.29 401.48 379.85 401.9 388.2C401.88 393.71 401.93 399.1 401.83 403.67C401.82 404.34 401.84 405 401.83 405.67C401.52 420.97 401.94 436.36 401.83 451.67C401.6 484.63 401.57 517.71 401.83 550.67C401.9 559.49 400.62 573.03 401.89 581.11C402.36 584.07 403.59 585.1 405.83 586.67C407.68 587.97 407.52 588.4 410.3 588.7C422.64 590.03 449.83 589.83 462.38 588.72C466.09 588.39 466.46 588.41 468.83 585.67C469.06 585.4 470.02 585.32 470.32 584.67C471.78 581.47 470.79 562.91 470.83 557.67C470.94 544.24 470.78 530.77 470.79 517.34C473.22 514.8 476.94 515.74 479.83 516.67C480.92 517.19 481.74 518.51 481.83 518.67C482.49 519.89 482.9 521.97 483.83 523.67C490.31 535.56 498.06 546.31 504.83 557.67C508.51 563.84 511.24 571.66 515.83 578.67C518.54 582.81 517.29 582.71 521.83 585.67C522.39 586.03 523.08 586.55 523.8 586.95C525.09 587.67 525.19 588.36 528.3 588.7C545.31 590.53 565.48 587.28 582.83 588.67C587.19 588.7 587.28 580.72 584.83 577.67C582.56 573.66 581.15 571.03 579.83 568.67C576.17 562.13 572.51 555.26 568.83 548.67L556.83 526.67H556.84ZM493.84 461.67C488.04 462.15 481.71 461.33 475.84 461.67C473.22 461.14 471.54 462.43 470.84 454.67C470.44 450.27 470.32 420.76 471.34 418.67C471.75 417.83 472.65 417.14 473.55 416.88C476.43 416.03 490.6 416.36 494.33 416.69C504.9 417.64 512.62 421.38 516.57 431.45C517.5 433.83 517.9 435.51 517.85 438.68C518.2 443.28 516.85 447.99 514.85 451.68C509.47 457.98 502.04 461.01 493.85 461.68L493.84 461.67Z" fill="#03B5B2"/>
<path d="M771.03 657.45H809.03C809.26 673.08 809.1 693.82 809.03 709.45C804.86 711.38 801.11 720.33 796.05 717.96L757.67 678.52C751.54 682.27 719.47 721.46 716.52 721.21C713.59 720.96 679.15 679.07 675.73 679.59C668.25 683.86 640.3 720.44 634.54 720.43L594.31 679.59C591.94 678.93 589.82 680.61 588.14 682.06C580.64 688.53 573.53 700.41 565.97 706.88C564.23 708.37 562.59 709.03 560.99 707.03L541.04 684.45C541.07 677.13 540.94 664.77 541.04 657.45C544.63 657.78 547.93 656.57 551.49 656.4C623.23 653.06 698.95 657.45 771.04 657.45H771.03Z" fill="#F4B23D"/>
<path d="M541.03 684.45L560.98 707.03C562.58 709.03 564.22 708.37 565.96 706.88C573.53 700.4 580.63 688.53 588.13 682.06C589.81 680.61 591.93 678.93 594.3 679.59L634.53 720.43C640.29 720.43 668.23 683.86 675.72 679.59C679.14 679.07 713.59 720.95 716.51 721.21C719.46 721.47 751.53 682.28 757.66 678.52L796.04 717.96C801.1 720.33 804.85 711.39 809.02 709.45C808.96 721.55 810.69 740.83 808.96 751.89C808.33 755.95 805.1 758.49 801.02 758.45L759.49 711.47L716.52 754.11L708.51 747.46L678.59 713.38L675.72 712.56L634.54 755.2L593.53 710.47L551.03 758.45C548.02 758.38 546.72 760.09 543.05 756.92C538.56 753.04 541.08 750.19 541.07 745.99C541.01 725.48 540.93 704.95 541.03 684.45Z" fill="#CF5873"/>
<path d="M551.03 758.45L593.53 710.47L634.54 755.2L675.72 712.56L678.59 713.38L708.51 747.46L716.52 754.11L759.49 711.47L801.02 758.45C718.1 759.98 634.1 760.27 551.02 758.45H551.03Z" fill="#03B5B2"/>
<path d="M801.56 628.43C718.23 629.26 634.84 627.4 551.52 628.43C549.83 628.45 547.07 627.79 546.03 629.45C538.38 630.64 541.11 651.01 541.03 657.45C544.62 657.78 547.92 656.57 551.48 656.4C561.22 655.95 571.05 655.65 580.92 655.45H647.68C689.04 656.07 730.6 657.45 771.03 657.45H809.03C808.91 649.39 812.23 629.39 801.55 628.43H801.56Z" fill="#0176DF"/>
<path d="M574.84 132.14C574.84 132.14 574.11 126.34 568.07 123.44C562.03 120.54 555.17 126.38 555.16 126.39C549.29 132.33 544.16 137.59 539.88 137.59C538.67 137.59 537.33 137.1 535.89 136.27C528.92 127.89 519.22 118.67 510.48 113.59C509.84 113.15 509.21 112.73 508.58 112.35V112.54C505.67 111.03 502.9 110.03 500.42 109.77C494.44 109.13 489.87 110.01 484.7 112.92C477.46 117 461.57 137.2 455.67 137.55C447.24 138.06 431.63 111.99 417.96 109.83C396.76 106.48 389.88 126.1 376.33 135.58C370.86 139.41 368.07 137.12 363.45 133.57C351.43 124.34 344.9 107.78 326.81 109.88C310.13 111.82 296.48 137.62 287 137.62C278.12 137.62 262.78 112 249.22 109.83C230.09 106.77 222.83 124.73 210.56 133.59C203.28 138.85 200.37 137.81 193.71 132.58C181.45 122.94 173.43 106.06 154.21 110C141.39 112.63 125.47 138.06 116.34 137.56C106.19 137 93.1 112.36 79.3 110.02C60.02 106.75 52.65 120.26 41.31 132.11C38.37 135.18 31.66 138.67 30.61 143.24C29.26 149.1 31.77 155.82 38.05 157.22C52.06 160.35 62.85 131.96 75.47 133.61C81.81 134.44 92.49 148.5 97.88 152.96C111.99 164.65 123.67 163.15 137.13 151.48C146.96 142.96 153.07 126.29 167.85 137.58C180.44 147.21 186.12 162.41 205.6 160.39C222.43 158.64 234.82 132.85 245.3 133.5C254.62 134.08 267.01 160.55 285.99 160.82C307.52 161.12 312.12 140.96 325.67 134.56C331.82 131.65 334.66 134.46 339.11 138.05C350.9 147.55 355.02 161.84 373.39 160.44C388.04 159.32 394.69 144.62 405.14 136.61C411.91 131.42 414.84 132.81 420.96 137.6C433.37 147.31 438.85 162 457.76 160.44C473.26 159.16 479.77 144.83 490.5 136.61C502.48 127.43 509.33 143.17 517.25 150.5C524.19 156.94 528.98 164.34 540.51 160.76C554.39 160.26 560.94 150.94 568 143.16C570.08 140.87 572.21 138.71 574.57 136.95C574.93 134.33 574.82 132.15 574.82 132.15L574.84 132.14Z" fill="#03B5B2"/>
<path d="M574.84 51.6099C574.84 51.6099 574.11 45.8099 568.07 42.9099C562.03 40.0099 555.17 45.8499 555.16 45.8599C549.29 51.7999 544.16 57.0599 539.88 57.0599C538.67 57.0599 537.33 56.5699 535.89 55.7399C528.92 47.3599 519.22 38.1399 510.48 33.0599C509.84 32.6199 509.21 32.1999 508.58 31.8199V32.0099C505.67 30.4999 502.9 29.4999 500.42 29.2399C494.44 28.5999 489.87 29.4799 484.7 32.3899C477.46 36.4699 461.57 56.6699 455.67 57.0199C447.24 57.5299 431.63 31.4599 417.96 29.2999C396.76 25.9499 389.88 45.5699 376.33 55.0499C370.86 58.8799 368.07 56.5899 363.45 53.0399C351.43 43.8099 344.9 27.2499 326.81 29.3499C310.13 31.2899 296.48 57.0899 287 57.0899C278.12 57.0899 262.78 31.4699 249.22 29.2999C230.09 26.2399 222.83 44.1999 210.56 53.0599C203.28 58.3199 200.37 57.2799 193.71 52.0499C181.45 42.4099 173.43 25.5299 154.21 29.4699C141.39 32.0999 125.47 57.5299 116.34 57.0299C106.19 56.4699 93.1 31.8299 79.3 29.4899C60.02 26.2099 52.65 39.7199 41.32 51.5699C38.38 54.6399 31.67 58.1299 30.62 62.6999C29.27 68.5599 31.78 75.2799 38.06 76.6799C52.07 79.8099 62.86 51.4199 75.48 53.0699C81.82 53.8999 92.5 67.9599 97.89 72.4199C112 84.1099 123.68 82.6099 137.14 70.9399C146.97 62.4199 153.08 45.7499 167.86 57.0399C180.45 66.6599 186.13 81.8699 205.61 79.8499C222.44 78.0999 234.83 52.3099 245.31 52.9599C254.63 53.5399 267.02 80.0099 286 80.2799C307.53 80.5799 312.13 60.4199 325.68 54.0199C331.83 51.1099 334.67 53.9199 339.12 57.5099C350.91 67.0099 355.03 81.2999 373.4 79.8999C388.05 78.7799 394.7 64.0799 405.15 56.0699C411.92 50.8799 414.85 52.2699 420.97 57.0599C433.38 66.7699 438.86 81.4599 457.77 79.8999C473.27 78.6199 479.78 64.2899 490.51 56.0699C502.49 46.8899 509.34 62.6299 517.26 69.9599C524.2 76.3999 528.99 83.7999 540.52 80.2199C554.4 79.7199 560.95 70.3999 568.01 62.6199C570.09 60.3299 572.22 58.1699 574.58 56.4099C574.94 53.7899 574.83 51.6099 574.83 51.6099H574.84Z" fill="#0176DF"/>
<path d="M753.31 270.78C747.33 270.14 742.76 271.02 737.59 273.93C730.35 278.01 714.46 298.21 708.56 298.57C700.13 299.08 684.52 273.01 670.85 270.85C649.65 267.5 642.77 287.12 629.22 296.6C623.75 300.43 620.96 298.14 616.34 294.59C604.32 285.36 597.79 268.8 579.7 270.9C563.02 272.84 549.37 298.64 539.89 298.64C538.68 298.64 537.34 298.15 535.9 297.32C528.93 288.94 519.23 279.72 510.49 274.64C509.85 274.2 509.22 273.78 508.59 273.4V273.59C505.68 272.08 502.91 271.08 500.43 270.82C494.45 270.18 489.88 271.06 484.71 273.97C483.23 274.8 481.39 276.31 479.36 278.18C469.27 286.43 460.78 298.63 454.26 298.63C453.05 298.63 451.71 298.14 450.27 297.31C443.3 288.93 433.6 279.71 424.86 274.63C424.22 274.19 423.59 273.77 422.96 273.39V273.58C420.05 272.07 417.28 271.07 414.8 270.81C408.82 270.17 404.25 271.05 399.08 273.96C391.84 278.04 387.44 298.72 404.89 297.64C419.96 296.71 423.72 304.2 431.64 311.53C438.58 317.97 439.5 321.44 454.9 321.79C456.41 321.74 457.83 321.57 459.18 321.32C473.69 319.33 480.13 305.61 490.53 297.64C502.51 288.46 509.36 304.2 517.28 311.53C524.22 317.97 525.14 321.44 540.54 321.79C560.67 321.07 565.38 301.79 578.58 295.55C584.73 292.64 587.57 295.45 592.02 299.04C603.81 308.54 607.93 322.83 626.3 321.43C640.95 320.31 647.6 305.61 658.05 297.6C664.82 292.41 667.75 293.8 673.87 298.59C686.28 308.3 691.76 322.99 710.67 321.43C726.17 320.15 732.68 305.82 743.41 297.6C755.39 288.42 762.24 304.16 770.16 311.49C777.32 318.13 782.18 325.78 794.51 321.39C794.51 321.39 797.76 321.28 798.36 313.62C798.97 305.95 769.78 272.54 753.32 270.77L753.31 270.78Z" fill="#03B5B2"/>
<path d="M577.67 198.77C574.29 195.7 572.41 195.92 569.58 196.17C566.99 196.4 564.52 197.91 562.5 199.72C553.5 207.78 545.86 218.03 539.89 218.03C538.68 218.03 537.34 217.54 535.9 216.71C528.93 208.33 519.23 199.11 510.49 194.03C509.85 193.59 509.22 193.17 508.59 192.79V192.98C505.68 191.47 502.91 190.47 500.43 190.21C494.45 189.57 489.88 190.45 484.71 193.36C482.67 194.51 479.94 196.94 476.95 199.85C468.01 207.89 460.43 218.03 454.49 218.02C453.28 218.02 451.94 217.53 450.5 216.7C443.53 208.32 433.83 199.1 425.09 194.02C424.45 193.58 423.82 193.16 423.19 192.78V192.97C420.28 191.46 417.51 190.46 415.03 190.2C409.05 189.56 404.44 190.35 399.31 193.35C379.31 205.05 394.39 225.25 405.12 217.03C417.1 207.85 423.95 223.59 431.87 230.92C438.81 237.36 441.97 242.72 455.15 242.16C464.26 241.83 470.21 237.48 475.21 232.25C480.43 227.34 484.9 221.34 490.53 217.03C502.51 207.85 509.36 223.59 517.28 230.92C524.22 237.36 527.38 242.72 540.56 242.16C559.62 241.48 564.85 223.19 576.55 216.05C577.21 215.65 577.94 215.37 578.58 214.94C581.41 213.05 582 210.08 582.16 209.09C582.85 204.82 580.84 201.61 577.68 198.74L577.67 198.77Z" fill="#F4B23D"/>
<path d="M506.93 634.18C505.8 631.1 502.9 628.71 500.42 628.44C494.44 627.8 489.87 628.68 484.7 631.59C477.46 635.67 461.57 655.87 455.67 656.22C447.24 656.73 431.63 630.66 417.96 628.5C396.76 625.15 389.88 644.77 376.33 654.25C370.86 658.08 368.07 655.79 363.45 652.24C351.43 643.01 344.9 626.45 326.81 628.55C310.13 630.49 296.48 656.29 287 656.29C278.12 656.29 262.78 630.67 249.22 628.5C230.09 625.44 222.83 643.4 210.56 652.26C210.56 652.26 202.1 664.23 206.73 669.24C210.04 672.82 214.94 676.07 219.11 672.78C229.42 664.66 237.85 651.71 245.31 652.17C254.63 652.75 267.02 679.22 286 679.49C307.53 679.79 312.13 659.63 325.68 653.23C331.83 650.32 334.67 653.13 339.12 656.72C350.91 666.22 355.03 680.51 373.4 679.11C388.05 677.99 394.7 663.29 405.15 655.28C411.92 650.09 414.85 651.48 420.97 656.27C433.38 665.98 438.86 680.67 457.77 679.11C473.27 677.83 479.78 663.5 490.51 655.28C502.49 646.1 509.52 641.25 506.92 634.19L506.93 634.18Z" fill="#F4B23D"/>
<path d="M506.93 714.12C505.8 711.04 502.9 708.65 500.42 708.38C494.44 707.74 489.87 708.62 484.7 711.53C477.46 715.61 461.57 735.81 455.67 736.16C447.24 736.67 431.63 710.6 417.96 708.44C396.76 705.09 389.88 724.71 376.33 734.19C370.86 738.02 368.07 735.73 363.45 732.18C351.43 722.95 344.9 706.39 326.81 708.49C310.13 710.43 296.48 736.23 287 736.23C278.12 736.23 262.78 710.61 249.22 708.44C230.09 705.38 222.83 723.34 210.56 732.2C210.56 732.2 202.1 744.17 206.73 749.18C210.04 752.76 214.94 756.01 219.11 752.72C229.42 744.6 237.85 731.65 245.31 732.11C254.63 732.69 267.02 759.16 286 759.43C307.53 759.73 312.13 739.57 325.68 733.17C331.83 730.26 334.67 733.07 339.12 736.66C350.91 746.16 355.03 760.45 373.4 759.05C388.05 757.93 394.7 743.23 405.15 735.22C411.92 730.03 414.85 731.42 420.97 736.21C433.38 745.92 438.86 760.61 457.77 759.05C473.27 757.77 479.78 743.44 490.51 735.22C502.49 726.04 509.52 721.19 506.92 714.13L506.93 714.12Z" fill="#0176DF"/>
<path d="M196.84 317.18C196.39 319.6 194.87 320.29 192.64 320.88C183.5 321.18 182.96 321.18 177.15 321.18C174.38 321.18 171.53 320.68 169.25 318.92C169.25 318.92 169.29 233.12 169.29 204.52C169.29 200.89 170.23 198.06 173.76 198.03C190.94 197.85 242.49 198.27 242.49 198.27C246.82 199.99 246.2 219.69 244.93 221.79C244.62 222.3 243.77 224.05 241.54 224.05H196.95V245.5H237.03C241.02 245.5 241.2 268.79 237.61 270.91C234.19 272.93 209.73 271.44 203.14 271.44C199.21 271.44 196.95 272.9 196.95 274.29L196.85 317.19L196.84 317.18Z" fill="#0176DF"/>
<path d="M322.33 202.43C320.71 200.27 318.2 198.83 315.4 198.45C310.84 197.83 294.77 197.79 291.03 198.55C288.52 199.06 285.31 202.03 284.13 204.93C278.34 222.91 271.48 240.85 264.84 258.19C258.89 273.76 252.73 289.85 247.39 305.86C247.11 306.71 246.77 307.62 246.43 308.55C245.11 312.12 243.47 316.57 244.73 318.71C245.29 319.66 246.6 320.3 248.6 320.61C252.15 321.15 267.3 320.95 269.4 320.17C271.45 319.29 273.46 313.06 274.8 308.93C276.64 303.22 277.98 299.1 280.9 298.1L281.29 297.97L328.95 298.27L329.68 299.3C331.95 302.51 332.93 306.18 333.89 309.72C335.67 316.33 336.98 320.1 343.23 320.68C348.03 321.13 359.28 322.18 362.42 318.4C362.78 317.96 363.87 316.65 362.88 313.09L322.33 202.42V202.43ZM285.55 275.57L303.52 224.47L321.47 275.57H285.54H285.55Z" fill="#0176DF"/>
<path d="M104.58 198.42C100.53 197.8 82.9399 197.88 79.6899 198.72C77.7399 199.23 74.8499 201.81 73.9099 203.86L33.4599 316.02C33.1099 317.11 33.4599 318.04 33.8099 318.61C34.4499 319.65 35.6399 320.41 36.9299 320.62C40.4799 321.17 55.6499 320.95 57.7599 320.15C60.4099 319.09 62.5299 312.26 63.9399 307.75C65.5799 302.47 66.6699 298.98 69.2299 298.11L69.6199 297.98H117.17L117.9 299.09C119.28 301.16 120.28 304.44 121.44 308.24C122.83 312.78 124.92 319.65 127.23 320.37C129.41 321.02 146.37 321.14 149.1 320.53C150.55 320.21 152.57 318.07 152.93 316.85L111.01 202.9C109.58 200.78 106.7 198.76 104.59 198.43L104.58 198.42ZM75.6899 275.57L92.6399 224.27L110.66 275.57H75.6799H75.6899Z" fill="#0176DF"/>
</g>
<defs>
<clipPath id="clip0_19_796">
<rect width="779.48" height="742.24" fill="white" transform="translate(30.26 28.8799)"/>
</clipPath>
</defs>
</svg>
