<svg width="160" height="120" viewBox="0 0 160 120" fill="none" xmlns="http://www.w3.org/2000/svg">
<path d="M152.517 49.1141C151.529 57.4529 152.677 67.1249 151.681 75.8777C151.226 79.8608 151.437 80.3991 147.159 81.3348C142.881 82.2705 120.792 82.4527 116.616 81.3265C110.516 79.6786 112.988 72.5075 112.937 68.0441C112.912 65.7503 111.081 59.3906 113.165 58.0077C117.147 55.3661 125.45 60.8315 126.378 55.275C126.614 53.8756 125.964 46.6795 125.163 45.8018C124.817 45.4208 124.581 45.3132 124.074 45.2221C122.134 44.8577 110.145 44.9323 108.153 45.3132C106.938 45.5451 106.365 46.7623 106.204 47.9134C105.436 53.3125 106.457 60.6741 106.171 66.4128C106.019 69.4684 105.58 76.3746 104.812 79.0907C103.817 82.6349 97.2861 81.3762 94.1474 81.4342C86.5116 81.5667 77.3403 82.196 69.7299 81.4425C67.0637 81.1775 63.8828 79.8774 63.2922 77.0288C62.5497 73.4597 63.2416 63.2329 64.1444 59.5231C65.7474 52.9398 75.0285 56.1776 76.0747 54.7119C76.2519 52.5838 77.1294 46.1413 74.3619 45.6279C72.7335 45.3215 60.3898 45.3215 58.7614 45.6279C57.538 45.8597 57.4283 47.2592 57.2933 48.3109C56.2217 56.5337 57.0823 66.1146 56.4495 74.6605C56.1036 79.306 55.9011 80.7966 50.7291 81.4259C42.3255 82.4527 23.0463 82.0635 14.533 81.045C10.2385 80.5316 7.13354 80.7634 6.71167 75.9192C6.05357 68.218 6.332 56.5668 6.71167 48.7083C6.79605 46.9859 6.96479 43.7895 7.25166 42.2327C7.85071 38.9452 11.1497 38.0426 14.1112 37.8025C20.4898 37.2973 27.6952 38.0178 34.1498 37.9764C34.9344 38.2331 36.7653 40.6428 36.9763 41.3964C38.0394 45.2469 37.3813 58.0574 36.5544 62.1978C36.2 63.9533 35.0441 65.8745 33.0445 66.1809C31.5595 66.4128 25.7125 66.421 24.3119 66.1146C21.1816 65.4356 21.2998 58.8938 22.8522 57.2542C24.2022 55.8299 28.4293 56.5337 28.6402 56.3267C29.138 55.8216 29.2983 49.0727 28.4293 48.0956C27.5012 47.0439 17.3089 46.928 16.0096 47.4828C15.7649 47.5904 15.2755 48.0376 15.1321 48.2694C13.5628 50.8199 14.533 59.5231 14.5752 62.7775C14.609 65.0216 13.2843 71.7953 15.6721 72.9049L47.4048 73.6254C48.6872 72.3832 47.6326 68.5658 48.0376 66.9013C48.1219 66.5701 48.8054 66.7937 48.9066 66.0318C49.9191 58.4549 48.5944 48.965 49.3032 41.3053C49.4466 39.7319 49.8263 36.9081 51.6234 36.5686C60.626 37.1152 70.5483 35.8151 79.4412 36.5438C82.293 36.7757 83.2042 37.0572 84.1576 39.7568C85.5751 43.7647 85.4907 54.1323 85.1279 58.5956C84.9676 60.5416 84.1914 65.3776 81.5336 65.3776H71.4173C70.0589 65.3776 70.6326 72.0603 70.8014 73.1865C79.4159 74.4203 88.216 74.1388 96.9148 73.8324C97.7586 73.4183 98.0707 71.4309 98.1635 70.5283C99.1423 60.9722 97.5898 49.8842 99.041 40.502C99.2013 39.4421 100.113 37.6037 101.336 37.3967L118.582 36.5438C122.682 37.1317 128.85 34.9953 131.634 38.6554C134.216 42.0505 135.566 52.6997 135.237 56.9395C135.102 58.6536 134.368 62.7858 133.111 63.9202C132.478 64.4916 129.491 65.3859 128.715 65.3859C127.112 65.3859 122.201 65.063 121.13 65.3859C120.143 65.684 120.32 72.0437 120.775 73.1119C121.602 75.0165 130.031 73.675 132.065 73.6005C134.596 73.5094 141.185 74.1553 142.974 72.8304C143.978 72.0851 143.944 58.902 144.096 56.542C144.4 51.8965 144.771 47.5407 144.889 42.9366C144.889 42.7875 145.741 40.8912 145.969 40.2619C146.745 38.1503 151.023 37.9515 153.158 37.8108C153.158 37.8108 152.601 48.3605 152.517 49.1224V49.1141Z" fill="#F4B23D"/>
</svg>
