<svg width="481" height="59" viewBox="0 0 481 59" fill="none" xmlns="http://www.w3.org/2000/svg">
<path d="M208.319 4.49081C208.319 4.49081 208.469 3.34467 209.715 2.7716C210.961 2.19853 212.376 3.35257 212.378 3.35455C213.589 4.52835 214.648 5.56778 215.531 5.56778C215.78 5.56778 216.057 5.47095 216.354 5.30694C217.791 3.65096 219.792 1.829 221.595 0.825137C221.727 0.738188 221.857 0.655193 221.987 0.580101L221.987 0.617647C222.588 0.319256 223.159 0.121645 223.671 0.0702663C224.904 -0.0562042 225.847 0.117693 226.913 0.692739C228.407 1.49899 231.685 5.49071 232.902 5.55988C234.641 5.66066 237.861 0.508961 240.681 0.0821227C245.054 -0.579871 246.473 3.29724 249.268 5.17058C250.397 5.92743 250.972 5.47491 251.925 4.77339C254.405 2.94945 255.752 -0.322977 259.484 0.0920042C262.924 0.475368 265.74 5.57371 267.696 5.57371C269.528 5.57371 272.692 0.510937 275.489 0.0821235C279.435 -0.522563 280.933 3.02652 283.464 4.77734C284.966 5.81677 285.566 5.61126 286.94 4.57775C289.469 2.67279 291.123 -0.662865 295.088 0.115719C297.733 0.635434 301.017 5.66066 302.9 5.56185C304.994 5.45119 307.694 0.582078 310.541 0.119671C314.518 -0.526514 316.039 2.1432 318.378 4.48488C318.984 5.09154 320.368 5.7812 320.585 6.68428C320.864 7.84228 320.346 9.17021 319.05 9.44687C316.16 10.0654 313.934 4.45524 311.331 4.78129C310.023 4.94531 307.82 7.72371 306.708 8.60505C303.798 10.9151 301.388 10.6187 298.612 8.31259C296.584 6.62895 295.323 3.33479 292.275 5.56581C289.677 7.46879 288.506 10.4725 284.487 10.0733C281.016 9.72747 278.46 4.63111 276.298 4.75956C274.375 4.87417 271.819 10.1049 267.904 10.1583C263.463 10.2175 262.514 6.23373 259.719 4.96902C258.45 4.39398 257.864 4.94926 256.946 5.65868C254.514 7.53598 253.664 10.3598 249.875 10.0832C246.853 9.86185 245.481 6.95698 243.325 5.37412C241.929 4.34853 241.324 4.6232 240.062 5.56976C237.502 7.48855 236.371 10.3914 232.471 10.0832C229.273 9.83023 227.93 6.99848 225.717 5.37412C223.246 3.56006 221.833 6.67045 220.199 8.11893C218.767 9.39154 217.779 10.8539 215.401 10.1464C212.537 10.0476 211.186 8.20588 209.73 6.66847C209.301 6.21594 208.861 5.7891 208.375 5.44131C208.3 4.92357 208.323 4.49278 208.323 4.49278L208.319 4.49081Z" fill="#0176DF"/>
<path d="M-3.06301e-05 4.49081C-3.06301e-05 4.49081 0.150558 3.34467 1.39651 2.7716C2.64247 2.19853 4.05758 3.35257 4.05965 3.35455C5.27054 4.52835 6.32877 5.56778 7.21167 5.56778C7.46127 5.56778 7.73769 5.47095 8.03474 5.30694C9.47255 3.65096 11.4735 1.829 13.2764 0.825137C13.4085 0.738188 13.5384 0.655193 13.6684 0.580101L13.6684 0.617647C14.2687 0.319256 14.8401 0.121645 15.3517 0.0702663C16.5852 -0.0562042 17.528 0.117693 18.5945 0.692739C20.088 1.49899 23.3658 5.49071 24.5829 5.55988C26.3219 5.66066 29.542 0.508961 32.3619 0.0821227C36.7351 -0.579871 38.1544 3.29724 40.9495 5.17058C42.0779 5.92743 42.6534 5.47491 43.6065 4.77339C46.086 2.94945 47.433 -0.322977 51.1647 0.0920042C54.6055 0.475368 57.4213 5.57371 59.3769 5.57371C61.2087 5.57371 64.3731 0.510937 67.1703 0.0821235C71.1166 -0.522563 72.6142 3.02652 75.1453 4.77734C76.6471 5.81677 77.2473 5.61126 78.6212 4.57775C81.1502 2.67279 82.8046 -0.662865 86.7694 0.115719C89.414 0.635434 92.6981 5.66066 94.5814 5.56185C96.6752 5.45119 99.3755 0.582078 102.222 0.119671C106.199 -0.526514 107.72 2.1432 110.059 4.48488C110.665 5.09154 112.05 5.7812 112.266 6.68428C112.545 7.84228 112.027 9.17021 110.731 9.44687C107.841 10.0654 105.616 4.45524 103.012 4.78129C101.704 4.94531 99.5013 7.72371 98.3894 8.60505C95.4788 10.9151 93.0694 10.6187 90.2928 8.31259C88.265 6.62895 87.0046 3.33479 83.9557 5.56581C81.3586 7.46879 80.1869 10.4725 76.1685 10.0733C72.6967 9.72747 70.1408 4.63111 67.979 4.75956C66.0564 4.87417 63.5005 10.1049 59.5853 10.1583C55.144 10.2175 54.195 6.23373 51.3999 4.96902C50.1312 4.39398 49.5454 4.94926 48.6274 5.65868C46.1953 7.53598 45.3454 10.3598 41.556 10.0832C38.5339 9.86185 37.1621 6.95698 35.0065 5.37412C33.6099 4.34853 33.0055 4.6232 31.743 5.56976C29.183 7.48855 28.0526 10.3914 24.1518 10.0832C20.9543 9.83023 19.6114 6.99848 17.398 5.37412C14.9267 3.56006 13.5137 6.67045 11.8799 8.11893C10.4483 9.39154 9.46017 10.8539 7.08171 10.1464C4.21848 10.0476 2.86732 8.20588 1.41096 6.66847C0.981888 6.21594 0.542496 5.7891 0.0556639 5.44131C-0.018593 4.92357 0.00409687 4.49278 0.00409687 4.49278L-3.06301e-05 4.49081Z" fill="#0176DF"/>
<path d="M104.705 4.49081C104.705 4.49081 104.855 3.34467 106.101 2.7716C107.347 2.19853 108.762 3.35257 108.764 3.35455C109.975 4.52835 111.034 5.56778 111.917 5.56778C112.166 5.56778 112.443 5.47095 112.74 5.30694C114.177 3.65096 116.178 1.829 117.981 0.825137C118.113 0.738188 118.243 0.655193 118.373 0.580101L118.373 0.617647C118.973 0.319256 119.545 0.121645 120.056 0.0702663C121.29 -0.0562042 122.233 0.117693 123.299 0.692739C124.793 1.49899 128.071 5.49071 129.288 5.55988C131.027 5.66066 134.247 0.508961 137.067 0.0821227C141.44 -0.579871 142.859 3.29724 145.654 5.17058C146.783 5.92743 147.358 5.47491 148.311 4.77339C150.791 2.94945 152.138 -0.322977 155.87 0.0920042C159.31 0.475368 162.126 5.57371 164.082 5.57371C165.914 5.57371 169.078 0.510937 171.875 0.0821235C175.821 -0.522563 177.319 3.02652 179.85 4.77734C181.352 5.81677 181.952 5.61126 183.326 4.57775C185.855 2.67279 187.509 -0.662865 191.474 0.115719C194.119 0.635434 197.403 5.66066 199.286 5.56185C201.38 5.45119 204.08 0.582078 206.927 0.119671C210.904 -0.526514 212.425 2.1432 214.764 4.48488C215.37 5.09154 216.754 5.7812 216.971 6.68428C217.25 7.84228 216.732 9.17021 215.436 9.44687C212.546 10.0654 210.32 4.45524 207.717 4.78129C206.409 4.94531 204.206 7.72371 203.094 8.60505C200.184 10.9151 197.774 10.6187 194.998 8.31259C192.97 6.62895 191.709 3.33479 188.661 5.56581C186.063 7.46879 184.892 10.4725 180.873 10.0733C177.402 9.72747 174.846 4.63111 172.684 4.75956C170.761 4.87417 168.205 10.1049 164.29 10.1583C159.849 10.2175 158.9 6.23373 156.105 4.96902C154.836 4.39398 154.25 4.94926 153.332 5.65868C150.9 7.53598 150.05 10.3598 146.261 10.0832C143.239 9.86185 141.867 6.95698 139.711 5.37412C138.315 4.34853 137.71 4.6232 136.448 5.56976C133.888 7.48855 132.757 10.3914 128.857 10.0832C125.659 9.83023 124.316 6.99848 122.103 5.37412C119.632 3.56006 118.218 6.67045 116.585 8.11893C115.153 9.39154 114.165 10.8539 111.787 10.1464C108.923 10.0476 107.572 8.20588 106.116 6.66847C105.687 6.21594 105.247 5.7891 104.76 5.44131C104.686 4.92357 104.709 4.49278 104.709 4.49278L104.705 4.49081Z" fill="#0176DF"/>
<path d="M276.319 20.4908C276.319 20.4908 276.469 19.3447 277.715 18.7716C278.961 18.1985 280.376 19.3526 280.378 19.3545C281.589 20.5284 282.648 21.5678 283.531 21.5678C283.78 21.5678 284.057 21.471 284.354 21.3069C285.791 19.651 287.792 17.829 289.595 16.8251C289.727 16.7382 289.857 16.6552 289.987 16.5801L289.987 16.6176C290.588 16.3193 291.159 16.1216 291.671 16.0703C292.904 15.9438 293.847 16.1177 294.913 16.6927C296.407 17.499 299.685 21.4907 300.902 21.5599C302.641 21.6607 305.861 16.509 308.681 16.0821C313.054 15.4201 314.473 19.2972 317.268 21.1706C318.397 21.9274 318.972 21.4749 319.925 20.7734C322.405 18.9494 323.752 15.677 327.484 16.092C330.924 16.4754 333.74 21.5737 335.696 21.5737C337.528 21.5737 340.692 16.5109 343.489 16.0821C347.435 15.4774 348.933 19.0265 351.464 20.7773C352.966 21.8168 353.566 21.6113 354.94 20.5778C357.469 18.6728 359.123 15.3371 363.088 16.1157C365.733 16.6354 369.017 21.6607 370.9 21.5619C372.994 21.4512 375.694 16.5821 378.541 16.1197C382.518 15.4735 384.039 18.1432 386.378 20.4849C386.984 21.0915 388.368 21.7812 388.585 22.6843C388.864 23.8423 388.346 25.1702 387.05 25.4469C384.16 26.0654 381.934 20.4552 379.331 20.7813C378.023 20.9453 375.82 23.7237 374.708 24.6051C371.798 26.9151 369.388 26.6187 366.612 24.3126C364.584 22.6289 363.323 19.3348 360.275 21.5658C357.677 23.4688 356.506 26.4725 352.487 26.0733C349.016 25.7275 346.46 20.6311 344.298 20.7596C342.375 20.8742 339.819 26.1049 335.904 26.1583C331.463 26.2175 330.514 22.2337 327.719 20.969C326.45 20.394 325.864 20.9493 324.946 21.6587C322.514 23.536 321.664 26.3598 317.875 26.0832C314.853 25.8618 313.481 22.957 311.325 21.3741C309.929 20.3485 309.324 20.6232 308.062 21.5698C305.502 23.4886 304.371 26.3914 300.471 26.0832C297.273 25.8302 295.93 22.9985 293.717 21.3741C291.246 19.5601 289.833 22.6704 288.199 24.1189C286.767 25.3915 285.779 26.8539 283.401 26.1464C280.537 26.0476 279.186 24.2059 277.73 22.6685C277.301 22.2159 276.861 21.7891 276.375 21.4413C276.3 20.9236 276.323 20.4928 276.323 20.4928L276.319 20.4908Z" fill="#03B5B2"/>
<path d="M68 20.4908C68 20.4908 68.1506 19.3447 69.3965 18.7716C70.6425 18.1985 72.0576 19.3526 72.0596 19.3545C73.2705 20.5284 74.3288 21.5678 75.2117 21.5678C75.4613 21.5678 75.7377 21.471 76.0347 21.3069C77.4725 19.651 79.4735 17.829 81.2764 16.8251C81.4085 16.7382 81.5384 16.6552 81.6684 16.5801L81.6684 16.6176C82.2687 16.3193 82.8401 16.1216 83.3517 16.0703C84.5852 15.9438 85.528 16.1177 86.5945 16.6927C88.088 17.499 91.3658 21.4907 92.5829 21.5599C94.3219 21.6607 97.542 16.509 100.362 16.0821C104.735 15.4201 106.154 19.2972 108.95 21.1706C110.078 21.9274 110.653 21.4749 111.606 20.7734C114.086 18.9494 115.433 15.677 119.165 16.092C122.606 16.4754 125.421 21.5737 127.377 21.5737C129.209 21.5737 132.373 16.5109 135.17 16.0821C139.117 15.4774 140.614 19.0265 143.145 20.7773C144.647 21.8168 145.247 21.6113 146.621 20.5778C149.15 18.6728 150.805 15.3371 154.769 16.1157C157.414 16.6354 160.698 21.6607 162.581 21.5619C164.675 21.4512 167.375 16.5821 170.222 16.1197C174.199 15.4735 175.72 18.1432 178.059 20.4849C178.665 21.0915 180.05 21.7812 180.266 22.6843C180.545 23.8423 180.027 25.1702 178.731 25.4469C175.841 26.0654 173.616 20.4552 171.012 20.7813C169.704 20.9453 167.501 23.7237 166.389 24.6051C163.479 26.9151 161.069 26.6187 158.293 24.3126C156.265 22.6289 155.005 19.3348 151.956 21.5658C149.359 23.4688 148.187 26.4725 144.168 26.0733C140.697 25.7275 138.141 20.6311 135.979 20.7596C134.056 20.8742 131.501 26.1049 127.585 26.1583C123.144 26.2175 122.195 22.2337 119.4 20.969C118.131 20.394 117.545 20.9493 116.627 21.6587C114.195 23.536 113.345 26.3598 109.556 26.0832C106.534 25.8618 105.162 22.957 103.006 21.3741C101.61 20.3485 101.005 20.6232 99.743 21.5698C97.183 23.4886 96.0526 26.3914 92.1518 26.0832C88.9543 25.8302 87.6114 22.9985 85.398 21.3741C82.9267 19.5601 81.5137 22.6704 79.8799 24.1189C78.4483 25.3915 77.4602 26.8539 75.0817 26.1464C72.2185 26.0476 70.8673 24.2059 69.411 22.6685C68.9819 22.2159 68.5425 21.7891 68.0557 21.4413C67.9814 20.9236 68.0041 20.4928 68.0041 20.4928L68 20.4908Z" fill="#03B5B2"/>
<path d="M172.705 20.4908C172.705 20.4908 172.855 19.3447 174.101 18.7716C175.347 18.1985 176.762 19.3526 176.764 19.3545C177.975 20.5284 179.034 21.5678 179.917 21.5678C180.166 21.5678 180.443 21.471 180.74 21.3069C182.177 19.651 184.178 17.829 185.981 16.8251C186.113 16.7382 186.243 16.6552 186.373 16.5801L186.373 16.6176C186.973 16.3193 187.545 16.1216 188.056 16.0703C189.29 15.9438 190.233 16.1177 191.299 16.6927C192.793 17.499 196.071 21.4907 197.288 21.5599C199.027 21.6607 202.247 16.509 205.067 16.0821C209.44 15.4201 210.859 19.2972 213.654 21.1706C214.783 21.9274 215.358 21.4749 216.311 20.7734C218.791 18.9494 220.138 15.677 223.87 16.092C227.31 16.4754 230.126 21.5737 232.082 21.5737C233.914 21.5737 237.078 16.5109 239.875 16.0821C243.821 15.4774 245.319 19.0265 247.85 20.7773C249.352 21.8168 249.952 21.6113 251.326 20.5778C253.855 18.6728 255.509 15.3371 259.474 16.1157C262.119 16.6354 265.403 21.6607 267.286 21.5619C269.38 21.4512 272.08 16.5821 274.927 16.1197C278.904 15.4735 280.425 18.1432 282.764 20.4849C283.37 21.0915 284.754 21.7812 284.971 22.6843C285.25 23.8423 284.732 25.1702 283.436 25.4469C280.546 26.0654 278.32 20.4552 275.717 20.7813C274.409 20.9453 272.206 23.7237 271.094 24.6051C268.184 26.9151 265.774 26.6187 262.998 24.3126C260.97 22.6289 259.709 19.3348 256.661 21.5658C254.063 23.4688 252.892 26.4725 248.873 26.0733C245.402 25.7275 242.846 20.6311 240.684 20.7596C238.761 20.8742 236.205 26.1049 232.29 26.1583C227.849 26.2175 226.9 22.2337 224.105 20.969C222.836 20.394 222.25 20.9493 221.332 21.6587C218.9 23.536 218.05 26.3598 214.261 26.0832C211.239 25.8618 209.867 22.957 207.711 21.3741C206.315 20.3485 205.71 20.6232 204.448 21.5698C201.888 23.4886 200.757 26.3914 196.857 26.0832C193.659 25.8302 192.316 22.9985 190.103 21.3741C187.632 19.5601 186.218 22.6704 184.585 24.1189C183.153 25.3915 182.165 26.8539 179.787 26.1464C176.923 26.0476 175.572 24.2059 174.116 22.6685C173.687 22.2159 173.247 21.7891 172.76 21.4413C172.686 20.9236 172.709 20.4928 172.709 20.4928L172.705 20.4908Z" fill="#03B5B2"/>
<path d="M332.319 36.4908C332.319 36.4908 332.469 35.3447 333.715 34.7716C334.961 34.1985 336.376 35.3526 336.378 35.3545C337.589 36.5284 338.648 37.5678 339.531 37.5678C339.78 37.5678 340.057 37.471 340.354 37.3069C341.791 35.651 343.792 33.829 345.595 32.8251C345.727 32.7382 345.857 32.6552 345.987 32.5801L345.987 32.6176C346.588 32.3193 347.159 32.1216 347.671 32.0703C348.904 31.9438 349.847 32.1177 350.913 32.6927C352.407 33.499 355.685 37.4907 356.902 37.5599C358.641 37.6607 361.861 32.509 364.681 32.0821C369.054 31.4201 370.473 35.2972 373.268 37.1706C374.397 37.9274 374.972 37.4749 375.925 36.7734C378.405 34.9494 379.752 31.677 383.484 32.092C386.924 32.4754 389.74 37.5737 391.696 37.5737C393.528 37.5737 396.692 32.5109 399.489 32.0821C403.435 31.4774 404.933 35.0265 407.464 36.7773C408.966 37.8168 409.566 37.6113 410.94 36.5778C413.469 34.6728 415.123 31.3371 419.088 32.1157C421.733 32.6354 425.017 37.6607 426.9 37.5619C428.994 37.4512 431.694 32.5821 434.541 32.1197C438.518 31.4735 440.039 34.1432 442.378 36.4849C442.984 37.0915 444.368 37.7812 444.585 38.6843C444.864 39.8423 444.346 41.1702 443.05 41.4469C440.16 42.0654 437.934 36.4552 435.331 36.7813C434.023 36.9453 431.82 39.7237 430.708 40.6051C427.798 42.9151 425.388 42.6187 422.612 40.3126C420.584 38.6289 419.323 35.3348 416.275 37.5658C413.677 39.4688 412.506 42.4725 408.487 42.0733C405.016 41.7275 402.46 36.6311 400.298 36.7596C398.375 36.8742 395.819 42.1049 391.904 42.1583C387.463 42.2175 386.514 38.2337 383.719 36.969C382.45 36.394 381.864 36.9493 380.946 37.6587C378.514 39.536 377.664 42.3598 373.875 42.0832C370.853 41.8618 369.481 38.957 367.325 37.3741C365.929 36.3485 365.324 36.6232 364.062 37.5698C361.502 39.4886 360.371 42.3914 356.471 42.0832C353.273 41.8302 351.93 38.9985 349.717 37.3741C347.246 35.5601 345.833 38.6704 344.199 40.1189C342.767 41.3915 341.779 42.8539 339.401 42.1464C336.537 42.0476 335.186 40.2059 333.73 38.6685C333.301 38.2159 332.861 37.7891 332.375 37.4413C332.3 36.9236 332.323 36.4928 332.323 36.4928L332.319 36.4908Z" fill="#F4B23D"/>
<path d="M124 36.4908C124 36.4908 124.151 35.3447 125.397 34.7716C126.642 34.1985 128.058 35.3526 128.06 35.3545C129.271 36.5284 130.329 37.5678 131.212 37.5678C131.461 37.5678 131.738 37.471 132.035 37.3069C133.473 35.651 135.474 33.829 137.276 32.8251C137.408 32.7382 137.538 32.6552 137.668 32.5801L137.668 32.6176C138.269 32.3193 138.84 32.1216 139.352 32.0703C140.585 31.9438 141.528 32.1177 142.594 32.6927C144.088 33.499 147.366 37.4907 148.583 37.5599C150.322 37.6607 153.542 32.509 156.362 32.0821C160.735 31.4201 162.154 35.2972 164.95 37.1706C166.078 37.9274 166.653 37.4749 167.606 36.7734C170.086 34.9494 171.433 31.677 175.165 32.092C178.606 32.4754 181.421 37.5737 183.377 37.5737C185.209 37.5737 188.373 32.5109 191.17 32.0821C195.117 31.4774 196.614 35.0265 199.145 36.7773C200.647 37.8168 201.247 37.6113 202.621 36.5778C205.15 34.6728 206.805 31.3371 210.769 32.1157C213.414 32.6354 216.698 37.6607 218.581 37.5619C220.675 37.4512 223.375 32.5821 226.222 32.1197C230.199 31.4735 231.72 34.1432 234.059 36.4849C234.665 37.0915 236.05 37.7812 236.266 38.6843C236.545 39.8423 236.027 41.1702 234.731 41.4469C231.841 42.0654 229.616 36.4552 227.012 36.7813C225.704 36.9453 223.501 39.7237 222.389 40.6051C219.479 42.9151 217.069 42.6187 214.293 40.3126C212.265 38.6289 211.005 35.3348 207.956 37.5658C205.359 39.4688 204.187 42.4725 200.168 42.0733C196.697 41.7275 194.141 36.6311 191.979 36.7596C190.056 36.8742 187.501 42.1049 183.585 42.1583C179.144 42.2175 178.195 38.2337 175.4 36.969C174.131 36.394 173.545 36.9493 172.627 37.6587C170.195 39.536 169.345 42.3598 165.556 42.0832C162.534 41.8618 161.162 38.957 159.006 37.3741C157.61 36.3485 157.005 36.6232 155.743 37.5698C153.183 39.4886 152.053 42.3914 148.152 42.0832C144.954 41.8302 143.611 38.9985 141.398 37.3741C138.927 35.5601 137.514 38.6704 135.88 40.1189C134.448 41.3915 133.46 42.8539 131.082 42.1464C128.218 42.0476 126.867 40.2059 125.411 38.6685C124.982 38.2159 124.542 37.7891 124.056 37.4413C123.981 36.9236 124.004 36.4928 124.004 36.4928L124 36.4908Z" fill="#F4B23D"/>
<path d="M228.705 36.4908C228.705 36.4908 228.855 35.3447 230.101 34.7716C231.347 34.1985 232.762 35.3526 232.764 35.3545C233.975 36.5284 235.033 37.5678 235.916 37.5678C236.166 37.5678 236.442 37.471 236.739 37.3069C238.177 35.651 240.178 33.829 241.981 32.8251C242.113 32.7382 242.243 32.6552 242.373 32.5801L242.373 32.6176C242.973 32.3193 243.545 32.1216 244.056 32.0703C245.29 31.9438 246.233 32.1177 247.299 32.6927C248.793 33.499 252.07 37.4907 253.287 37.5599C255.026 37.6607 258.247 32.509 261.066 32.0821C265.44 31.4201 266.859 35.2972 269.654 37.1706C270.782 37.9274 271.358 37.4749 272.311 36.7734C274.791 34.9494 276.138 31.677 279.869 32.092C283.31 32.4754 286.126 37.5737 288.082 37.5737C289.913 37.5737 293.078 32.5109 295.875 32.0821C299.821 31.4774 301.319 35.0265 303.85 36.7773C305.352 37.8168 305.952 37.6113 307.326 36.5778C309.855 34.6728 311.509 31.3371 315.474 32.1157C318.119 32.6354 321.403 37.6607 323.286 37.5619C325.38 37.4512 328.08 32.5821 330.927 32.1197C334.904 31.4735 336.424 34.1432 338.764 36.4849C339.37 37.0915 340.754 37.7812 340.971 38.6843C341.249 39.8423 340.732 41.1702 339.436 41.4469C336.546 42.0654 334.32 36.4552 331.717 36.7813C330.409 36.9453 328.206 39.7237 327.094 40.6051C324.183 42.9151 321.774 42.6187 318.997 40.3126C316.97 38.6289 315.709 35.3348 312.66 37.5658C310.063 39.4688 308.891 42.4725 304.873 42.0733C301.401 41.7275 298.845 36.6311 296.684 36.7596C294.761 36.8742 292.205 42.1049 288.29 42.1583C283.849 42.2175 282.9 38.2337 280.104 36.969C278.836 36.394 278.25 36.9493 277.332 37.6587C274.9 39.536 274.05 42.3598 270.261 42.0832C267.239 41.8618 265.867 38.957 263.711 37.3741C262.314 36.3485 261.71 36.6232 260.448 37.5698C257.888 39.4886 256.757 42.3914 252.856 42.0832C249.659 41.8302 248.316 38.9985 246.103 37.3741C243.631 35.5601 242.218 38.6704 240.584 40.1189C239.153 41.3915 238.165 42.8539 235.786 42.1464C232.923 42.0476 231.572 40.2059 230.116 38.6685C229.686 38.2159 229.247 37.7891 228.76 37.4413C228.686 36.9236 228.709 36.4928 228.709 36.4928L228.705 36.4908Z" fill="#F4B23D"/>
<path d="M20.3861 36.4908C20.3861 36.4908 20.5352 35.3447 21.7691 34.7716C23.0029 34.1985 24.4043 35.3526 24.4063 35.3545C25.6055 36.5284 26.6534 37.5678 27.5277 37.5678C27.7749 37.5678 28.0487 37.471 28.3428 37.3069C29.7667 35.651 31.7482 33.829 33.5336 32.8251C33.6644 32.7382 33.7931 32.6552 33.9218 32.5801L33.9218 32.6176C34.5162 32.3193 35.0821 32.1216 35.5887 32.0703C36.8103 31.9438 37.7439 32.1177 38.8 32.6927C40.279 33.499 43.525 37.4907 44.7303 37.5599C46.4524 37.6607 49.6412 32.509 52.4338 32.0821C56.7645 31.4201 58.17 35.2972 60.938 37.1706C62.0555 37.9274 62.6254 37.4749 63.5692 36.7734C66.0246 34.9494 67.3586 31.677 71.0541 32.092C74.4615 32.4754 77.2499 37.5737 79.1865 37.5737C81.0005 37.5737 84.1342 32.5109 86.9043 32.0821C90.8122 31.4774 92.2953 35.0265 94.8018 36.7773C96.289 37.8168 96.8835 37.6113 98.244 36.5778C100.748 34.6728 102.387 31.3371 106.313 32.1157C108.932 32.6354 112.184 37.6607 114.049 37.5619C116.123 37.4512 118.797 32.5821 121.616 32.1197C125.554 31.4735 127.06 34.1432 129.377 36.4849C129.977 37.0915 131.348 37.7812 131.562 38.6843C131.838 39.8423 131.325 41.1702 130.042 41.4469C127.18 42.0654 124.976 36.4552 122.398 36.7813C121.103 36.9453 118.921 39.7237 117.82 40.6051C114.938 42.9151 112.552 42.6187 109.802 40.3126C107.794 38.6289 106.546 35.3348 103.527 37.5658C100.955 39.4688 99.7945 42.4725 95.8151 42.0733C92.377 41.7275 89.8459 36.6311 87.7051 36.7596C85.8012 36.8742 83.2701 42.1049 79.3928 42.1583C74.9947 42.2175 74.055 38.2337 71.2869 36.969C70.0306 36.394 69.4505 36.9493 68.5414 37.6587C66.1329 39.536 65.2913 42.3598 61.5386 42.0832C58.5459 41.8618 57.1874 38.957 55.0527 37.3741C53.6697 36.3485 53.0711 36.6232 51.8209 37.5698C49.2858 39.4886 48.1663 42.3914 44.3034 42.0832C41.137 41.8302 39.8071 38.9985 37.6152 37.3741C35.1679 35.5601 33.7686 38.6704 32.1506 40.1189C30.7329 41.3915 29.7544 42.8539 27.399 42.1464C24.5636 42.0476 23.2256 40.2059 21.7833 38.6685C21.3584 38.2159 20.9233 37.7891 20.4412 37.4413C20.3677 36.9236 20.3901 36.4928 20.3901 36.4928L20.3861 36.4908Z" fill="#F4B23D"/>
<path d="M368.319 52.4908C368.319 52.4908 368.469 51.3447 369.715 50.7716C370.961 50.1985 372.376 51.3526 372.378 51.3545C373.589 52.5284 374.648 53.5678 375.531 53.5678C375.78 53.5678 376.057 53.471 376.354 53.3069C377.791 51.651 379.792 49.829 381.595 48.8251C381.727 48.7382 381.857 48.6552 381.987 48.5801L381.987 48.6176C382.588 48.3193 383.159 48.1216 383.671 48.0703C384.904 47.9438 385.847 48.1177 386.913 48.6927C388.407 49.499 391.685 53.4907 392.902 53.5599C394.641 53.6607 397.861 48.509 400.681 48.0821C405.054 47.4201 406.473 51.2972 409.268 53.1706C410.397 53.9274 410.972 53.4749 411.925 52.7734C414.405 50.9494 415.752 47.677 419.484 48.092C422.924 48.4754 425.74 53.5737 427.696 53.5737C429.528 53.5737 432.692 48.5109 435.489 48.0821C439.435 47.4774 440.933 51.0265 443.464 52.7773C444.966 53.8168 445.566 53.6113 446.94 52.5778C449.469 50.6728 451.123 47.3371 455.088 48.1157C457.733 48.6354 461.017 53.6607 462.9 53.5619C464.994 53.4512 467.694 48.5821 470.541 48.1197C474.518 47.4735 476.039 50.1432 478.378 52.4849C478.984 53.0915 480.368 53.7812 480.585 54.6843C480.864 55.8423 480.346 57.1702 479.05 57.4469C476.16 58.0654 473.934 52.4552 471.331 52.7813C470.023 52.9453 467.82 55.7237 466.708 56.6051C463.798 58.9151 461.388 58.6187 458.612 56.3126C456.584 54.6289 455.323 51.3348 452.275 53.5658C449.677 55.4688 448.506 58.4725 444.487 58.0733C441.016 57.7275 438.46 52.6311 436.298 52.7596C434.375 52.8742 431.819 58.1049 427.904 58.1583C423.463 58.2175 422.514 54.2337 419.719 52.969C418.45 52.394 417.864 52.9493 416.946 53.6587C414.514 55.536 413.664 58.3598 409.875 58.0832C406.853 57.8618 405.481 54.957 403.325 53.3741C401.929 52.3485 401.324 52.6232 400.062 53.5698C397.502 55.4886 396.371 58.3914 392.471 58.0832C389.273 57.8302 387.93 54.9985 385.717 53.3741C383.246 51.5601 381.833 54.6704 380.199 56.1189C378.767 57.3915 377.779 58.8539 375.401 58.1464C372.537 58.0476 371.186 56.2059 369.73 54.6685C369.301 54.2159 368.861 53.7891 368.375 53.4413C368.3 52.9236 368.323 52.4928 368.323 52.4928L368.319 52.4908Z" fill="#CF5873"/>
<path d="M160 52.4908C160 52.4908 160.151 51.3447 161.397 50.7716C162.642 50.1985 164.058 51.3526 164.06 51.3545C165.271 52.5284 166.329 53.5678 167.212 53.5678C167.461 53.5678 167.738 53.471 168.035 53.3069C169.473 51.651 171.474 49.829 173.276 48.8251C173.408 48.7382 173.538 48.6552 173.668 48.5801L173.668 48.6176C174.269 48.3193 174.84 48.1216 175.352 48.0703C176.585 47.9438 177.528 48.1177 178.594 48.6927C180.088 49.499 183.366 53.4907 184.583 53.5599C186.322 53.6607 189.542 48.509 192.362 48.0821C196.735 47.4201 198.154 51.2972 200.95 53.1706C202.078 53.9274 202.653 53.4749 203.606 52.7734C206.086 50.9494 207.433 47.677 211.165 48.092C214.606 48.4754 217.421 53.5737 219.377 53.5737C221.209 53.5737 224.373 48.5109 227.17 48.0821C231.117 47.4774 232.614 51.0265 235.145 52.7773C236.647 53.8168 237.247 53.6113 238.621 52.5778C241.15 50.6728 242.805 47.3371 246.769 48.1157C249.414 48.6354 252.698 53.6607 254.581 53.5619C256.675 53.4512 259.375 48.5821 262.222 48.1197C266.199 47.4735 267.72 50.1432 270.059 52.4849C270.665 53.0915 272.05 53.7812 272.266 54.6843C272.545 55.8423 272.027 57.1702 270.731 57.4469C267.841 58.0654 265.616 52.4552 263.012 52.7813C261.704 52.9453 259.501 55.7237 258.389 56.6051C255.479 58.9151 253.069 58.6187 250.293 56.3126C248.265 54.6289 247.005 51.3348 243.956 53.5658C241.359 55.4688 240.187 58.4725 236.168 58.0733C232.697 57.7275 230.141 52.6311 227.979 52.7596C226.056 52.8742 223.501 58.1049 219.585 58.1583C215.144 58.2175 214.195 54.2337 211.4 52.969C210.131 52.394 209.545 52.9493 208.627 53.6587C206.195 55.536 205.345 58.3598 201.556 58.0832C198.534 57.8618 197.162 54.957 195.006 53.3741C193.61 52.3485 193.005 52.6232 191.743 53.5698C189.183 55.4886 188.053 58.3914 184.152 58.0832C180.954 57.8302 179.611 54.9985 177.398 53.3741C174.927 51.5601 173.514 54.6704 171.88 56.1189C170.448 57.3915 169.46 58.8539 167.082 58.1464C164.218 58.0476 162.867 56.2059 161.411 54.6685C160.982 54.2159 160.542 53.7891 160.056 53.4413C159.981 52.9236 160.004 52.4928 160.004 52.4928L160 52.4908Z" fill="#CF5873"/>
<path d="M264.705 52.4908C264.705 52.4908 264.855 51.3447 266.101 50.7716C267.347 50.1985 268.762 51.3526 268.764 51.3545C269.975 52.5284 271.033 53.5678 271.916 53.5678C272.166 53.5678 272.442 53.471 272.739 53.3069C274.177 51.651 276.178 49.829 277.981 48.8251C278.113 48.7382 278.243 48.6552 278.373 48.5801L278.373 48.6176C278.973 48.3193 279.545 48.1216 280.056 48.0703C281.29 47.9438 282.233 48.1177 283.299 48.6927C284.793 49.499 288.07 53.4907 289.287 53.5599C291.026 53.6607 294.247 48.509 297.066 48.0821C301.44 47.4201 302.859 51.2972 305.654 53.1706C306.782 53.9274 307.358 53.4749 308.311 52.7734C310.791 50.9494 312.138 47.677 315.869 48.092C319.31 48.4754 322.126 53.5737 324.082 53.5737C325.913 53.5737 329.078 48.5109 331.875 48.0821C335.821 47.4774 337.319 51.0265 339.85 52.7773C341.352 53.8168 341.952 53.6113 343.326 52.5778C345.855 50.6728 347.509 47.3371 351.474 48.1157C354.119 48.6354 357.403 53.6607 359.286 53.5619C361.38 53.4512 364.08 48.5821 366.927 48.1197C370.904 47.4735 372.424 50.1432 374.764 52.4849C375.37 53.0915 376.754 53.7812 376.971 54.6843C377.249 55.8423 376.732 57.1702 375.436 57.4469C372.546 58.0654 370.32 52.4552 367.717 52.7813C366.409 52.9453 364.206 55.7237 363.094 56.6051C360.183 58.9151 357.774 58.6187 354.997 56.3126C352.97 54.6289 351.709 51.3348 348.66 53.5658C346.063 55.4688 344.891 58.4725 340.873 58.0733C337.401 57.7275 334.845 52.6311 332.684 52.7596C330.761 52.8742 328.205 58.1049 324.29 58.1583C319.849 58.2175 318.9 54.2337 316.104 52.969C314.836 52.394 314.25 52.9493 313.332 53.6587C310.9 55.536 310.05 58.3598 306.261 58.0832C303.239 57.8618 301.867 54.957 299.711 53.3741C298.314 52.3485 297.71 52.6232 296.448 53.5698C293.888 55.4886 292.757 58.3914 288.856 58.0832C285.659 57.8302 284.316 54.9985 282.103 53.3741C279.631 51.5601 278.218 54.6704 276.584 56.1189C275.153 57.3915 274.165 58.8539 271.786 58.1464C268.923 58.0476 267.572 56.2059 266.116 54.6685C265.686 54.2159 265.247 53.7891 264.76 53.4413C264.686 52.9236 264.709 52.4928 264.709 52.4928L264.705 52.4908Z" fill="#CF5873"/>
<path d="M56.3861 52.4908C56.3861 52.4908 56.5352 51.3447 57.7691 50.7716C59.0029 50.1985 60.4043 51.3526 60.4063 51.3545C61.6055 52.5284 62.6534 53.5678 63.5277 53.5678C63.7749 53.5678 64.0487 53.471 64.3428 53.3069C65.7667 51.651 67.7482 49.829 69.5336 48.8251C69.6644 48.7382 69.7931 48.6552 69.9218 48.5801L69.9218 48.6176C70.5162 48.3193 71.0821 48.1216 71.5887 48.0703C72.8103 47.9438 73.7439 48.1177 74.8 48.6927C76.279 49.499 79.525 53.4907 80.7303 53.5599C82.4524 53.6607 85.6412 48.509 88.4338 48.0821C92.7645 47.4201 94.17 51.2972 96.938 53.1706C98.0555 53.9274 98.6254 53.4749 99.5692 52.7734C102.025 50.9494 103.359 47.677 107.054 48.092C110.461 48.4754 113.25 53.5737 115.187 53.5737C117.001 53.5737 120.134 48.5109 122.904 48.0821C126.812 47.4774 128.295 51.0265 130.802 52.7773C132.289 53.8168 132.883 53.6113 134.244 52.5778C136.748 50.6728 138.387 47.3371 142.313 48.1157C144.932 48.6354 148.184 53.6607 150.049 53.5619C152.123 53.4512 154.797 48.5821 157.616 48.1197C161.554 47.4735 163.06 50.1432 165.377 52.4849C165.977 53.0915 167.348 53.7812 167.562 54.6843C167.838 55.8423 167.325 57.1702 166.042 57.4469C163.18 58.0654 160.976 52.4552 158.398 52.7813C157.103 52.9453 154.921 55.7237 153.82 56.6051C150.938 58.9151 148.552 58.6187 145.802 56.3126C143.794 54.6289 142.546 51.3348 139.527 53.5658C136.955 55.4688 135.794 58.4725 131.815 58.0733C128.377 57.7275 125.846 52.6311 123.705 52.7596C121.801 52.8742 119.27 58.1049 115.393 58.1583C110.995 58.2175 110.055 54.2337 107.287 52.969C106.031 52.394 105.45 52.9493 104.541 53.6587C102.133 55.536 101.291 58.3598 97.5386 58.0832C94.5459 57.8618 93.1874 54.957 91.0527 53.3741C89.6697 52.3485 89.0711 52.6232 87.8209 53.5698C85.2858 55.4886 84.1663 58.3914 80.3034 58.0832C77.137 57.8302 75.8071 54.9985 73.6152 53.3741C71.1679 51.5601 69.7686 54.6704 68.1506 56.1189C66.7329 57.3915 65.7544 58.8539 63.399 58.1464C60.5636 58.0476 59.2256 56.2059 57.7833 54.6685C57.3584 54.2159 56.9233 53.7891 56.4412 53.4413C56.3677 52.9236 56.3901 52.4928 56.3901 52.4928L56.3861 52.4908Z" fill="#CF5873"/>
</svg>
