<svg width="86" height="145" viewBox="0 0 86 145" fill="none" xmlns="http://www.w3.org/2000/svg">
<g clip-path="url(#clip0_1_70)">
<path d="M85.4098 86.9198L57.4552 87.3023C57.4519 96.7446 57.4684 106.207 57.4552 115.649C48.1447 115.692 38.8145 115.619 29.504 115.649C29.5897 106.955 29.1611 96.7611 29.8601 88.2254C29.9227 87.4539 29.9161 87.2858 30.6513 86.9198C39.5662 86.9099 48.5272 86.9198 57.4585 86.9198C57.32 76.9335 57.5871 66.99 57.841 57.0432C64.4051 57.0399 71.0055 57.0135 77.5466 57.0597C80.1677 57.0795 82.7953 57.0102 85.4131 57.0432C85.3867 66.9735 85.4328 77.1214 85.4131 86.9198H85.4098Z" fill="#0176DF"/>
<path d="M58.6058 28.6996C58.5201 38.1617 58.0783 47.6371 57.8409 57.0432C52.7241 57.0432 47.4524 57.0333 42.3488 57.0596C38.3232 57.0827 34.2911 57.0069 30.2722 57.0432C30.3513 47.6997 30.2919 38.3892 30.2722 29.082C30.2557 20.3848 29.8502 11.0644 30.259 2.44297C30.2919 1.71765 30.4403 1.03849 30.6579 0.356025C39.9684 0.356025 49.3019 0.306571 58.6091 0.356025C58.5465 9.79509 58.6948 19.2605 58.6091 28.6996H58.6058Z" fill="#03B5B2"/>
<path d="M29.8865 86.9198C20.065 86.9264 10.2237 86.9166 0.402219 86.9198C0.471454 77.0588 0.316499 66.9966 0.402219 57.0432L30.269 57.4257C30.1799 67.2735 30.3877 77.1115 29.8865 86.9165V86.9198Z" fill="#CF5873"/>
<path d="M57.4553 144.372C54.8606 144.8 52.2198 144.843 49.579 144.784C48.9031 144.767 48.2437 144.372 48.0756 144.372H39.2695C36.1836 144.372 32.7383 144.754 29.5041 144.754C29.57 135.197 29.4085 125.329 29.5041 115.646C21.8783 115.672 14.3581 115.84 6.73559 115.629C4.50028 115.567 2.24849 115.705 0.0197754 115.646C0.0692291 106.088 0.336279 96.3556 0.402217 86.9198C10.227 86.9165 20.0716 86.9264 29.8964 86.9198L30.0777 87.3089C29.9096 87.51 29.8997 87.7572 29.8601 88.2221C29.1579 96.7545 29.5865 106.952 29.5041 115.646C38.8146 115.616 48.1448 115.689 57.4553 115.646C57.4454 125.213 57.5542 134.807 57.4553 144.372Z" fill="#03B5B2"/>
<path d="M30.269 29.0821L0.784657 29.4645C0.817626 21.8849 0.273635 14.1569 0.78136 6.66963C0.913236 4.70467 -0.0395719 0.8308 2.51554 0.365935C3.33317 0.217574 6.21797 0.0230562 7.1444 0.0131654C14.8691 -0.0758513 22.8542 0.359341 30.6514 0.359341C30.4371 1.0418 30.2887 1.72097 30.2525 2.44629C29.8437 11.0677 30.2525 20.3881 30.2657 29.0854L30.269 29.0821Z" fill="#CF5873"/>
<path d="M29.504 144.754C21.5156 144.758 13.3624 144.26 5.55196 144.359C3.72547 144.382 1.83964 144.543 0.019741 144.754C0.0428194 135.071 -0.0297127 125.345 0.019741 115.646C2.25175 115.705 4.50354 115.57 6.73555 115.629C14.358 115.84 21.875 115.669 29.504 115.646C29.4084 125.332 29.57 135.197 29.504 144.754Z" fill="#F4B23D"/>
<path d="M30.2689 57.0432C30.2689 57.1717 30.2689 57.297 30.2689 57.4256L0.402161 57.0432C0.47799 47.9338 0.748337 38.6793 0.784603 29.4645L30.2689 29.082C30.2887 38.3892 30.348 47.6997 30.2689 57.0432Z" fill="#0176DF"/>
<path d="M85.4098 144.754H57.452C57.5575 135.061 57.4454 125.339 57.4553 115.646C66.6668 115.603 75.852 115.699 85.0241 115.263C84.9845 125.108 85.3768 134.92 85.4065 144.754H85.4098Z" fill="#F4B23D"/>
<path d="M85.0241 115.263C75.8521 115.699 66.6669 115.606 57.4553 115.646C57.4652 106.203 57.4487 96.7413 57.4553 87.2989L85.4098 86.9165C85.39 96.3951 85.0669 105.834 85.0274 115.26L85.0241 115.263Z" fill="#CF5873"/>
<path d="M85.4098 29.0821L58.6059 28.6996C58.6916 19.2606 58.5432 9.79514 58.6059 0.356072C63.2282 0.379151 67.9098 0.811046 72.6013 0.758296C75.9444 0.72203 79.4226 0.0725377 82.9338 0.342885C85.1856 0.517621 85.6406 0.520918 85.8087 2.83205C86.3989 10.9622 85.456 20.7013 85.4098 29.0854V29.0821Z" fill="#CF5873"/>
<path d="M85.4097 57.0432C82.792 57.0102 80.1643 57.0795 77.5433 57.0597C71.0022 57.0102 64.4018 57.0399 57.8376 57.0432C57.5838 66.99 57.32 76.9368 57.4552 86.9198C48.2667 86.9166 39.0518 86.9067 29.8831 86.9198C30.3842 77.1115 30.1765 67.2735 30.2656 57.4257C30.2656 57.2971 30.2656 57.1718 30.2656 57.0432C34.2845 57.0069 38.3166 57.0828 42.3422 57.0597C47.4458 57.0333 52.7175 57.0465 57.8344 57.0432C58.075 47.6371 58.5135 38.1618 58.5992 28.6996L85.4031 29.0821C85.3504 38.3959 85.4295 47.7294 85.4031 57.0432H85.4097Z" fill="#F4B23D"/>
</g>
<defs>
<clipPath id="clip0_1_70">
<rect width="86" height="144.804" fill="white"/>
</clipPath>
</defs>
</svg>
