<svg width="55" height="54" viewBox="0 0 55 54" fill="none" xmlns="http://www.w3.org/2000/svg">
<g clip-path="url(#clip0_1_87)">
<path d="M50.1019 34.1535C45.0876 39.5238 39.4478 44.8318 33.922 49.6838C32.9163 50.565 30.9362 53.1361 29.6644 53.6544C25.0924 55.5275 20.7278 49.2034 17.7282 46.5286C13.2253 42.5165 4.0744 35.1245 0.860527 30.48C0.231575 29.5677 -0.145105 28.8696 0.0518743 27.6912C0.235031 26.5957 4.77247 22.6907 5.88523 21.4569C10.986 15.7895 16.0383 9.19584 21.5157 3.95688C24.2561 1.3374 26.4575 -1.72442 30.1794 1.17153C36.0334 5.7297 43.9956 15.2849 49.2449 21.0423C50.2471 22.1412 54.5702 26.7477 54.6635 27.6946C54.8121 29.2083 51.2561 32.9163 50.1019 34.1535ZM26.8307 15.1121C25.5141 15.3368 23.3542 18.7822 22.3451 19.85C20.8488 21.4362 16.5429 25.0129 15.6927 26.4436C15.2366 27.2177 15.0534 27.7465 15.6927 28.4929C18.0254 30.2035 25.2134 39.1367 27.5564 39.1505C28.7418 39.1574 31.4373 36.1129 32.3807 35.1004C33.9289 33.4347 36.7142 30.3936 37.9583 28.6346C40.405 25.1788 37.0045 24.4911 34.7755 22.2621C33.4001 20.8867 28.4722 14.8288 26.8307 15.1087V15.1121Z" fill="#F4B23D"/>
</g>
<defs>
<clipPath id="clip0_1_87">
<rect width="54.667" height="54" fill="white"/>
</clipPath>
</defs>
</svg>
