<svg width="86" height="145" viewBox="0 0 86 145" fill="none" xmlns="http://www.w3.org/2000/svg">
<g clip-path="url(#clip0_1_82)">
<path d="M31.2634 141.39C31.0827 140.335 31.6162 139.974 32.1755 139.287C41.3653 127.829 35.953 134.198 38.4569 131.262C44.2134 124.516 53.2569 117.898 59.8223 111.83C62.7478 109.126 67.1362 106.182 64.4257 102.114C61.156 97.187 53.7818 91.9427 49.3504 87.5138C45.659 83.8316 39.7046 78.1753 36.5983 74.3043C33.2683 70.1672 36.2369 69.0085 39.3776 65.9529C45.1169 60.3653 51.3295 54.4257 57.2495 49.0526C59.2974 47.1901 65.4927 43.0616 66.5597 41.2162C68.8744 37.1993 62.3262 33.3369 60.0202 31.0194C53.5237 24.5048 46.5797 18.0932 40.3069 11.321C38.8441 9.75033 34.0599 4.91801 34.103 3.20137C34.1288 1.90532 51.493 1.44183 75.4225 2.86663C78.0125 3.02971 79.5613 6.9093 79.5613 7.96503C79.5613 87.737 78.2362 53.5588 79.5183 133.305C79.5785 136.79 81.7211 140.85 76.5239 141.382C63.3071 142.738 45.0309 141.442 31.272 141.382L31.2634 141.39Z" fill="#F4B23D"/>
<path d="M31.2632 141.391C28.1742 141.382 25.0679 141.416 21.9788 141.391L21.5142 2.64371C23.6739 2.61796 34.1372 1.61373 34.0942 3.20161C34.0511 4.91825 38.8439 9.75057 40.2981 11.3213C46.5709 18.0848 53.5149 24.4964 60.0114 31.0197C62.3174 33.3371 68.8656 37.1995 66.5509 41.2164C65.4839 43.0704 59.2886 47.1989 57.2407 49.0529C51.3207 54.4259 45.0995 60.3569 39.3688 65.9531C36.2367 69.0087 33.2595 70.1675 36.5895 74.3045C39.7044 78.1756 45.6502 83.8233 49.3416 87.514C53.773 91.9429 61.1472 97.1873 64.417 102.114C67.1274 106.191 62.7304 109.126 59.8135 111.83C53.2481 117.898 44.196 124.516 38.4481 131.262C35.9442 134.198 41.3565 127.829 32.1667 139.288C31.616 139.974 31.0739 140.335 31.2546 141.391L31.2632 141.391Z" fill="#CF5873"/>
<path d="M21.9788 141.391C18.6918 141.365 12.6342 141.923 9.77742 141.288C5.75045 140.395 7.25626 137.03 7.1444 133.614C4.96743 67.687 6.52487 121.984 6.67975 56.031C6.79162 8.36873 6.08603 52.2029 7.22185 4.60072C7.38533 3.8454 7.6951 3.36474 8.37487 2.96991C10.2249 1.9056 18.7521 2.44634 21.5142 2.42059L21.9788 141.391Z" fill="#0176DF"/>
</g>
<defs>
<clipPath id="clip0_1_82">
<rect width="140" height="74" fill="white" transform="translate(80 2) rotate(90)"/>
</clipPath>
</defs>
</svg>
