<svg width="55" height="54" viewBox="0 0 55 54" fill="none" xmlns="http://www.w3.org/2000/svg">
<g clip-path="url(#clip0_1_35)">
<path d="M38.3633 22.4711C42.8102 23.7266 48.5852 24.3262 52.8063 25.9877C55.1131 26.8964 55.3309 28.6924 53.059 29.8297L39.2962 31.8434C39.1914 32.4026 39.4495 32.7414 39.6619 33.1958C41.353 36.8146 45.5982 40.9281 47.5824 44.9502C48.5288 46.8699 49.7144 49.2896 46.3295 49.0368C45.6224 48.9831 45.0928 48.682 44.504 48.3405C41.6729 46.7059 37.589 42.2213 34.7606 39.9683C34.3627 39.651 32.1177 37.7395 31.8032 38.089L29.3243 52.3169C28.7059 53.8413 26.6787 54.7447 25.5926 53.1934C24.1891 51.1877 24.2859 38.0675 23.5197 38.0836L10.6656 48.6524C8.88577 49.951 6.04125 49.4939 6.97957 46.8484L16.1826 31.5315C12.069 30.8486 7.32639 30.9616 3.3016 30.2007C-0.00803653 29.577 -1.62387 27.4637 2.27994 25.9044C6.11922 24.3692 11.1979 23.8772 15.2469 22.7856L5.19973 8.00922C4.11624 6.83969 4.74805 5.00339 6.34506 5.00877C7.76463 5.01415 16.3788 12.0125 18.2716 13.3595C18.7233 13.6794 21.5624 15.8222 21.8044 15.6017C22.5948 12.1819 23.1836 8.62221 24.0843 5.23192C24.458 3.83117 25.036 0.553802 26.4825 0.118253C27.7891 -0.274278 28.472 0.330651 28.9103 1.47598C30.3567 5.26418 30.2088 11.0392 31.5047 14.8086C31.6123 15.1232 31.6096 15.4109 31.9645 15.6044C32.2495 15.6663 36.2071 13.0933 36.8416 12.6766C39.9442 10.636 43.3963 7.52796 46.5769 5.85836C47.8136 5.21041 50.0586 4.85821 50.2414 6.71601C50.3812 8.13558 45.16 14.3166 43.977 15.7496C42.4284 17.6289 40.0087 19.7663 38.6725 21.686C38.487 21.9522 38.2369 21.9952 38.366 22.4684L38.3633 22.4711Z" fill="#F4B23D"/>
</g>
<defs>
<clipPath id="clip0_1_35">
<rect width="54.656" height="54" fill="white"/>
</clipPath>
</defs>
</svg>
