<svg width="127" height="128" viewBox="0 0 127 128" fill="none" xmlns="http://www.w3.org/2000/svg">
<g clip-path="url(#clip0_1_16)">
<path d="M120.964 73.2203C105.506 91.4876 85.9676 107.479 69.7092 125.133C59.4155 131.871 53.1575 120.093 47.1662 114.048C32.3212 99.0701 17.254 84.314 2.3913 69.3624C-0.764365 66.1534 -0.8177 60.2243 2.3913 56.9264C20.7831 40.6681 37.1659 19.734 55.1931 3.46676C59.4511 -0.373376 64.5446 -1.46675 69.2825 2.46228L124.556 57.8864C129.845 65.7978 125.613 67.7268 120.973 73.2114L120.964 73.2203ZM71.6382 94.83C71.8071 94.6522 71.1937 93.4699 72.2604 92.3677C80.7229 83.7007 89.3277 75.0782 98.528 67.1845C99.8169 65.5578 99.7903 63.3355 98.528 61.771L65.3268 28.5699C64.5801 27.8498 63.7179 27.6187 62.6867 27.7076C58.3933 28.0898 41.326 47.9483 37.4147 52.1262C33.5035 56.3042 23.432 61.1399 29.8323 67.6023L61.8689 99.3457C63.5046 101.532 70.1803 96.3145 71.6293 94.8389L71.6382 94.83Z" fill="#CF5873"/>
<path d="M71.6382 94.83C70.1982 96.3056 63.5224 101.524 61.8779 99.3368L29.8412 67.5935C23.4321 61.1221 33.708 56.082 37.4237 52.1174C41.326 47.9395 58.3933 28.081 62.6957 27.6988C63.7179 27.6099 64.5891 27.841 65.3358 28.561L98.5369 61.7622C99.7992 63.3356 99.8259 65.549 98.5369 67.1757C89.3366 75.0693 71.816 94.6433 71.6382 94.8211V94.83ZM62.1801 52.5174C61.1401 53.7797 49.193 64.0645 49.7797 64.9001C54.0287 67.3268 58.5889 71.9314 62.1801 75.5404C62.4823 75.8427 62.7223 76.3582 64.8913 75.816C67.4247 73.7893 67.9136 72.4914 70.1537 70.2247C70.4471 69.9313 70.7582 69.6469 71.0426 69.3358C72.1627 68.1179 73.2472 67.4868 74.5805 65.7979C74.8294 65.4867 75.2561 65.2645 75.4695 64.9089C75.6828 64.5534 76.1895 63.9311 74.6428 62.4377C71.7182 59.6199 69.7359 57.7531 66.6158 55.1664C66.3047 54.9086 66.0647 54.5264 65.7269 54.2775L63.8335 52.5085C62.9446 51.7974 62.4201 52.2152 62.189 52.5085L62.1801 52.5174Z" fill="#F4B23D"/>
<path d="M62.18 52.5174C61.1399 53.7796 49.1929 64.0644 49.7795 64.9C54.0286 67.3268 58.5887 71.9314 62.18 75.5404C62.4822 75.8426 62.7222 76.3582 64.8912 75.816C67.4246 73.7892 67.9135 72.4914 70.1536 70.2247C70.4469 69.9313 70.7581 69.6469 71.0425 69.3357C72.1625 68.1179 73.247 67.4868 74.5804 65.7978C74.8293 65.4867 75.256 65.2645 75.4693 64.9089C75.6827 64.5533 76.1894 63.9311 74.6426 62.4377C71.7181 59.6198 69.7358 57.7531 66.6157 55.1664C66.3046 54.9086 66.0646 54.5263 65.7268 54.2774L63.8334 52.5085C62.9444 51.7973 62.42 52.2151 62.1889 52.5085L62.18 52.5174Z" fill="#0176DF"/>
</g>
<defs>
<clipPath id="clip0_1_16">
<rect width="127" height="127.151" fill="white"/>
</clipPath>
</defs>
</svg>
