<svg width="108" height="46" viewBox="0 0 108 46" fill="none" xmlns="http://www.w3.org/2000/svg">
<g clip-path="url(#clip0_1_21)">
<path d="M104.086 7.4193C103.48 6.83482 102.341 5.2604 101.447 5.54918C101.12 5.65545 100.332 6.53102 100.043 6.83019C99.0993 7.80742 97.6808 9.89701 96.6909 10.5901C94.5898 12.0594 92.9114 9.05147 91.7262 7.77045C91.2885 7.29801 89.3352 5.07904 88.9032 5.09175C88.5705 5.10099 84.933 9.17391 84.2065 9.7815C82.7279 11.0175 82.1354 11.111 80.6522 9.85427C79.1032 8.54207 77.5334 6.50099 75.9601 5.28928C75.8065 5.1703 75.5766 4.93697 75.3722 4.97624C75.2544 4.99934 73.9526 6.33927 73.7412 6.56336C72.809 7.55214 71.3097 9.70411 70.3267 10.3949C69.413 11.0371 68.4265 10.9759 67.5105 10.381C65.6843 9.19355 63.6201 7.01732 61.7962 5.63003C61.6483 5.51799 61.3099 5.22228 61.1528 5.24538C60.9298 5.3736 60.7219 5.52954 60.5232 5.69125C58.7963 7.10395 57.0995 9.37144 55.3553 10.7206C54.2926 11.5419 53.6191 11.5419 52.5437 10.7206C50.7856 9.37837 49.2089 7.2056 47.5097 5.82525C46.901 5.33086 46.7358 5.1599 46.0936 5.75363C44.5758 7.15478 43.2393 9.27556 41.5332 10.5855C40.0281 11.7417 39.0289 11.334 37.6474 10.3175C35.6167 8.82392 33.9545 6.64653 32.0081 5.08366C31.6327 5.08366 27.4039 9.67292 26.6369 10.3175C25.1445 11.5708 24.3729 11.7856 22.6933 10.6444C20.7643 9.33332 19.198 7.44818 17.4561 5.95577C16.6613 5.27541 16.324 5.07673 15.497 5.88878C14.2425 7.12013 13.144 9.18547 11.7637 10.4076C10.6247 11.416 9.87159 11.2982 8.72341 10.3891C7.04388 9.05956 5.54339 7.31419 4.09719 5.7571C2.85083 4.41601 1.64836 4.0637 1.88054 1.93483C2.06535 0.244904 3.25281 -0.0196166 4.52689 0.899852C5.74554 1.77889 7.32804 3.90892 8.58827 5.0236C8.85625 5.2604 9.73067 6.06089 9.99173 6.03548C10.619 5.97426 13.4397 1.60794 14.2402 0.877905C14.8998 0.276092 15.6379 0.00579589 16.5435 0.158271C18.5222 0.493253 21.9448 4.75215 23.6186 6.0967C24.1072 6.48944 24.3694 6.77821 24.9701 6.37046C25.7498 5.84142 26.7316 4.34439 27.4431 3.6109C27.9271 3.11305 28.4539 2.72955 28.9252 2.27443C30.1935 1.05117 30.3921 0.0658617 32.536 0.400844C33.6761 0.578731 37.3679 4.58235 38.5149 5.55957C39.0289 5.99736 39.7439 6.77244 40.3885 6.22029L44.8957 1.06734C47.5132 -0.972583 50.1908 3.13037 51.935 4.75446C52.5483 5.32624 53.2299 5.90495 53.8825 6.43399C54.4115 6.43399 59.2076 0.780876 60.3315 0.399689C60.9587 0.135168 61.6171 0.370811 62.1797 0.683846C63.4249 1.37576 65.6866 3.88697 67.038 4.94967C67.7138 5.48218 68.6078 6.45247 69.4753 5.71551C70.7633 4.61585 73.2814 0.612229 74.6768 0.117842C76.4048 -0.495522 77.9007 1.41272 78.9796 2.53664C79.4774 3.05529 81.7854 5.97426 82.3132 5.87145C82.4207 5.85066 83.7525 4.60891 83.9466 4.41948C85.0127 3.37872 86.7004 1.12856 87.8335 0.390448C88.7114 -0.181332 90.0444 0.105136 90.7929 0.787806C92.1051 1.9845 93.2972 4.34439 94.6891 5.61271C95.2655 6.13828 95.7472 5.88878 96.2277 5.42789C97.63 4.08218 98.8591 2.2548 100.242 0.854803C100.874 0.36388 101.798 0.445893 102.49 0.768169C104.322 2.63483 105.928 4.77294 107.567 6.82557C107.917 7.60296 107.142 8.89669 106.342 8.97755C105.541 9.0584 104.608 7.91946 104.088 7.41815L104.086 7.4193Z" fill="#CF5873"/>
<path d="M33.8736 19.7905C35.388 21.157 36.7649 22.7153 38.3116 24.0055C38.5207 24.0055 38.9423 23.6209 39.1225 23.4707C40.7466 22.1123 42.2898 19.9072 43.8977 18.4506C44.2142 18.1641 44.689 17.7726 45.1267 17.8534C45.6084 17.9424 48.0388 20.1001 48.5828 20.5818C49.4492 21.3499 50.7972 22.9625 51.6739 23.5285C52.4709 24.0425 53.0635 23.1808 53.6341 22.6171C54.5756 21.6861 55.5193 20.6777 56.4341 19.7143C57.066 19.0478 57.6054 17.7587 58.7085 17.9689L65.1356 24.1245L70.6489 18.7648C71.4182 18.3709 72.0062 18.7717 72.6034 19.2396C74.4192 20.6603 76.0872 22.6737 77.8314 24.2135L78.1491 24.3821L78.4656 24.2296L83.8703 18.2993C84.9434 17.284 86.3838 18.8872 87.2294 19.6415C88.7114 20.9653 89.9739 22.78 91.4513 24.0067C92.5094 24.8857 92.6723 24.5565 93.5375 23.6717C95.1234 22.0499 96.5119 20.0816 98.1567 18.4957C98.8429 18.141 99.3165 18.416 99.8432 18.8376C101.09 19.8344 102.946 21.842 104.071 23.063C104.594 23.6301 106.434 25.5603 106.412 26.2037C106.36 27.7389 104.041 28.7461 102.987 27.3646L99.3049 23.5343C99.164 23.4442 99.0011 23.4395 98.8417 23.4638C98.3497 23.5389 97.1079 25.2011 96.6921 25.6227C95.9343 26.3885 94.0064 28.4111 93.1309 28.7658C92.1675 29.1562 91.4282 28.7635 90.6485 28.1628C88.9332 26.8413 87.2606 24.515 85.6192 23.264C84.672 22.542 84.7217 23.2189 84.1441 23.8069C82.8689 25.1017 81.3383 26.8298 79.9822 27.9641C79.6507 28.2413 78.6908 28.9771 78.3166 28.9633C76.9166 28.9125 73.1532 24.6767 71.8687 23.7295C71.2715 23.2721 70.6974 24.3625 70.2712 24.7633C69.1461 25.8225 67.7935 27.2202 66.6234 28.1605C65.4255 29.1227 65.0397 29.0476 63.8118 28.1605C61.9706 26.8309 60.35 24.6836 58.4602 23.3448C58.0617 23.4164 54.4115 27.271 53.6064 27.8925C52.4132 28.8108 51.9823 28.7669 50.7949 27.8925C49.1754 26.7004 47.6172 24.8222 46.03 23.5331C45.6119 23.1935 45.0667 22.6113 44.5446 23.1254C43.5662 24.1985 42.671 25.372 41.6695 26.4209C41.0307 27.0897 39.3443 28.9922 38.4606 28.9633C36.8654 28.9102 33.2245 24.1268 31.7563 23.2097C30.0468 24.8707 28.3788 26.9707 26.5733 28.5012C25.6469 29.2867 24.88 29.8735 23.7491 28.9067C22.4265 27.7747 20.859 25.781 19.5976 24.4711C19.362 24.2262 18.6504 23.428 18.3386 23.4892C17.9527 23.5643 14.5151 27.7019 13.7562 28.1628C12.7767 28.8824 12.0155 28.6549 11.1387 27.9641C9.63017 26.7743 8.30988 24.9008 6.91682 23.7329C6.03778 22.996 6.05972 23.0664 5.30082 23.8681C4.29933 24.9273 3.57854 26.1379 2.15429 26.7593C0.73004 27.3808 -0.383487 26.5225 0.129382 25.0036C0.585651 23.6532 3.42029 20.4605 4.4957 19.3066C5.21187 18.5384 5.97656 17.4076 6.98266 18.1653C8.45427 19.2754 9.91549 21.343 11.3374 22.6656C11.5569 22.8701 12.8622 24.1084 12.9696 24.1268C13.3762 24.1996 17.6524 18.3443 18.3259 18.2323C18.9577 18.126 19.8159 18.9323 20.2699 19.3689C21.1963 20.2584 22.2371 21.4366 23.1519 22.3907C23.5758 22.8331 24.4757 24.2886 25.1664 24.2689C25.4021 24.262 26.8194 22.765 27.1128 22.4635C28.1616 21.3846 29.2463 19.9811 30.3263 18.9681C31.9539 17.4387 32.655 18.6886 33.8748 19.7894L33.8736 19.7905Z" fill="#03B5B2"/>
<path d="M12.5607 37.6116C13.218 38.1741 16.8797 41.8485 17.2493 41.8497C18.7994 40.6842 20.2976 39.4159 21.8859 38.3012C22.4565 37.9004 24.6928 36.2855 25.1838 36.2555C25.5892 36.2312 25.9773 36.4692 26.2938 36.6933C28.0299 37.9211 29.7141 40.0396 31.4722 41.3091C31.6397 41.4304 31.791 41.5655 32.0128 41.5759L38.255 36.5523C39.2969 35.8939 40.169 36.7487 40.9753 37.3089C42.6791 38.4929 44.0282 40.0916 45.7205 41.2871C46.417 41.3911 51.2904 36.4195 52.4143 36.349C52.7158 36.3306 53.1444 36.5327 53.4054 36.6863C54.7384 37.4718 56.418 39.5233 57.7048 40.5721C58.1044 40.8979 58.4729 41.3564 58.9892 41.0469C59.762 40.5837 60.8882 39.2669 61.6691 38.6281C62.2975 38.114 64.64 36.2012 65.2892 36.2023C66.3866 36.2035 69.8196 39.7254 70.8569 40.5721C72.0582 41.5528 72.1021 41.1069 73.204 40.2314C74.5151 39.1906 76.0803 37.3748 77.4445 36.5546C78.4425 35.9551 78.8618 36.1377 79.7177 36.8122C80.5737 37.4868 83.5689 41.1947 84.2423 41.2906C84.5253 41.331 84.8014 41.0665 85.0127 40.9013C86.5028 39.7381 87.934 38.0032 89.4484 36.8839C90.1611 36.356 90.764 36.0441 91.5934 36.6124C93.0558 37.615 94.3172 39.4193 95.6837 40.5721C96.0337 40.8667 96.5962 41.4708 97.0247 41.2421L101.929 37.019C102.632 36.3721 103.005 36.5847 103.726 36.9601C104.162 37.1876 107.72 39.8687 107.827 40.1043C108.232 40.9914 106.708 42.4596 105.945 42.5139C104.938 42.5843 103.499 40.8574 102.761 41.0596C101.272 42.2286 99.9426 43.6551 98.4328 44.7929C97.779 45.2861 97.2454 45.8106 96.3502 45.5403C95.7946 45.3728 92.8802 42.7668 92.1941 42.1824C91.8291 41.8728 91.1025 40.8932 90.6485 40.9083C90.3147 40.9187 86.2695 44.6069 85.4736 45.121C85.1132 45.3543 84.7991 45.5934 84.3405 45.6073C82.1677 45.6777 79.0951 41.0723 78.1722 41.0457C77.419 41.0238 73.2514 44.9604 72.2361 45.4455C71.7347 45.5495 71.2427 45.2561 70.8164 45.0401C69.7664 44.5064 65.4105 40.9729 64.9993 40.9337C64.4656 40.8829 60.2599 44.4949 59.3358 45.0182C58.6081 45.4305 58.4128 45.4097 57.6874 45.0182C56.6559 44.4614 53.0924 40.8078 52.6673 40.7662C52.5506 40.7546 52.4409 40.7754 52.3416 40.8401L46.5545 45.3878C45.5102 46.0289 44.3159 44.8068 43.4957 44.1807C42.0438 43.0729 40.7604 41.7307 39.2796 40.6564C37.2154 41.9282 35.306 43.8642 33.2707 45.121C32.2484 45.7528 31.8522 45.9122 30.7456 45.2561C29.5755 44.5619 27.6823 42.746 26.571 41.7815C25.9946 41.2814 25.4979 40.2475 24.6455 40.7928C22.4612 42.1465 20.3092 44.2835 18.1087 45.5252C17.4699 45.8856 17.0887 46.1987 16.3379 45.8406C14.3396 44.1934 12.4752 42.3152 10.5323 40.6357C10.2528 40.6068 9.99057 40.8124 9.75839 40.9348C7.43777 42.1592 5.21418 44.2119 2.82541 45.4051C1.78812 45.8799 -0.160548 44.3563 0.162883 43.2843C0.360407 42.6282 3.54967 40.8112 4.28548 40.2926C5.78365 39.2368 8.06269 37.2142 9.57127 36.4553C10.8592 35.8073 11.6609 36.84 12.5607 37.6104V37.6116Z" fill="#0176DF"/>
</g>
<defs>
<clipPath id="clip0_1_21">
<rect width="107.892" height="46" fill="white"/>
</clipPath>
</defs>
</svg>
