<svg width="36" height="111" viewBox="0 0 36 111" fill="none" xmlns="http://www.w3.org/2000/svg">
<g clip-path="url(#clip0_1_61)">
<path d="M23.5481 72.1462C23.6624 72.5352 24.8799 72.7792 25.2776 72.8275C26.9149 73.2121 34.4925 72.7044 35.3561 73.2143C36.3649 73.8099 35.6484 80.0228 35.8528 81.3985C35.899 83.0908 36.1539 85.9258 35.8638 87.5169C35.7341 88.229 35.0902 88.3433 34.4639 88.4158C33.0464 88.5784 25.2645 88.0927 24.7414 88.9037C24.5788 90.0861 23.9371 94.4881 24.6249 95.1825C25.5128 96.0814 32.7827 95.6331 34.4617 95.8133C36.6308 96.0484 35.8528 97.6242 35.8484 98.9956C35.844 100.681 36.2572 107.887 35.5781 109.092C35.2858 109.61 34.7034 109.85 34.1408 109.951C32.2882 110.285 26.4973 110.208 24.4909 110.024C21.935 109.788 22.8646 108.632 22.7943 107.074C22.6822 104.589 22.4536 99.8636 22.5899 97.3451L14.0388 97.3451C14.0124 97.3451 13.6564 97.7011 13.6564 97.7275L13.6564 108.351C13.6564 109.501 11.6235 109.951 10.7313 110.021C8.58635 110.188 3.84598 110.27 1.80214 109.986C0.690125 109.832 0.714298 109.371 0.62859 108.362C0.441788 106.134 0.347291 98.5626 0.62859 96.4396C0.738476 95.6045 0.93187 95.4023 1.77797 95.2902C4.30529 94.9584 10.406 95.9034 12.3246 95.1342C13.1048 94.8221 12.5839 93.7848 12.6169 93.1365C12.6432 92.5914 12.9026 92.0684 12.8938 91.6003C12.8784 90.6509 12.4037 89.4817 12.6367 88.4114C10.795 88.0136 1.73402 89.0597 0.876927 87.7301C0.701112 87.4598 0.382451 83.1633 0.362672 82.4095C0.325311 81.0315 0.59123 79.1723 0.619798 77.7855C0.641775 76.6493 0.0110489 74.979 1.16482 73.9923C4.72724 73.0187 8.49405 74.3329 12.1466 73.7417C12.3114 73.6275 12.6235 70.4913 12.652 69.9068L12.7707 64.0389C9.46102 63.584 5.18216 64.0125 1.79995 63.6653C0.927477 63.4147 0.476954 62.6038 0.384653 61.7621C0.171477 59.8215 0.578043 57.0678 0.643977 55.114C0.692324 53.6503 0.360476 49.7143 0.815394 48.6594C1.00659 48.2154 3.28337 47.8484 3.83719 47.8396C4.31848 47.833 4.81515 48.1077 5.35798 48.1055C7.85453 48.0924 10.4632 47.9034 12.896 48.3473C12.685 47.5188 13.1135 46.6045 13.1289 45.8947C13.1509 44.8617 13.1861 43.3739 13.1619 42.3607C13.1223 40.618 12.2784 40.774 10.7401 40.6751C7.94903 40.4949 4.70307 41.2333 2.04609 40.9476C1.60656 40.8993 1.05054 40.818 0.784625 40.4224C0.0747788 39.3609 0.316524 30.3525 0.408828 28.5526C0.448387 27.7702 0.547279 26.0494 0.815395 25.4252C0.92308 25.1747 1.95599 24.6033 2.05049 24.6033L12.1334 24.6033L12.1334 17.5816C12.1334 17.3025 11.5093 17.2168 11.2521 17.1861C8.38197 16.8476 4.79977 17.5421 1.78896 17.2036C0.468167 17.0564 0.233013 16.5245 0.123131 15.296C-0.248275 11.1665 0.411023 6.47226 0.149503 2.27904C0.20884 1.80873 0.428609 1.43292 0.769246 1.10986C2.17355 -0.21755 8.18198 -0.0439315 10.2214 0.0901285C11.7862 0.193421 14.2388 0.29012 14.3486 2.3164C14.3596 2.53617 14.1662 2.70759 14.1662 2.78012L14.1662 15.2916C14.1662 15.318 14.5223 15.674 14.5486 15.674L21.6954 15.674C22.5613 15.674 22.0888 13.7115 22.1042 13.4763C22.3262 9.98199 22.0822 6.55357 22.1767 3.07901C22.2075 1.91862 22.1701 0.767021 23.4712 0.597798C25.3875 0.349458 32.0596 0.33847 33.9606 0.597799C35.0595 0.747243 35.2397 1.49226 35.3518 2.52518C35.7319 5.97558 35.5891 9.60399 35.6067 12.9928C35.6133 14.0807 36.3275 14.9884 35.4726 16.1773C34.5496 17.463 31.3762 16.6542 29.8488 16.6828C29.1192 16.696 28.5038 16.9399 27.8291 16.9641C26.9852 16.9949 23.6162 16.6103 23.2096 17.1883C23.0712 19.542 23.7019 21.9595 23.6074 24.355C26.7545 24.9286 30.0158 24.3308 33.1761 24.6143C33.7716 24.667 35.2221 24.8538 35.4814 25.3725C35.833 26.0758 35.5561 29.0295 35.6089 30.0954C35.7539 32.9656 36.2022 36.6995 35.866 39.5499C35.7759 40.3169 35.3034 41.2048 34.4573 41.2048L24.3744 41.2048C24.2667 42.4552 23.6689 47.7517 24.4755 48.3803C25.3238 49.0396 32.2267 48.9121 33.9299 49.1451C35.1276 49.3077 35.2397 50.4659 35.3232 51.5735C35.5034 53.9185 35.3583 56.9974 35.3364 59.4721C35.3232 60.9731 36.0748 63.9202 33.9562 64.1993C31.9849 64.4587 25.2842 63.7224 24.1129 64.3092C23.6667 64.5334 23.4953 65.4234 23.4184 65.9113L23.5437 72.1462L23.5481 72.1462ZM14.1794 50.4109L14.0388 61.8873C14.2871 62.4148 15.9595 62.3862 16.5793 62.4104C17.6144 62.4521 21.5174 62.595 22.0866 62.0214C22.4866 61.617 22.6009 52.0109 22.48 50.6373C21.5042 50.2637 14.5684 50.0241 14.1816 50.4109L14.1794 50.4109ZM22.5899 85.9851L22.5899 75.1351L14.0388 75.1351C13.7597 75.1351 13.6739 75.7592 13.6432 76.0164C13.5135 77.1196 13.5575 85.9917 13.9135 86.3675C16.4584 86.2972 19.1681 86.6796 21.7086 86.3829C22.0075 86.3478 22.4866 86.3192 22.5899 85.9874L22.5899 85.9851ZM22.08 39.4202L22.335 26.1439L14.6783 26.1439L14.6783 39.4202L22.08 39.4202Z" fill="#CF5873"/>
</g>
<defs>
<clipPath id="clip0_1_61">
<rect width="110.182" height="36" fill="white" transform="translate(36 1.57361e-06) rotate(90)"/>
</clipPath>
</defs>
</svg>
