<svg width="198" height="62" viewBox="0 0 198 62" fill="none" xmlns="http://www.w3.org/2000/svg">
<g clip-path="url(#clip0_1_25)">
<path d="M41.4279 0.905951C42.781 2.25528 41.619 15.0644 41.9516 17.9198C42.3644 21.4364 48.3848 19.4067 50.6362 19.4487C51.3969 19.464 52.1232 19.873 52.8609 19.8921C55.7889 19.9571 59.4011 19.0512 61.2856 21.6772L61.3124 40.3385C61.0945 40.7743 60.8231 41.4088 60.437 41.6802C58.8354 42.8117 47.0469 41.6993 43.9469 42.0663C42.7658 42.2077 42.3224 42.5288 42.0701 43.7405C41.1374 48.2052 42.4179 52.8877 41.9669 57.402C41.6152 60.9493 40.7704 61.3506 37.3264 61.6411C34.7997 61.8552 23.8751 62.0196 21.9677 61.4271C20.5496 60.9875 19.9991 59.6114 19.8118 58.2583C19.399 55.3264 20.5305 43.924 19.1162 42.5288C17.9732 41.3974 5.4967 42.5288 2.69865 42.0701C-1.07412 41.4547 0.298144 37.3111 0.248452 34.7883C0.191115 31.7762 -0.3899 24.5976 0.424286 22.0901C0.764485 21.0389 1.63983 20.5343 2.69865 20.37C5.21766 19.9724 18.8753 20.9548 19.5748 19.9265C19.7201 19.7125 20.2056 15.5345 20.2514 14.793C20.2973 14.0514 19.831 13.2525 19.8577 12.5721C19.9571 9.94991 19.8768 5.55407 20.24 3.27588C20.3776 2.40818 21.2032 0.951821 21.9983 0.592509C23.0992 0.0955884 36.9785 0.168215 39.1077 0.344049C39.7957 0.401386 40.9348 0.420498 41.4241 0.909774L41.4279 0.905951ZM37.4334 24.8766C36.6116 24.0548 25.729 24.0281 24.8384 24.7276C24.2956 25.1519 24.2765 25.6832 24.1962 26.3024C23.9363 28.2825 23.9516 34.1041 24.1924 36.1147C24.3338 37.2958 24.6549 37.7393 25.8705 37.9915C27.5332 38.3394 36.474 38.3852 37.3608 37.6857C38.0488 37.1429 37.938 36.4205 38.0106 35.6713C38.1673 34.0659 38.2056 25.6411 37.4372 24.8728L37.4334 24.8766Z" fill="#CF5873"/>
<path d="M178.112 0.905951C179.465 2.25528 178.303 15.0644 178.635 17.9198C179.048 21.4364 185.069 19.4067 187.32 19.4487C188.081 19.464 188.807 19.873 189.545 19.8921C192.473 19.9571 196.085 19.0512 197.969 21.6772L197.996 40.3385C197.778 40.7743 197.507 41.4088 197.121 41.6802C195.519 42.8117 183.731 41.6993 180.631 42.0663C179.45 42.2077 179.006 42.5288 178.754 43.7405C177.821 48.2052 179.102 52.8877 178.651 57.402C178.299 60.9493 177.454 61.3506 174.01 61.6411C171.484 61.8552 160.559 62.0196 158.652 61.4271C157.233 60.9875 156.683 59.6114 156.496 58.2583C156.083 55.3264 157.214 43.924 155.8 42.5288C154.657 41.3974 142.181 42.5288 139.382 42.0701C135.61 41.4547 136.982 37.3111 136.932 34.7883C136.875 31.7762 136.294 24.5976 137.108 22.0901C137.448 21.0389 138.324 20.5343 139.382 20.37C141.901 19.9724 155.559 20.9548 156.259 19.9265C156.404 19.7125 156.889 15.5345 156.935 14.793C156.981 14.0514 156.515 13.2525 156.542 12.5721C156.641 9.94991 156.561 5.55407 156.924 3.27588C157.061 2.40818 157.887 0.951821 158.682 0.592509C159.783 0.0955884 173.662 0.168215 175.791 0.344049C176.48 0.401386 177.619 0.420498 178.108 0.909774L178.112 0.905951ZM174.117 24.8766C173.295 24.0548 162.413 24.0281 161.522 24.7276C160.979 25.1519 160.96 25.6832 160.88 26.3024C160.62 28.2825 160.635 34.1041 160.876 36.1147C161.018 37.2958 161.339 37.7393 162.554 37.9915C164.217 38.3394 173.158 38.3852 174.045 37.6857C174.733 37.1429 174.622 36.4205 174.694 35.6713C174.851 34.0659 174.889 25.6411 174.121 24.8728L174.117 24.8766Z" fill="#CF5873"/>
<path d="M97.7787 4.57892e-05C99.0975 -0.122273 102.924 3.72313 103.933 4.78578C110.045 11.2305 117.411 20.1177 122.797 27.2122C125.067 30.2052 122.781 31.543 120.943 34.2341C116.218 41.1527 106.765 53.916 100.772 59.3515C100.11 59.9478 99.1242 60.8308 98.1801 60.7543C97.3659 60.6855 91.4411 54.1377 90.3975 52.9527C84.251 45.9652 78.8995 38.1674 73.1506 30.855C73.6093 28.9935 74.7713 27.5065 75.8034 25.9584C78.7505 21.5435 83.066 15.8939 86.3954 11.6853C87.9397 9.73205 95.9783 0.172057 97.7787 4.57892e-05Z" fill="#0176DF"/>
</g>
<defs>
<clipPath id="clip0_1_25">
<rect width="198" height="61.8322" fill="white"/>
</clipPath>
</defs>
</svg>
