<svg width="198" height="62" viewBox="0 0 198 62" fill="none" xmlns="http://www.w3.org/2000/svg">
<g clip-path="url(#clip0_1_29)">
<path d="M110.532 8.79709C110.132 8.39193 109.485 8.18109 109.007 7.70152C106.461 5.16311 104.446 0.615459 99.9758 2.43865C98.1671 3.17868 91.1091 9.92987 89.152 11.7448C83.2889 17.1854 77.8295 23.147 72.193 28.8233C71.4432 29.4889 70.479 29.4765 69.7497 28.8233C61.6246 22.0638 54.6573 11.443 46.5651 5.02254C44.3114 3.23243 42.6344 1.77304 40.0263 3.99725C37.0927 6.50259 33.0013 12.2533 30.0512 15.3581C26.6767 18.9135 22.7254 22.2747 19.5075 25.9086C17.9294 27.6864 14.6085 30.8738 15.037 33.2469C15.1977 34.1275 19.046 38.2989 19.9813 39.3697C26.6932 47.0635 34.2703 53.8891 42.2183 60.2723L44.7563 60.3757C54.3565 52.5827 62.3621 42.582 71.6615 34.5492C72.8482 34.5078 74.4633 36.3476 75.2873 37.1868C80.2481 42.2512 84.8628 47.7994 89.6175 53.0622C93.54 54.9102 96.3953 62.3353 101.105 60.7023C110.738 52.2064 119.436 42.5778 128.628 33.5694C129.015 33.1725 129.44 33.0236 129.988 33.1683C130.841 33.3916 140.564 44.3969 142.056 46.0754C144.718 49.0768 152.633 59.8341 155.669 60.7477C156.576 61.0206 157.28 61.0826 158.215 60.8718C161.137 60.2227 169.513 49.0975 171.969 46.3234C175.199 42.6729 180.77 38.27 183.192 34.0531C183.975 32.6888 184.189 31.6717 183.835 30.0966C183.518 28.6992 176.785 21.2907 175.327 19.422C171.244 14.184 167.008 7.9165 162.175 3.32751C160.754 1.97975 159.167 0.503834 157.111 1.16117C155.162 1.78544 146.11 10.4177 143.955 12.4559C140.144 16.0651 135.142 22.5806 131.042 25.4332C128.105 27.4796 126.597 26.0492 124.331 24.0028C119.634 19.7611 115.105 13.4398 110.536 8.79295L110.532 8.79709ZM41.6373 43.6073C40.4383 43.4212 30.7928 33.7223 30.7681 32.8913C30.7475 32.1472 31.3202 31.5188 31.7199 30.9565C33.3515 28.6786 37.3069 24.3335 39.3547 22.2912C39.878 21.7703 41.8269 20.1001 42.4202 20.2034C45.1519 23.395 49.952 27.2151 52.2964 30.477C52.659 30.9813 53.31 31.68 53.1864 32.325C53.0422 33.0774 43.8169 43.1484 42.7415 43.4874C42.3419 43.6114 42.0658 43.6693 41.6414 43.6031L41.6373 43.6073ZM100.038 43.1401C98.3895 42.9003 95.0109 37.9516 93.7089 36.4716C92.5388 35.1445 88.5051 32.0108 88.6493 30.5018C88.7235 29.7452 96.0987 22.316 97.2853 21.3486C99.263 19.7362 100.816 18.004 103.235 20.1951L112.576 32.3332C110.676 34.268 102.209 43.4543 100.034 43.1401H100.038ZM156.506 41.6972L145.867 32.1596C144.8 29.8403 147.482 28.8191 148.508 27.5954C150.012 25.8012 154.721 19.1451 156.901 19.2029C157.684 19.2236 162.241 23.9656 163.119 24.9495C164.833 26.8719 168.1 29.6005 166.728 31.9487C166.052 33.1063 161.236 38.3899 160.016 39.6177C159.192 40.4446 157.791 42.0404 156.51 41.7014L156.506 41.6972Z" fill="#0176DF"/>
<path d="M100.038 43.1402C102.213 43.4544 110.676 34.2682 112.58 32.3333L103.239 20.1953C100.821 18.0041 99.2672 19.7405 97.2895 21.3487C96.1029 22.3161 88.7276 29.7453 88.6535 30.5019C88.5051 32.0109 92.543 35.1487 93.7131 36.4717C95.0151 37.9476 98.3896 42.9004 100.042 43.1402H100.038Z" fill="#CF5873"/>
<path d="M41.6374 43.6073C42.0618 43.6735 42.3378 43.6156 42.7375 43.4916C43.817 43.1526 53.0381 33.0816 53.1823 32.3292C53.3059 31.6842 52.6549 30.9855 52.2923 30.4812C49.9479 27.2193 45.1478 23.3992 42.4161 20.2076C41.8228 20.1043 39.8739 21.7745 39.3506 22.2954C37.3029 24.3377 33.3475 28.6828 31.7158 30.9607C31.3162 31.523 30.7435 32.1514 30.7641 32.8956C30.7847 33.7265 40.4343 43.4213 41.6333 43.6115L41.6374 43.6073Z" fill="#CF5873"/>
<path d="M156.506 41.6973C157.787 42.0363 159.188 40.4405 160.012 39.6137C161.232 38.3858 166.048 33.1023 166.724 31.9447C168.096 29.6006 164.828 26.8679 163.114 24.9455C162.237 23.9615 157.68 19.2196 156.897 19.1989C154.717 19.141 150.008 25.793 148.504 27.5914C147.478 28.8151 144.8 29.8362 145.863 32.1555L156.501 41.6932L156.506 41.6973Z" fill="#CF5873"/>
</g>
<defs>
<clipPath id="clip0_1_29">
<rect width="169" height="60" fill="white" transform="matrix(1 0 0 -1 15 61)"/>
</clipPath>
</defs>
</svg>
