<svg width="36" height="111" viewBox="0 0 36 111" fill="none" xmlns="http://www.w3.org/2000/svg">
<g clip-path="url(#clip0_1_63)">
<g clip-path="url(#clip1_1_63)">
<path d="M21.0513 38.909C20.0113 39.2371 21.249 43.524 20.4811 44.3994C19.9238 45.0335 19.4718 44.5902 18.9826 44.6265C18.0802 44.6928 14.7349 45.1549 14.4092 44.095C14.1144 43.1345 14.7397 39.909 13.9216 39.256C13.1699 38.6551 9.88292 39.6898 9.56378 38.5589L9.52166 30.0607C9.94448 28.6286 13.7337 29.5434 14.1031 29.026C14.3525 28.6775 14.1095 25.8227 14.1873 25.0782C14.3396 23.6334 14.6911 23.5025 16.1605 23.5073C17.0175 23.5104 18.4787 23.624 19.3373 23.7233C20.0987 23.8117 20.669 23.8984 20.7792 24.7012C20.8731 25.3794 20.8504 28.9267 21.1339 29.1191C22.0833 29.3541 25.3006 28.9487 25.8368 29.6695C25.9421 29.8115 25.9972 30.0418 26.0248 30.2184C26.2208 31.4739 26.3601 33.6521 26.4217 34.9628C26.446 35.4864 26.548 38.9106 25.9438 38.9106C25.0058 38.9106 21.6361 38.7261 21.0513 38.9106L21.0513 38.909ZM20.5815 36.3429C20.5199 36.163 20.7694 35.9454 20.7694 35.8855L20.7694 32.1285C20.5847 32.1884 20.3612 31.9455 20.2996 31.9455L15.0313 31.9455C14.3299 31.9455 14.6312 35.7388 14.7495 36.3429L20.5815 36.3429Z" fill="#03B5B2"/>
<path d="M24.0613 71.7077C24.6736 72.1352 25.9324 71.5421 26.1867 72.386C25.9729 74.0752 26.7197 80.3116 25.9324 81.4094C25.2536 82.3557 21.2246 81.2359 20.6722 82.1491C20.2105 82.9109 21.108 86.4676 20.3968 87.1947C19.94 87.6615 19.1818 87.253 18.6034 87.2641C18.1385 87.272 17.6979 87.4628 17.3074 87.4486C16.917 87.4344 15.0799 87.242 14.8726 87.1142C13.9151 86.5228 15.4558 82.3399 13.7223 82.1412C11.9889 81.9425 9.91854 83.0008 9.66582 80.7769C9.46656 79.0151 9.53136 76.5877 9.46818 74.7392C9.32724 70.5627 13.2704 72.826 14.0885 71.8923C14.7381 71.1494 14.0075 67.6905 14.7348 67.2079C15.3472 66.8009 20.9541 66.689 20.9541 67.5848L20.9541 71.7077L24.058 71.7077L24.0613 71.7077ZM15.1561 78.6381C15.3375 78.911 20.1959 78.9867 20.5831 78.7643C21.1744 78.4252 20.9687 76.1966 20.8747 75.5436C19.8282 75.3985 18.5791 75.2171 17.484 75.1808C17.0401 75.1666 15.3456 75.1099 15.1123 75.2692C14.6587 75.5767 15.0621 78.023 15.1561 78.6381Z" fill="#03B5B2"/>
<path d="M26.932 100.795C27.1442 101.566 26.8348 102.283 26.3228 102.861C24.0662 104.675 21.8759 107.459 19.6419 109.181C18.7525 109.868 18.1823 110.375 17.1001 109.637C15.1334 108.298 13.2736 105.407 11.1741 104.047C10.3333 102.735 8.23861 101.727 9.39368 99.934C11.2923 98.3142 12.7552 96.2133 14.5599 94.5209C15.0864 94.0289 17.0985 92.2403 17.6639 92.2087C18.2957 92.174 18.8902 92.7481 19.3616 93.1409C21.2425 94.7039 24.6753 97.9925 26.2289 99.8299C26.4443 100.084 26.8494 100.497 26.932 100.795Z" fill="#F4B23D"/>
<path d="M26.561 9.1717C26.7003 9.76475 26.663 10.4997 26.2256 10.9666C23.6854 12.987 21.6766 16.2614 19.1737 18.2077C18.4512 18.7692 18.3135 18.9664 17.4759 18.3859C15.8105 17.2298 13.2023 14.5706 11.639 13.0785C10.5552 12.0423 8.41841 10.5581 9.15065 8.99505C9.62046 7.99035 14.5534 3.31225 15.6874 2.35171C18.0559 0.347038 18.0753 0.687722 20.3045 2.62457C21.7997 3.92422 24.5667 6.46989 25.7591 7.94145C26.0118 8.25375 26.4767 8.80578 26.5626 9.17328L26.561 9.1717Z" fill="#F4B23D"/>
<path d="M11.2389 58.451C10.8809 58.0962 9.90723 57.1703 9.857 56.7571C9.78573 56.1798 10.134 55.7776 10.4532 55.3391C11.3669 54.0821 14.3752 51.5049 15.6858 50.3566C16.1362 49.9623 17.5991 48.6485 18.0543 48.6201C18.9307 48.5649 20.2737 50.3251 20.9541 50.9118C22.3441 52.109 23.8572 53.2288 25.1953 54.478C26.3439 55.5489 27.3791 56.0268 26.3067 57.5851C25.6489 58.541 19.9335 63.5061 18.8724 64.0865C17.7449 64.7017 17.1017 63.8973 16.2512 63.1891C14.6928 61.8926 12.7082 59.9068 11.2389 58.451Z" fill="#CF5873"/>
</g>
</g>
<defs>
<clipPath id="clip0_1_63">
<rect width="110.182" height="36" fill="white" transform="translate(36 1.57361e-06) rotate(90)"/>
</clipPath>
<clipPath id="clip1_1_63">
<rect width="109" height="18" fill="white" transform="translate(27 1) rotate(90)"/>
</clipPath>
</defs>
</svg>
