<svg width="569" height="550" viewBox="0 0 569 550" fill="none" xmlns="http://www.w3.org/2000/svg">
<path d="M355.864 148.429L407.492 102.613C446.398 69.6671 499.153 81.4398 521.098 127.107C546.778 180.515 511.312 217.879 467.394 242.967L436.346 256.727C465.466 256.904 499.213 258.713 526.02 270.723C580.406 295.129 582.037 366.922 535.094 400.372C500.577 424.956 450.075 404.168 414.698 389.815C422.052 408.972 437.888 425.43 444.916 444.646C460.721 487.823 444.708 529.576 400.019 543.81C328.434 566.644 298.334 499.892 286.235 442.363C273.573 506.179 234.785 576.282 158.811 538.887C119.637 519.612 110.296 479.697 127.318 441.295C135.502 422.82 150.359 408.527 157.802 389.786C124.412 401.707 66.2299 424.807 34.2625 403.486C3.42204 382.906 -8.32102 341.716 6.15029 307.702C26.6711 259.425 85.683 262.094 129.987 256.697L80.7011 230.216C35.0038 200.235 23.4386 136.982 68.098 100.448C124.085 54.6323 177.374 109.997 213.523 151.543C199.704 91.4333 200.505 10.1805 277.784 0.720759C360.401 -9.36171 373.389 88.6755 355.893 148.399L355.864 148.429Z" fill="#03B5B2"/>
<path d="M276.212 382.728C260.762 380.979 212.247 365.291 197.183 317.963C165.661 218.858 294.805 152.403 358.858 236.74C383.65 269.36 378.015 330.388 346.73 357.492C326.98 374.603 292.611 384.596 276.212 382.728Z" fill="#F4B23D"/>
</svg>
